<?xml version="1.0" encoding="utf-8" standalone="no"?>
<!DOCTYPE svg PUBLIC "-//W3C//DTD SVG 1.1//EN"
  "http://www.w3.org/Graphics/SVG/1.1/DTD/svg11.dtd">
<svg xmlns:xlink="http://www.w3.org/1999/xlink" width="720pt" height="216pt" viewBox="0 0 720 216" xmlns="http://www.w3.org/2000/svg" version="1.1">
 <metadata>
  <rdf:RDF xmlns:dc="http://purl.org/dc/elements/1.1/" xmlns:cc="http://creativecommons.org/ns#" xmlns:rdf="http://www.w3.org/1999/02/22-rdf-syntax-ns#">
   <cc:Work>
    <dc:type rdf:resource="http://purl.org/dc/dcmitype/StillImage"/>
    <dc:date>2025-03-23T22:26:10.172986</dc:date>
    <dc:format>image/svg+xml</dc:format>
    <dc:creator>
     <cc:Agent>
      <dc:title>Matplotlib v3.8.4, https://matplotlib.org/</dc:title>
     </cc:Agent>
    </dc:creator>
   </cc:Work>
  </rdf:RDF>
 </metadata>
 <defs>
  <style type="text/css">*{stroke-linejoin: round; stroke-linecap: butt}</style>
 </defs>
 <g id="figure_1">
  <g id="patch_1">
   <path d="M 0 216 
L 720 216 
L 720 0 
L 0 0 
z
" style="fill: #ffffff"/>
  </g>
  <g id="axes_1">
   <g id="patch_2">
    <path d="M 33.73 85.52 
L 141.84 85.52 
L 141.84 25.44 
L 33.73 25.44 
z
" style="fill: #ffffff"/>
   </g>
   <g id="matplotlib.axis_1">
    <g id="xtick_1">
     <g id="line2d_1">
      <defs>
       <path id="m2a26cb769a" d="M 0 0 
L 0 3.5 
" style="stroke: #000000; stroke-width: 0.8"/>
      </defs>
      <g>
       <use xlink:href="#m2a26cb769a" x="38.644091" y="85.52" style="stroke: #000000; stroke-width: 0.8"/>
      </g>
     </g>
     <g id="text_1">
      <text style="font: 10px 'DejaVu Sans', 'Bitstream Vera Sans', 'Computer Modern Sans Serif', 'Lucida Grande', 'Verdana', 'Geneva', 'Lucid', 'Arial', 'Helvetica', 'Avant Garde', sans-serif; text-anchor: middle" x="38.644091" y="100.118438" transform="rotate(-0 38.644091 100.118438)">0</text>
     </g>
    </g>
    <g id="xtick_2">
     <g id="line2d_2">
      <g>
       <use xlink:href="#m2a26cb769a" x="83.935251" y="85.52" style="stroke: #000000; stroke-width: 0.8"/>
      </g>
     </g>
     <g id="text_2">
      <text style="font: 10px 'DejaVu Sans', 'Bitstream Vera Sans', 'Computer Modern Sans Serif', 'Lucida Grande', 'Verdana', 'Geneva', 'Lucid', 'Arial', 'Helvetica', 'Avant Garde', sans-serif; text-anchor: middle" x="83.935251" y="100.118438" transform="rotate(-0 83.935251 100.118438)">200</text>
     </g>
    </g>
    <g id="xtick_3">
     <g id="line2d_3">
      <g>
       <use xlink:href="#m2a26cb769a" x="129.226412" y="85.52" style="stroke: #000000; stroke-width: 0.8"/>
      </g>
     </g>
     <g id="text_3">
      <text style="font: 10px 'DejaVu Sans', 'Bitstream Vera Sans', 'Computer Modern Sans Serif', 'Lucida Grande', 'Verdana', 'Geneva', 'Lucid', 'Arial', 'Helvetica', 'Avant Garde', sans-serif; text-anchor: middle" x="129.226412" y="100.118438" transform="rotate(-0 129.226412 100.118438)">400</text>
     </g>
    </g>
   </g>
   <g id="matplotlib.axis_2">
    <g id="ytick_1">
     <g id="line2d_4">
      <defs>
       <path id="m221187989f" d="M 0 0 
L -3.5 0 
" style="stroke: #000000; stroke-width: 0.8"/>
      </defs>
      <g>
       <use xlink:href="#m221187989f" x="33.73" y="84.542682" style="stroke: #000000; stroke-width: 0.8"/>
      </g>
     </g>
     <g id="text_4">
      <text style="font: 10px 'DejaVu Sans', 'Bitstream Vera Sans', 'Computer Modern Sans Serif', 'Lucida Grande', 'Verdana', 'Geneva', 'Lucid', 'Arial', 'Helvetica', 'Avant Garde', sans-serif; text-anchor: end" x="26.73" y="88.341901" transform="rotate(-0 26.73 88.341901)">0.0</text>
     </g>
    </g>
    <g id="ytick_2">
     <g id="line2d_5">
      <g>
       <use xlink:href="#m221187989f" x="33.73" y="53.561527" style="stroke: #000000; stroke-width: 0.8"/>
      </g>
     </g>
     <g id="text_5">
      <text style="font: 10px 'DejaVu Sans', 'Bitstream Vera Sans', 'Computer Modern Sans Serif', 'Lucida Grande', 'Verdana', 'Geneva', 'Lucid', 'Arial', 'Helvetica', 'Avant Garde', sans-serif; text-anchor: end" x="26.73" y="57.360746" transform="rotate(-0 26.73 57.360746)">0.5</text>
     </g>
    </g>
   </g>
   <g id="line2d_6">
    <path d="M 38.644091 82.78526 
L 40.002826 82.184984 
L 41.135105 81.409968 
L 42.040928 80.525045 
L 42.946751 79.314405 
L 43.852574 77.670715 
L 44.758398 75.464111 
L 45.664221 72.548861 
L 46.570044 68.789528 
L 47.702323 62.861944 
L 49.513969 52.823639 
L 50.419793 49.078604 
L 51.325616 46.228031 
L 52.457895 43.5144 
L 53.590174 41.40622 
L 54.948909 39.386408 
L 56.534099 37.482177 
L 58.345746 35.705358 
L 60.383848 34.045095 
L 62.648406 32.492655 
L 65.365876 30.912258 
L 68.536257 29.343676 
L 71.253726 28.170909 
L 71.480182 60.827978 
L 72.386005 67.130631 
L 73.065373 70.507429 
L 73.74474 73.103662 
L 74.424108 74.964255 
L 75.103475 76.268826 
L 75.782842 77.043149 
L 76.235754 77.318665 
L 76.688666 77.39861 
L 77.141577 77.284565 
L 77.594489 76.998044 
L 78.273856 76.221637 
L 78.953224 75.025957 
L 79.632591 73.420031 
L 80.538414 70.677901 
L 82.576517 64.101004 
L 83.48234 61.991194 
L 84.388163 60.35328 
L 85.520442 58.775376 
L 86.879177 57.300271 
L 88.237912 56.125887 
L 90.049558 54.86785 
L 92.08766 53.713421 
L 95.031586 52.402004 
L 97.522599 51.447763 
L 104.089818 49.580253 
L 104.316274 53.526692 
L 106.580832 55.767073 
L 108.84539 57.71902 
L 111.336403 59.567112 
L 113.827417 61.135135 
L 116.318431 62.453552 
L 119.035901 63.638883 
L 121.75337 64.590331 
L 124.697296 65.388573 
L 127.867677 66.011366 
L 131.264514 66.441762 
L 134.887807 66.668023 
L 136.925909 66.702543 
L 136.925909 66.702543 
" clip-path="url(#p2e60420b9f)" style="fill: none; stroke: #0000ff; stroke-width: 1.5; stroke-linecap: square"/>
   </g>
   <g id="line2d_7">
    <path d="M 38.644091 82.789091 
L 39.77637 82.307877 
L 40.455737 81.905913 
L 41.588016 81.018379 
L 42.49384 79.866363 
L 44.07903 77.002337 
L 45.664221 72.373453 
L 46.343588 69.565195 
L 47.702323 63.147607 
L 48.608146 57.643735 
L 49.287514 54.004094 
L 51.09916 47.15427 
L 51.552072 46.042157 
L 52.457895 43.84161 
L 52.910806 42.809596 
L 53.363718 42.118934 
L 54.043085 40.664384 
L 54.495997 40.202382 
L 55.854732 38.266447 
L 56.307643 37.850507 
L 56.760555 37.3354 
L 57.213467 36.918673 
L 57.439922 36.910119 
L 57.892834 36.130325 
L 58.345746 35.345503 
L 59.025113 35.10018 
L 59.478025 34.466689 
L 59.930936 34.294329 
L 60.157392 34.176197 
L 61.063215 33.223252 
L 61.516127 33.071549 
L 61.969039 32.990918 
L 62.648406 32.306106 
L 63.101318 32.066684 
L 63.327773 32.036869 
L 63.780685 31.748918 
L 64.007141 31.771048 
L 64.912964 31.254954 
L 65.365876 30.996612 
L 66.045243 30.806572 
L 66.271699 30.748869 
L 66.951066 30.19472 
L 67.856889 29.961939 
L 68.309801 29.469929 
L 68.989168 29.271986 
L 69.215624 29.174174 
L 69.668536 28.744532 
L 69.894992 28.689606 
L 70.121447 29.028321 
L 70.574359 28.463011 
L 71.027271 28.246861 
L 71.253726 28.466498 
L 71.480182 60.511513 
L 72.15955 65.617382 
L 73.065373 70.544554 
L 73.971196 73.751123 
L 74.877019 75.935001 
L 75.556387 76.715831 
L 76.46221 77.312542 
L 77.141577 77.240127 
L 78.047401 76.439372 
L 78.273856 76.24242 
L 79.406135 74.006399 
L 80.085503 72.184746 
L 82.350061 64.613602 
L 82.802972 63.618391 
L 84.161707 60.829819 
L 85.973354 58.341961 
L 86.879177 57.567082 
L 89.143735 55.59528 
L 91.408293 54.176536 
L 92.314116 53.691374 
L 92.540572 53.548508 
L 92.993483 53.525695 
L 93.219939 53.179468 
L 93.672851 53.043247 
L 93.899307 53.007482 
L 94.352218 52.669664 
L 94.80513 52.679315 
L 95.484497 52.563373 
L 96.163865 52.131674 
L 96.616776 51.742742 
L 97.522599 51.745837 
L 97.749055 51.807606 
L 98.201967 51.487203 
L 98.428423 51.57005 
L 98.654879 51.496805 
L 99.334246 50.809837 
L 99.787158 50.597228 
L 100.919437 49.731635 
L 101.598804 49.675513 
L 101.82526 49.671694 
L 102.278171 49.922823 
L 102.957539 50.119444 
L 103.41045 49.616351 
L 103.636906 49.955339 
L 104.089818 49.642909 
L 104.316274 52.82005 
L 104.769185 53.600457 
L 105.222097 54.174588 
L 107.486655 56.265938 
L 108.166022 56.893737 
L 108.618934 57.156332 
L 109.524757 57.896151 
L 111.336403 59.314129 
L 111.789315 59.389043 
L 113.374506 60.540634 
L 115.412608 61.70417 
L 116.091975 61.872232 
L 116.318431 61.939381 
L 116.997798 62.555015 
L 117.45071 62.580478 
L 117.677166 62.484483 
L 117.903622 62.75609 
L 118.130078 62.85 
L 118.356533 63.206028 
L 118.582989 63.293166 
L 119.035901 63.148216 
L 119.262357 63.483677 
L 120.16818 63.954126 
L 120.394636 63.8513 
L 120.621091 64.073912 
L 121.300459 64.118281 
L 121.526915 64.339525 
L 122.885649 64.642915 
L 123.338561 64.990418 
L 123.565017 64.997688 
L 123.791473 64.876103 
L 124.244384 65.14575 
L 125.376663 65.375879 
L 125.603119 65.253024 
L 125.829575 65.348424 
L 126.056031 65.316215 
L 126.282486 65.597411 
L 126.508942 65.592242 
L 126.735398 65.716492 
L 126.961854 65.427496 
L 128.094133 65.918304 
L 128.320589 65.727166 
L 128.547044 65.758298 
L 128.999956 65.984646 
L 129.452868 65.955131 
L 129.679323 65.89264 
L 130.132235 66.039509 
L 131.038058 66.100178 
L 131.264514 66.159537 
L 131.49097 66.100032 
L 131.717426 66.272759 
L 132.849705 66.218251 
L 133.07616 66.151425 
L 133.529072 66.3479 
L 133.755528 66.135651 
L 133.981984 66.468342 
L 134.434895 66.514644 
L 135.114263 66.174059 
L 136.020086 66.713043 
L 136.246542 66.695626 
L 136.472997 66.550105 
L 136.699453 66.586434 
L 136.925909 67.029467 
L 136.925909 67.029467 
" clip-path="url(#p2e60420b9f)" style="fill: none; stroke: #ffa500; stroke-width: 1.5; stroke-linecap: square"/>
   </g>
   <g id="patch_3">
    <path d="M 33.73 85.52 
L 33.73 25.44 
" style="fill: none; stroke: #000000; stroke-width: 0.8; stroke-linejoin: miter; stroke-linecap: square"/>
   </g>
   <g id="patch_4">
    <path d="M 141.84 85.52 
L 141.84 25.44 
" style="fill: none; stroke: #000000; stroke-width: 0.8; stroke-linejoin: miter; stroke-linecap: square"/>
   </g>
   <g id="patch_5">
    <path d="M 33.73 85.52 
L 141.84 85.52 
" style="fill: none; stroke: #000000; stroke-width: 0.8; stroke-linejoin: miter; stroke-linecap: square"/>
   </g>
   <g id="patch_6">
    <path d="M 33.73 25.44 
L 141.84 25.44 
" style="fill: none; stroke: #000000; stroke-width: 0.8; stroke-linejoin: miter; stroke-linecap: square"/>
   </g>
   <g id="text_6">
    <text style="font: 12px 'DejaVu Sans', 'Bitstream Vera Sans', 'Computer Modern Sans Serif', 'Lucida Grande', 'Verdana', 'Geneva', 'Lucid', 'Arial', 'Helvetica', 'Avant Garde', sans-serif; text-anchor: middle" x="87.785" y="19.44" transform="rotate(-0 87.785 19.44)">Training 1</text>
   </g>
  </g>
  <g id="axes_2">
   <g id="patch_7">
    <path d="M 175.57 85.52 
L 283.68 85.52 
L 283.68 25.44 
L 175.57 25.44 
z
" style="fill: #ffffff"/>
   </g>
   <g id="matplotlib.axis_3">
    <g id="xtick_4">
     <g id="line2d_8">
      <g>
       <use xlink:href="#m2a26cb769a" x="180.484091" y="85.52" style="stroke: #000000; stroke-width: 0.8"/>
      </g>
     </g>
     <g id="text_7">
      <text style="font: 10px 'DejaVu Sans', 'Bitstream Vera Sans', 'Computer Modern Sans Serif', 'Lucida Grande', 'Verdana', 'Geneva', 'Lucid', 'Arial', 'Helvetica', 'Avant Garde', sans-serif; text-anchor: middle" x="180.484091" y="100.118438" transform="rotate(-0 180.484091 100.118438)">0</text>
     </g>
    </g>
    <g id="xtick_5">
     <g id="line2d_9">
      <g>
       <use xlink:href="#m2a26cb769a" x="225.775251" y="85.52" style="stroke: #000000; stroke-width: 0.8"/>
      </g>
     </g>
     <g id="text_8">
      <text style="font: 10px 'DejaVu Sans', 'Bitstream Vera Sans', 'Computer Modern Sans Serif', 'Lucida Grande', 'Verdana', 'Geneva', 'Lucid', 'Arial', 'Helvetica', 'Avant Garde', sans-serif; text-anchor: middle" x="225.775251" y="100.118438" transform="rotate(-0 225.775251 100.118438)">200</text>
     </g>
    </g>
    <g id="xtick_6">
     <g id="line2d_10">
      <g>
       <use xlink:href="#m2a26cb769a" x="271.066412" y="85.52" style="stroke: #000000; stroke-width: 0.8"/>
      </g>
     </g>
     <g id="text_9">
      <text style="font: 10px 'DejaVu Sans', 'Bitstream Vera Sans', 'Computer Modern Sans Serif', 'Lucida Grande', 'Verdana', 'Geneva', 'Lucid', 'Arial', 'Helvetica', 'Avant Garde', sans-serif; text-anchor: middle" x="271.066412" y="100.118438" transform="rotate(-0 271.066412 100.118438)">400</text>
     </g>
    </g>
   </g>
   <g id="matplotlib.axis_4">
    <g id="ytick_3">
     <g id="line2d_11">
      <g>
       <use xlink:href="#m221187989f" x="175.57" y="84.722946" style="stroke: #000000; stroke-width: 0.8"/>
      </g>
     </g>
     <g id="text_10">
      <text style="font: 10px 'DejaVu Sans', 'Bitstream Vera Sans', 'Computer Modern Sans Serif', 'Lucida Grande', 'Verdana', 'Geneva', 'Lucid', 'Arial', 'Helvetica', 'Avant Garde', sans-serif; text-anchor: end" x="168.57" y="88.522165" transform="rotate(-0 168.57 88.522165)">0.0</text>
     </g>
    </g>
    <g id="ytick_4">
     <g id="line2d_12">
      <g>
       <use xlink:href="#m221187989f" x="175.57" y="53.710726" style="stroke: #000000; stroke-width: 0.8"/>
      </g>
     </g>
     <g id="text_11">
      <text style="font: 10px 'DejaVu Sans', 'Bitstream Vera Sans', 'Computer Modern Sans Serif', 'Lucida Grande', 'Verdana', 'Geneva', 'Lucid', 'Arial', 'Helvetica', 'Avant Garde', sans-serif; text-anchor: end" x="168.57" y="57.509945" transform="rotate(-0 168.57 57.509945)">0.5</text>
     </g>
    </g>
   </g>
   <g id="line2d_13">
    <path d="M 180.484091 82.766365 
L 181.61637 82.240751 
L 182.748649 81.459951 
L 183.654472 80.572214 
L 184.560295 79.361994 
L 185.466119 77.725091 
L 186.371942 75.53444 
L 187.277765 72.648764 
L 188.183588 68.936466 
L 189.315867 63.08704 
L 191.353969 52.052809 
L 192.259793 48.52754 
L 193.165616 45.832319 
L 194.297895 43.243227 
L 195.430174 41.207404 
L 196.788909 39.245292 
L 198.374099 37.38391 
L 200.185746 35.638135 
L 202.223848 34.001409 
L 204.488406 32.465265 
L 207.205876 30.898086 
L 210.376257 29.338803 
L 213.093726 28.170909 
L 213.320182 59.018136 
L 214.226005 65.820196 
L 214.905373 69.428211 
L 215.58474 72.166936 
L 216.264108 74.086145 
L 216.943475 75.37849 
L 217.396387 75.900165 
L 217.849298 76.188267 
L 218.30221 76.260009 
L 218.755121 76.101568 
L 219.208033 75.727464 
L 219.887401 74.774182 
L 220.566768 73.315606 
L 221.246135 71.378763 
L 222.151959 68.078248 
L 224.190061 60.094348 
L 225.095884 57.507905 
L 226.001707 55.505634 
L 227.133986 53.563211 
L 228.492721 51.767671 
L 229.851456 50.322787 
L 231.436646 48.970556 
L 233.474749 47.526067 
L 235.286395 46.48788 
L 240.041967 44.227638 
L 245.929818 42.285707 
L 246.156274 48.465113 
L 248.420832 51.267737 
L 250.68539 53.716521 
L 252.949948 55.847483 
L 255.214506 57.69319 
L 257.705519 59.428711 
L 260.196533 60.888901 
L 262.687547 62.104416 
L 265.405017 63.183177 
L 268.348942 64.095455 
L 271.292868 64.774371 
L 274.463249 65.278385 
L 277.860086 65.592074 
L 278.765909 65.64039 
L 278.765909 65.64039 
" clip-path="url(#p55d94ca945)" style="fill: none; stroke: #0000ff; stroke-width: 1.5; stroke-linecap: square"/>
   </g>
   <g id="line2d_14">
    <path d="M 180.484091 82.789091 
L 181.842826 82.144849 
L 183.201561 81.044181 
L 183.880928 80.338239 
L 184.786751 78.995747 
L 185.91903 76.805444 
L 187.277765 72.838873 
L 187.957132 70.274028 
L 189.542323 62.096639 
L 190.674602 55.629714 
L 192.259793 48.854002 
L 193.165616 46.111117 
L 193.844983 44.322383 
L 194.750806 42.628395 
L 195.883085 40.567304 
L 197.694732 38.284463 
L 198.600555 37.417777 
L 201.544481 34.580047 
L 201.997392 34.339553 
L 202.67676 33.802469 
L 203.129671 33.410289 
L 204.035494 32.847929 
L 204.714862 32.382583 
L 205.167773 32.206257 
L 206.752964 31.337039 
L 209.923345 29.81653 
L 210.829168 29.438026 
L 211.28208 29.120362 
L 211.734992 28.868962 
L 211.961447 28.918509 
L 212.414359 28.63834 
L 212.640815 28.597962 
L 212.867271 28.428394 
L 213.093726 28.418712 
L 213.320182 58.534552 
L 214.226005 65.559759 
L 215.131829 70.178858 
L 216.037652 73.379093 
L 216.717019 74.916252 
L 217.396387 75.837842 
L 218.075754 76.172103 
L 218.528666 76.131654 
L 218.981577 75.927541 
L 219.660945 75.162988 
L 220.793224 72.871932 
L 221.246135 71.484845 
L 222.378414 67.250955 
L 223.963605 60.864048 
L 225.095884 57.66777 
L 226.228163 55.122109 
L 228.039809 52.286323 
L 228.266265 52.073242 
L 228.719177 51.463043 
L 232.34247 48.277841 
L 232.568925 48.223529 
L 233.248293 47.628299 
L 233.701204 47.422383 
L 234.380572 47.019135 
L 237.550953 45.485853 
L 238.683232 45.167165 
L 240.721334 44.127381 
L 241.174246 44.229749 
L 241.400702 44.166084 
L 241.627158 43.977788 
L 242.080069 43.810871 
L 244.797539 42.892512 
L 245.023995 42.886154 
L 245.25045 42.742794 
L 245.703362 42.752125 
L 245.929818 42.896387 
L 246.156274 47.757322 
L 246.609185 48.172348 
L 247.062097 48.911002 
L 247.741464 49.689545 
L 249.100199 51.382701 
L 249.326655 51.545019 
L 250.006022 52.444331 
L 250.68539 53.279955 
L 251.364757 54.014636 
L 252.044124 54.580233 
L 254.535138 56.833493 
L 254.98805 57.210302 
L 255.440961 57.631153 
L 255.667417 57.726242 
L 256.346785 58.452315 
L 257.705519 59.341157 
L 258.158431 59.526996 
L 260.649445 61.098451 
L 260.875901 61.09253 
L 261.102357 61.3978 
L 261.328812 61.479224 
L 261.781724 61.892915 
L 262.00818 62.028166 
L 262.234636 61.986339 
L 262.687547 62.266978 
L 264.046282 62.77181 
L 264.725649 62.942256 
L 265.178561 63.375556 
L 265.405017 63.390721 
L 265.631473 63.274987 
L 265.857928 63.425992 
L 266.537296 63.438837 
L 266.990207 63.808925 
L 267.216663 63.964001 
L 267.896031 63.9861 
L 268.122486 64.152732 
L 268.348942 64.136556 
L 268.575398 64.369519 
L 268.801854 64.304674 
L 269.481221 64.647296 
L 270.387044 64.810404 
L 271.292868 65.075805 
L 271.745779 65.087606 
L 273.104514 65.283966 
L 273.783881 65.571019 
L 274.010337 65.488826 
L 274.689705 65.628942 
L 275.142616 65.540258 
L 275.369072 65.707221 
L 275.595528 65.616376 
L 276.048439 65.717103 
L 276.954263 65.794641 
L 277.407174 65.904422 
L 277.860086 66.200521 
L 278.539453 66.071796 
L 278.765909 66.358623 
L 278.765909 66.358623 
" clip-path="url(#p55d94ca945)" style="fill: none; stroke: #ffa500; stroke-width: 1.5; stroke-linecap: square"/>
   </g>
   <g id="patch_8">
    <path d="M 175.57 85.52 
L 175.57 25.44 
" style="fill: none; stroke: #000000; stroke-width: 0.8; stroke-linejoin: miter; stroke-linecap: square"/>
   </g>
   <g id="patch_9">
    <path d="M 283.68 85.52 
L 283.68 25.44 
" style="fill: none; stroke: #000000; stroke-width: 0.8; stroke-linejoin: miter; stroke-linecap: square"/>
   </g>
   <g id="patch_10">
    <path d="M 175.57 85.52 
L 283.68 85.52 
" style="fill: none; stroke: #000000; stroke-width: 0.8; stroke-linejoin: miter; stroke-linecap: square"/>
   </g>
   <g id="patch_11">
    <path d="M 175.57 25.44 
L 283.68 25.44 
" style="fill: none; stroke: #000000; stroke-width: 0.8; stroke-linejoin: miter; stroke-linecap: square"/>
   </g>
   <g id="text_12">
    <text style="font: 12px 'DejaVu Sans', 'Bitstream Vera Sans', 'Computer Modern Sans Serif', 'Lucida Grande', 'Verdana', 'Geneva', 'Lucid', 'Arial', 'Helvetica', 'Avant Garde', sans-serif; text-anchor: middle" x="229.625" y="19.44" transform="rotate(-0 229.625 19.44)">Training 2</text>
   </g>
  </g>
  <g id="axes_3">
   <g id="patch_12">
    <path d="M 317.41 85.52 
L 425.52 85.52 
L 425.52 25.44 
L 317.41 25.44 
z
" style="fill: #ffffff"/>
   </g>
   <g id="matplotlib.axis_5">
    <g id="xtick_7">
     <g id="line2d_15">
      <g>
       <use xlink:href="#m2a26cb769a" x="322.324091" y="85.52" style="stroke: #000000; stroke-width: 0.8"/>
      </g>
     </g>
     <g id="text_13">
      <text style="font: 10px 'DejaVu Sans', 'Bitstream Vera Sans', 'Computer Modern Sans Serif', 'Lucida Grande', 'Verdana', 'Geneva', 'Lucid', 'Arial', 'Helvetica', 'Avant Garde', sans-serif; text-anchor: middle" x="322.324091" y="100.118438" transform="rotate(-0 322.324091 100.118438)">0</text>
     </g>
    </g>
    <g id="xtick_8">
     <g id="line2d_16">
      <g>
       <use xlink:href="#m2a26cb769a" x="367.615251" y="85.52" style="stroke: #000000; stroke-width: 0.8"/>
      </g>
     </g>
     <g id="text_14">
      <text style="font: 10px 'DejaVu Sans', 'Bitstream Vera Sans', 'Computer Modern Sans Serif', 'Lucida Grande', 'Verdana', 'Geneva', 'Lucid', 'Arial', 'Helvetica', 'Avant Garde', sans-serif; text-anchor: middle" x="367.615251" y="100.118438" transform="rotate(-0 367.615251 100.118438)">200</text>
     </g>
    </g>
    <g id="xtick_9">
     <g id="line2d_17">
      <g>
       <use xlink:href="#m2a26cb769a" x="412.906412" y="85.52" style="stroke: #000000; stroke-width: 0.8"/>
      </g>
     </g>
     <g id="text_15">
      <text style="font: 10px 'DejaVu Sans', 'Bitstream Vera Sans', 'Computer Modern Sans Serif', 'Lucida Grande', 'Verdana', 'Geneva', 'Lucid', 'Arial', 'Helvetica', 'Avant Garde', sans-serif; text-anchor: middle" x="412.906412" y="100.118438" transform="rotate(-0 412.906412 100.118438)">400</text>
     </g>
    </g>
   </g>
   <g id="matplotlib.axis_6">
    <g id="ytick_5">
     <g id="line2d_18">
      <g>
       <use xlink:href="#m221187989f" x="317.41" y="84.883048" style="stroke: #000000; stroke-width: 0.8"/>
      </g>
     </g>
     <g id="text_16">
      <text style="font: 10px 'DejaVu Sans', 'Bitstream Vera Sans', 'Computer Modern Sans Serif', 'Lucida Grande', 'Verdana', 'Geneva', 'Lucid', 'Arial', 'Helvetica', 'Avant Garde', sans-serif; text-anchor: end" x="310.41" y="88.682267" transform="rotate(-0 310.41 88.682267)">0.0</text>
     </g>
    </g>
    <g id="ytick_6">
     <g id="line2d_19">
      <g>
       <use xlink:href="#m221187989f" x="317.41" y="53.532228" style="stroke: #000000; stroke-width: 0.8"/>
      </g>
     </g>
     <g id="text_17">
      <text style="font: 10px 'DejaVu Sans', 'Bitstream Vera Sans', 'Computer Modern Sans Serif', 'Lucida Grande', 'Verdana', 'Geneva', 'Lucid', 'Arial', 'Helvetica', 'Avant Garde', sans-serif; text-anchor: end" x="310.41" y="57.331447" transform="rotate(-0 310.41 57.331447)">0.5</text>
     </g>
    </g>
   </g>
   <g id="line2d_20">
    <path d="M 322.324091 82.768547 
L 323.682826 82.10883 
L 324.815105 81.282928 
L 325.720928 80.363715 
L 326.626751 79.134673 
L 327.532574 77.503051 
L 328.438398 75.359173 
L 329.344221 72.582267 
L 330.250044 69.060951 
L 331.382323 63.562805 
L 333.646881 51.840479 
L 334.552704 48.44038 
L 335.458527 45.804564 
L 336.590806 43.242591 
L 337.723085 41.221626 
L 339.08182 39.263605 
L 340.667011 37.399966 
L 342.478657 35.649806 
L 344.51676 34.006317 
L 346.781318 32.463141 
L 349.498787 30.887914 
L 352.669168 29.320434 
L 354.933726 28.333052 
L 355.160182 57.894021 
L 356.066005 65.400158 
L 356.745373 69.329521 
L 357.42474 72.277918 
L 358.104108 74.333464 
L 358.783475 75.718924 
L 359.236387 76.29121 
L 359.689298 76.627161 
L 360.14221 76.749054 
L 360.595121 76.648632 
L 361.048033 76.343976 
L 361.727401 75.523973 
L 362.406768 74.243613 
L 363.086135 72.530052 
L 363.991959 69.566257 
L 366.935884 58.817551 
L 367.841707 56.584601 
L 368.973986 54.43938 
L 370.106265 52.779415 
L 371.465 51.175571 
L 372.823735 49.883478 
L 374.635381 48.462752 
L 376.673483 47.142091 
L 379.843865 45.525036 
L 382.108423 44.471803 
L 387.769818 42.563271 
L 387.996274 45.671905 
L 390.260832 48.744324 
L 392.52539 51.421639 
L 394.789948 53.745615 
L 397.054506 55.753853 
L 399.319064 57.479864 
L 401.810078 59.088099 
L 404.301091 60.426294 
L 406.792105 61.525562 
L 409.509575 62.484345 
L 412.4535 63.274967 
L 415.397426 63.840719 
L 418.567807 64.232325 
L 420.605909 64.379186 
L 420.605909 64.379186 
" clip-path="url(#p3e7d85fa89)" style="fill: none; stroke: #0000ff; stroke-width: 1.5; stroke-linecap: square"/>
   </g>
   <g id="line2d_21">
    <path d="M 322.324091 82.789091 
L 323.909282 81.97544 
L 324.588649 81.4885 
L 325.947384 80.118883 
L 326.400295 79.529552 
L 327.532574 77.456109 
L 328.211942 75.897975 
L 328.891309 73.97733 
L 329.344221 72.538665 
L 330.702956 67.033201 
L 332.514602 57.062165 
L 334.552704 48.324692 
L 335.684983 45.119796 
L 338.175997 40.467627 
L 339.308276 38.991727 
L 339.987643 38.165183 
L 342.705113 35.407606 
L 344.969671 33.660407 
L 346.554862 32.535152 
L 347.234229 32.130865 
L 347.687141 31.922752 
L 348.140052 31.531864 
L 348.81942 31.357727 
L 349.272331 30.985562 
L 349.498787 31.019508 
L 350.857522 30.177134 
L 351.536889 29.926267 
L 352.216257 29.501675 
L 352.669168 29.401627 
L 353.12208 29.131764 
L 353.348536 29.172059 
L 353.574992 28.916588 
L 354.707271 28.554764 
L 354.933726 28.170909 
L 355.160182 57.512528 
L 356.066005 65.127885 
L 356.745373 69.1206 
L 357.651196 72.791635 
L 358.557019 75.167167 
L 359.236387 76.178527 
L 359.915754 76.583974 
L 360.368666 76.624895 
L 360.821577 76.503955 
L 361.727401 75.509421 
L 361.953856 75.213132 
L 363.086135 72.497264 
L 364.218414 68.876132 
L 366.482972 60.447935 
L 367.16234 58.593948 
L 368.068163 56.459812 
L 369.426898 54.07826 
L 369.653354 53.853687 
L 370.106265 53.223631 
L 370.559177 52.655381 
L 371.238544 51.937029 
L 372.144367 51.014022 
L 373.956014 49.618395 
L 374.861837 48.837551 
L 378.032218 47.067554 
L 378.258674 47.064105 
L 379.164497 46.49785 
L 380.523232 45.986698 
L 380.976144 45.815063 
L 382.108423 45.203471 
L 382.561334 45.133927 
L 383.014246 45.063105 
L 384.146525 44.660847 
L 384.372981 44.501873 
L 384.599437 44.484364 
L 384.825892 44.31361 
L 385.052348 44.339995 
L 387.09045 43.592646 
L 387.316906 43.673312 
L 387.769818 43.346024 
L 387.996274 45.280298 
L 388.449185 45.778179 
L 388.675641 46.355578 
L 390.260832 48.353865 
L 390.940199 49.179893 
L 391.166655 49.39385 
L 391.846022 50.378205 
L 392.298934 50.795012 
L 392.978301 51.660573 
L 393.884124 52.558297 
L 394.563492 53.284785 
L 396.148682 54.84293 
L 396.601594 55.149158 
L 397.733873 56.148485 
L 397.960329 56.252066 
L 398.41324 56.672603 
L 399.092608 57.101895 
L 400.224887 57.893118 
L 401.13071 58.63099 
L 401.357166 58.676242 
L 401.583622 58.994608 
L 401.810078 58.948835 
L 402.715901 59.430795 
L 402.942357 59.728982 
L 403.168812 59.725074 
L 403.84818 60.20433 
L 404.074636 60.209327 
L 404.301091 60.44471 
L 404.980459 60.662713 
L 405.206915 60.878227 
L 405.886282 61.155832 
L 406.339194 61.414084 
L 406.565649 61.375399 
L 407.245017 61.735007 
L 407.471473 61.752185 
L 407.924384 62.12068 
L 408.377296 62.132268 
L 409.056663 62.495366 
L 409.736031 62.464032 
L 409.962486 62.63923 
L 410.188942 62.661942 
L 410.415398 62.89924 
L 410.641854 62.812764 
L 410.86831 62.93729 
L 411.547677 63.021246 
L 412.000589 63.159732 
L 414.944514 63.775594 
L 415.17097 63.794423 
L 415.397426 64.032319 
L 416.982616 64.083442 
L 417.209072 64.250737 
L 417.435528 64.196208 
L 417.661984 64.407764 
L 418.341351 64.495004 
L 418.794263 64.51208 
L 419.247174 64.491407 
L 419.700086 64.689355 
L 420.379453 64.436651 
L 420.605909 64.701111 
L 420.605909 64.701111 
" clip-path="url(#p3e7d85fa89)" style="fill: none; stroke: #ffa500; stroke-width: 1.5; stroke-linecap: square"/>
   </g>
   <g id="patch_13">
    <path d="M 317.41 85.52 
L 317.41 25.44 
" style="fill: none; stroke: #000000; stroke-width: 0.8; stroke-linejoin: miter; stroke-linecap: square"/>
   </g>
   <g id="patch_14">
    <path d="M 425.52 85.52 
L 425.52 25.44 
" style="fill: none; stroke: #000000; stroke-width: 0.8; stroke-linejoin: miter; stroke-linecap: square"/>
   </g>
   <g id="patch_15">
    <path d="M 317.41 85.52 
L 425.52 85.52 
" style="fill: none; stroke: #000000; stroke-width: 0.8; stroke-linejoin: miter; stroke-linecap: square"/>
   </g>
   <g id="patch_16">
    <path d="M 317.41 25.44 
L 425.52 25.44 
" style="fill: none; stroke: #000000; stroke-width: 0.8; stroke-linejoin: miter; stroke-linecap: square"/>
   </g>
   <g id="text_18">
    <text style="font: 12px 'DejaVu Sans', 'Bitstream Vera Sans', 'Computer Modern Sans Serif', 'Lucida Grande', 'Verdana', 'Geneva', 'Lucid', 'Arial', 'Helvetica', 'Avant Garde', sans-serif; text-anchor: middle" x="371.465" y="19.44" transform="rotate(-0 371.465 19.44)">Training 3</text>
   </g>
  </g>
  <g id="axes_4">
   <g id="patch_17">
    <path d="M 459.25 85.52 
L 567.36 85.52 
L 567.36 25.44 
L 459.25 25.44 
z
" style="fill: #ffffff"/>
   </g>
   <g id="matplotlib.axis_7">
    <g id="xtick_10">
     <g id="line2d_22">
      <g>
       <use xlink:href="#m2a26cb769a" x="464.164091" y="85.52" style="stroke: #000000; stroke-width: 0.8"/>
      </g>
     </g>
     <g id="text_19">
      <text style="font: 10px 'DejaVu Sans', 'Bitstream Vera Sans', 'Computer Modern Sans Serif', 'Lucida Grande', 'Verdana', 'Geneva', 'Lucid', 'Arial', 'Helvetica', 'Avant Garde', sans-serif; text-anchor: middle" x="464.164091" y="100.118438" transform="rotate(-0 464.164091 100.118438)">0</text>
     </g>
    </g>
    <g id="xtick_11">
     <g id="line2d_23">
      <g>
       <use xlink:href="#m2a26cb769a" x="509.455251" y="85.52" style="stroke: #000000; stroke-width: 0.8"/>
      </g>
     </g>
     <g id="text_20">
      <text style="font: 10px 'DejaVu Sans', 'Bitstream Vera Sans', 'Computer Modern Sans Serif', 'Lucida Grande', 'Verdana', 'Geneva', 'Lucid', 'Arial', 'Helvetica', 'Avant Garde', sans-serif; text-anchor: middle" x="509.455251" y="100.118438" transform="rotate(-0 509.455251 100.118438)">200</text>
     </g>
    </g>
    <g id="xtick_12">
     <g id="line2d_24">
      <g>
       <use xlink:href="#m2a26cb769a" x="554.746412" y="85.52" style="stroke: #000000; stroke-width: 0.8"/>
      </g>
     </g>
     <g id="text_21">
      <text style="font: 10px 'DejaVu Sans', 'Bitstream Vera Sans', 'Computer Modern Sans Serif', 'Lucida Grande', 'Verdana', 'Geneva', 'Lucid', 'Arial', 'Helvetica', 'Avant Garde', sans-serif; text-anchor: middle" x="554.746412" y="100.118438" transform="rotate(-0 554.746412 100.118438)">400</text>
     </g>
    </g>
   </g>
   <g id="matplotlib.axis_8">
    <g id="ytick_7">
     <g id="line2d_25">
      <g>
       <use xlink:href="#m221187989f" x="459.25" y="84.750857" style="stroke: #000000; stroke-width: 0.8"/>
      </g>
     </g>
     <g id="text_22">
      <text style="font: 10px 'DejaVu Sans', 'Bitstream Vera Sans', 'Computer Modern Sans Serif', 'Lucida Grande', 'Verdana', 'Geneva', 'Lucid', 'Arial', 'Helvetica', 'Avant Garde', sans-serif; text-anchor: end" x="452.25" y="88.550076" transform="rotate(-0 452.25 88.550076)">0.0</text>
     </g>
    </g>
    <g id="ytick_8">
     <g id="line2d_26">
      <g>
       <use xlink:href="#m221187989f" x="459.25" y="55.171532" style="stroke: #000000; stroke-width: 0.8"/>
      </g>
     </g>
     <g id="text_23">
      <text style="font: 10px 'DejaVu Sans', 'Bitstream Vera Sans', 'Computer Modern Sans Serif', 'Lucida Grande', 'Verdana', 'Geneva', 'Lucid', 'Arial', 'Helvetica', 'Avant Garde', sans-serif; text-anchor: end" x="452.25" y="58.970751" transform="rotate(-0 452.25 58.970751)">0.5</text>
     </g>
    </g>
    <g id="ytick_9">
     <g id="line2d_27">
      <g>
       <use xlink:href="#m221187989f" x="459.25" y="25.592208" style="stroke: #000000; stroke-width: 0.8"/>
      </g>
     </g>
     <g id="text_24">
      <text style="font: 10px 'DejaVu Sans', 'Bitstream Vera Sans', 'Computer Modern Sans Serif', 'Lucida Grande', 'Verdana', 'Geneva', 'Lucid', 'Arial', 'Helvetica', 'Avant Garde', sans-serif; text-anchor: end" x="452.25" y="29.391426" transform="rotate(-0 452.25 29.391426)">1.0</text>
     </g>
    </g>
   </g>
   <g id="line2d_28">
    <path d="M 464.164091 82.779106 
L 465.069914 82.262503 
L 465.975737 81.501324 
L 466.881561 80.38351 
L 467.560928 79.219997 
L 468.240295 77.686923 
L 468.919663 75.688494 
L 469.59903 73.117382 
L 470.504853 68.638263 
L 471.637132 61.429957 
L 472.769411 54.27977 
L 473.675235 50.06401 
L 474.581058 47.022797 
L 475.486881 44.721775 
L 476.61916 42.488045 
L 477.977895 40.39308 
L 479.33663 38.704994 
L 480.92182 37.074183 
L 482.733467 35.515927 
L 484.998025 33.882648 
L 487.489039 32.365848 
L 490.432964 30.837083 
L 493.829801 29.323816 
L 496.773726 28.170909 
L 497.000182 59.800493 
L 497.906005 65.067262 
L 498.811829 68.868121 
L 499.491196 71.000251 
L 500.170563 72.506031 
L 500.849931 73.462074 
L 501.302842 73.763869 
L 501.755754 73.832874 
L 502.208666 73.633787 
L 502.661577 73.152794 
L 503.340945 71.945105 
L 504.020312 70.14511 
L 506.058414 64.133189 
L 506.964238 62.365846 
L 508.096517 60.700478 
L 509.455251 59.17726 
L 510.813986 57.962052 
L 512.625633 56.662137 
L 514.437279 55.621269 
L 517.154749 54.346072 
L 519.645762 53.443637 
L 523.495511 52.2174 
L 529.609818 50.76053 
L 529.836274 52.613466 
L 532.327287 55.110809 
L 534.818301 57.277214 
L 537.309315 59.144809 
L 539.800329 60.742802 
L 542.517798 62.209434 
L 545.235268 63.41712 
L 547.952738 64.393177 
L 550.896663 65.217301 
L 554.067044 65.863965 
L 557.463881 66.312655 
L 560.860718 66.539833 
L 562.445909 66.577892 
L 562.445909 66.577892 
" clip-path="url(#pd4987e2e6c)" style="fill: none; stroke: #0000ff; stroke-width: 1.5; stroke-linecap: square"/>
   </g>
   <g id="line2d_29">
    <path d="M 464.164091 82.789091 
L 465.069914 82.273056 
L 465.975737 81.485629 
L 466.655105 80.691911 
L 467.560928 79.181748 
L 468.466751 76.903662 
L 469.146119 74.818045 
L 469.59903 73.197606 
L 470.504853 68.297226 
L 471.637132 61.065926 
L 472.542956 55.17246 
L 473.222323 51.762871 
L 473.675235 49.798866 
L 474.128146 48.292754 
L 474.354602 47.270148 
L 474.807514 46.113052 
L 475.713337 44.057194 
L 476.166248 43.183522 
L 476.845616 41.939464 
L 477.977895 40.223011 
L 480.015997 37.839223 
L 480.468909 37.347864 
L 480.92182 36.794731 
L 481.148276 36.765101 
L 481.827643 36.160919 
L 482.507011 35.468645 
L 484.545113 34.007021 
L 485.224481 33.435732 
L 485.677392 33.408076 
L 486.583215 32.755418 
L 487.489039 32.31761 
L 491.112331 30.386694 
L 491.565243 30.298075 
L 493.150434 29.544199 
L 493.603345 29.384786 
L 494.056257 28.965907 
L 494.509168 28.843839 
L 494.96208 28.641055 
L 495.188536 28.652258 
L 495.414992 28.548628 
L 495.641447 28.575892 
L 495.867903 28.354994 
L 496.547271 28.364628 
L 496.773726 28.504657 
L 497.000182 59.466093 
L 497.67955 63.734558 
L 498.585373 67.828432 
L 499.491196 70.755291 
L 500.170563 72.241441 
L 500.849931 73.200242 
L 501.302842 73.554638 
L 501.755754 73.599736 
L 502.208666 73.395614 
L 502.888033 72.517728 
L 503.340945 71.572581 
L 504.246768 69.015002 
L 505.379047 65.675654 
L 506.28487 63.379896 
L 507.190693 61.882338 
L 507.417149 61.616956 
L 507.870061 60.827057 
L 510.58753 58.147986 
L 511.493354 57.644213 
L 511.719809 57.26992 
L 512.399177 56.90447 
L 513.078544 56.599024 
L 514.663735 55.615874 
L 515.343102 55.436884 
L 516.02247 54.949587 
L 516.475381 54.687359 
L 516.928293 54.472004 
L 517.381204 54.356224 
L 518.060572 54.121412 
L 518.513483 53.942704 
L 518.966395 53.688357 
L 519.645762 53.55538 
L 520.551586 53.298928 
L 521.004497 53.207721 
L 521.91032 52.81144 
L 522.136776 52.603674 
L 523.042599 52.577559 
L 523.269055 52.695977 
L 523.948423 52.559971 
L 524.401334 52.239879 
L 525.080702 51.644094 
L 526.212981 51.258638 
L 526.665892 50.903035 
L 527.118804 50.874854 
L 527.571716 50.818401 
L 528.251083 50.718368 
L 528.477539 50.834205 
L 528.93045 50.521409 
L 529.156906 50.810806 
L 529.383362 50.876254 
L 529.609818 51.083633 
L 529.836274 52.483881 
L 531.64792 54.396739 
L 532.327287 54.945514 
L 533.006655 55.578395 
L 533.912478 56.258111 
L 534.591845 56.957845 
L 535.271213 57.433899 
L 536.177036 58.18777 
L 536.629948 58.473757 
L 537.988682 59.467022 
L 538.441594 59.752171 
L 539.120961 60.261947 
L 539.347417 60.282707 
L 539.573873 60.49537 
L 540.479696 60.740182 
L 540.932608 61.224256 
L 541.159064 61.352606 
L 541.385519 61.65074 
L 542.064887 61.786308 
L 542.517798 62.05563 
L 544.329445 62.801907 
L 544.555901 62.72064 
L 544.782357 62.940897 
L 545.461724 62.998697 
L 546.594003 63.863861 
L 546.820459 63.875742 
L 547.046915 64.055122 
L 547.726282 64.121225 
L 548.179194 64.281542 
L 548.405649 64.188311 
L 548.858561 64.533621 
L 549.311473 64.562885 
L 549.537928 64.800749 
L 550.670207 64.876307 
L 551.123119 64.836135 
L 551.576031 65.283762 
L 551.802486 65.480476 
L 552.028942 65.378096 
L 552.255398 65.569452 
L 552.481854 65.47087 
L 553.161221 65.722645 
L 553.614133 65.945872 
L 553.840589 65.823561 
L 554.519956 65.948497 
L 554.746412 65.925731 
L 555.425779 66.30796 
L 555.652235 66.166266 
L 556.105147 66.210547 
L 557.237426 66.496775 
L 557.916793 66.509545 
L 558.143249 66.765375 
L 558.822616 66.657609 
L 559.049072 66.711892 
L 559.275528 66.437231 
L 559.954895 66.600972 
L 560.181351 66.661313 
L 560.860718 66.510786 
L 561.31363 66.549813 
L 561.540086 66.633171 
L 561.992997 66.587709 
L 562.445909 66.90112 
L 562.445909 66.90112 
" clip-path="url(#pd4987e2e6c)" style="fill: none; stroke: #ffa500; stroke-width: 1.5; stroke-linecap: square"/>
   </g>
   <g id="patch_18">
    <path d="M 459.25 85.52 
L 459.25 25.44 
" style="fill: none; stroke: #000000; stroke-width: 0.8; stroke-linejoin: miter; stroke-linecap: square"/>
   </g>
   <g id="patch_19">
    <path d="M 567.36 85.52 
L 567.36 25.44 
" style="fill: none; stroke: #000000; stroke-width: 0.8; stroke-linejoin: miter; stroke-linecap: square"/>
   </g>
   <g id="patch_20">
    <path d="M 459.25 85.52 
L 567.36 85.52 
" style="fill: none; stroke: #000000; stroke-width: 0.8; stroke-linejoin: miter; stroke-linecap: square"/>
   </g>
   <g id="patch_21">
    <path d="M 459.25 25.44 
L 567.36 25.44 
" style="fill: none; stroke: #000000; stroke-width: 0.8; stroke-linejoin: miter; stroke-linecap: square"/>
   </g>
   <g id="text_25">
    <text style="font: 12px 'DejaVu Sans', 'Bitstream Vera Sans', 'Computer Modern Sans Serif', 'Lucida Grande', 'Verdana', 'Geneva', 'Lucid', 'Arial', 'Helvetica', 'Avant Garde', sans-serif; text-anchor: middle" x="513.305" y="19.44" transform="rotate(-0 513.305 19.44)">Training 4</text>
   </g>
  </g>
  <g id="axes_5">
   <g id="patch_22">
    <path d="M 601.09 85.52 
L 709.2 85.52 
L 709.2 25.44 
L 601.09 25.44 
z
" style="fill: #ffffff"/>
   </g>
   <g id="matplotlib.axis_9">
    <g id="xtick_13">
     <g id="line2d_30">
      <g>
       <use xlink:href="#m2a26cb769a" x="606.004091" y="85.52" style="stroke: #000000; stroke-width: 0.8"/>
      </g>
     </g>
     <g id="text_26">
      <text style="font: 10px 'DejaVu Sans', 'Bitstream Vera Sans', 'Computer Modern Sans Serif', 'Lucida Grande', 'Verdana', 'Geneva', 'Lucid', 'Arial', 'Helvetica', 'Avant Garde', sans-serif; text-anchor: middle" x="606.004091" y="100.118438" transform="rotate(-0 606.004091 100.118438)">0</text>
     </g>
    </g>
    <g id="xtick_14">
     <g id="line2d_31">
      <g>
       <use xlink:href="#m2a26cb769a" x="651.295251" y="85.52" style="stroke: #000000; stroke-width: 0.8"/>
      </g>
     </g>
     <g id="text_27">
      <text style="font: 10px 'DejaVu Sans', 'Bitstream Vera Sans', 'Computer Modern Sans Serif', 'Lucida Grande', 'Verdana', 'Geneva', 'Lucid', 'Arial', 'Helvetica', 'Avant Garde', sans-serif; text-anchor: middle" x="651.295251" y="100.118438" transform="rotate(-0 651.295251 100.118438)">200</text>
     </g>
    </g>
    <g id="xtick_15">
     <g id="line2d_32">
      <g>
       <use xlink:href="#m2a26cb769a" x="696.586412" y="85.52" style="stroke: #000000; stroke-width: 0.8"/>
      </g>
     </g>
     <g id="text_28">
      <text style="font: 10px 'DejaVu Sans', 'Bitstream Vera Sans', 'Computer Modern Sans Serif', 'Lucida Grande', 'Verdana', 'Geneva', 'Lucid', 'Arial', 'Helvetica', 'Avant Garde', sans-serif; text-anchor: middle" x="696.586412" y="100.118438" transform="rotate(-0 696.586412 100.118438)">400</text>
     </g>
    </g>
   </g>
   <g id="matplotlib.axis_10">
    <g id="ytick_10">
     <g id="line2d_33">
      <g>
       <use xlink:href="#m221187989f" x="601.09" y="84.537644" style="stroke: #000000; stroke-width: 0.8"/>
      </g>
     </g>
     <g id="text_29">
      <text style="font: 10px 'DejaVu Sans', 'Bitstream Vera Sans', 'Computer Modern Sans Serif', 'Lucida Grande', 'Verdana', 'Geneva', 'Lucid', 'Arial', 'Helvetica', 'Avant Garde', sans-serif; text-anchor: end" x="594.09" y="88.336863" transform="rotate(-0 594.09 88.336863)">0.0</text>
     </g>
    </g>
    <g id="ytick_11">
     <g id="line2d_34">
      <g>
       <use xlink:href="#m221187989f" x="601.09" y="54.65911" style="stroke: #000000; stroke-width: 0.8"/>
      </g>
     </g>
     <g id="text_30">
      <text style="font: 10px 'DejaVu Sans', 'Bitstream Vera Sans', 'Computer Modern Sans Serif', 'Lucida Grande', 'Verdana', 'Geneva', 'Lucid', 'Arial', 'Helvetica', 'Avant Garde', sans-serif; text-anchor: end" x="594.09" y="58.458328" transform="rotate(-0 594.09 58.458328)">0.5</text>
     </g>
    </g>
   </g>
   <g id="line2d_35">
    <path d="M 606.004091 82.772967 
L 607.13637 82.213447 
L 608.042193 81.542507 
L 608.948016 80.580829 
L 609.85384 79.210569 
L 610.533207 77.823711 
L 611.212574 76.043314 
L 612.118398 72.908931 
L 613.024221 68.731602 
L 614.1565 62.054546 
L 615.515235 53.905436 
L 616.421058 49.880864 
L 617.326881 46.925073 
L 618.232704 44.663235 
L 619.364983 42.454777 
L 620.723718 40.370056 
L 622.082453 38.687708 
L 623.667643 37.059318 
L 625.47929 35.503716 
L 627.743848 33.872501 
L 630.234862 32.359164 
L 633.178787 30.835049 
L 636.575624 29.32875 
L 638.613726 28.522266 
L 638.840182 61.841879 
L 639.746005 67.112136 
L 640.651829 70.84669 
L 641.331196 72.913571 
L 642.010563 74.379957 
L 642.689931 75.339577 
L 643.142842 75.68519 
L 643.595754 75.831504 
L 644.048666 75.754831 
L 644.501577 75.446419 
L 644.954489 74.924714 
L 645.633856 73.702932 
L 646.313224 71.964219 
L 647.445503 68.264057 
L 648.577782 64.79166 
L 649.483605 62.728156 
L 650.389428 61.182204 
L 651.521707 59.679027 
L 652.880442 58.281256 
L 654.465633 56.989399 
L 656.050823 55.953238 
L 658.315381 54.741702 
L 660.353483 53.868622 
L 664.882599 52.260498 
L 671.449818 50.605672 
L 671.676274 51.610167 
L 673.940832 53.982923 
L 676.431845 56.257504 
L 678.922859 58.215028 
L 681.413873 59.887613 
L 683.904887 61.304078 
L 686.622357 62.587464 
L 689.339826 63.626599 
L 692.283752 64.507289 
L 695.227677 65.161992 
L 698.398058 65.643872 
L 701.794895 65.934527 
L 704.285909 66.016233 
L 704.285909 66.016233 
" clip-path="url(#p991f1c7745)" style="fill: none; stroke: #0000ff; stroke-width: 1.5; stroke-linecap: square"/>
   </g>
   <g id="line2d_36">
    <path d="M 606.004091 82.789091 
L 607.13637 82.230197 
L 607.815737 81.761379 
L 608.721561 80.861198 
L 609.400928 79.966628 
L 610.306751 78.364634 
L 610.986119 76.57334 
L 611.891942 73.593663 
L 612.571309 70.625981 
L 613.250677 67.29232 
L 614.1565 61.78007 
L 615.062323 56.2253 
L 615.74169 52.602659 
L 617.100425 47.359865 
L 617.779793 45.607339 
L 618.45916 44.034452 
L 620.497262 40.560851 
L 622.988276 37.709916 
L 625.026378 35.80337 
L 625.47929 35.442916 
L 625.932202 35.069458 
L 628.423215 33.378936 
L 631.140685 31.832506 
L 637.254992 28.869513 
L 637.481447 29.148783 
L 637.707903 28.887511 
L 638.160815 28.830568 
L 638.387271 28.669094 
L 638.613726 28.170909 
L 638.840182 61.462972 
L 639.746005 66.820893 
L 640.878284 71.266421 
L 641.557652 73.217611 
L 642.463475 74.789534 
L 642.916387 75.297247 
L 643.595754 75.544806 
L 644.048666 75.491587 
L 644.501577 75.194987 
L 645.180945 74.29911 
L 646.313224 71.681915 
L 647.445503 68.01778 
L 648.351326 65.138216 
L 649.030693 63.363532 
L 650.615884 60.629151 
L 651.295251 59.695691 
L 651.748163 59.183695 
L 651.974619 58.996312 
L 652.42753 58.379107 
L 653.106898 57.722217 
L 653.333354 57.634649 
L 653.786265 57.335962 
L 655.145 56.262448 
L 655.371456 56.186446 
L 655.824367 55.833652 
L 658.088925 54.804848 
L 658.541837 54.356713 
L 660.806395 53.589537 
L 661.259307 53.609711 
L 661.938674 53.27477 
L 662.844497 52.915239 
L 663.297409 52.64617 
L 663.523865 52.667886 
L 664.203232 52.175303 
L 665.335511 52.154905 
L 665.561967 51.983119 
L 665.788423 52.035492 
L 666.014879 51.96582 
L 666.46779 51.58127 
L 667.147158 51.60492 
L 668.052981 51.178391 
L 668.505892 50.901893 
L 669.638171 51.019403 
L 670.77045 50.657268 
L 670.996906 50.720145 
L 671.223362 50.518055 
L 671.449818 50.51439 
L 671.676274 50.978781 
L 671.902729 51.08078 
L 672.355641 51.705189 
L 673.714376 53.140262 
L 674.167287 53.591578 
L 676.658301 55.92644 
L 678.696403 57.637425 
L 679.375771 58.11529 
L 680.055138 58.616311 
L 680.50805 58.957747 
L 680.960961 59.291085 
L 681.187417 59.350702 
L 681.640329 59.622749 
L 682.09324 59.91014 
L 682.319696 59.983376 
L 682.772608 60.384692 
L 685.037166 61.501316 
L 685.263622 61.802694 
L 685.490078 61.791211 
L 685.942989 62.077799 
L 686.169445 62.14935 
L 686.395901 62.08977 
L 686.622357 62.384755 
L 687.075268 62.564862 
L 689.566282 63.612574 
L 690.245649 63.6811 
L 690.698561 64.032176 
L 691.83084 64.121162 
L 693.189575 64.64156 
L 693.416031 64.584028 
L 693.642486 64.742416 
L 693.868942 64.683538 
L 694.095398 64.875633 
L 694.321854 64.805989 
L 694.54831 64.939973 
L 694.774765 64.930965 
L 695.227677 65.06353 
L 695.454133 65.083838 
L 695.680589 64.917587 
L 696.1335 64.998816 
L 696.359956 65.113602 
L 696.586412 65.087216 
L 697.492235 65.347544 
L 698.398058 65.56958 
L 698.85097 65.452197 
L 699.303881 65.557302 
L 699.756793 65.553019 
L 699.983249 65.811492 
L 700.43616 65.889454 
L 700.889072 66.09011 
L 701.115528 65.844323 
L 701.341984 65.962783 
L 701.794895 65.964546 
L 702.247807 66.006632 
L 703.15363 66.027105 
L 703.380086 66.117879 
L 704.059453 65.943467 
L 704.285909 66.295928 
L 704.285909 66.295928 
" clip-path="url(#p991f1c7745)" style="fill: none; stroke: #ffa500; stroke-width: 1.5; stroke-linecap: square"/>
   </g>
   <g id="patch_23">
    <path d="M 601.09 85.52 
L 601.09 25.44 
" style="fill: none; stroke: #000000; stroke-width: 0.8; stroke-linejoin: miter; stroke-linecap: square"/>
   </g>
   <g id="patch_24">
    <path d="M 709.2 85.52 
L 709.2 25.44 
" style="fill: none; stroke: #000000; stroke-width: 0.8; stroke-linejoin: miter; stroke-linecap: square"/>
   </g>
   <g id="patch_25">
    <path d="M 601.09 85.52 
L 709.2 85.52 
" style="fill: none; stroke: #000000; stroke-width: 0.8; stroke-linejoin: miter; stroke-linecap: square"/>
   </g>
   <g id="patch_26">
    <path d="M 601.09 25.44 
L 709.2 25.44 
" style="fill: none; stroke: #000000; stroke-width: 0.8; stroke-linejoin: miter; stroke-linecap: square"/>
   </g>
   <g id="text_31">
    <text style="font: 12px 'DejaVu Sans', 'Bitstream Vera Sans', 'Computer Modern Sans Serif', 'Lucida Grande', 'Verdana', 'Geneva', 'Lucid', 'Arial', 'Helvetica', 'Avant Garde', sans-serif; text-anchor: middle" x="655.145" y="19.44" transform="rotate(-0 655.145 19.44)">Training 5</text>
   </g>
  </g>
  <g id="axes_6">
   <g id="patch_27">
    <path d="M 33.73 188.12 
L 141.84 188.12 
L 141.84 128.04 
L 33.73 128.04 
z
" style="fill: #ffffff"/>
   </g>
   <g id="matplotlib.axis_11">
    <g id="xtick_16">
     <g id="line2d_37">
      <g>
       <use xlink:href="#m2a26cb769a" x="38.644091" y="188.12" style="stroke: #000000; stroke-width: 0.8"/>
      </g>
     </g>
     <g id="text_32">
      <text style="font: 10px 'DejaVu Sans', 'Bitstream Vera Sans', 'Computer Modern Sans Serif', 'Lucida Grande', 'Verdana', 'Geneva', 'Lucid', 'Arial', 'Helvetica', 'Avant Garde', sans-serif; text-anchor: middle" x="38.644091" y="202.718437" transform="rotate(-0 38.644091 202.718437)">0</text>
     </g>
    </g>
    <g id="xtick_17">
     <g id="line2d_38">
      <g>
       <use xlink:href="#m2a26cb769a" x="83.935251" y="188.12" style="stroke: #000000; stroke-width: 0.8"/>
      </g>
     </g>
     <g id="text_33">
      <text style="font: 10px 'DejaVu Sans', 'Bitstream Vera Sans', 'Computer Modern Sans Serif', 'Lucida Grande', 'Verdana', 'Geneva', 'Lucid', 'Arial', 'Helvetica', 'Avant Garde', sans-serif; text-anchor: middle" x="83.935251" y="202.718437" transform="rotate(-0 83.935251 202.718437)">200</text>
     </g>
    </g>
    <g id="xtick_18">
     <g id="line2d_39">
      <g>
       <use xlink:href="#m2a26cb769a" x="129.226412" y="188.12" style="stroke: #000000; stroke-width: 0.8"/>
      </g>
     </g>
     <g id="text_34">
      <text style="font: 10px 'DejaVu Sans', 'Bitstream Vera Sans', 'Computer Modern Sans Serif', 'Lucida Grande', 'Verdana', 'Geneva', 'Lucid', 'Arial', 'Helvetica', 'Avant Garde', sans-serif; text-anchor: middle" x="129.226412" y="202.718437" transform="rotate(-0 129.226412 202.718437)">400</text>
     </g>
    </g>
   </g>
   <g id="matplotlib.axis_12">
    <g id="ytick_12">
     <g id="line2d_40">
      <g>
       <use xlink:href="#m221187989f" x="33.73" y="187.292357" style="stroke: #000000; stroke-width: 0.8"/>
      </g>
     </g>
     <g id="text_35">
      <text style="font: 10px 'DejaVu Sans', 'Bitstream Vera Sans', 'Computer Modern Sans Serif', 'Lucida Grande', 'Verdana', 'Geneva', 'Lucid', 'Arial', 'Helvetica', 'Avant Garde', sans-serif; text-anchor: end" x="26.73" y="191.091576" transform="rotate(-0 26.73 191.091576)">0.0</text>
     </g>
    </g>
    <g id="ytick_13">
     <g id="line2d_41">
      <g>
       <use xlink:href="#m221187989f" x="33.73" y="156.615543" style="stroke: #000000; stroke-width: 0.8"/>
      </g>
     </g>
     <g id="text_36">
      <text style="font: 10px 'DejaVu Sans', 'Bitstream Vera Sans', 'Computer Modern Sans Serif', 'Lucida Grande', 'Verdana', 'Geneva', 'Lucid', 'Arial', 'Helvetica', 'Avant Garde', sans-serif; text-anchor: end" x="26.73" y="160.414762" transform="rotate(-0 26.73 160.414762)">0.5</text>
     </g>
    </g>
   </g>
   <g id="line2d_42">
    <path d="M 38.644091 185.380136 
L 39.77637 184.852473 
L 40.908649 184.061669 
L 41.814472 183.155604 
L 42.720295 181.912196 
L 43.626119 180.220131 
L 44.531942 177.943709 
L 45.437765 174.933169 
L 46.343588 171.054687 
L 47.475867 164.987157 
L 49.061058 156.15357 
L 49.966881 152.317147 
L 50.872704 149.408096 
L 51.778527 147.151759 
L 52.910806 144.916522 
L 54.269541 142.803741 
L 55.628276 141.090715 
L 57.213467 139.431606 
L 59.025113 137.84578 
L 61.289671 136.182839 
L 63.780685 134.641174 
L 66.72461 133.089759 
L 70.121447 131.558439 
L 71.253726 131.09549 
L 71.480182 162.455746 
L 72.386005 168.946231 
L 73.065373 172.420566 
L 73.74474 175.084879 
L 74.424108 176.977529 
L 75.103475 178.280493 
L 75.782842 179.013757 
L 76.235754 179.240196 
L 76.688666 179.251654 
L 77.141577 179.047788 
L 77.594489 178.650679 
L 78.273856 177.666965 
L 78.953224 176.214389 
L 79.859047 173.590072 
L 82.576517 164.574367 
L 83.48234 162.575572 
L 84.614619 160.666401 
L 85.746898 159.201104 
L 87.105633 157.793498 
L 88.690823 156.483837 
L 90.728925 155.133731 
L 92.767028 154.036957 
L 97.069688 152.178698 
L 98.881334 151.606618 
L 104.089818 150.093532 
L 104.316274 138.546176 
L 106.580832 142.676304 
L 108.84539 146.309937 
L 111.109948 149.497396 
L 113.374506 152.2843 
L 115.639064 154.711564 
L 117.903622 156.815889 
L 120.16818 158.630258 
L 122.659194 160.326314 
L 125.150207 161.742193 
L 127.641221 162.90906 
L 130.358691 163.929977 
L 133.07616 164.718595 
L 136.020086 165.342413 
L 136.925909 165.49077 
L 136.925909 165.49077 
" clip-path="url(#p1bb803d8c4)" style="fill: none; stroke: #0000ff; stroke-width: 1.5; stroke-linecap: square"/>
   </g>
   <g id="line2d_43">
    <path d="M 38.644091 185.389091 
L 40.002826 184.746693 
L 40.908649 184.045327 
L 41.814472 183.09994 
L 42.720295 181.900862 
L 43.852574 179.638739 
L 44.531942 177.878138 
L 45.211309 175.707104 
L 45.664221 174.049421 
L 46.7965 168.547176 
L 48.38169 159.378655 
L 50.193337 151.154822 
L 50.646248 149.879852 
L 51.325616 147.974743 
L 52.004983 146.20379 
L 52.684351 145.078711 
L 53.137262 144.26051 
L 53.81663 143.304131 
L 56.081188 140.494604 
L 57.213467 139.352499 
L 57.666378 138.965841 
L 58.345746 138.308341 
L 58.572202 138.253673 
L 59.251569 137.636642 
L 60.157392 136.818865 
L 60.610304 136.494116 
L 62.42195 135.321204 
L 62.874862 135.001198 
L 63.101318 134.93203 
L 63.327773 134.987448 
L 64.007141 134.407739 
L 64.460052 134.061435 
L 65.365876 133.704264 
L 67.177522 132.75737 
L 67.630434 132.553173 
L 68.083345 132.474362 
L 69.215624 131.778201 
L 69.668536 131.697163 
L 69.894992 131.459855 
L 70.121447 131.661028 
L 70.347903 131.547084 
L 70.574359 131.672036 
L 70.800815 131.661379 
L 71.027271 131.442846 
L 71.253726 130.770909 
L 71.480182 162.708817 
L 72.386005 169.100719 
L 73.291829 173.328704 
L 74.197652 176.252754 
L 75.103475 178.10626 
L 75.556387 178.654842 
L 76.235754 179.002641 
L 76.688666 179.019407 
L 77.141577 178.821204 
L 78.047401 177.705824 
L 78.500312 176.868497 
L 79.17968 175.324609 
L 80.76487 169.974728 
L 82.350061 164.711755 
L 82.802972 163.615733 
L 83.48234 161.99475 
L 85.06753 159.522721 
L 87.332088 157.000859 
L 88.237912 156.372607 
L 88.917279 155.865529 
L 89.596646 155.414802 
L 89.823102 155.405955 
L 90.728925 154.861021 
L 91.181837 154.260964 
L 92.314116 153.858253 
L 92.767028 153.572552 
L 93.446395 153.209701 
L 96.843232 151.835741 
L 97.069688 151.907403 
L 97.522599 151.638824 
L 97.975511 151.260347 
L 98.201967 151.095663 
L 98.654879 151.230693 
L 100.013613 150.813273 
L 100.466525 150.486724 
L 100.692981 150.446085 
L 100.919437 150.519414 
L 102.051716 150.240637 
L 102.504627 149.981651 
L 102.957539 149.888446 
L 103.183995 150.153403 
L 103.41045 150.219561 
L 103.863362 149.961596 
L 104.089818 149.52844 
L 104.316274 138.565437 
L 104.542729 138.541045 
L 104.769185 138.905754 
L 105.448553 140.460035 
L 105.901464 141.169603 
L 107.260199 143.725958 
L 107.713111 144.354973 
L 108.392478 145.387487 
L 110.43058 148.614528 
L 110.657036 148.755651 
L 112.015771 150.534382 
L 113.374506 152.389222 
L 113.827417 152.689565 
L 114.280329 153.206918 
L 114.73324 153.751217 
L 115.186152 154.317859 
L 115.412608 154.4564 
L 116.091975 155.140902 
L 116.771343 155.720992 
L 116.997798 155.782264 
L 118.809445 157.671988 
L 119.035901 157.822784 
L 119.488812 158.255118 
L 121.979826 159.859046 
L 122.432738 160.011159 
L 123.112105 160.570356 
L 123.338561 160.925504 
L 124.47084 161.218631 
L 124.697296 161.558705 
L 125.150207 161.741004 
L 125.603119 162.301052 
L 126.282486 162.569716 
L 126.508942 162.489668 
L 126.735398 162.666821 
L 126.961854 162.581323 
L 127.414765 162.80806 
L 127.867677 162.906584 
L 128.094133 163.065852 
L 128.547044 163.099651 
L 129.905779 163.890237 
L 130.132235 163.841568 
L 130.585147 164.022489 
L 131.038058 164.297394 
L 131.264514 164.306988 
L 131.49097 164.190384 
L 131.943881 164.307482 
L 132.170337 164.227027 
L 132.396793 164.302883 
L 132.623249 164.607208 
L 132.849705 164.614769 
L 133.529072 165.172291 
L 133.755528 164.941571 
L 133.981984 164.966548 
L 134.208439 164.759749 
L 134.434895 164.754679 
L 134.887807 165.001143 
L 135.114263 164.99853 
L 135.340718 165.195401 
L 135.79363 165.349866 
L 136.020086 165.550386 
L 136.246542 165.569731 
L 136.472997 165.45935 
L 136.699453 165.475994 
L 136.925909 165.615789 
L 136.925909 165.615789 
" clip-path="url(#p1bb803d8c4)" style="fill: none; stroke: #ffa500; stroke-width: 1.5; stroke-linecap: square"/>
   </g>
   <g id="patch_28">
    <path d="M 33.73 188.12 
L 33.73 128.04 
" style="fill: none; stroke: #000000; stroke-width: 0.8; stroke-linejoin: miter; stroke-linecap: square"/>
   </g>
   <g id="patch_29">
    <path d="M 141.84 188.12 
L 141.84 128.04 
" style="fill: none; stroke: #000000; stroke-width: 0.8; stroke-linejoin: miter; stroke-linecap: square"/>
   </g>
   <g id="patch_30">
    <path d="M 33.73 188.12 
L 141.84 188.12 
" style="fill: none; stroke: #000000; stroke-width: 0.8; stroke-linejoin: miter; stroke-linecap: square"/>
   </g>
   <g id="patch_31">
    <path d="M 33.73 128.04 
L 141.84 128.04 
" style="fill: none; stroke: #000000; stroke-width: 0.8; stroke-linejoin: miter; stroke-linecap: square"/>
   </g>
   <g id="text_37">
    <text style="font: 12px 'DejaVu Sans', 'Bitstream Vera Sans', 'Computer Modern Sans Serif', 'Lucida Grande', 'Verdana', 'Geneva', 'Lucid', 'Arial', 'Helvetica', 'Avant Garde', sans-serif; text-anchor: middle" x="87.785" y="122.04" transform="rotate(-0 87.785 122.04)">Testing 1</text>
   </g>
  </g>
  <g id="axes_7">
   <g id="patch_32">
    <path d="M 175.57 188.12 
L 283.68 188.12 
L 283.68 128.04 
L 175.57 128.04 
z
" style="fill: #ffffff"/>
   </g>
   <g id="matplotlib.axis_13">
    <g id="xtick_19">
     <g id="line2d_44">
      <g>
       <use xlink:href="#m2a26cb769a" x="180.484091" y="188.12" style="stroke: #000000; stroke-width: 0.8"/>
      </g>
     </g>
     <g id="text_38">
      <text style="font: 10px 'DejaVu Sans', 'Bitstream Vera Sans', 'Computer Modern Sans Serif', 'Lucida Grande', 'Verdana', 'Geneva', 'Lucid', 'Arial', 'Helvetica', 'Avant Garde', sans-serif; text-anchor: middle" x="180.484091" y="202.718437" transform="rotate(-0 180.484091 202.718437)">0</text>
     </g>
    </g>
    <g id="xtick_20">
     <g id="line2d_45">
      <g>
       <use xlink:href="#m2a26cb769a" x="225.775251" y="188.12" style="stroke: #000000; stroke-width: 0.8"/>
      </g>
     </g>
     <g id="text_39">
      <text style="font: 10px 'DejaVu Sans', 'Bitstream Vera Sans', 'Computer Modern Sans Serif', 'Lucida Grande', 'Verdana', 'Geneva', 'Lucid', 'Arial', 'Helvetica', 'Avant Garde', sans-serif; text-anchor: middle" x="225.775251" y="202.718437" transform="rotate(-0 225.775251 202.718437)">200</text>
     </g>
    </g>
    <g id="xtick_21">
     <g id="line2d_46">
      <g>
       <use xlink:href="#m2a26cb769a" x="271.066412" y="188.12" style="stroke: #000000; stroke-width: 0.8"/>
      </g>
     </g>
     <g id="text_40">
      <text style="font: 10px 'DejaVu Sans', 'Bitstream Vera Sans', 'Computer Modern Sans Serif', 'Lucida Grande', 'Verdana', 'Geneva', 'Lucid', 'Arial', 'Helvetica', 'Avant Garde', sans-serif; text-anchor: middle" x="271.066412" y="202.718437" transform="rotate(-0 271.066412 202.718437)">400</text>
     </g>
    </g>
   </g>
   <g id="matplotlib.axis_14">
    <g id="ytick_14">
     <g id="line2d_47">
      <g>
       <use xlink:href="#m221187989f" x="175.57" y="187.567961" style="stroke: #000000; stroke-width: 0.8"/>
      </g>
     </g>
     <g id="text_41">
      <text style="font: 10px 'DejaVu Sans', 'Bitstream Vera Sans', 'Computer Modern Sans Serif', 'Lucida Grande', 'Verdana', 'Geneva', 'Lucid', 'Arial', 'Helvetica', 'Avant Garde', sans-serif; text-anchor: end" x="168.57" y="191.36718" transform="rotate(-0 168.57 191.36718)">0.0</text>
     </g>
    </g>
    <g id="ytick_15">
     <g id="line2d_48">
      <g>
       <use xlink:href="#m221187989f" x="175.57" y="156.4213" style="stroke: #000000; stroke-width: 0.8"/>
      </g>
     </g>
     <g id="text_42">
      <text style="font: 10px 'DejaVu Sans', 'Bitstream Vera Sans', 'Computer Modern Sans Serif', 'Lucida Grande', 'Verdana', 'Geneva', 'Lucid', 'Arial', 'Helvetica', 'Avant Garde', sans-serif; text-anchor: end" x="168.57" y="160.220519" transform="rotate(-0 168.57 160.220519)">0.5</text>
     </g>
    </g>
   </g>
   <g id="line2d_49">
    <path d="M 180.484091 185.307198 
L 181.61637 184.744789 
L 182.748649 183.929754 
L 183.654472 183.023485 
L 184.560295 181.812375 
L 185.466119 180.205843 
L 186.371942 178.095339 
L 187.277765 175.362038 
L 188.183588 171.895097 
L 189.315867 166.473214 
L 191.580425 154.809603 
L 192.486248 151.402495 
L 193.392072 148.759116 
L 194.524351 146.194796 
L 195.65663 144.171676 
L 197.015364 142.214305 
L 198.600555 140.353346 
L 200.412202 138.606367 
L 202.450304 136.96683 
L 204.714862 135.427658 
L 207.432331 133.856789 
L 210.602713 132.293662 
L 213.093726 131.2155 
L 213.320182 158.240745 
L 214.226005 166.435577 
L 214.905373 170.729042 
L 215.58474 173.955133 
L 216.264108 176.212326 
L 216.943475 177.744829 
L 217.622842 178.61017 
L 218.075754 178.888232 
L 218.528666 178.930967 
L 218.981577 178.744154 
L 219.434489 178.355973 
L 220.113856 177.381624 
L 220.793224 175.940952 
L 221.699047 173.337582 
L 222.831326 169.192741 
L 224.416517 163.460698 
L 225.32234 160.992768 
L 226.454619 158.629046 
L 227.586898 156.83406 
L 228.945633 155.140113 
L 230.304367 153.774256 
L 232.116014 152.313695 
L 234.154116 150.94942 
L 235.965762 149.996096 
L 240.268423 147.996753 
L 245.929818 146.138452 
L 246.156274 155.880765 
L 248.420832 158.007232 
L 250.68539 159.84056 
L 253.176403 161.555398 
L 255.667417 162.989563 
L 258.158431 164.175393 
L 260.875901 165.219221 
L 263.59337 166.033793 
L 266.537296 166.690142 
L 269.707677 167.168503 
L 273.104514 167.454446 
L 276.727807 167.538792 
L 278.765909 167.499011 
L 278.765909 167.499011 
" clip-path="url(#pa81323e872)" style="fill: none; stroke: #0000ff; stroke-width: 1.5; stroke-linecap: square"/>
   </g>
   <g id="line2d_50">
    <path d="M 180.484091 185.389091 
L 182.295737 184.406795 
L 182.975105 183.843354 
L 184.107384 182.545545 
L 185.239663 180.818504 
L 186.371942 178.18871 
L 187.504221 174.683544 
L 188.6365 170.194148 
L 189.768779 164.033558 
L 190.674602 159.122282 
L 192.486248 151.558154 
L 193.392072 148.751118 
L 194.071439 147.19734 
L 194.750806 145.809642 
L 195.65663 144.116346 
L 196.562453 142.754197 
L 198.600555 140.46286 
L 199.279922 139.990362 
L 201.544481 137.579322 
L 201.770936 137.646255 
L 202.903215 136.624739 
L 203.356127 136.434171 
L 204.035494 135.818515 
L 204.488406 135.55974 
L 206.526508 134.414812 
L 206.97942 134.319971 
L 207.432331 133.886701 
L 207.885243 133.708976 
L 208.791066 133.314595 
L 209.243978 132.990263 
L 209.923345 132.716124 
L 210.602713 132.417809 
L 212.414359 131.535971 
L 212.867271 131.582683 
L 213.093726 130.770909 
L 213.320182 158.597272 
L 214.452461 168.051483 
L 215.358284 172.939861 
L 216.037652 175.534283 
L 216.717019 177.323833 
L 217.396387 178.422319 
L 218.075754 178.843193 
L 218.528666 178.855607 
L 218.981577 178.749014 
L 219.660945 178.135664 
L 220.566768 176.509657 
L 221.01968 175.489558 
L 222.60487 170.094335 
L 224.190061 164.209918 
L 224.642972 162.933233 
L 225.32234 161.087586 
L 226.228163 159.2621 
L 227.586898 156.966 
L 227.813354 156.771886 
L 228.266265 156.168591 
L 228.719177 155.593445 
L 231.436646 153.218409 
L 231.663102 153.131032 
L 232.34247 152.549298 
L 232.568925 152.431701 
L 233.021837 151.979996 
L 235.286395 150.867757 
L 235.739307 150.47596 
L 236.192218 150.264213 
L 236.418674 150.243558 
L 236.871586 149.992728 
L 237.324497 149.859833 
L 238.003865 149.661282 
L 238.456776 149.395846 
L 240.268423 148.658056 
L 240.94779 148.641804 
L 242.532981 147.810024 
L 242.759437 147.928082 
L 242.985892 147.742322 
L 243.212348 147.782055 
L 243.66526 147.49033 
L 244.344627 147.308565 
L 244.571083 147.117388 
L 245.023995 147.133695 
L 245.25045 147.043574 
L 245.476906 147.112955 
L 245.703362 146.855958 
L 245.929818 146.844793 
L 246.156274 155.552888 
L 246.609185 155.630129 
L 247.288553 156.565506 
L 247.741464 156.911962 
L 248.873743 157.995778 
L 249.553111 158.490284 
L 250.232478 159.040669 
L 251.138301 159.79982 
L 252.27058 160.58005 
L 252.949948 161.23035 
L 254.308682 162.210752 
L 254.98805 162.557033 
L 255.440961 162.835332 
L 255.667417 162.845401 
L 256.346785 163.379015 
L 259.517166 164.663589 
L 259.743622 164.938043 
L 259.970078 164.837052 
L 260.422989 164.967179 
L 260.875901 165.008738 
L 261.102357 165.328053 
L 261.555268 165.487175 
L 262.00818 165.609356 
L 262.234636 165.599043 
L 262.461091 165.872217 
L 263.366915 166.23201 
L 263.819826 166.24181 
L 264.499194 166.62275 
L 264.725649 166.487633 
L 265.405017 166.694388 
L 265.631473 166.628667 
L 266.084384 166.955673 
L 266.537296 166.798409 
L 267.216663 167.042228 
L 267.896031 167.051852 
L 268.122486 167.185777 
L 268.348942 167.158107 
L 268.575398 167.324106 
L 268.801854 167.209013 
L 269.254765 167.351532 
L 269.934133 167.590384 
L 270.387044 167.596094 
L 271.292868 167.785836 
L 271.745779 167.842361 
L 272.198691 167.764082 
L 272.651602 167.746195 
L 273.33097 167.713556 
L 273.557426 167.917949 
L 274.91616 167.88806 
L 275.142616 167.858722 
L 275.369072 167.966465 
L 275.595528 167.836973 
L 275.821984 167.983322 
L 276.727807 168.056568 
L 278.086542 168.179675 
L 278.539453 168.028397 
L 278.765909 168.21436 
L 278.765909 168.21436 
" clip-path="url(#pa81323e872)" style="fill: none; stroke: #ffa500; stroke-width: 1.5; stroke-linecap: square"/>
   </g>
   <g id="patch_33">
    <path d="M 175.57 188.12 
L 175.57 128.04 
" style="fill: none; stroke: #000000; stroke-width: 0.8; stroke-linejoin: miter; stroke-linecap: square"/>
   </g>
   <g id="patch_34">
    <path d="M 283.68 188.12 
L 283.68 128.04 
" style="fill: none; stroke: #000000; stroke-width: 0.8; stroke-linejoin: miter; stroke-linecap: square"/>
   </g>
   <g id="patch_35">
    <path d="M 175.57 188.12 
L 283.68 188.12 
" style="fill: none; stroke: #000000; stroke-width: 0.8; stroke-linejoin: miter; stroke-linecap: square"/>
   </g>
   <g id="patch_36">
    <path d="M 175.57 128.04 
L 283.68 128.04 
" style="fill: none; stroke: #000000; stroke-width: 0.8; stroke-linejoin: miter; stroke-linecap: square"/>
   </g>
   <g id="text_43">
    <text style="font: 12px 'DejaVu Sans', 'Bitstream Vera Sans', 'Computer Modern Sans Serif', 'Lucida Grande', 'Verdana', 'Geneva', 'Lucid', 'Arial', 'Helvetica', 'Avant Garde', sans-serif; text-anchor: middle" x="229.625" y="122.04" transform="rotate(-0 229.625 122.04)">Testing 2</text>
   </g>
  </g>
  <g id="axes_8">
   <g id="patch_37">
    <path d="M 317.41 188.12 
L 425.52 188.12 
L 425.52 128.04 
L 317.41 128.04 
z
" style="fill: #ffffff"/>
   </g>
   <g id="matplotlib.axis_15">
    <g id="xtick_22">
     <g id="line2d_51">
      <g>
       <use xlink:href="#m2a26cb769a" x="322.324091" y="188.12" style="stroke: #000000; stroke-width: 0.8"/>
      </g>
     </g>
     <g id="text_44">
      <text style="font: 10px 'DejaVu Sans', 'Bitstream Vera Sans', 'Computer Modern Sans Serif', 'Lucida Grande', 'Verdana', 'Geneva', 'Lucid', 'Arial', 'Helvetica', 'Avant Garde', sans-serif; text-anchor: middle" x="322.324091" y="202.718437" transform="rotate(-0 322.324091 202.718437)">0</text>
     </g>
    </g>
    <g id="xtick_23">
     <g id="line2d_52">
      <g>
       <use xlink:href="#m2a26cb769a" x="367.615251" y="188.12" style="stroke: #000000; stroke-width: 0.8"/>
      </g>
     </g>
     <g id="text_45">
      <text style="font: 10px 'DejaVu Sans', 'Bitstream Vera Sans', 'Computer Modern Sans Serif', 'Lucida Grande', 'Verdana', 'Geneva', 'Lucid', 'Arial', 'Helvetica', 'Avant Garde', sans-serif; text-anchor: middle" x="367.615251" y="202.718437" transform="rotate(-0 367.615251 202.718437)">200</text>
     </g>
    </g>
    <g id="xtick_24">
     <g id="line2d_53">
      <g>
       <use xlink:href="#m2a26cb769a" x="412.906412" y="188.12" style="stroke: #000000; stroke-width: 0.8"/>
      </g>
     </g>
     <g id="text_46">
      <text style="font: 10px 'DejaVu Sans', 'Bitstream Vera Sans', 'Computer Modern Sans Serif', 'Lucida Grande', 'Verdana', 'Geneva', 'Lucid', 'Arial', 'Helvetica', 'Avant Garde', sans-serif; text-anchor: middle" x="412.906412" y="202.718437" transform="rotate(-0 412.906412 202.718437)">400</text>
     </g>
    </g>
   </g>
   <g id="matplotlib.axis_16">
    <g id="ytick_16">
     <g id="line2d_54">
      <g>
       <use xlink:href="#m221187989f" x="317.41" y="187.287555" style="stroke: #000000; stroke-width: 0.8"/>
      </g>
     </g>
     <g id="text_47">
      <text style="font: 10px 'DejaVu Sans', 'Bitstream Vera Sans', 'Computer Modern Sans Serif', 'Lucida Grande', 'Verdana', 'Geneva', 'Lucid', 'Arial', 'Helvetica', 'Avant Garde', sans-serif; text-anchor: end" x="310.41" y="191.086774" transform="rotate(-0 310.41 191.086774)">0.0</text>
     </g>
    </g>
    <g id="ytick_17">
     <g id="line2d_55">
      <g>
       <use xlink:href="#m221187989f" x="317.41" y="157.404897" style="stroke: #000000; stroke-width: 0.8"/>
      </g>
     </g>
     <g id="text_48">
      <text style="font: 10px 'DejaVu Sans', 'Bitstream Vera Sans', 'Computer Modern Sans Serif', 'Lucida Grande', 'Verdana', 'Geneva', 'Lucid', 'Arial', 'Helvetica', 'Avant Garde', sans-serif; text-anchor: end" x="310.41" y="161.204116" transform="rotate(-0 310.41 161.204116)">0.5</text>
     </g>
    </g>
   </g>
   <g id="line2d_56">
    <path d="M 322.324091 185.368534 
L 323.45637 184.742516 
L 324.362193 183.985082 
L 325.268016 182.891596 
L 325.947384 181.769695 
L 326.626751 180.309276 
L 327.306119 178.425366 
L 328.211942 175.093934 
L 329.117765 170.648166 
L 330.250044 163.634285 
L 331.382323 156.716399 
L 332.288146 152.571934 
L 333.193969 149.544796 
L 334.099793 147.237757 
L 335.232072 144.9963 
L 336.590806 142.888382 
L 337.949541 141.189344 
L 339.534732 139.547581 
L 341.346378 137.979147 
L 343.610936 136.336137 
L 346.10195 134.811106 
L 349.045876 133.275452 
L 352.442713 131.756873 
L 354.933726 130.770909 
L 355.160182 167.20776 
L 356.066005 171.655749 
L 356.971829 174.790412 
L 357.651196 176.499116 
L 358.330563 177.664059 
L 359.009931 178.354696 
L 359.462842 178.531563 
L 359.915754 178.50983 
L 360.368666 178.263616 
L 360.821577 177.780269 
L 361.500945 176.635288 
L 362.180312 174.949778 
L 363.312591 171.276868 
L 364.44487 167.757982 
L 365.350693 165.699571 
L 366.256517 164.1436 
L 367.388796 162.656759 
L 368.74753 161.254802 
L 370.332721 159.983007 
L 372.144367 158.807505 
L 374.408925 157.645437 
L 376.673483 156.682739 
L 381.881967 154.931538 
L 387.769818 153.540165 
L 387.996274 150.356325 
L 390.260832 153.055255 
L 392.52539 155.426501 
L 394.789948 157.500053 
L 397.280961 159.469872 
L 399.771975 161.145705 
L 402.262989 162.557172 
L 404.980459 163.82659 
L 407.697928 164.843706 
L 410.641854 165.692424 
L 413.585779 166.307419 
L 416.75616 166.739014 
L 420.152997 166.967952 
L 420.605909 166.981873 
L 420.605909 166.981873 
" clip-path="url(#p2ec7342499)" style="fill: none; stroke: #0000ff; stroke-width: 1.5; stroke-linecap: square"/>
   </g>
   <g id="line2d_57">
    <path d="M 322.324091 185.389091 
L 323.45637 184.77391 
L 324.362193 184.0403 
L 325.268016 182.976599 
L 326.17384 181.37213 
L 327.079663 179.194992 
L 327.985486 176.148647 
L 328.664853 173.222859 
L 329.570677 168.544343 
L 331.835235 155.226692 
L 332.967514 150.985611 
L 333.873337 148.241771 
L 334.326248 147.273911 
L 334.77916 146.362246 
L 335.911439 144.483145 
L 337.043718 142.778774 
L 338.628909 140.690997 
L 338.855364 140.594313 
L 339.987643 139.427296 
L 340.667011 138.789372 
L 341.119922 138.47334 
L 341.572834 138.187281 
L 342.025746 137.64142 
L 342.252202 137.672911 
L 342.705113 137.269439 
L 342.931569 136.999382 
L 343.837392 136.665766 
L 344.063848 136.364532 
L 344.743215 136.071319 
L 346.781318 134.763888 
L 347.007773 134.742891 
L 347.460685 134.360187 
L 347.687141 134.360163 
L 348.140052 134.078727 
L 348.366508 134.055052 
L 348.81942 133.799928 
L 349.272331 133.692119 
L 349.951699 133.274978 
L 350.178155 133.028603 
L 351.083978 132.69544 
L 351.763345 132.36113 
L 352.895624 131.786019 
L 353.348536 131.706723 
L 353.574992 131.46983 
L 353.801447 131.687732 
L 354.027903 131.488974 
L 354.480815 131.460932 
L 354.933726 131.149114 
L 355.160182 166.865325 
L 356.066005 171.486234 
L 356.971829 174.71581 
L 357.877652 176.876856 
L 358.783475 178.098544 
L 359.236387 178.453651 
L 359.915754 178.513297 
L 360.368666 178.323601 
L 360.821577 177.870661 
L 361.500945 176.741576 
L 362.633224 173.820763 
L 364.671326 167.20702 
L 365.350693 165.681407 
L 365.577149 165.31271 
L 366.030061 164.305843 
L 367.841707 161.898851 
L 369.426898 160.237707 
L 369.653354 160.161467 
L 370.332721 159.701784 
L 371.465 158.936647 
L 371.691456 158.876011 
L 372.144367 158.470624 
L 372.597279 158.32915 
L 374.635381 157.340961 
L 375.088293 157.041138 
L 375.994116 156.671379 
L 376.220572 156.540073 
L 376.673483 156.537715 
L 377.126395 156.202988 
L 379.843865 155.388295 
L 380.296776 154.988396 
L 380.976144 154.930053 
L 381.202599 155.001662 
L 381.655511 154.790967 
L 381.881967 154.589267 
L 382.334879 154.841765 
L 382.78779 154.318664 
L 383.240702 154.393711 
L 383.467158 154.497338 
L 384.372981 154.051158 
L 384.599437 153.763745 
L 385.731716 153.819245 
L 386.637539 153.457847 
L 387.09045 153.305627 
L 387.316906 153.363144 
L 387.543362 153.262082 
L 387.769818 153.386808 
L 387.996274 149.684299 
L 388.449185 150.240533 
L 389.128553 151.150285 
L 390.487287 152.699707 
L 391.619566 153.859004 
L 392.072478 154.427973 
L 392.751845 155.08429 
L 393.431213 155.661847 
L 393.884124 156.200886 
L 395.922227 158.004361 
L 396.82805 158.65415 
L 397.280961 159.075476 
L 397.733873 159.4645 
L 397.960329 159.509778 
L 399.545519 160.809601 
L 399.998431 161.063343 
L 400.904254 161.700011 
L 401.13071 161.887958 
L 401.357166 161.804764 
L 401.583622 162.061746 
L 401.810078 162.046847 
L 402.489445 162.575291 
L 402.715901 162.574889 
L 402.942357 162.864259 
L 404.074636 163.323076 
L 404.301091 163.552525 
L 404.980459 163.779976 
L 405.43337 164.062861 
L 406.112738 164.368279 
L 406.339194 164.438691 
L 406.565649 164.324085 
L 407.245017 164.609776 
L 407.471473 164.622613 
L 407.697928 164.894581 
L 409.509575 165.543593 
L 409.736031 165.491804 
L 409.962486 165.603682 
L 410.188942 165.538306 
L 410.415398 165.771708 
L 410.641854 165.773539 
L 410.86831 165.960523 
L 412.227044 165.960345 
L 412.679956 166.240306 
L 413.132868 166.27518 
L 413.359323 166.28554 
L 413.812235 166.422561 
L 414.718058 166.746062 
L 415.17097 166.576739 
L 415.623881 166.71302 
L 416.076793 166.67776 
L 416.303249 166.885607 
L 416.529705 166.847211 
L 417.209072 167.183005 
L 417.435528 166.92268 
L 417.661984 167.009297 
L 417.888439 166.9378 
L 419.020718 167.184459 
L 419.247174 167.093467 
L 419.926542 167.251029 
L 420.152997 167.080614 
L 420.379453 167.132 
L 420.605909 167.346555 
L 420.605909 167.346555 
" clip-path="url(#p2ec7342499)" style="fill: none; stroke: #ffa500; stroke-width: 1.5; stroke-linecap: square"/>
   </g>
   <g id="patch_38">
    <path d="M 317.41 188.12 
L 317.41 128.04 
" style="fill: none; stroke: #000000; stroke-width: 0.8; stroke-linejoin: miter; stroke-linecap: square"/>
   </g>
   <g id="patch_39">
    <path d="M 425.52 188.12 
L 425.52 128.04 
" style="fill: none; stroke: #000000; stroke-width: 0.8; stroke-linejoin: miter; stroke-linecap: square"/>
   </g>
   <g id="patch_40">
    <path d="M 317.41 188.12 
L 425.52 188.12 
" style="fill: none; stroke: #000000; stroke-width: 0.8; stroke-linejoin: miter; stroke-linecap: square"/>
   </g>
   <g id="patch_41">
    <path d="M 317.41 128.04 
L 425.52 128.04 
" style="fill: none; stroke: #000000; stroke-width: 0.8; stroke-linejoin: miter; stroke-linecap: square"/>
   </g>
   <g id="text_49">
    <text style="font: 12px 'DejaVu Sans', 'Bitstream Vera Sans', 'Computer Modern Sans Serif', 'Lucida Grande', 'Verdana', 'Geneva', 'Lucid', 'Arial', 'Helvetica', 'Avant Garde', sans-serif; text-anchor: middle" x="371.465" y="122.04" transform="rotate(-0 371.465 122.04)">Testing 3</text>
   </g>
  </g>
  <g id="axes_9">
   <g id="patch_42">
    <path d="M 459.25 188.12 
L 567.36 188.12 
L 567.36 128.04 
L 459.25 128.04 
z
" style="fill: #ffffff"/>
   </g>
   <g id="matplotlib.axis_17">
    <g id="xtick_25">
     <g id="line2d_58">
      <g>
       <use xlink:href="#m2a26cb769a" x="464.164091" y="188.12" style="stroke: #000000; stroke-width: 0.8"/>
      </g>
     </g>
     <g id="text_50">
      <text style="font: 10px 'DejaVu Sans', 'Bitstream Vera Sans', 'Computer Modern Sans Serif', 'Lucida Grande', 'Verdana', 'Geneva', 'Lucid', 'Arial', 'Helvetica', 'Avant Garde', sans-serif; text-anchor: middle" x="464.164091" y="202.718437" transform="rotate(-0 464.164091 202.718437)">0</text>
     </g>
    </g>
    <g id="xtick_26">
     <g id="line2d_59">
      <g>
       <use xlink:href="#m2a26cb769a" x="509.455251" y="188.12" style="stroke: #000000; stroke-width: 0.8"/>
      </g>
     </g>
     <g id="text_51">
      <text style="font: 10px 'DejaVu Sans', 'Bitstream Vera Sans', 'Computer Modern Sans Serif', 'Lucida Grande', 'Verdana', 'Geneva', 'Lucid', 'Arial', 'Helvetica', 'Avant Garde', sans-serif; text-anchor: middle" x="509.455251" y="202.718437" transform="rotate(-0 509.455251 202.718437)">200</text>
     </g>
    </g>
    <g id="xtick_27">
     <g id="line2d_60">
      <g>
       <use xlink:href="#m2a26cb769a" x="554.746412" y="188.12" style="stroke: #000000; stroke-width: 0.8"/>
      </g>
     </g>
     <g id="text_52">
      <text style="font: 10px 'DejaVu Sans', 'Bitstream Vera Sans', 'Computer Modern Sans Serif', 'Lucida Grande', 'Verdana', 'Geneva', 'Lucid', 'Arial', 'Helvetica', 'Avant Garde', sans-serif; text-anchor: middle" x="554.746412" y="202.718437" transform="rotate(-0 554.746412 202.718437)">400</text>
     </g>
    </g>
   </g>
   <g id="matplotlib.axis_18">
    <g id="ytick_18">
     <g id="line2d_61">
      <g>
       <use xlink:href="#m221187989f" x="459.25" y="187.438626" style="stroke: #000000; stroke-width: 0.8"/>
      </g>
     </g>
     <g id="text_53">
      <text style="font: 10px 'DejaVu Sans', 'Bitstream Vera Sans', 'Computer Modern Sans Serif', 'Lucida Grande', 'Verdana', 'Geneva', 'Lucid', 'Arial', 'Helvetica', 'Avant Garde', sans-serif; text-anchor: end" x="452.25" y="191.237845" transform="rotate(-0 452.25 191.237845)">0.0</text>
     </g>
    </g>
    <g id="ytick_19">
     <g id="line2d_62">
      <g>
       <use xlink:href="#m221187989f" x="459.25" y="159.095799" style="stroke: #000000; stroke-width: 0.8"/>
      </g>
     </g>
     <g id="text_54">
      <text style="font: 10px 'DejaVu Sans', 'Bitstream Vera Sans', 'Computer Modern Sans Serif', 'Lucida Grande', 'Verdana', 'Geneva', 'Lucid', 'Arial', 'Helvetica', 'Avant Garde', sans-serif; text-anchor: end" x="452.25" y="162.895018" transform="rotate(-0 452.25 162.895018)">0.5</text>
     </g>
    </g>
    <g id="ytick_20">
     <g id="line2d_63">
      <g>
       <use xlink:href="#m221187989f" x="459.25" y="130.752971" style="stroke: #000000; stroke-width: 0.8"/>
      </g>
     </g>
     <g id="text_55">
      <text style="font: 10px 'DejaVu Sans', 'Bitstream Vera Sans', 'Computer Modern Sans Serif', 'Lucida Grande', 'Verdana', 'Geneva', 'Lucid', 'Arial', 'Helvetica', 'Avant Garde', sans-serif; text-anchor: end" x="452.25" y="134.55219" transform="rotate(-0 452.25 134.55219)">1.0</text>
     </g>
    </g>
   </g>
   <g id="line2d_64">
    <path d="M 464.164091 185.361251 
L 465.069914 184.818744 
L 465.975737 184.020474 
L 466.881561 182.850654 
L 467.560928 181.636173 
L 468.240295 180.040854 
L 468.919663 177.969788 
L 469.59903 175.319889 
L 470.504853 170.752895 
L 473.222323 155.07395 
L 474.128146 151.895948 
L 475.033969 149.530176 
L 476.166248 147.261414 
L 477.298527 145.476162 
L 478.657262 143.73885 
L 480.242453 142.082324 
L 482.054099 140.514881 
L 484.092202 139.035478 
L 486.583215 137.508641 
L 489.527141 135.981706 
L 492.923978 134.479594 
L 496.773726 133.01378 
L 497.000182 156.696175 
L 497.906005 163.283608 
L 498.811829 168.083767 
L 499.491196 170.819802 
L 500.170563 172.812485 
L 500.849931 174.16595 
L 501.302842 174.68351 
L 501.755754 174.941785 
L 502.208666 174.902761 
L 502.661577 174.557492 
L 503.114489 173.943289 
L 503.793856 172.512109 
L 506.058414 166.880891 
L 506.964238 165.423029 
L 508.096517 163.99271 
L 509.681707 162.426156 
L 511.266898 161.196246 
L 513.305 159.919644 
L 515.796014 158.699052 
L 518.060572 157.808781 
L 522.589688 156.354387 
L 529.609818 154.725373 
L 529.836274 142.665607 
L 532.100832 146.273924 
L 534.36539 149.46917 
L 536.629948 152.289168 
L 538.894506 154.768699 
L 541.159064 156.939322 
L 543.650078 159.004381 
L 546.141091 160.764859 
L 548.632105 162.251734 
L 551.123119 163.492868 
L 553.840589 164.595706 
L 556.558058 165.464587 
L 559.501984 166.1714 
L 562.445909 166.662219 
L 562.445909 166.662219 
" clip-path="url(#p86b15e02db)" style="fill: none; stroke: #0000ff; stroke-width: 1.5; stroke-linecap: square"/>
   </g>
   <g id="line2d_65">
    <path d="M 464.164091 185.389091 
L 465.29637 184.690892 
L 466.428649 183.58418 
L 467.334472 182.249456 
L 468.240295 180.237822 
L 469.146119 177.320127 
L 469.825486 174.679193 
L 470.504853 171.192947 
L 471.863588 163.125073 
L 472.769411 157.805101 
L 473.675235 153.931642 
L 475.033969 149.924292 
L 475.713337 148.43884 
L 476.166248 147.604349 
L 476.845616 146.447982 
L 477.977895 144.747772 
L 478.883718 143.635941 
L 479.789541 142.891536 
L 480.242453 142.379057 
L 481.827643 140.996198 
L 482.054099 140.717824 
L 482.280555 140.683284 
L 483.186378 139.929837 
L 484.318657 138.92898 
L 484.545113 138.773069 
L 484.998025 138.985277 
L 485.450936 138.50646 
L 486.130304 137.940922 
L 486.583215 137.615358 
L 486.809671 137.654855 
L 487.489039 137.10223 
L 487.715494 137.154732 
L 489.074229 136.365516 
L 489.527141 136.251321 
L 489.753597 136.203827 
L 490.206508 135.7878 
L 490.65942 135.705765 
L 490.885876 135.458476 
L 491.565243 135.323583 
L 492.018155 135.076838 
L 492.697522 134.778 
L 496.094359 133.313777 
L 496.547271 132.491064 
L 496.773726 130.770909 
L 497.000182 157.286993 
L 498.811829 168.272074 
L 499.717652 171.68263 
L 500.849931 174.507758 
L 501.302842 174.877262 
L 501.755754 175.045515 
L 502.208666 175.120193 
L 502.661577 174.843282 
L 503.114489 174.297488 
L 504.020312 172.226323 
L 505.831959 167.566134 
L 506.511326 166.260298 
L 507.417149 164.994741 
L 507.870061 164.228795 
L 510.58753 161.601721 
L 512.172721 160.441764 
L 512.625633 160.331572 
L 514.437279 158.999147 
L 516.02247 158.347532 
L 516.248925 158.330764 
L 516.701837 158.055972 
L 517.60766 157.694515 
L 518.287028 157.486936 
L 518.739939 157.214138 
L 519.192851 157.167788 
L 519.419307 157.225774 
L 521.457409 156.215169 
L 521.683865 156.307476 
L 522.363232 156.005523 
L 522.589688 155.993082 
L 523.269055 155.716013 
L 524.174879 155.518341 
L 524.62779 155.589733 
L 525.080702 155.440843 
L 527.34526 154.985681 
L 528.024627 154.756593 
L 528.477539 154.723403 
L 528.93045 154.819782 
L 529.156906 154.874662 
L 529.383362 154.708686 
L 529.609818 153.662588 
L 529.836274 142.71887 
L 530.062729 142.184436 
L 530.289185 142.334377 
L 531.195008 144.259968 
L 532.553743 146.463403 
L 533.233111 147.458844 
L 533.459566 147.636038 
L 533.912478 148.422984 
L 534.591845 149.276143 
L 535.044757 149.977159 
L 536.177036 151.283493 
L 538.215138 153.60871 
L 538.66805 153.970586 
L 538.894506 154.373333 
L 539.347417 154.72538 
L 539.800329 155.210089 
L 540.25324 155.59396 
L 540.706152 156.028471 
L 540.932608 156.171026 
L 541.611975 156.989564 
L 542.744254 158.032564 
L 542.97071 158.305376 
L 543.197166 158.314681 
L 543.876533 158.888244 
L 544.329445 159.344659 
L 544.555901 159.36905 
L 545.235268 159.706347 
L 545.461724 159.784951 
L 545.68818 160.149805 
L 548.179194 161.681798 
L 548.405649 161.694968 
L 549.085017 162.057572 
L 549.311473 162.00332 
L 549.537928 162.297303 
L 550.217296 162.629852 
L 550.670207 162.876861 
L 550.896663 163.002408 
L 551.349575 163.085094 
L 552.028942 163.262163 
L 552.255398 163.520136 
L 552.481854 163.446366 
L 552.70831 163.637038 
L 553.161221 163.768553 
L 553.614133 164.23111 
L 554.067044 164.236289 
L 554.519956 164.650572 
L 554.972868 164.70887 
L 555.425779 164.944227 
L 555.652235 164.795111 
L 556.331602 164.973078 
L 557.01097 165.186298 
L 557.463881 165.59766 
L 557.916793 165.423633 
L 558.143249 165.660143 
L 558.369705 165.489478 
L 558.822616 165.805553 
L 559.049072 166.025049 
L 559.275528 165.857993 
L 559.501984 165.927632 
L 559.728439 165.839445 
L 559.954895 165.914607 
L 560.407807 166.310234 
L 561.766542 166.027978 
L 561.992997 166.096495 
L 562.445909 166.483811 
L 562.445909 166.483811 
" clip-path="url(#p86b15e02db)" style="fill: none; stroke: #ffa500; stroke-width: 1.5; stroke-linecap: square"/>
   </g>
   <g id="patch_43">
    <path d="M 459.25 188.12 
L 459.25 128.04 
" style="fill: none; stroke: #000000; stroke-width: 0.8; stroke-linejoin: miter; stroke-linecap: square"/>
   </g>
   <g id="patch_44">
    <path d="M 567.36 188.12 
L 567.36 128.04 
" style="fill: none; stroke: #000000; stroke-width: 0.8; stroke-linejoin: miter; stroke-linecap: square"/>
   </g>
   <g id="patch_45">
    <path d="M 459.25 188.12 
L 567.36 188.12 
" style="fill: none; stroke: #000000; stroke-width: 0.8; stroke-linejoin: miter; stroke-linecap: square"/>
   </g>
   <g id="patch_46">
    <path d="M 459.25 128.04 
L 567.36 128.04 
" style="fill: none; stroke: #000000; stroke-width: 0.8; stroke-linejoin: miter; stroke-linecap: square"/>
   </g>
   <g id="text_56">
    <text style="font: 12px 'DejaVu Sans', 'Bitstream Vera Sans', 'Computer Modern Sans Serif', 'Lucida Grande', 'Verdana', 'Geneva', 'Lucid', 'Arial', 'Helvetica', 'Avant Garde', sans-serif; text-anchor: middle" x="513.305" y="122.04" transform="rotate(-0 513.305 122.04)">Testing 4</text>
   </g>
  </g>
  <g id="axes_10">
   <g id="patch_47">
    <path d="M 601.09 188.12 
L 709.2 188.12 
L 709.2 128.04 
L 601.09 128.04 
z
" style="fill: #ffffff"/>
   </g>
   <g id="matplotlib.axis_19">
    <g id="xtick_28">
     <g id="line2d_66">
      <g>
       <use xlink:href="#m2a26cb769a" x="606.004091" y="188.12" style="stroke: #000000; stroke-width: 0.8"/>
      </g>
     </g>
     <g id="text_57">
      <text style="font: 10px 'DejaVu Sans', 'Bitstream Vera Sans', 'Computer Modern Sans Serif', 'Lucida Grande', 'Verdana', 'Geneva', 'Lucid', 'Arial', 'Helvetica', 'Avant Garde', sans-serif; text-anchor: middle" x="606.004091" y="202.718437" transform="rotate(-0 606.004091 202.718437)">0</text>
     </g>
    </g>
    <g id="xtick_29">
     <g id="line2d_67">
      <g>
       <use xlink:href="#m2a26cb769a" x="651.295251" y="188.12" style="stroke: #000000; stroke-width: 0.8"/>
      </g>
     </g>
     <g id="text_58">
      <text style="font: 10px 'DejaVu Sans', 'Bitstream Vera Sans', 'Computer Modern Sans Serif', 'Lucida Grande', 'Verdana', 'Geneva', 'Lucid', 'Arial', 'Helvetica', 'Avant Garde', sans-serif; text-anchor: middle" x="651.295251" y="202.718437" transform="rotate(-0 651.295251 202.718437)">200</text>
     </g>
    </g>
    <g id="xtick_30">
     <g id="line2d_68">
      <g>
       <use xlink:href="#m2a26cb769a" x="696.586412" y="188.12" style="stroke: #000000; stroke-width: 0.8"/>
      </g>
     </g>
     <g id="text_59">
      <text style="font: 10px 'DejaVu Sans', 'Bitstream Vera Sans', 'Computer Modern Sans Serif', 'Lucida Grande', 'Verdana', 'Geneva', 'Lucid', 'Arial', 'Helvetica', 'Avant Garde', sans-serif; text-anchor: middle" x="696.586412" y="202.718437" transform="rotate(-0 696.586412 202.718437)">400</text>
     </g>
    </g>
   </g>
   <g id="matplotlib.axis_20">
    <g id="ytick_21">
     <g id="line2d_69">
      <g>
       <use xlink:href="#m221187989f" x="601.09" y="187.295323" style="stroke: #000000; stroke-width: 0.8"/>
      </g>
     </g>
     <g id="text_60">
      <text style="font: 10px 'DejaVu Sans', 'Bitstream Vera Sans', 'Computer Modern Sans Serif', 'Lucida Grande', 'Verdana', 'Geneva', 'Lucid', 'Arial', 'Helvetica', 'Avant Garde', sans-serif; text-anchor: end" x="594.09" y="191.094542" transform="rotate(-0 594.09 191.094542)">0.0</text>
     </g>
    </g>
    <g id="ytick_22">
     <g id="line2d_70">
      <g>
       <use xlink:href="#m221187989f" x="601.09" y="156.127024" style="stroke: #000000; stroke-width: 0.8"/>
      </g>
     </g>
     <g id="text_61">
      <text style="font: 10px 'DejaVu Sans', 'Bitstream Vera Sans', 'Computer Modern Sans Serif', 'Lucida Grande', 'Verdana', 'Geneva', 'Lucid', 'Arial', 'Helvetica', 'Avant Garde', sans-serif; text-anchor: end" x="594.09" y="159.926243" transform="rotate(-0 594.09 159.926243)">0.5</text>
     </g>
    </g>
   </g>
   <g id="line2d_71">
    <path d="M 606.004091 185.377413 
L 607.362826 184.753966 
L 608.495105 183.962618 
L 609.400928 183.071637 
L 610.306751 181.867837 
L 611.212574 180.253092 
L 612.118398 178.109884 
L 613.024221 175.307102 
L 613.930044 171.721948 
L 615.062323 166.081826 
L 617.100425 155.149726 
L 618.006248 151.538724 
L 618.912072 148.762624 
L 620.044351 146.099522 
L 621.17663 144.013578 
L 622.535364 142.01051 
L 624.120555 140.114546 
L 625.932202 138.341422 
L 627.970304 136.682937 
L 630.234862 135.129243 
L 632.952331 133.547102 
L 636.122713 131.975483 
L 638.613726 130.892943 
L 638.840182 163.749878 
L 639.746005 170.098108 
L 640.425373 173.435309 
L 641.10474 175.944976 
L 641.784108 177.685665 
L 642.463475 178.840368 
L 642.916387 179.296165 
L 643.369298 179.536695 
L 643.82221 179.578956 
L 644.275121 179.411592 
L 644.728033 179.047658 
L 645.407401 178.145537 
L 646.086768 176.78273 
L 646.766135 174.976625 
L 647.671959 171.865874 
L 650.615884 160.779464 
L 651.521707 158.540976 
L 652.653986 156.396121 
L 653.786265 154.738151 
L 655.145 153.136633 
L 656.503735 151.842633 
L 658.315381 150.424359 
L 660.353483 149.094244 
L 662.844497 147.836441 
L 666.241334 146.248236 
L 671.449818 144.504201 
L 671.676274 152.752327 
L 673.940832 155.464668 
L 676.20539 157.834147 
L 678.469948 159.896127 
L 680.960961 161.84715 
L 683.451975 163.502466 
L 685.942989 164.895525 
L 688.660459 166.150783 
L 691.377928 167.162825 
L 694.321854 168.018841 
L 697.492235 168.697265 
L 700.889072 169.18249 
L 704.285909 169.453111 
L 704.285909 169.453111 
" clip-path="url(#pb8240afc50)" style="fill: none; stroke: #0000ff; stroke-width: 1.5; stroke-linecap: square"/>
   </g>
   <g id="line2d_72">
    <path d="M 606.004091 185.389091 
L 607.362826 184.775291 
L 608.495105 183.93299 
L 609.85384 182.515375 
L 611.212574 180.187682 
L 612.118398 178.021766 
L 613.250677 174.453054 
L 614.1565 170.77701 
L 617.100425 155.190709 
L 618.006248 151.37421 
L 619.138527 148.084893 
L 620.270806 145.687794 
L 621.629541 143.277635 
L 622.082453 142.75754 
L 622.535364 141.912505 
L 622.988276 141.481185 
L 623.441188 140.901433 
L 623.894099 140.584842 
L 624.573467 139.808604 
L 624.799922 139.68346 
L 625.705746 138.49399 
L 626.838025 137.600329 
L 627.290936 137.562263 
L 627.970304 136.835297 
L 629.555494 135.598814 
L 630.008406 135.422125 
L 630.234862 135.200147 
L 630.461318 135.147159 
L 631.367141 134.464505 
L 631.820052 134.329218 
L 633.405243 133.242386 
L 633.858155 133.114868 
L 634.311066 132.926809 
L 636.80208 131.75579 
L 637.254992 131.473304 
L 637.481447 131.575761 
L 638.387271 130.770909 
L 638.613726 131.645687 
L 638.840182 163.523866 
L 639.51955 168.666567 
L 640.425373 173.463457 
L 641.331196 176.558002 
L 642.237019 178.543471 
L 642.916387 179.246776 
L 643.595754 179.549404 
L 644.048666 179.473268 
L 644.501577 179.191244 
L 645.407401 178.021253 
L 645.860312 177.182988 
L 646.53968 175.582539 
L 648.12487 169.82976 
L 649.710061 163.454311 
L 651.521707 158.535069 
L 653.106898 155.598528 
L 653.333354 155.377345 
L 653.559809 154.922227 
L 653.786265 154.730724 
L 654.239177 154.118917 
L 654.692088 153.66653 
L 655.371456 152.776526 
L 656.503735 151.92866 
L 656.956646 151.51526 
L 657.183102 151.447444 
L 657.86247 150.774725 
L 658.088925 150.700421 
L 658.768293 150.117002 
L 661.712218 148.52847 
L 661.938674 148.5331 
L 662.844497 147.915657 
L 664.203232 147.449968 
L 665.788423 146.615337 
L 666.920702 146.377727 
L 667.373613 146.120039 
L 670.091083 145.093295 
L 670.317539 145.192567 
L 671.223362 144.822227 
L 671.449818 144.963042 
L 671.676274 152.171118 
L 672.355641 153.129671 
L 673.035008 153.948396 
L 674.393743 155.55967 
L 674.846655 156.01231 
L 676.431845 157.733481 
L 677.111213 158.295678 
L 678.017036 159.27412 
L 680.50805 161.123819 
L 680.960961 161.508997 
L 681.187417 161.584882 
L 681.640329 161.996689 
L 681.866785 162.241219 
L 682.319696 162.377052 
L 682.772608 162.755591 
L 682.999064 162.816442 
L 683.225519 163.062057 
L 683.678431 163.223757 
L 684.81071 164.011608 
L 685.037166 164.040389 
L 685.263622 164.356176 
L 685.490078 164.389443 
L 685.716533 164.609093 
L 686.395901 164.690999 
L 686.622357 164.985202 
L 686.848812 165.069203 
L 687.301724 165.446108 
L 687.52818 165.586393 
L 687.754636 165.525801 
L 688.207547 165.841359 
L 688.660459 165.879897 
L 688.886915 166.107186 
L 690.245649 166.407316 
L 690.698561 166.887157 
L 690.925017 166.898073 
L 691.151473 166.735915 
L 691.377928 166.875085 
L 692.057296 166.879713 
L 692.510207 167.258647 
L 692.736663 167.385984 
L 692.963119 167.323593 
L 693.189575 167.386348 
L 693.416031 167.303022 
L 693.642486 167.473688 
L 693.868942 167.479128 
L 694.095398 167.708195 
L 694.321854 167.633392 
L 695.001221 167.96843 
L 695.907044 168.127577 
L 696.359956 168.359065 
L 697.039323 168.295274 
L 698.85097 168.5757 
L 699.077426 168.853746 
L 700.209705 168.961043 
L 700.662616 168.80199 
L 700.889072 168.895841 
L 701.115528 168.77121 
L 701.794895 168.927953 
L 703.606542 169.299313 
L 703.832997 169.110371 
L 704.059453 169.15383 
L 704.285909 169.518218 
L 704.285909 169.518218 
" clip-path="url(#pb8240afc50)" style="fill: none; stroke: #ffa500; stroke-width: 1.5; stroke-linecap: square"/>
   </g>
   <g id="patch_48">
    <path d="M 601.09 188.12 
L 601.09 128.04 
" style="fill: none; stroke: #000000; stroke-width: 0.8; stroke-linejoin: miter; stroke-linecap: square"/>
   </g>
   <g id="patch_49">
    <path d="M 709.2 188.12 
L 709.2 128.04 
" style="fill: none; stroke: #000000; stroke-width: 0.8; stroke-linejoin: miter; stroke-linecap: square"/>
   </g>
   <g id="patch_50">
    <path d="M 601.09 188.12 
L 709.2 188.12 
" style="fill: none; stroke: #000000; stroke-width: 0.8; stroke-linejoin: miter; stroke-linecap: square"/>
   </g>
   <g id="patch_51">
    <path d="M 601.09 128.04 
L 709.2 128.04 
" style="fill: none; stroke: #000000; stroke-width: 0.8; stroke-linejoin: miter; stroke-linecap: square"/>
   </g>
   <g id="text_62">
    <text style="font: 12px 'DejaVu Sans', 'Bitstream Vera Sans', 'Computer Modern Sans Serif', 'Lucida Grande', 'Verdana', 'Geneva', 'Lucid', 'Arial', 'Helvetica', 'Avant Garde', sans-serif; text-anchor: middle" x="655.145" y="122.04" transform="rotate(-0 655.145 122.04)">Testing 5</text>
   </g>
  </g>
 </g>
 <defs>
  <clipPath id="p2e60420b9f">
   <rect x="33.73" y="25.44" width="108.11" height="60.08"/>
  </clipPath>
  <clipPath id="p55d94ca945">
   <rect x="175.57" y="25.44" width="108.11" height="60.08"/>
  </clipPath>
  <clipPath id="p3e7d85fa89">
   <rect x="317.41" y="25.44" width="108.11" height="60.08"/>
  </clipPath>
  <clipPath id="pd4987e2e6c">
   <rect x="459.25" y="25.44" width="108.11" height="60.08"/>
  </clipPath>
  <clipPath id="p991f1c7745">
   <rect x="601.09" y="25.44" width="108.11" height="60.08"/>
  </clipPath>
  <clipPath id="p1bb803d8c4">
   <rect x="33.73" y="128.04" width="108.11" height="60.08"/>
  </clipPath>
  <clipPath id="pa81323e872">
   <rect x="175.57" y="128.04" width="108.11" height="60.08"/>
  </clipPath>
  <clipPath id="p2ec7342499">
   <rect x="317.41" y="128.04" width="108.11" height="60.08"/>
  </clipPath>
  <clipPath id="p86b15e02db">
   <rect x="459.25" y="128.04" width="108.11" height="60.08"/>
  </clipPath>
  <clipPath id="pb8240afc50">
   <rect x="601.09" y="128.04" width="108.11" height="60.08"/>
  </clipPath>
 </defs>
</svg>
