<?xml version="1.0" encoding="utf-8" standalone="no"?>
<!DOCTYPE svg PUBLIC "-//W3C//DTD SVG 1.1//EN"
  "http://www.w3.org/Graphics/SVG/1.1/DTD/svg11.dtd">
<svg xmlns:xlink="http://www.w3.org/1999/xlink" width="288pt" height="144pt" viewBox="0 0 288 144" xmlns="http://www.w3.org/2000/svg" version="1.1">
 <metadata>
  <rdf:RDF xmlns:dc="http://purl.org/dc/elements/1.1/" xmlns:cc="http://creativecommons.org/ns#" xmlns:rdf="http://www.w3.org/1999/02/22-rdf-syntax-ns#">
   <cc:Work>
    <dc:type rdf:resource="http://purl.org/dc/dcmitype/StillImage"/>
    <dc:date>2025-03-13T04:06:32.104242</dc:date>
    <dc:format>image/svg+xml</dc:format>
    <dc:creator>
     <cc:Agent>
      <dc:title>Matplotlib v3.8.4, https://matplotlib.org/</dc:title>
     </cc:Agent>
    </dc:creator>
   </cc:Work>
  </rdf:RDF>
 </metadata>
 <defs>
  <style type="text/css">*{stroke-linejoin: round; stroke-linecap: butt}</style>
 </defs>
 <g id="figure_1">
  <g id="patch_1">
   <path d="M 0 144 
L 288 144 
L 288 0 
L 0 0 
z
" style="fill: #ffffff"/>
  </g>
  <g id="axes_1">
   <g id="patch_2">
    <path d="M 36 128.16 
L 259.2 128.16 
L 259.2 17.28 
L 36 17.28 
z
" style="fill: #ffffff"/>
   </g>
   <g id="matplotlib.axis_1">
    <g id="xtick_1">
     <g id="line2d_1">
      <defs>
       <path id="mcc3b979bbb" d="M 0 0 
L 0 3.5 
" style="stroke: #000000; stroke-width: 0.8"/>
      </defs>
      <g>
       <use xlink:href="#mcc3b979bbb" x="46.145455" y="128.16" style="stroke: #000000; stroke-width: 0.8"/>
      </g>
     </g>
     <g id="text_1">
      <text style="font: 10px 'DejaVu Sans', 'Bitstream Vera Sans', 'Computer Modern Sans Serif', 'Lucida Grande', 'Verdana', 'Geneva', 'Lucid', 'Arial', 'Helvetica', 'Avant Garde', sans-serif; text-anchor: middle" x="46.145455" y="142.758438" transform="rotate(-0 46.145455 142.758438)">0</text>
     </g>
    </g>
    <g id="xtick_2">
     <g id="line2d_2">
      <g>
       <use xlink:href="#mcc3b979bbb" x="88.418182" y="128.16" style="stroke: #000000; stroke-width: 0.8"/>
      </g>
     </g>
     <g id="text_2">
      <text style="font: 10px 'DejaVu Sans', 'Bitstream Vera Sans', 'Computer Modern Sans Serif', 'Lucida Grande', 'Verdana', 'Geneva', 'Lucid', 'Arial', 'Helvetica', 'Avant Garde', sans-serif; text-anchor: middle" x="88.418182" y="142.758438" transform="rotate(-0 88.418182 142.758438)">50</text>
     </g>
    </g>
    <g id="xtick_3">
     <g id="line2d_3">
      <g>
       <use xlink:href="#mcc3b979bbb" x="130.690909" y="128.16" style="stroke: #000000; stroke-width: 0.8"/>
      </g>
     </g>
     <g id="text_3">
      <text style="font: 10px 'DejaVu Sans', 'Bitstream Vera Sans', 'Computer Modern Sans Serif', 'Lucida Grande', 'Verdana', 'Geneva', 'Lucid', 'Arial', 'Helvetica', 'Avant Garde', sans-serif; text-anchor: middle" x="130.690909" y="142.758438" transform="rotate(-0 130.690909 142.758438)">100</text>
     </g>
    </g>
    <g id="xtick_4">
     <g id="line2d_4">
      <g>
       <use xlink:href="#mcc3b979bbb" x="172.963636" y="128.16" style="stroke: #000000; stroke-width: 0.8"/>
      </g>
     </g>
     <g id="text_4">
      <text style="font: 10px 'DejaVu Sans', 'Bitstream Vera Sans', 'Computer Modern Sans Serif', 'Lucida Grande', 'Verdana', 'Geneva', 'Lucid', 'Arial', 'Helvetica', 'Avant Garde', sans-serif; text-anchor: middle" x="172.963636" y="142.758438" transform="rotate(-0 172.963636 142.758438)">150</text>
     </g>
    </g>
    <g id="xtick_5">
     <g id="line2d_5">
      <g>
       <use xlink:href="#mcc3b979bbb" x="215.236364" y="128.16" style="stroke: #000000; stroke-width: 0.8"/>
      </g>
     </g>
     <g id="text_5">
      <text style="font: 10px 'DejaVu Sans', 'Bitstream Vera Sans', 'Computer Modern Sans Serif', 'Lucida Grande', 'Verdana', 'Geneva', 'Lucid', 'Arial', 'Helvetica', 'Avant Garde', sans-serif; text-anchor: middle" x="215.236364" y="142.758438" transform="rotate(-0 215.236364 142.758438)">200</text>
     </g>
    </g>
    <g id="xtick_6">
     <g id="line2d_6">
      <g>
       <use xlink:href="#mcc3b979bbb" x="257.509091" y="128.16" style="stroke: #000000; stroke-width: 0.8"/>
      </g>
     </g>
     <g id="text_6">
      <text style="font: 10px 'DejaVu Sans', 'Bitstream Vera Sans', 'Computer Modern Sans Serif', 'Lucida Grande', 'Verdana', 'Geneva', 'Lucid', 'Arial', 'Helvetica', 'Avant Garde', sans-serif; text-anchor: middle" x="257.509091" y="142.758438" transform="rotate(-0 257.509091 142.758438)">250</text>
     </g>
    </g>
    <g id="text_7">
     <text style="font: 10px 'DejaVu Sans', 'Bitstream Vera Sans', 'Computer Modern Sans Serif', 'Lucida Grande', 'Verdana', 'Geneva', 'Lucid', 'Arial', 'Helvetica', 'Avant Garde', sans-serif; text-anchor: middle" x="147.6" y="156.436563" transform="rotate(-0 147.6 156.436563)">Epoch</text>
    </g>
   </g>
   <g id="matplotlib.axis_2">
    <g id="ytick_1">
     <g id="line2d_7">
      <defs>
       <path id="m07ff639d85" d="M 0 0 
L -3.5 0 
" style="stroke: #000000; stroke-width: 0.8"/>
      </defs>
      <g>
       <use xlink:href="#m07ff639d85" x="36" y="119.947654" style="stroke: #000000; stroke-width: 0.8"/>
      </g>
     </g>
     <g id="text_8">
      <!-- $\mathdefault{10^{-4}}$ -->
      <g transform="translate(5.5 123.746873)">
       <text>
        <tspan style="font: 10px 'DejaVu Sans'" x="0 6.362305" y="-0.06406250000000036">10</tspan>
        <tspan style="font: 7px 'DejaVu Sans'" x="12.820312 18.685547" y="-3.8921875000000004">−4</tspan>
       </text>
      </g>
     </g>
    </g>
    <g id="ytick_2">
     <g id="line2d_8">
      <g>
       <use xlink:href="#m07ff639d85" x="36" y="90.922557" style="stroke: #000000; stroke-width: 0.8"/>
      </g>
     </g>
     <g id="text_9">
      <!-- $\mathdefault{10^{-3}}$ -->
      <g transform="translate(5.5 94.721776)">
       <text>
        <tspan style="font: 10px 'DejaVu Sans'" x="0 6.362305" y="-0.9765625">10</tspan>
        <tspan style="font: 7px 'DejaVu Sans'" x="12.820312 18.685547" y="-4.8046875">−3</tspan>
       </text>
      </g>
     </g>
    </g>
    <g id="ytick_3">
     <g id="line2d_9">
      <g>
       <use xlink:href="#m07ff639d85" x="36" y="61.89746" style="stroke: #000000; stroke-width: 0.8"/>
      </g>
     </g>
     <g id="text_10">
      <!-- $\mathdefault{10^{-2}}$ -->
      <g transform="translate(5.5 65.696679)">
       <text>
        <tspan style="font: 10px 'DejaVu Sans'" x="0 6.362305" y="-0.9765625">10</tspan>
        <tspan style="font: 7px 'DejaVu Sans'" x="12.820312 18.685547" y="-4.8046875">−2</tspan>
       </text>
      </g>
     </g>
    </g>
    <g id="ytick_4">
     <g id="line2d_10">
      <g>
       <use xlink:href="#m07ff639d85" x="36" y="32.872363" style="stroke: #000000; stroke-width: 0.8"/>
      </g>
     </g>
     <g id="text_11">
      <!-- $\mathdefault{10^{-1}}$ -->
      <g transform="translate(5.5 36.671582)">
       <text>
        <tspan style="font: 10px 'DejaVu Sans'" x="0 6.362305" y="-0.06406250000000036">10</tspan>
        <tspan style="font: 7px 'DejaVu Sans'" x="12.820312 18.685547" y="-3.8921875000000004">−1</tspan>
       </text>
      </g>
     </g>
    </g>
    <g id="ytick_5">
     <g id="line2d_11">
      <defs>
       <path id="m5b7f924601" d="M 0 0 
L -2 0 
" style="stroke: #000000; stroke-width: 0.6"/>
      </defs>
      <g>
       <use xlink:href="#m5b7f924601" x="36" y="126.386836" style="stroke: #000000; stroke-width: 0.6"/>
      </g>
     </g>
    </g>
    <g id="ytick_6">
     <g id="line2d_12">
      <g>
       <use xlink:href="#m5b7f924601" x="36" y="124.443699" style="stroke: #000000; stroke-width: 0.6"/>
      </g>
     </g>
    </g>
    <g id="ytick_7">
     <g id="line2d_13">
      <g>
       <use xlink:href="#m5b7f924601" x="36" y="122.760477" style="stroke: #000000; stroke-width: 0.6"/>
      </g>
     </g>
    </g>
    <g id="ytick_8">
     <g id="line2d_14">
      <g>
       <use xlink:href="#m5b7f924601" x="36" y="121.27577" style="stroke: #000000; stroke-width: 0.6"/>
      </g>
     </g>
    </g>
    <g id="ytick_9">
     <g id="line2d_15">
      <g>
       <use xlink:href="#m5b7f924601" x="36" y="111.21023" style="stroke: #000000; stroke-width: 0.6"/>
      </g>
     </g>
    </g>
    <g id="ytick_10">
     <g id="line2d_16">
      <g>
       <use xlink:href="#m5b7f924601" x="36" y="106.099164" style="stroke: #000000; stroke-width: 0.6"/>
      </g>
     </g>
    </g>
    <g id="ytick_11">
     <g id="line2d_17">
      <g>
       <use xlink:href="#m5b7f924601" x="36" y="102.472805" style="stroke: #000000; stroke-width: 0.6"/>
      </g>
     </g>
    </g>
    <g id="ytick_12">
     <g id="line2d_18">
      <g>
       <use xlink:href="#m5b7f924601" x="36" y="99.659982" style="stroke: #000000; stroke-width: 0.6"/>
      </g>
     </g>
    </g>
    <g id="ytick_13">
     <g id="line2d_19">
      <g>
       <use xlink:href="#m5b7f924601" x="36" y="97.361739" style="stroke: #000000; stroke-width: 0.6"/>
      </g>
     </g>
    </g>
    <g id="ytick_14">
     <g id="line2d_20">
      <g>
       <use xlink:href="#m5b7f924601" x="36" y="95.418602" style="stroke: #000000; stroke-width: 0.6"/>
      </g>
     </g>
    </g>
    <g id="ytick_15">
     <g id="line2d_21">
      <g>
       <use xlink:href="#m5b7f924601" x="36" y="93.73538" style="stroke: #000000; stroke-width: 0.6"/>
      </g>
     </g>
    </g>
    <g id="ytick_16">
     <g id="line2d_22">
      <g>
       <use xlink:href="#m5b7f924601" x="36" y="92.250673" style="stroke: #000000; stroke-width: 0.6"/>
      </g>
     </g>
    </g>
    <g id="ytick_17">
     <g id="line2d_23">
      <g>
       <use xlink:href="#m5b7f924601" x="36" y="82.185132" style="stroke: #000000; stroke-width: 0.6"/>
      </g>
     </g>
    </g>
    <g id="ytick_18">
     <g id="line2d_24">
      <g>
       <use xlink:href="#m5b7f924601" x="36" y="77.074067" style="stroke: #000000; stroke-width: 0.6"/>
      </g>
     </g>
    </g>
    <g id="ytick_19">
     <g id="line2d_25">
      <g>
       <use xlink:href="#m5b7f924601" x="36" y="73.447708" style="stroke: #000000; stroke-width: 0.6"/>
      </g>
     </g>
    </g>
    <g id="ytick_20">
     <g id="line2d_26">
      <g>
       <use xlink:href="#m5b7f924601" x="36" y="70.634885" style="stroke: #000000; stroke-width: 0.6"/>
      </g>
     </g>
    </g>
    <g id="ytick_21">
     <g id="line2d_27">
      <g>
       <use xlink:href="#m5b7f924601" x="36" y="68.336642" style="stroke: #000000; stroke-width: 0.6"/>
      </g>
     </g>
    </g>
    <g id="ytick_22">
     <g id="line2d_28">
      <g>
       <use xlink:href="#m5b7f924601" x="36" y="66.393505" style="stroke: #000000; stroke-width: 0.6"/>
      </g>
     </g>
    </g>
    <g id="ytick_23">
     <g id="line2d_29">
      <g>
       <use xlink:href="#m5b7f924601" x="36" y="64.710283" style="stroke: #000000; stroke-width: 0.6"/>
      </g>
     </g>
    </g>
    <g id="ytick_24">
     <g id="line2d_30">
      <g>
       <use xlink:href="#m5b7f924601" x="36" y="63.225576" style="stroke: #000000; stroke-width: 0.6"/>
      </g>
     </g>
    </g>
    <g id="ytick_25">
     <g id="line2d_31">
      <g>
       <use xlink:href="#m5b7f924601" x="36" y="53.160035" style="stroke: #000000; stroke-width: 0.6"/>
      </g>
     </g>
    </g>
    <g id="ytick_26">
     <g id="line2d_32">
      <g>
       <use xlink:href="#m5b7f924601" x="36" y="48.04897" style="stroke: #000000; stroke-width: 0.6"/>
      </g>
     </g>
    </g>
    <g id="ytick_27">
     <g id="line2d_33">
      <g>
       <use xlink:href="#m5b7f924601" x="36" y="44.422611" style="stroke: #000000; stroke-width: 0.6"/>
      </g>
     </g>
    </g>
    <g id="ytick_28">
     <g id="line2d_34">
      <g>
       <use xlink:href="#m5b7f924601" x="36" y="41.609788" style="stroke: #000000; stroke-width: 0.6"/>
      </g>
     </g>
    </g>
    <g id="ytick_29">
     <g id="line2d_35">
      <g>
       <use xlink:href="#m5b7f924601" x="36" y="39.311545" style="stroke: #000000; stroke-width: 0.6"/>
      </g>
     </g>
    </g>
    <g id="ytick_30">
     <g id="line2d_36">
      <g>
       <use xlink:href="#m5b7f924601" x="36" y="37.368408" style="stroke: #000000; stroke-width: 0.6"/>
      </g>
     </g>
    </g>
    <g id="ytick_31">
     <g id="line2d_37">
      <g>
       <use xlink:href="#m5b7f924601" x="36" y="35.685186" style="stroke: #000000; stroke-width: 0.6"/>
      </g>
     </g>
    </g>
    <g id="ytick_32">
     <g id="line2d_38">
      <g>
       <use xlink:href="#m5b7f924601" x="36" y="34.200479" style="stroke: #000000; stroke-width: 0.6"/>
      </g>
     </g>
    </g>
    <g id="ytick_33">
     <g id="line2d_39">
      <g>
       <use xlink:href="#m5b7f924601" x="36" y="24.134938" style="stroke: #000000; stroke-width: 0.6"/>
      </g>
     </g>
    </g>
    <g id="ytick_34">
     <g id="line2d_40">
      <g>
       <use xlink:href="#m5b7f924601" x="36" y="19.023872" style="stroke: #000000; stroke-width: 0.6"/>
      </g>
     </g>
    </g>
    <g id="text_12">
     <text style="font: 10px 'DejaVu Sans', 'Bitstream Vera Sans', 'Computer Modern Sans Serif', 'Lucida Grande', 'Verdana', 'Geneva', 'Lucid', 'Arial', 'Helvetica', 'Avant Garde', sans-serif; text-anchor: middle" x="-0.579687" y="72.72" transform="rotate(-90 -0.579687 72.72)">Loss</text>
    </g>
   </g>
   <g id="line2d_41">
    <path d="M 46.145455 22.32 
L 46.990909 54.38817 
L 47.836364 60.453771 
L 51.218182 77.375166 
L 52.063636 80.869043 
L 52.909091 83.771132 
L 53.754545 85.327248 
L 54.6 86.054878 
L 55.445455 88.369826 
L 57.136364 89.462049 
L 57.981818 91.084754 
L 58.827273 94.174129 
L 59.672727 93.18351 
L 60.518182 94.268078 
L 61.363636 94.63862 
L 62.209091 94.733158 
L 63.054545 94.331105 
L 63.9 95.791264 
L 64.745455 95.976802 
L 65.590909 96.463761 
L 66.436364 96.09952 
L 67.281818 96.676785 
L 68.127273 98.544303 
L 68.972727 98.071105 
L 69.818182 94.90485 
L 70.663636 99.396997 
L 71.509091 98.525651 
L 72.354545 100.193084 
L 73.2 98.043348 
L 74.045455 100.587826 
L 74.890909 99.25223 
L 75.736364 101.453514 
L 76.581818 100.411428 
L 77.427273 102.601779 
L 78.272727 99.494925 
L 79.118182 100.796282 
L 79.963636 99.398086 
L 80.809091 100.948726 
L 81.654545 102.744354 
L 82.5 99.935919 
L 83.345455 102.939655 
L 85.881818 105.185239 
L 86.727273 98.063824 
L 87.572727 105.250385 
L 88.418182 103.492862 
L 89.263636 104.79065 
L 90.109091 102.50341 
L 90.954545 105.3552 
L 91.8 102.912728 
L 92.645455 105.400793 
L 93.490909 108.325849 
L 94.336364 107.077981 
L 95.181818 104.828342 
L 96.027273 107.496171 
L 96.872727 106.241906 
L 97.718182 104.715274 
L 98.563636 107.084107 
L 99.409091 106.413036 
L 100.254545 104.034069 
L 101.1 106.945056 
L 101.945455 107.926577 
L 102.790909 104.544879 
L 103.636364 107.778417 
L 104.481818 107.779759 
L 105.327273 109.03026 
L 106.172727 109.64372 
L 107.018182 107.866868 
L 108.709091 108.341133 
L 109.554545 98.867288 
L 110.4 110.31336 
L 111.245455 110.388917 
L 112.090909 110.280214 
L 112.936364 109.04529 
L 113.781818 108.795127 
L 114.627273 109.716172 
L 115.472727 109.4514 
L 116.318182 109.714632 
L 117.163636 111.176984 
L 118.009091 110.332143 
L 118.854545 109.205395 
L 119.7 110.076097 
L 120.545455 111.405375 
L 121.390909 110.356859 
L 122.236364 111.411973 
L 123.081818 111.24446 
L 123.927273 110.008215 
L 125.618182 111.569912 
L 126.463636 111.918825 
L 127.309091 110.767494 
L 128.154545 112.299805 
L 129 109.955799 
L 129.845455 108.999588 
L 130.690909 112.515462 
L 131.536364 113.491241 
L 132.381818 108.689061 
L 133.227273 112.940691 
L 134.072727 112.155674 
L 134.918182 113.224742 
L 135.763636 113.641853 
L 136.609091 113.581844 
L 137.454545 111.966329 
L 138.3 113.928281 
L 139.145455 111.988395 
L 139.990909 114.033233 
L 140.836364 113.641226 
L 141.681818 113.952822 
L 142.527273 113.215411 
L 143.372727 114.644663 
L 144.218182 114.009733 
L 145.063636 112.459637 
L 145.909091 112.553933 
L 146.754545 114.004963 
L 148.445455 113.292857 
L 149.290909 114.88725 
L 150.136364 114.168519 
L 150.981818 115.611674 
L 151.827273 115.399725 
L 152.672727 114.272172 
L 153.518182 113.847867 
L 154.363636 115.02977 
L 155.209091 115.153794 
L 156.054545 115.89035 
L 156.9 116.285774 
L 157.745455 115.326311 
L 158.590909 113.915375 
L 159.436364 115.015432 
L 161.127273 116.228239 
L 161.972727 116.306488 
L 162.818182 116.115472 
L 163.663636 116.994406 
L 164.509091 117.254913 
L 165.354545 116.431213 
L 166.2 116.526599 
L 167.890909 116.092699 
L 168.736364 116.673705 
L 169.581818 117.440965 
L 170.427273 116.05446 
L 171.272727 116.604546 
L 172.118182 117.301761 
L 172.963636 116.789816 
L 173.809091 117.521253 
L 174.654545 116.909384 
L 176.345455 117.247857 
L 177.190909 117.7314 
L 178.036364 118.020457 
L 178.881818 118.523179 
L 179.727273 117.295749 
L 180.572727 118.188879 
L 181.418182 117.312987 
L 182.263636 117.138072 
L 183.109091 116.28306 
L 183.954545 119.129809 
L 184.8 118.668803 
L 185.645455 118.908591 
L 186.490909 118.038666 
L 187.336364 118.737654 
L 189.027273 118.419151 
L 189.872727 118.874757 
L 190.718182 119.063679 
L 191.563636 118.752171 
L 192.409091 119.383658 
L 193.254545 118.308807 
L 194.1 120.192521 
L 194.945455 118.874515 
L 196.636364 119.94775 
L 197.481818 120.091664 
L 198.327273 119.118688 
L 199.172727 119.428095 
L 200.018182 119.386379 
L 200.863636 120.22983 
L 201.709091 120.632139 
L 202.554545 119.739536 
L 203.4 119.410097 
L 204.245455 119.636705 
L 205.090909 119.562073 
L 205.936364 119.91389 
L 207.627273 120.115542 
L 208.472727 118.747098 
L 209.318182 120.4804 
L 210.163636 120.824528 
L 211.009091 120.296616 
L 211.854545 120.123409 
L 212.7 120.445913 
L 213.545455 119.945 
L 214.390909 121.325177 
L 215.236364 120.840115 
L 216.081818 121.246379 
L 216.927273 120.002764 
L 218.618182 121.688736 
L 219.463636 120.883042 
L 220.309091 120.499219 
L 221.154545 121.779004 
L 222 121.295195 
L 223.690909 121.281075 
L 224.536364 120.868279 
L 225.381818 120.598795 
L 226.227273 121.679249 
L 227.072727 121.905618 
L 227.918182 121.850581 
L 228.763636 121.079153 
L 229.609091 121.356189 
L 230.454545 121.783073 
L 231.3 121.399027 
L 232.145455 121.964168 
L 232.990909 122.030919 
L 233.836364 122.341516 
L 234.681818 121.839837 
L 235.527273 122.05032 
L 236.372727 121.909328 
L 237.218182 122.293812 
L 238.063636 121.076943 
L 239.754545 122.760224 
L 240.6 122.260035 
L 241.445455 122.66525 
L 242.290909 122.444979 
L 243.136364 121.573564 
L 243.981818 122.489646 
L 244.827273 123.12 
L 245.672727 122.588129 
L 246.518182 122.33744 
L 247.363636 122.92886 
L 248.209091 122.922196 
L 249.054545 122.367373 
L 249.054545 122.367373 
" clip-path="url(#p8b09aaa182)" style="fill: none; stroke: #1f77b4; stroke-width: 1.5; stroke-linecap: square"/>
   </g>
   <g id="line2d_42">
    <path d="M 46.145455 49.896948 
L 46.990909 57.588747 
L 47.836364 62.632236 
L 48.681818 66.127812 
L 49.527273 71.103143 
L 50.372727 74.255753 
L 51.218182 79.686981 
L 52.063636 78.541064 
L 52.909091 84.367341 
L 53.754545 81.186203 
L 54.6 86.664534 
L 55.445455 87.686661 
L 56.290909 87.764945 
L 57.136364 87.969008 
L 57.981818 89.17608 
L 58.827273 90.797819 
L 59.672727 92.813145 
L 60.518182 87.27058 
L 61.363636 90.956915 
L 62.209091 92.321315 
L 63.054545 91.593363 
L 63.9 88.327328 
L 64.745455 92.921915 
L 65.590909 95.244953 
L 66.436364 96.926611 
L 67.281818 89.177078 
L 68.127273 94.86462 
L 68.972727 86.894877 
L 69.818182 96.922651 
L 70.663636 96.364673 
L 71.509091 97.361533 
L 72.354545 94.289303 
L 73.2 95.948356 
L 74.045455 98.209558 
L 74.890909 95.979104 
L 75.736364 95.933678 
L 76.581818 92.420158 
L 77.427273 83.181943 
L 78.272727 96.254106 
L 79.118182 98.702905 
L 79.963636 93.842317 
L 80.809091 96.326515 
L 81.654545 97.91529 
L 82.5 93.790415 
L 83.345455 101.390642 
L 84.190909 97.385222 
L 85.036364 99.575791 
L 85.881818 89.770619 
L 86.727273 99.620632 
L 87.572727 95.194703 
L 88.418182 103.296723 
L 89.263636 101.573536 
L 90.109091 102.474677 
L 90.954545 95.233792 
L 91.8 102.537952 
L 92.645455 104.698385 
L 93.490909 96.577521 
L 94.336364 104.658114 
L 96.027273 102.305611 
L 97.718182 100.175849 
L 98.563636 102.405724 
L 99.409091 102.012107 
L 100.254545 99.367963 
L 101.945455 105.529944 
L 102.790909 96.614743 
L 103.636364 99.470001 
L 104.481818 105.617026 
L 105.327273 103.547869 
L 106.172727 103.866569 
L 107.018182 102.124383 
L 107.863636 104.250453 
L 108.709091 90.612234 
L 109.554545 105.729345 
L 110.4 105.796213 
L 111.245455 105.114452 
L 112.090909 105.573392 
L 112.936364 104.613089 
L 113.781818 105.434374 
L 114.627273 104.36658 
L 115.472727 104.938739 
L 116.318182 103.114059 
L 117.163636 107.051359 
L 118.009091 102.527314 
L 118.854545 105.20266 
L 119.7 105.494888 
L 120.545455 104.297383 
L 121.390909 103.848225 
L 122.236364 104.368955 
L 123.081818 103.6545 
L 123.927273 105.697676 
L 124.772727 101.717104 
L 125.618182 105.982759 
L 126.463636 103.443343 
L 127.309091 106.389837 
L 128.154545 105.63366 
L 129 102.106212 
L 129.845455 105.43522 
L 130.690909 107.30364 
L 131.536364 106.344418 
L 132.381818 108.230507 
L 133.227273 108.60864 
L 134.072727 105.921745 
L 134.918182 105.532138 
L 135.763636 106.264325 
L 136.609091 104.643301 
L 137.454545 106.802446 
L 138.3 108.071006 
L 139.145455 107.842476 
L 139.990909 108.686972 
L 140.836364 106.889304 
L 141.681818 106.568918 
L 142.527273 106.059338 
L 143.372727 106.057415 
L 144.218182 106.682858 
L 145.063636 107.527551 
L 145.909091 106.45591 
L 146.754545 108.576292 
L 147.6 105.263811 
L 148.445455 106.754604 
L 149.290909 105.724897 
L 150.136364 108.856571 
L 150.981818 105.597623 
L 151.827273 104.744775 
L 152.672727 108.647211 
L 153.518182 104.716755 
L 154.363636 106.207938 
L 156.054545 107.969906 
L 156.9 106.750678 
L 157.745455 107.070296 
L 158.590909 105.78929 
L 159.436364 108.662463 
L 160.281818 108.315636 
L 161.127273 108.70312 
L 161.972727 105.832337 
L 162.818182 108.767252 
L 163.663636 108.704925 
L 164.509091 109.294404 
L 165.354545 108.664985 
L 166.2 104.691967 
L 167.045455 107.745247 
L 167.890909 108.977912 
L 168.736364 107.898539 
L 169.581818 108.282523 
L 170.427273 107.080452 
L 171.272727 108.139934 
L 172.118182 110.115953 
L 172.963636 107.90744 
L 173.809091 107.956735 
L 174.654545 109.467797 
L 175.5 107.454241 
L 176.345455 109.641404 
L 177.190909 109.411573 
L 178.036364 108.920397 
L 178.881818 108.971601 
L 179.727273 109.760601 
L 180.572727 109.948552 
L 181.418182 109.225692 
L 182.263636 110.049734 
L 183.109091 106.401893 
L 183.954545 110.042014 
L 184.8 109.598133 
L 185.645455 108.714227 
L 186.490909 108.291009 
L 187.336364 107.460569 
L 189.027273 109.938563 
L 189.872727 110.123356 
L 190.718182 108.221083 
L 191.563636 108.432962 
L 192.409091 109.318332 
L 193.254545 109.554242 
L 194.1 108.631884 
L 194.945455 109.41639 
L 195.790909 109.205895 
L 196.636364 107.207462 
L 197.481818 108.90388 
L 198.327273 109.819644 
L 199.172727 108.960188 
L 200.018182 109.45498 
L 200.863636 108.718167 
L 201.709091 110.60765 
L 202.554545 109.809747 
L 203.4 109.343206 
L 204.245455 110.264649 
L 205.090909 108.324803 
L 205.936364 108.831297 
L 206.781818 110.633661 
L 207.627273 110.373144 
L 208.472727 109.632282 
L 209.318182 110.140864 
L 210.163636 108.072289 
L 211.009091 109.495338 
L 211.854545 109.340872 
L 212.7 108.115243 
L 213.545455 109.570821 
L 214.390909 108.832699 
L 215.236364 110.588141 
L 216.081818 106.58205 
L 216.927273 110.184581 
L 217.772727 110.13292 
L 218.618182 109.933377 
L 219.463636 109.118412 
L 220.309091 110.212671 
L 221.154545 109.305624 
L 222 110.584972 
L 222.845455 109.768655 
L 223.690909 111.198981 
L 224.536364 111.069268 
L 225.381818 108.280629 
L 226.227273 109.855972 
L 227.072727 110.039041 
L 227.918182 109.469332 
L 228.763636 108.567556 
L 229.609091 110.761833 
L 230.454545 109.85074 
L 231.3 110.644686 
L 232.145455 110.102507 
L 232.990909 110.585978 
L 233.836364 108.682692 
L 234.681818 109.895744 
L 235.527273 110.517529 
L 236.372727 110.253441 
L 237.218182 108.133838 
L 238.063636 110.630227 
L 238.909091 110.910156 
L 239.754545 110.00981 
L 240.6 109.550945 
L 242.290909 111.053893 
L 243.136364 110.22501 
L 243.981818 110.329284 
L 244.827273 110.858084 
L 245.672727 110.597223 
L 246.518182 110.160126 
L 247.363636 110.91087 
L 248.209091 110.56471 
L 249.054545 110.918478 
L 249.054545 110.918478 
" clip-path="url(#p8b09aaa182)" style="fill: none; stroke: #ff7f0e; stroke-width: 1.5; stroke-linecap: square"/>
   </g>
   <g id="patch_3">
    <path d="M 36 128.16 
L 36 17.28 
" style="fill: none; stroke: #000000; stroke-width: 0.8; stroke-linejoin: miter; stroke-linecap: square"/>
   </g>
   <g id="patch_4">
    <path d="M 259.2 128.16 
L 259.2 17.28 
" style="fill: none; stroke: #000000; stroke-width: 0.8; stroke-linejoin: miter; stroke-linecap: square"/>
   </g>
   <g id="patch_5">
    <path d="M 36 128.16 
L 259.2 128.16 
" style="fill: none; stroke: #000000; stroke-width: 0.8; stroke-linejoin: miter; stroke-linecap: square"/>
   </g>
   <g id="patch_6">
    <path d="M 36 17.28 
L 259.2 17.28 
" style="fill: none; stroke: #000000; stroke-width: 0.8; stroke-linejoin: miter; stroke-linecap: square"/>
   </g>
   <g id="legend_1">
    <g id="patch_7">
     <path d="M 180.748437 54.63625 
L 252.2 54.63625 
Q 254.2 54.63625 254.2 52.63625 
L 254.2 24.28 
Q 254.2 22.28 252.2 22.28 
L 180.748437 22.28 
Q 178.748437 22.28 178.748437 24.28 
L 178.748437 52.63625 
Q 178.748437 54.63625 180.748437 54.63625 
z
" style="fill: #ffffff; opacity: 0.8; stroke: #cccccc; stroke-linejoin: miter"/>
    </g>
    <g id="line2d_43">
     <path d="M 182.748437 30.378438 
L 192.748437 30.378438 
L 202.748437 30.378438 
" style="fill: none; stroke: #1f77b4; stroke-width: 1.5; stroke-linecap: square"/>
    </g>
    <g id="text_13">
     <text style="font: 10px 'DejaVu Sans', 'Bitstream Vera Sans', 'Computer Modern Sans Serif', 'Lucida Grande', 'Verdana', 'Geneva', 'Lucid', 'Arial', 'Helvetica', 'Avant Garde', sans-serif; text-anchor: start" x="210.748437" y="33.878438" transform="rotate(-0 210.748437 33.878438)">Training</text>
    </g>
    <g id="line2d_44">
     <path d="M 182.748437 45.056563 
L 192.748437 45.056563 
L 202.748437 45.056563 
" style="fill: none; stroke: #ff7f0e; stroke-width: 1.5; stroke-linecap: square"/>
    </g>
    <g id="text_14">
     <text style="font: 10px 'DejaVu Sans', 'Bitstream Vera Sans', 'Computer Modern Sans Serif', 'Lucida Grande', 'Verdana', 'Geneva', 'Lucid', 'Arial', 'Helvetica', 'Avant Garde', sans-serif; text-anchor: start" x="210.748437" y="48.556563" transform="rotate(-0 210.748437 48.556563)">Testing</text>
    </g>
   </g>
  </g>
 </g>
 <defs>
  <clipPath id="p8b09aaa182">
   <rect x="36" y="17.28" width="223.2" height="110.88"/>
  </clipPath>
 </defs>
</svg>
