<?xml version="1.0" encoding="utf-8" standalone="no"?>
<!DOCTYPE svg PUBLIC "-//W3C//DTD SVG 1.1//EN"
  "http://www.w3.org/Graphics/SVG/1.1/DTD/svg11.dtd">
<svg xmlns:xlink="http://www.w3.org/1999/xlink" width="720pt" height="194.4pt" viewBox="0 0 720 194.4" xmlns="http://www.w3.org/2000/svg" version="1.1">
 <metadata>
  <rdf:RDF xmlns:dc="http://purl.org/dc/elements/1.1/" xmlns:cc="http://creativecommons.org/ns#" xmlns:rdf="http://www.w3.org/1999/02/22-rdf-syntax-ns#">
   <cc:Work>
    <dc:type rdf:resource="http://purl.org/dc/dcmitype/StillImage"/>
    <dc:date>2025-04-11T23:42:23.240313</dc:date>
    <dc:format>image/svg+xml</dc:format>
    <dc:creator>
     <cc:Agent>
      <dc:title>Matplotlib v3.8.4, https://matplotlib.org/</dc:title>
     </cc:Agent>
    </dc:creator>
   </cc:Work>
  </rdf:RDF>
 </metadata>
 <defs>
  <style type="text/css">*{stroke-linejoin: round; stroke-linecap: butt}</style>
 </defs>
 <g id="figure_1">
  <g id="patch_1">
   <path d="M 0 194.4 
L 720 194.4 
L 720 0 
L 0 0 
z
" style="fill: #ffffff"/>
  </g>
  <g id="axes_1">
   <g id="patch_2">
    <path d="M 33.73 87.689008 
L 157.384 87.689008 
L 157.384 10.8 
L 33.73 10.8 
z
" style="fill: #ffffff"/>
   </g>
   <g id="matplotlib.axis_1">
    <g id="xtick_1">
     <g id="line2d_1">
      <defs>
       <path id="m34114d89c6" d="M 0 0 
L 0 3.5 
" style="stroke: #000000; stroke-width: 0.8"/>
      </defs>
      <g>
       <use xlink:href="#m34114d89c6" x="39.350636" y="87.689008" style="stroke: #000000; stroke-width: 0.8"/>
      </g>
     </g>
    </g>
    <g id="xtick_2">
     <g id="line2d_2">
      <g>
       <use xlink:href="#m34114d89c6" x="76.134906" y="87.689008" style="stroke: #000000; stroke-width: 0.8"/>
      </g>
     </g>
    </g>
    <g id="xtick_3">
     <g id="line2d_3">
      <g>
       <use xlink:href="#m34114d89c6" x="112.919175" y="87.689008" style="stroke: #000000; stroke-width: 0.8"/>
      </g>
     </g>
    </g>
    <g id="xtick_4">
     <g id="line2d_4">
      <g>
       <use xlink:href="#m34114d89c6" x="149.703445" y="87.689008" style="stroke: #000000; stroke-width: 0.8"/>
      </g>
     </g>
    </g>
   </g>
   <g id="matplotlib.axis_2">
    <g id="ytick_1">
     <g id="line2d_5">
      <defs>
       <path id="m495165b88c" d="M 0 0 
L -3.5 0 
" style="stroke: #000000; stroke-width: 0.8"/>
      </defs>
      <g>
       <use xlink:href="#m495165b88c" x="33.73" y="85.418716" style="stroke: #000000; stroke-width: 0.8"/>
      </g>
     </g>
     <g id="text_1">
      <!-- 0.0 -->
      <g transform="translate(10.826875 89.217935) scale(0.1 -0.1)">
       <defs>
        <path id="DejaVuSans-30" d="M 2034 4250 
Q 1547 4250 1301 3770 
Q 1056 3291 1056 2328 
Q 1056 1369 1301 889 
Q 1547 409 2034 409 
Q 2525 409 2770 889 
Q 3016 1369 3016 2328 
Q 3016 3291 2770 3770 
Q 2525 4250 2034 4250 
z
M 2034 4750 
Q 2819 4750 3233 4129 
Q 3647 3509 3647 2328 
Q 3647 1150 3233 529 
Q 2819 -91 2034 -91 
Q 1250 -91 836 529 
Q 422 1150 422 2328 
Q 422 3509 836 4129 
Q 1250 4750 2034 4750 
z
" transform="scale(0.015625)"/>
        <path id="DejaVuSans-2e" d="M 684 794 
L 1344 794 
L 1344 0 
L 684 0 
L 684 794 
z
" transform="scale(0.015625)"/>
       </defs>
       <use xlink:href="#DejaVuSans-30"/>
       <use xlink:href="#DejaVuSans-2e" x="63.623047"/>
       <use xlink:href="#DejaVuSans-30" x="95.410156"/>
      </g>
     </g>
    </g>
    <g id="ytick_2">
     <g id="line2d_6">
      <g>
       <use xlink:href="#m495165b88c" x="33.73" y="43.901875" style="stroke: #000000; stroke-width: 0.8"/>
      </g>
     </g>
     <g id="text_2">
      <!-- 0.5 -->
      <g transform="translate(10.826875 47.701094) scale(0.1 -0.1)">
       <defs>
        <path id="DejaVuSans-35" d="M 691 4666 
L 3169 4666 
L 3169 4134 
L 1269 4134 
L 1269 2991 
Q 1406 3038 1543 3061 
Q 1681 3084 1819 3084 
Q 2600 3084 3056 2656 
Q 3513 2228 3513 1497 
Q 3513 744 3044 326 
Q 2575 -91 1722 -91 
Q 1428 -91 1123 -41 
Q 819 9 494 109 
L 494 744 
Q 775 591 1075 516 
Q 1375 441 1709 441 
Q 2250 441 2565 725 
Q 2881 1009 2881 1497 
Q 2881 1984 2565 2268 
Q 2250 2553 1709 2553 
Q 1456 2553 1204 2497 
Q 953 2441 691 2322 
L 691 4666 
z
" transform="scale(0.015625)"/>
       </defs>
       <use xlink:href="#DejaVuSans-30"/>
       <use xlink:href="#DejaVuSans-2e" x="63.623047"/>
       <use xlink:href="#DejaVuSans-35" x="95.410156"/>
      </g>
     </g>
    </g>
   </g>
   <g id="line2d_7">
    <path d="M 39.350636 72.739599 
L 40.086322 69.999932 
L 41.116281 65.138193 
L 41.999104 61.180216 
L 42.881926 58.273156 
L 43.911886 55.760186 
L 45.236119 53.129502 
L 46.854627 50.429014 
L 50.091643 45.570842 
L 55.094304 38.500786 
L 57.889908 34.888899 
L 60.244101 32.188258 
L 62.598295 29.828671 
L 64.952488 27.795513 
L 67.453818 25.930399 
L 70.39656 24.012349 
L 73.633575 22.182395 
L 76.723454 20.645824 
L 76.870591 84.063963 
L 77.606277 83.360482 
L 78.489099 82.162842 
L 80.401881 79.363447 
L 82.314663 77.109637 
L 86.140227 72.981223 
L 99.971112 58.065914 
L 111.006393 45.773212 
L 114.243409 42.116978 
L 114.390546 73.414874 
L 116.450465 71.783677 
L 118.510384 69.866241 
L 120.570303 67.636013 
L 122.630222 65.071584 
L 124.837278 61.948066 
L 127.338609 57.989862 
L 134.106914 47.005351 
L 136.31397 43.996058 
L 138.37389 41.545683 
L 140.433809 39.427646 
L 142.788002 37.344065 
L 145.289332 35.416176 
L 148.084937 33.541956 
L 151.174815 31.736624 
L 151.763364 31.419015 
L 151.763364 31.419015 
" clip-path="url(#pc5fe57f4c0)" style="fill: none; stroke: #0000ff; stroke-width: 1.5; stroke-linecap: square"/>
   </g>
   <g id="line2d_8">
    <path d="M 39.350636 72.739298 
L 40.086322 70.005624 
L 41.116281 65.166669 
L 41.999104 61.191141 
L 42.881926 58.301909 
L 43.764749 56.116073 
L 45.088982 53.420878 
L 46.70749 50.655445 
L 49.797369 46.014802 
L 56.859949 36.185667 
L 61.421198 30.972806 
L 63.775391 28.776071 
L 66.423859 26.709001 
L 68.630915 25.171272 
L 74.369261 21.814165 
L 76.134906 20.940692 
L 76.42918 20.713326 
L 76.723454 20.775186 
L 76.870591 84.05586 
L 77.753414 83.188398 
L 78.636236 81.930746 
L 80.549018 79.17767 
L 83.933171 75.378537 
L 85.845953 73.339917 
L 89.818654 69.161386 
L 90.995751 67.913908 
L 94.968452 63.652279 
L 95.998411 62.544427 
L 108.799337 48.551855 
L 109.240748 48.016204 
L 111.15353 45.889726 
L 111.889216 45.065928 
L 113.066312 43.718433 
L 113.949135 42.978563 
L 114.243409 42.307037 
L 114.390546 73.400719 
L 115.71478 72.427774 
L 119.540344 68.834408 
L 123.660182 63.745175 
L 124.837278 61.983829 
L 125.425827 61.105065 
L 125.867238 60.488556 
L 131.605584 50.978904 
L 133.81264 47.639538 
L 134.106914 47.274324 
L 134.695463 46.180909 
L 135.136874 45.735348 
L 136.31397 44.108551 
L 136.755382 43.559604 
L 137.049656 43.28671 
L 137.491067 42.594892 
L 137.638204 42.525668 
L 138.521027 41.483996 
L 138.815301 41.26977 
L 139.550986 40.380247 
L 139.698123 40.340886 
L 140.728083 39.269999 
L 140.87522 39.267876 
L 141.905179 38.147186 
L 142.493728 37.65384 
L 142.640865 37.593351 
L 142.935139 37.157298 
L 143.082276 37.195426 
L 144.995058 35.784149 
L 145.289332 35.466792 
L 145.730743 35.358493 
L 146.613566 34.598386 
L 146.760703 34.589626 
L 147.496388 33.981445 
L 148.084937 33.719494 
L 148.379211 33.579778 
L 148.967759 33.239402 
L 149.262033 33.073985 
L 149.556307 32.778494 
L 149.703445 32.820592 
L 150.43913 32.341015 
L 150.586267 32.335581 
L 150.733404 32.44771 
L 151.174815 31.643713 
L 151.321952 31.80479 
L 151.469089 31.707776 
L 151.616227 31.370795 
L 151.763364 30.651954 
L 151.763364 30.651954 
" clip-path="url(#pc5fe57f4c0)" style="fill: none; stroke: #ffa500; stroke-width: 1.5; stroke-linecap: square"/>
   </g>
   <g id="patch_3">
    <path d="M 33.73 87.689008 
L 33.73 10.8 
" style="fill: none; stroke: #000000; stroke-width: 0.8; stroke-linejoin: miter; stroke-linecap: square"/>
   </g>
   <g id="patch_4">
    <path d="M 157.384 87.689008 
L 157.384 10.8 
" style="fill: none; stroke: #000000; stroke-width: 0.8; stroke-linejoin: miter; stroke-linecap: square"/>
   </g>
   <g id="patch_5">
    <path d="M 33.73 87.689008 
L 157.384 87.689008 
" style="fill: none; stroke: #000000; stroke-width: 0.8; stroke-linejoin: miter; stroke-linecap: square"/>
   </g>
   <g id="patch_6">
    <path d="M 33.73 10.8 
L 157.384 10.8 
" style="fill: none; stroke: #000000; stroke-width: 0.8; stroke-linejoin: miter; stroke-linecap: square"/>
   </g>
  </g>
  <g id="axes_2">
   <g id="patch_7">
    <path d="M 171.684 87.689008 
L 295.338 87.689008 
L 295.338 10.8 
L 171.684 10.8 
z
" style="fill: #ffffff"/>
   </g>
   <g id="matplotlib.axis_3">
    <g id="xtick_5">
     <g id="line2d_9">
      <g>
       <use xlink:href="#m34114d89c6" x="177.304636" y="87.689008" style="stroke: #000000; stroke-width: 0.8"/>
      </g>
     </g>
    </g>
    <g id="xtick_6">
     <g id="line2d_10">
      <g>
       <use xlink:href="#m34114d89c6" x="214.088906" y="87.689008" style="stroke: #000000; stroke-width: 0.8"/>
      </g>
     </g>
    </g>
    <g id="xtick_7">
     <g id="line2d_11">
      <g>
       <use xlink:href="#m34114d89c6" x="250.873175" y="87.689008" style="stroke: #000000; stroke-width: 0.8"/>
      </g>
     </g>
    </g>
    <g id="xtick_8">
     <g id="line2d_12">
      <g>
       <use xlink:href="#m34114d89c6" x="287.657445" y="87.689008" style="stroke: #000000; stroke-width: 0.8"/>
      </g>
     </g>
    </g>
   </g>
   <g id="matplotlib.axis_4">
    <g id="ytick_3">
     <g id="line2d_13">
      <g>
       <use xlink:href="#m495165b88c" x="171.684" y="85.418716" style="stroke: #000000; stroke-width: 0.8"/>
      </g>
     </g>
    </g>
    <g id="ytick_4">
     <g id="line2d_14">
      <g>
       <use xlink:href="#m495165b88c" x="171.684" y="43.901875" style="stroke: #000000; stroke-width: 0.8"/>
      </g>
     </g>
    </g>
   </g>
   <g id="line2d_15">
    <path d="M 177.304636 73.925818 
L 178.040322 71.387081 
L 178.923144 67.410773 
L 180.100241 61.967991 
L 180.983063 59.015271 
L 182.013023 56.466157 
L 183.190119 54.113894 
L 184.66149 51.705429 
L 188.781328 45.709996 
L 195.108223 36.924314 
L 197.75669 33.629859 
L 200.110883 31.060466 
L 202.465077 28.834007 
L 204.966407 26.788985 
L 207.614874 24.914854 
L 210.557616 23.103212 
L 213.941769 21.29014 
L 214.677454 20.927255 
L 214.824591 84.034729 
L 215.560277 83.328625 
L 216.295962 82.327796 
L 219.091566 78.074173 
L 221.298623 75.485449 
L 227.47838 68.893129 
L 239.54362 55.893164 
L 252.197409 41.902198 
L 252.344546 75.479221 
L 254.698739 76.393705 
L 257.052932 77.065765 
L 259.407126 77.514591 
L 261.908456 77.765403 
L 264.556923 77.804357 
L 267.646802 77.612248 
L 289.717364 75.617799 
L 289.717364 75.617799 
" clip-path="url(#p054e7d98ce)" style="fill: none; stroke: #0000ff; stroke-width: 1.5; stroke-linecap: square"/>
   </g>
   <g id="line2d_16">
    <path d="M 177.304636 73.915807 
L 177.746048 72.491715 
L 178.481733 69.531331 
L 180.541652 60.365834 
L 181.424475 57.875236 
L 182.601571 55.218566 
L 184.367216 52.184241 
L 187.898506 46.987947 
L 188.781328 45.699301 
L 190.105562 43.836174 
L 195.549634 36.395255 
L 200.25802 30.95729 
L 202.612214 28.694281 
L 203.200762 28.307323 
L 206.732052 25.528139 
L 207.3206 25.178161 
L 207.909149 24.813673 
L 211.734713 22.462762 
L 214.530317 21.00954 
L 214.677454 21.086515 
L 214.824591 84.032499 
L 215.413139 83.489364 
L 216.148825 82.560806 
L 218.797292 78.43963 
L 222.034308 74.748584 
L 226.154146 70.389119 
L 227.036969 69.455668 
L 228.508339 67.846185 
L 229.538299 66.750897 
L 231.892492 64.201765 
L 234.835234 61.062903 
L 235.570919 60.294182 
L 251.020312 43.553006 
L 251.167449 43.443446 
L 251.461723 42.865113 
L 251.755998 41.711654 
L 252.050272 42.464387 
L 252.197409 44.79031 
L 252.344546 75.273819 
L 252.785957 75.683076 
L 253.080231 75.741664 
L 253.963054 76.069207 
L 256.758658 76.940536 
L 256.905795 76.871707 
L 257.347207 77.009222 
L 257.788618 77.080839 
L 258.377166 77.254931 
L 258.818577 77.264877 
L 259.7014 77.444041 
L 262.938416 77.661114 
L 263.085553 77.75116 
L 263.379827 77.657527 
L 263.674101 77.674512 
L 264.409786 77.676092 
L 267.941076 77.377978 
L 268.088213 77.346397 
L 268.382487 77.455797 
L 268.971036 77.330404 
L 269.26531 77.397875 
L 269.559584 77.225574 
L 269.853858 77.241628 
L 271.913777 76.994927 
L 273.238011 76.855509 
L 273.385148 76.749234 
L 273.826559 76.810481 
L 274.120833 76.716268 
L 274.415108 76.7664 
L 274.709382 76.619503 
L 275.150793 76.695917 
L 275.445067 76.53767 
L 275.739341 76.65789 
L 276.32789 76.52288 
L 276.622164 76.4847 
L 276.916438 76.389006 
L 277.946397 76.352038 
L 278.682083 76.329349 
L 279.123494 76.196677 
L 281.33055 75.978629 
L 281.477687 75.911345 
L 281.624824 76.058353 
L 281.771961 76.00046 
L 282.066236 76.055517 
L 282.949058 75.876648 
L 286.480348 75.568931 
L 286.627485 75.493242 
L 286.774622 75.597531 
L 287.068896 75.543484 
L 287.36317 75.596604 
L 287.657445 75.489477 
L 287.951719 75.547827 
L 288.540267 75.431209 
L 288.834541 75.583315 
L 289.128815 75.469119 
L 289.275952 75.588216 
L 289.570227 75.026745 
L 289.717364 74.329313 
L 289.717364 74.329313 
" clip-path="url(#p054e7d98ce)" style="fill: none; stroke: #ffa500; stroke-width: 1.5; stroke-linecap: square"/>
   </g>
   <g id="patch_8">
    <path d="M 171.684 87.689008 
L 171.684 10.8 
" style="fill: none; stroke: #000000; stroke-width: 0.8; stroke-linejoin: miter; stroke-linecap: square"/>
   </g>
   <g id="patch_9">
    <path d="M 295.338 87.689008 
L 295.338 10.8 
" style="fill: none; stroke: #000000; stroke-width: 0.8; stroke-linejoin: miter; stroke-linecap: square"/>
   </g>
   <g id="patch_10">
    <path d="M 171.684 87.689008 
L 295.338 87.689008 
" style="fill: none; stroke: #000000; stroke-width: 0.8; stroke-linejoin: miter; stroke-linecap: square"/>
   </g>
   <g id="patch_11">
    <path d="M 171.684 10.8 
L 295.338 10.8 
" style="fill: none; stroke: #000000; stroke-width: 0.8; stroke-linejoin: miter; stroke-linecap: square"/>
   </g>
  </g>
  <g id="axes_3">
   <g id="patch_12">
    <path d="M 309.638 87.689008 
L 433.292 87.689008 
L 433.292 10.8 
L 309.638 10.8 
z
" style="fill: #ffffff"/>
   </g>
   <g id="matplotlib.axis_5">
    <g id="xtick_9">
     <g id="line2d_17">
      <g>
       <use xlink:href="#m34114d89c6" x="315.258636" y="87.689008" style="stroke: #000000; stroke-width: 0.8"/>
      </g>
     </g>
    </g>
    <g id="xtick_10">
     <g id="line2d_18">
      <g>
       <use xlink:href="#m34114d89c6" x="352.042906" y="87.689008" style="stroke: #000000; stroke-width: 0.8"/>
      </g>
     </g>
    </g>
    <g id="xtick_11">
     <g id="line2d_19">
      <g>
       <use xlink:href="#m34114d89c6" x="388.827175" y="87.689008" style="stroke: #000000; stroke-width: 0.8"/>
      </g>
     </g>
    </g>
    <g id="xtick_12">
     <g id="line2d_20">
      <g>
       <use xlink:href="#m34114d89c6" x="425.611445" y="87.689008" style="stroke: #000000; stroke-width: 0.8"/>
      </g>
     </g>
    </g>
   </g>
   <g id="matplotlib.axis_6">
    <g id="ytick_5">
     <g id="line2d_21">
      <g>
       <use xlink:href="#m495165b88c" x="309.638" y="85.418716" style="stroke: #000000; stroke-width: 0.8"/>
      </g>
     </g>
    </g>
    <g id="ytick_6">
     <g id="line2d_22">
      <g>
       <use xlink:href="#m495165b88c" x="309.638" y="43.901875" style="stroke: #000000; stroke-width: 0.8"/>
      </g>
     </g>
    </g>
   </g>
   <g id="line2d_23">
    <path d="M 315.258636 73.637019 
L 315.994322 71.046122 
L 316.877144 67.020549 
L 318.054241 61.616911 
L 318.937063 58.717738 
L 319.967023 56.200583 
L 321.291257 53.602202 
L 322.909764 50.983861 
L 326.882465 45.169687 
L 332.767949 36.985645 
L 335.416416 33.68625 
L 337.770609 31.116342 
L 340.124802 28.888418 
L 342.626133 26.841669 
L 345.2746 24.965668 
L 348.217342 23.154511 
L 351.601495 21.339434 
L 352.631454 20.833552 
L 352.778591 83.731117 
L 353.514277 82.930609 
L 354.249962 81.821321 
L 356.309881 78.405467 
L 357.781252 76.593789 
L 359.841171 74.406407 
L 366.020928 68.402996 
L 385.590159 49.560622 
L 390.151409 45.102779 
L 390.298546 74.033041 
L 392.358465 74.097035 
L 394.418384 73.923131 
L 396.478303 73.511604 
L 398.538222 72.861513 
L 400.598141 71.979316 
L 402.805198 70.790462 
L 405.600802 69.011807 
L 411.192011 65.400279 
L 413.987615 63.904019 
L 416.930357 62.604104 
L 420.461647 61.301328 
L 424.434348 60.070473 
L 427.671364 59.21136 
L 427.671364 59.21136 
" clip-path="url(#p9e1f56dc54)" style="fill: none; stroke: #0000ff; stroke-width: 1.5; stroke-linecap: square"/>
   </g>
   <g id="line2d_24">
    <path d="M 315.258636 73.642875 
L 315.847185 71.641353 
L 316.58287 68.474492 
L 318.201378 61.102165 
L 319.0842 58.346659 
L 320.11416 55.902683 
L 321.438394 53.398384 
L 323.351176 50.340812 
L 325.558232 47.071687 
L 327.912425 43.757789 
L 331.002304 39.43792 
L 335.71069 33.363993 
L 339.830528 29.154774 
L 344.686052 25.391774 
L 346.451697 24.244031 
L 347.187382 23.774041 
L 348.953027 22.766791 
L 350.571535 21.914084 
L 352.631454 20.89361 
L 352.778591 83.725159 
L 353.514277 82.937133 
L 354.397099 81.569123 
L 356.162744 78.645445 
L 357.634115 76.815821 
L 359.988308 74.314527 
L 362.048227 72.32473 
L 363.225324 71.157707 
L 368.522258 66.071872 
L 370.287903 64.379209 
L 383.677377 51.403199 
L 384.5602 50.469244 
L 385.443022 49.691879 
L 386.472982 48.696408 
L 387.06153 48.236824 
L 387.650079 47.608212 
L 389.415723 45.883824 
L 390.151409 44.891704 
L 390.298546 74.081045 
L 390.739957 74.117264 
L 391.475643 74.120346 
L 393.976973 73.970166 
L 396.62544 73.48506 
L 399.126771 72.685734 
L 399.862456 72.361538 
L 400.892416 71.892677 
L 401.333827 71.613731 
L 401.922375 71.364871 
L 403.393746 70.4582 
L 404.129431 70.027764 
L 406.042213 68.768364 
L 406.483624 68.404473 
L 407.072173 68.054949 
L 411.339148 65.353311 
L 414.134752 63.813761 
L 415.017575 63.519442 
L 415.75326 63.184251 
L 416.194672 63.006204 
L 416.488946 62.885641 
L 417.077494 62.701581 
L 417.371768 62.525132 
L 418.254591 62.207198 
L 418.696002 62.050054 
L 419.137413 61.948044 
L 419.873099 61.541911 
L 420.461647 61.444664 
L 420.755921 61.275228 
L 421.638743 61.117173 
L 421.785881 61.152226 
L 422.080155 60.899399 
L 422.81584 60.656814 
L 423.404388 60.519944 
L 424.581485 60.260856 
L 424.875759 60.167025 
L 425.022896 60.176864 
L 425.464307 59.971158 
L 425.758582 59.954209 
L 426.052856 59.800812 
L 426.34713 59.803662 
L 426.641404 59.734173 
L 427.082815 59.625974 
L 427.229952 59.179722 
L 427.524227 59.537368 
L 427.671364 59.898034 
L 427.671364 59.898034 
" clip-path="url(#p9e1f56dc54)" style="fill: none; stroke: #ffa500; stroke-width: 1.5; stroke-linecap: square"/>
   </g>
   <g id="patch_13">
    <path d="M 309.638 87.689008 
L 309.638 10.8 
" style="fill: none; stroke: #000000; stroke-width: 0.8; stroke-linejoin: miter; stroke-linecap: square"/>
   </g>
   <g id="patch_14">
    <path d="M 433.292 87.689008 
L 433.292 10.8 
" style="fill: none; stroke: #000000; stroke-width: 0.8; stroke-linejoin: miter; stroke-linecap: square"/>
   </g>
   <g id="patch_15">
    <path d="M 309.638 87.689008 
L 433.292 87.689008 
" style="fill: none; stroke: #000000; stroke-width: 0.8; stroke-linejoin: miter; stroke-linecap: square"/>
   </g>
   <g id="patch_16">
    <path d="M 309.638 10.8 
L 433.292 10.8 
" style="fill: none; stroke: #000000; stroke-width: 0.8; stroke-linejoin: miter; stroke-linecap: square"/>
   </g>
  </g>
  <g id="axes_4">
   <g id="patch_17">
    <path d="M 447.592 87.689008 
L 571.246 87.689008 
L 571.246 10.8 
L 447.592 10.8 
z
" style="fill: #ffffff"/>
   </g>
   <g id="matplotlib.axis_7">
    <g id="xtick_13">
     <g id="line2d_25">
      <g>
       <use xlink:href="#m34114d89c6" x="453.212636" y="87.689008" style="stroke: #000000; stroke-width: 0.8"/>
      </g>
     </g>
    </g>
    <g id="xtick_14">
     <g id="line2d_26">
      <g>
       <use xlink:href="#m34114d89c6" x="489.996906" y="87.689008" style="stroke: #000000; stroke-width: 0.8"/>
      </g>
     </g>
    </g>
    <g id="xtick_15">
     <g id="line2d_27">
      <g>
       <use xlink:href="#m34114d89c6" x="526.781175" y="87.689008" style="stroke: #000000; stroke-width: 0.8"/>
      </g>
     </g>
    </g>
    <g id="xtick_16">
     <g id="line2d_28">
      <g>
       <use xlink:href="#m34114d89c6" x="563.565445" y="87.689008" style="stroke: #000000; stroke-width: 0.8"/>
      </g>
     </g>
    </g>
   </g>
   <g id="matplotlib.axis_8">
    <g id="ytick_7">
     <g id="line2d_29">
      <g>
       <use xlink:href="#m495165b88c" x="447.592" y="85.418716" style="stroke: #000000; stroke-width: 0.8"/>
      </g>
     </g>
    </g>
    <g id="ytick_8">
     <g id="line2d_30">
      <g>
       <use xlink:href="#m495165b88c" x="447.592" y="43.901875" style="stroke: #000000; stroke-width: 0.8"/>
      </g>
     </g>
    </g>
   </g>
   <g id="line2d_31">
    <path d="M 453.212636 73.845521 
L 453.948322 71.303085 
L 454.831144 67.331751 
L 456.008241 61.910774 
L 456.891063 58.97148 
L 457.921023 56.430844 
L 459.098119 54.084746 
L 460.56949 51.672165 
L 464.395054 46.094095 
L 470.869086 37.111404 
L 473.517553 33.806694 
L 475.871746 31.22611 
L 478.22594 28.98904 
L 480.72727 26.93119 
L 483.375737 25.045513 
L 486.318479 23.22807 
L 489.702632 21.409732 
L 490.585454 20.973441 
L 490.732591 84.194053 
L 491.615414 83.404806 
L 492.498236 82.235765 
L 494.411018 79.514043 
L 496.3238 77.35165 
L 499.119405 74.542704 
L 512.95029 60.718647 
L 524.574119 48.767907 
L 528.105409 45.086739 
L 528.252546 73.510823 
L 530.165328 72.98412 
L 532.07811 72.228942 
L 533.990892 71.236282 
L 535.903674 69.996375 
L 537.963593 68.378871 
L 540.023512 66.473063 
L 542.377705 63.986488 
L 549.881696 55.781359 
L 552.23589 53.699892 
L 554.590083 51.930939 
L 557.23855 50.235595 
L 560.181292 48.623675 
L 563.565445 47.032888 
L 565.625364 46.178083 
L 565.625364 46.178083 
" clip-path="url(#p9da6ed669b)" style="fill: none; stroke: #0000ff; stroke-width: 1.5; stroke-linecap: square"/>
   </g>
   <g id="line2d_32">
    <path d="M 453.212636 73.803842 
L 453.654048 72.414562 
L 454.53687 68.740851 
L 456.302515 60.839932 
L 457.185337 58.181522 
L 458.509571 55.225 
L 459.686668 53.078023 
L 460.863764 51.248371 
L 471.899045 35.672272 
L 477.784528 29.349381 
L 479.69731 27.770598 
L 480.72727 26.917818 
L 485.288519 23.860068 
L 486.318479 23.283694 
L 487.054164 22.873238 
L 488.672672 21.989149 
L 490.585454 21.072761 
L 490.732591 84.185563 
L 491.468277 83.555137 
L 492.203962 82.672501 
L 495.293841 78.482195 
L 500.590775 73.065188 
L 501.179324 72.502943 
L 504.122065 69.619617 
L 516.628717 56.961044 
L 517.217265 56.332625 
L 517.658676 55.805031 
L 519.718595 53.691055 
L 521.778515 51.511653 
L 522.219926 51.118887 
L 522.808474 50.410782 
L 524.279845 49.052156 
L 524.574119 48.698363 
L 525.604079 47.697965 
L 526.486901 46.764023 
L 526.781175 46.48909 
L 527.222586 45.956696 
L 527.811135 45.527898 
L 528.105409 44.504075 
L 528.252546 73.609309 
L 528.54682 73.434952 
L 528.988231 73.385158 
L 533.108069 71.723858 
L 536.492222 69.561422 
L 537.816456 68.426316 
L 538.846416 67.492328 
L 539.582101 66.882981 
L 540.023512 66.409161 
L 541.494883 64.858838 
L 542.083431 64.208395 
L 542.966254 63.177666 
L 544.14335 61.803359 
L 545.320447 60.543198 
L 545.908995 59.733094 
L 547.233229 58.211069 
L 547.380366 58.181099 
L 548.557463 56.822048 
L 552.971575 52.950173 
L 554.884357 51.586292 
L 555.325768 51.48884 
L 555.620042 51.201509 
L 555.767179 51.183207 
L 556.061454 50.892556 
L 556.208591 50.989854 
L 556.944276 50.12068 
L 557.23855 49.962338 
L 557.827099 49.742898 
L 557.974236 49.829061 
L 558.415647 49.443232 
L 558.709921 49.195391 
L 559.151332 48.896546 
L 559.739881 48.512387 
L 560.76984 47.963762 
L 560.916977 48.048344 
L 561.064114 47.920147 
L 561.358388 47.897797 
L 561.652663 47.78734 
L 562.241211 47.435495 
L 562.976896 47.425141 
L 563.418307 46.991874 
L 563.712582 46.871985 
L 564.006856 46.505378 
L 564.30113 46.235194 
L 564.742541 46.600123 
L 565.478227 45.541466 
L 565.625364 46.533529 
L 565.625364 46.533529 
" clip-path="url(#p9da6ed669b)" style="fill: none; stroke: #ffa500; stroke-width: 1.5; stroke-linecap: square"/>
   </g>
   <g id="patch_18">
    <path d="M 447.592 87.689008 
L 447.592 10.8 
" style="fill: none; stroke: #000000; stroke-width: 0.8; stroke-linejoin: miter; stroke-linecap: square"/>
   </g>
   <g id="patch_19">
    <path d="M 571.246 87.689008 
L 571.246 10.8 
" style="fill: none; stroke: #000000; stroke-width: 0.8; stroke-linejoin: miter; stroke-linecap: square"/>
   </g>
   <g id="patch_20">
    <path d="M 447.592 87.689008 
L 571.246 87.689008 
" style="fill: none; stroke: #000000; stroke-width: 0.8; stroke-linejoin: miter; stroke-linecap: square"/>
   </g>
   <g id="patch_21">
    <path d="M 447.592 10.8 
L 571.246 10.8 
" style="fill: none; stroke: #000000; stroke-width: 0.8; stroke-linejoin: miter; stroke-linecap: square"/>
   </g>
  </g>
  <g id="axes_5">
   <g id="patch_22">
    <path d="M 585.546 87.689008 
L 709.2 87.689008 
L 709.2 10.8 
L 585.546 10.8 
z
" style="fill: #ffffff"/>
   </g>
   <g id="matplotlib.axis_9">
    <g id="xtick_17">
     <g id="line2d_33">
      <g>
       <use xlink:href="#m34114d89c6" x="591.166636" y="87.689008" style="stroke: #000000; stroke-width: 0.8"/>
      </g>
     </g>
    </g>
    <g id="xtick_18">
     <g id="line2d_34">
      <g>
       <use xlink:href="#m34114d89c6" x="627.950906" y="87.689008" style="stroke: #000000; stroke-width: 0.8"/>
      </g>
     </g>
    </g>
    <g id="xtick_19">
     <g id="line2d_35">
      <g>
       <use xlink:href="#m34114d89c6" x="664.735175" y="87.689008" style="stroke: #000000; stroke-width: 0.8"/>
      </g>
     </g>
    </g>
    <g id="xtick_20">
     <g id="line2d_36">
      <g>
       <use xlink:href="#m34114d89c6" x="701.519445" y="87.689008" style="stroke: #000000; stroke-width: 0.8"/>
      </g>
     </g>
    </g>
   </g>
   <g id="matplotlib.axis_10">
    <g id="ytick_9">
     <g id="line2d_37">
      <g>
       <use xlink:href="#m495165b88c" x="585.546" y="85.418716" style="stroke: #000000; stroke-width: 0.8"/>
      </g>
     </g>
    </g>
    <g id="ytick_10">
     <g id="line2d_38">
      <g>
       <use xlink:href="#m495165b88c" x="585.546" y="43.901875" style="stroke: #000000; stroke-width: 0.8"/>
      </g>
     </g>
    </g>
   </g>
   <g id="line2d_39">
    <path d="M 591.166636 72.478174 
L 591.902322 69.671443 
L 593.079418 64.020256 
L 593.962241 60.270153 
L 594.845063 57.546697 
L 595.875023 55.158684 
L 597.199257 52.580656 
L 598.964901 49.654297 
L 602.349054 44.560877 
L 606.910304 38.09561 
L 609.558771 34.677678 
L 611.912964 31.991572 
L 614.12002 29.792477 
L 616.474214 27.760809 
L 619.122681 25.779404 
L 621.918286 23.962194 
L 625.155301 22.132497 
L 628.539454 20.458294 
L 628.686591 83.779077 
L 629.569414 82.904956 
L 630.74651 81.331076 
L 631.77647 80.119564 
L 632.953566 79.09398 
L 635.013485 77.657872 
L 638.103364 75.827039 
L 643.547436 72.876137 
L 660.762474 63.913012 
L 666.059409 61.165559 
L 666.206546 72.732759 
L 668.119328 71.911923 
L 670.03211 70.846428 
L 671.944892 69.525234 
L 673.857674 67.939613 
L 675.917593 65.937702 
L 678.124649 63.483105 
L 681.361665 59.506852 
L 684.598681 55.625672 
L 687.100011 52.983605 
L 689.307067 50.959852 
L 691.66126 49.109062 
L 694.162591 47.428794 
L 697.105332 45.73301 
L 700.342348 44.127108 
L 703.579364 42.728377 
L 703.579364 42.728377 
" clip-path="url(#p8fa00903cd)" style="fill: none; stroke: #0000ff; stroke-width: 1.5; stroke-linecap: square"/>
   </g>
   <g id="line2d_40">
    <path d="M 591.166636 72.449168 
L 591.755185 70.296698 
L 592.638007 66.234076 
L 593.815104 60.821669 
L 594.697926 57.966344 
L 595.727886 55.487897 
L 597.199257 52.599812 
L 599.259176 49.19715 
L 602.201917 44.792212 
L 604.850385 40.98243 
L 608.234537 36.334494 
L 610.294456 33.793232 
L 612.64865 31.23151 
L 614.267158 29.678235 
L 615.444254 28.651753 
L 617.062762 27.317618 
L 620.152641 25.096579 
L 621.918286 23.960873 
L 624.566753 22.430661 
L 627.21522 21.123322 
L 628.539454 20.416978 
L 628.686591 83.801202 
L 629.716551 82.734827 
L 632.217881 79.737914 
L 633.983526 78.367613 
L 636.77913 76.594567 
L 638.544775 75.604773 
L 639.574735 75.035104 
L 640.457557 74.51944 
L 643.988847 72.675578 
L 646.637315 71.290641 
L 650.315742 69.357377 
L 650.90429 69.061661 
L 652.522798 68.195483 
L 661.056748 63.674577 
L 661.351022 63.518952 
L 661.792434 63.344926 
L 662.822393 62.736443 
L 664.588038 61.915312 
L 665.176586 61.616354 
L 665.765135 61.226182 
L 665.912272 61.086379 
L 666.059409 61.111583 
L 666.206546 72.72659 
L 667.972191 72.020821 
L 669.296425 71.328647 
L 670.767795 70.436706 
L 671.356344 70.049351 
L 675.476182 66.519351 
L 677.241827 64.611017 
L 677.830375 63.985431 
L 678.124649 63.703102 
L 682.244487 58.70608 
L 682.685899 58.15959 
L 683.12731 57.608787 
L 683.715858 57.002179 
L 684.892955 55.584671 
L 686.217188 54.256268 
L 687.100011 53.330311 
L 687.394285 53.184827 
L 688.571382 51.891553 
L 688.865656 51.717742 
L 689.454204 51.127638 
L 689.895615 50.785084 
L 690.484164 50.425822 
L 692.544083 48.824486 
L 692.69122 48.80465 
L 693.132631 48.457973 
L 693.426905 48.366985 
L 694.456865 47.767205 
L 694.898276 47.34266 
L 695.19255 47.431261 
L 695.339687 47.401741 
L 695.781099 46.87582 
L 695.928236 46.86906 
L 696.369647 46.534398 
L 696.958195 46.30087 
L 697.399606 45.928503 
L 697.693881 45.895764 
L 697.988155 45.722762 
L 698.576703 45.607755 
L 698.870977 45.32361 
L 699.165251 45.149027 
L 700.783759 44.55627 
L 701.078033 44.699576 
L 701.666582 44.011616 
L 702.107993 44.020797 
L 702.990815 43.454394 
L 703.137952 43.506113 
L 703.432227 42.986957 
L 703.579364 43.550492 
L 703.579364 43.550492 
" clip-path="url(#p8fa00903cd)" style="fill: none; stroke: #ffa500; stroke-width: 1.5; stroke-linecap: square"/>
   </g>
   <g id="patch_23">
    <path d="M 585.546 87.689008 
L 585.546 10.8 
" style="fill: none; stroke: #000000; stroke-width: 0.8; stroke-linejoin: miter; stroke-linecap: square"/>
   </g>
   <g id="patch_24">
    <path d="M 709.2 87.689008 
L 709.2 10.8 
" style="fill: none; stroke: #000000; stroke-width: 0.8; stroke-linejoin: miter; stroke-linecap: square"/>
   </g>
   <g id="patch_25">
    <path d="M 585.546 87.689008 
L 709.2 87.689008 
" style="fill: none; stroke: #000000; stroke-width: 0.8; stroke-linejoin: miter; stroke-linecap: square"/>
   </g>
   <g id="patch_26">
    <path d="M 585.546 10.8 
L 709.2 10.8 
" style="fill: none; stroke: #000000; stroke-width: 0.8; stroke-linejoin: miter; stroke-linecap: square"/>
   </g>
  </g>
  <g id="axes_6">
   <g id="patch_27">
    <path d="M 33.73 179.489008 
L 157.384 179.489008 
L 157.384 102.6 
L 33.73 102.6 
z
" style="fill: #ffffff"/>
   </g>
   <g id="matplotlib.axis_11">
    <g id="xtick_21">
     <g id="line2d_41">
      <g>
       <use xlink:href="#m34114d89c6" x="39.350636" y="179.489008" style="stroke: #000000; stroke-width: 0.8"/>
      </g>
     </g>
    </g>
    <g id="xtick_22">
     <g id="line2d_42">
      <g>
       <use xlink:href="#m34114d89c6" x="76.134906" y="179.489008" style="stroke: #000000; stroke-width: 0.8"/>
      </g>
     </g>
    </g>
    <g id="xtick_23">
     <g id="line2d_43">
      <g>
       <use xlink:href="#m34114d89c6" x="112.919175" y="179.489008" style="stroke: #000000; stroke-width: 0.8"/>
      </g>
     </g>
    </g>
    <g id="xtick_24">
     <g id="line2d_44">
      <g>
       <use xlink:href="#m34114d89c6" x="149.703445" y="179.489008" style="stroke: #000000; stroke-width: 0.8"/>
      </g>
     </g>
    </g>
   </g>
   <g id="matplotlib.axis_12">
    <g id="ytick_11">
     <g id="line2d_45">
      <g>
       <use xlink:href="#m495165b88c" x="33.73" y="177.218716" style="stroke: #000000; stroke-width: 0.8"/>
      </g>
     </g>
     <g id="text_3">
      <!-- 0.0 -->
      <g transform="translate(10.826875 181.017935) scale(0.1 -0.1)">
       <use xlink:href="#DejaVuSans-30"/>
       <use xlink:href="#DejaVuSans-2e" x="63.623047"/>
       <use xlink:href="#DejaVuSans-30" x="95.410156"/>
      </g>
     </g>
    </g>
    <g id="ytick_12">
     <g id="line2d_46">
      <g>
       <use xlink:href="#m495165b88c" x="33.73" y="135.701875" style="stroke: #000000; stroke-width: 0.8"/>
      </g>
     </g>
     <g id="text_4">
      <!-- 0.5 -->
      <g transform="translate(10.826875 139.501094) scale(0.1 -0.1)">
       <use xlink:href="#DejaVuSans-30"/>
       <use xlink:href="#DejaVuSans-2e" x="63.623047"/>
       <use xlink:href="#DejaVuSans-35" x="95.410156"/>
      </g>
     </g>
    </g>
   </g>
   <g id="line2d_47">
    <path d="M 39.350636 163.77762 
L 40.086322 160.858717 
L 42.587652 150.025939 
L 43.470475 147.735479 
L 44.941845 144.716803 
L 46.560353 141.88432 
L 49.355958 137.520008 
L 53.622933 131.288976 
L 56.565674 127.331948 
L 58.919868 124.530447 
L 61.126924 122.235185 
L 63.481117 120.11154 
L 65.982447 118.154832 
L 68.778052 116.258682 
L 71.867931 114.437731 
L 75.39922 112.624722 
L 76.723454 112.0044 
L 76.870591 175.5962 
L 77.753414 174.812766 
L 79.96047 172.622039 
L 80.990429 172.031671 
L 82.903211 171.260591 
L 85.404542 170.513333 
L 89.230106 169.611592 
L 95.557 168.382895 
L 105.562321 166.687219 
L 114.243409 165.324799 
L 114.390546 164.765663 
L 116.450465 165.737133 
L 118.510384 166.473334 
L 120.71744 167.021196 
L 122.924496 167.340618 
L 125.425827 167.468557 
L 128.221431 167.37279 
L 138.37389 166.562218 
L 151.763364 165.48816 
L 151.763364 165.48816 
" clip-path="url(#peecad737b0)" style="fill: none; stroke: #0000ff; stroke-width: 1.5; stroke-linecap: square"/>
   </g>
   <g id="line2d_48">
    <path d="M 39.350636 163.951527 
L 42.734789 149.630788 
L 43.764749 147.109015 
L 45.236119 144.211337 
L 47.73745 140.015579 
L 49.797369 136.895212 
L 51.563014 134.286876 
L 54.80003 129.747728 
L 55.535715 128.68526 
L 56.2714 127.745824 
L 56.859949 127.015115 
L 57.595634 126.107384 
L 59.067005 124.386822 
L 63.481117 120.09646 
L 67.600955 117.007584 
L 71.573656 114.592665 
L 73.192164 113.705285 
L 76.134906 112.276502 
L 76.42918 112.128967 
L 76.723454 111.918621 
L 76.870591 175.620701 
L 77.900551 174.668841 
L 79.666196 172.840683 
L 80.549018 172.281725 
L 82.167526 171.526031 
L 84.668856 170.717625 
L 85.845953 170.384847 
L 88.788694 169.701816 
L 89.52438 169.505613 
L 90.554339 169.310983 
L 91.584299 169.098085 
L 93.644218 168.718066 
L 94.674178 168.559952 
L 97.911193 167.933701 
L 98.499742 167.841243 
L 100.412524 167.511735 
L 101.442483 167.405399 
L 103.502402 166.989353 
L 107.769377 166.315073 
L 108.357926 166.171977 
L 108.799337 166.162423 
L 109.240748 166.062217 
L 110.123571 165.856805 
L 111.300667 165.594942 
L 111.742079 165.573886 
L 113.066312 165.373739 
L 113.360586 165.240842 
L 113.507723 165.187188 
L 113.801998 165.422999 
L 114.537683 164.841304 
L 115.567643 165.374025 
L 117.039013 166.014948 
L 117.774699 166.266498 
L 118.951795 166.691027 
L 119.981755 166.909483 
L 121.7474 167.311957 
L 125.131553 167.672697 
L 125.867238 167.617602 
L 129.251391 167.596879 
L 129.545665 167.563025 
L 130.28135 167.502883 
L 135.872559 167.223661 
L 136.31397 167.137708 
L 136.608245 167.25243 
L 137.049656 167.104071 
L 137.932478 167.098727 
L 138.226752 167.151257 
L 138.37389 167.20203 
L 138.521027 167.08365 
L 138.815301 167.2101 
L 139.109575 167.129403 
L 139.698123 167.04421 
L 141.169494 166.918949 
L 141.316631 167.001443 
L 142.052317 166.742347 
L 142.199454 166.853661 
L 142.493728 166.808529 
L 143.523687 166.687686 
L 143.817961 166.766889 
L 143.965099 166.817929 
L 144.259373 166.721931 
L 144.847921 166.656475 
L 145.142195 166.561822 
L 145.289332 166.494177 
L 145.583606 166.63172 
L 145.877881 166.578217 
L 146.90784 166.527274 
L 147.349251 166.370215 
L 148.820622 166.365231 
L 149.40917 166.22571 
L 150.144856 166.257772 
L 150.291993 166.409811 
L 150.586267 166.184844 
L 151.174815 166.200915 
L 151.321952 166.567835 
L 151.616227 165.931538 
L 151.763364 165.362454 
L 151.763364 165.362454 
" clip-path="url(#peecad737b0)" style="fill: none; stroke: #ffa500; stroke-width: 1.5; stroke-linecap: square"/>
   </g>
   <g id="patch_28">
    <path d="M 33.73 179.489008 
L 33.73 102.6 
" style="fill: none; stroke: #000000; stroke-width: 0.8; stroke-linejoin: miter; stroke-linecap: square"/>
   </g>
   <g id="patch_29">
    <path d="M 157.384 179.489008 
L 157.384 102.6 
" style="fill: none; stroke: #000000; stroke-width: 0.8; stroke-linejoin: miter; stroke-linecap: square"/>
   </g>
   <g id="patch_30">
    <path d="M 33.73 179.489008 
L 157.384 179.489008 
" style="fill: none; stroke: #000000; stroke-width: 0.8; stroke-linejoin: miter; stroke-linecap: square"/>
   </g>
   <g id="patch_31">
    <path d="M 33.73 102.6 
L 157.384 102.6 
" style="fill: none; stroke: #000000; stroke-width: 0.8; stroke-linejoin: miter; stroke-linecap: square"/>
   </g>
  </g>
  <g id="axes_7">
   <g id="patch_32">
    <path d="M 171.684 179.489008 
L 295.338 179.489008 
L 295.338 102.6 
L 171.684 102.6 
z
" style="fill: #ffffff"/>
   </g>
   <g id="matplotlib.axis_13">
    <g id="xtick_25">
     <g id="line2d_49">
      <g>
       <use xlink:href="#m34114d89c6" x="177.304636" y="179.489008" style="stroke: #000000; stroke-width: 0.8"/>
      </g>
     </g>
    </g>
    <g id="xtick_26">
     <g id="line2d_50">
      <g>
       <use xlink:href="#m34114d89c6" x="214.088906" y="179.489008" style="stroke: #000000; stroke-width: 0.8"/>
      </g>
     </g>
    </g>
    <g id="xtick_27">
     <g id="line2d_51">
      <g>
       <use xlink:href="#m34114d89c6" x="250.873175" y="179.489008" style="stroke: #000000; stroke-width: 0.8"/>
      </g>
     </g>
    </g>
    <g id="xtick_28">
     <g id="line2d_52">
      <g>
       <use xlink:href="#m34114d89c6" x="287.657445" y="179.489008" style="stroke: #000000; stroke-width: 0.8"/>
      </g>
     </g>
    </g>
   </g>
   <g id="matplotlib.axis_14">
    <g id="ytick_13">
     <g id="line2d_53">
      <g>
       <use xlink:href="#m495165b88c" x="171.684" y="177.218716" style="stroke: #000000; stroke-width: 0.8"/>
      </g>
     </g>
    </g>
    <g id="ytick_14">
     <g id="line2d_54">
      <g>
       <use xlink:href="#m495165b88c" x="171.684" y="135.701875" style="stroke: #000000; stroke-width: 0.8"/>
      </g>
     </g>
    </g>
   </g>
   <g id="line2d_55">
    <path d="M 177.304636 164.953742 
L 178.187459 161.853523 
L 179.364555 156.52663 
L 180.247378 152.906184 
L 181.1302 150.19828 
L 182.16016 147.800012 
L 183.484394 145.292882 
L 185.102901 142.758058 
L 189.075603 137.165312 
L 194.666812 129.71296 
L 197.462416 126.317527 
L 199.963746 123.627516 
L 202.31794 121.425492 
L 204.81927 119.403365 
L 207.614874 117.436778 
L 210.557616 115.638009 
L 213.941769 113.835191 
L 214.677454 113.474044 
L 214.824591 175.661057 
L 215.707414 174.760854 
L 216.590236 173.483422 
L 218.355881 170.797488 
L 219.974389 168.858321 
L 222.328582 166.381534 
L 251.608861 137.037076 
L 252.197409 136.434133 
L 252.344546 165.313696 
L 254.845876 162.181229 
L 257.200069 158.857639 
L 259.407126 155.356383 
L 261.614182 151.441524 
L 263.968375 146.792391 
L 266.76398 140.721921 
L 272.7966 127.399321 
L 275.003656 123.203816 
L 276.916438 120.019564 
L 278.976357 117.035953 
L 281.33055 114.055876 
L 283.537606 111.604194 
L 286.038937 109.167627 
L 288.687404 106.903425 
L 289.717364 106.094955 
L 289.717364 106.094955 
" clip-path="url(#pf03442ebe4)" style="fill: none; stroke: #0000ff; stroke-width: 1.5; stroke-linecap: square"/>
   </g>
   <g id="line2d_56">
    <path d="M 177.304636 164.960368 
L 178.040322 162.446351 
L 179.217418 157.24494 
L 180.247378 152.92796 
L 181.1302 150.225431 
L 182.16016 147.825715 
L 183.190119 145.832695 
L 184.514353 143.649297 
L 188.19278 138.394347 
L 196.285319 127.702326 
L 199.669472 123.928135 
L 203.78931 120.21626 
L 205.702092 118.741608 
L 211.587575 115.044101 
L 214.677454 113.413376 
L 214.824591 175.664642 
L 215.560277 174.942906 
L 216.295962 173.955339 
L 218.797292 170.247652 
L 221.151485 167.608324 
L 223.94709 164.824975 
L 225.418461 163.408688 
L 228.066928 160.807806 
L 233.216726 155.728963 
L 235.865193 153.093347 
L 238.660798 150.30269 
L 241.897813 147.045401 
L 242.486362 146.481438 
L 245.57624 143.327505 
L 250.578901 138.341193 
L 250.873175 138.005034 
L 251.167449 137.623389 
L 251.461723 137.4336 
L 251.903135 136.952086 
L 252.197409 136.156617 
L 252.344546 165.340942 
L 253.374505 164.058298 
L 256.022973 160.61863 
L 260.142811 154.150883 
L 263.23269 148.397303 
L 268.088213 137.826826 
L 273.090874 126.986262 
L 275.739341 122.144159 
L 279.123494 116.970183 
L 280.006317 115.781164 
L 280.889139 114.684587 
L 281.183413 114.235437 
L 281.477687 114.078276 
L 283.243332 112.006177 
L 287.36317 108.242182 
L 287.804582 107.793657 
L 288.098856 107.475894 
L 288.540267 107.149692 
L 288.981678 106.876338 
L 289.128815 106.830836 
L 289.423089 106.297065 
L 289.570227 106.230058 
L 289.717364 107.182134 
L 289.717364 107.182134 
" clip-path="url(#pf03442ebe4)" style="fill: none; stroke: #ffa500; stroke-width: 1.5; stroke-linecap: square"/>
   </g>
   <g id="patch_33">
    <path d="M 171.684 179.489008 
L 171.684 102.6 
" style="fill: none; stroke: #000000; stroke-width: 0.8; stroke-linejoin: miter; stroke-linecap: square"/>
   </g>
   <g id="patch_34">
    <path d="M 295.338 179.489008 
L 295.338 102.6 
" style="fill: none; stroke: #000000; stroke-width: 0.8; stroke-linejoin: miter; stroke-linecap: square"/>
   </g>
   <g id="patch_35">
    <path d="M 171.684 179.489008 
L 295.338 179.489008 
" style="fill: none; stroke: #000000; stroke-width: 0.8; stroke-linejoin: miter; stroke-linecap: square"/>
   </g>
   <g id="patch_36">
    <path d="M 171.684 102.6 
L 295.338 102.6 
" style="fill: none; stroke: #000000; stroke-width: 0.8; stroke-linejoin: miter; stroke-linecap: square"/>
   </g>
  </g>
  <g id="axes_8">
   <g id="patch_37">
    <path d="M 309.638 179.489008 
L 433.292 179.489008 
L 433.292 102.6 
L 309.638 102.6 
z
" style="fill: #ffffff"/>
   </g>
   <g id="matplotlib.axis_15">
    <g id="xtick_29">
     <g id="line2d_57">
      <g>
       <use xlink:href="#m34114d89c6" x="315.258636" y="179.489008" style="stroke: #000000; stroke-width: 0.8"/>
      </g>
     </g>
    </g>
    <g id="xtick_30">
     <g id="line2d_58">
      <g>
       <use xlink:href="#m34114d89c6" x="352.042906" y="179.489008" style="stroke: #000000; stroke-width: 0.8"/>
      </g>
     </g>
    </g>
    <g id="xtick_31">
     <g id="line2d_59">
      <g>
       <use xlink:href="#m34114d89c6" x="388.827175" y="179.489008" style="stroke: #000000; stroke-width: 0.8"/>
      </g>
     </g>
    </g>
    <g id="xtick_32">
     <g id="line2d_60">
      <g>
       <use xlink:href="#m34114d89c6" x="425.611445" y="179.489008" style="stroke: #000000; stroke-width: 0.8"/>
      </g>
     </g>
    </g>
   </g>
   <g id="matplotlib.axis_16">
    <g id="ytick_15">
     <g id="line2d_61">
      <g>
       <use xlink:href="#m495165b88c" x="309.638" y="177.218716" style="stroke: #000000; stroke-width: 0.8"/>
      </g>
     </g>
    </g>
    <g id="ytick_16">
     <g id="line2d_62">
      <g>
       <use xlink:href="#m495165b88c" x="309.638" y="135.701875" style="stroke: #000000; stroke-width: 0.8"/>
      </g>
     </g>
    </g>
   </g>
   <g id="line2d_63">
    <path d="M 315.258636 165.186529 
L 315.994322 162.697708 
L 316.877144 158.887035 
L 318.201378 153.143547 
L 319.0842 150.399714 
L 320.11416 147.979603 
L 321.438394 145.45934 
L 322.909764 143.153764 
L 327.029603 137.372431 
L 332.915086 129.523302 
L 335.71069 126.134644 
L 338.064883 123.604696 
L 340.419077 121.397306 
L 342.920407 119.367944 
L 345.716011 117.395275 
L 348.658753 115.593065 
L 352.042906 113.787496 
L 352.631454 113.497374 
L 352.778591 175.906301 
L 353.661414 175.091874 
L 354.544236 173.907861 
L 356.604155 170.91534 
L 358.664074 168.486036 
L 361.90109 165.047402 
L 378.086168 147.653677 
L 389.857135 134.587411 
L 390.151409 134.257344 
L 390.298546 165.954159 
L 392.799876 162.830119 
L 395.154069 159.526094 
L 397.361126 156.051893 
L 399.568182 152.170251 
L 401.922375 147.558209 
L 404.570842 141.849453 
L 411.339148 126.964495 
L 413.399067 123.132978 
L 415.311849 120.016303 
L 417.371768 117.089246 
L 419.725961 114.149782 
L 422.080155 111.592088 
L 424.581485 109.216995 
L 427.229952 107.005799 
L 427.671364 106.662543 
L 427.671364 106.662543 
" clip-path="url(#p8538f6f404)" style="fill: none; stroke: #0000ff; stroke-width: 1.5; stroke-linecap: square"/>
   </g>
   <g id="line2d_64">
    <path d="M 315.258636 165.222714 
L 316.288596 161.53524 
L 318.789926 151.253066 
L 319.819886 148.656252 
L 321.144119 145.993455 
L 322.468353 143.819262 
L 328.795248 134.993413 
L 334.386456 127.727774 
L 339.389117 122.314179 
L 341.301899 120.629439 
L 345.127463 117.803632 
L 350.130124 114.789787 
L 352.190043 113.635625 
L 352.484317 113.474657 
L 352.631454 113.577323 
L 352.778591 175.898741 
L 353.514277 175.253796 
L 354.249962 174.337172 
L 357.928389 169.310906 
L 362.195364 164.77001 
L 365.43238 161.413193 
L 366.609476 160.183793 
L 368.522258 158.19717 
L 385.443022 139.805884 
L 386.472982 138.723135 
L 387.06153 138.078022 
L 387.502941 137.517813 
L 387.797216 137.26436 
L 389.562861 135.331933 
L 389.709998 135.308503 
L 389.857135 134.907341 
L 390.004272 135.023039 
L 390.151409 134.681237 
L 390.298546 165.941907 
L 392.064191 163.778608 
L 395.889755 158.377655 
L 397.949674 155.095669 
L 402.952335 145.434676 
L 408.543544 132.945897 
L 413.25193 123.438754 
L 414.134752 122.02819 
L 414.576164 121.217462 
L 415.75326 119.464616 
L 416.341809 118.620868 
L 418.696002 115.488628 
L 419.725961 114.215844 
L 420.167373 113.728957 
L 421.491606 112.098252 
L 421.933018 111.82085 
L 422.521566 111.078095 
L 422.962977 110.682233 
L 423.110114 110.676992 
L 426.788541 107.342285 
L 427.082815 107.298534 
L 427.377089 106.78167 
L 427.524227 106.6327 
L 427.671364 107.500823 
L 427.671364 107.500823 
" clip-path="url(#p8538f6f404)" style="fill: none; stroke: #ffa500; stroke-width: 1.5; stroke-linecap: square"/>
   </g>
   <g id="patch_38">
    <path d="M 309.638 179.489008 
L 309.638 102.6 
" style="fill: none; stroke: #000000; stroke-width: 0.8; stroke-linejoin: miter; stroke-linecap: square"/>
   </g>
   <g id="patch_39">
    <path d="M 433.292 179.489008 
L 433.292 102.6 
" style="fill: none; stroke: #000000; stroke-width: 0.8; stroke-linejoin: miter; stroke-linecap: square"/>
   </g>
   <g id="patch_40">
    <path d="M 309.638 179.489008 
L 433.292 179.489008 
" style="fill: none; stroke: #000000; stroke-width: 0.8; stroke-linejoin: miter; stroke-linecap: square"/>
   </g>
   <g id="patch_41">
    <path d="M 309.638 102.6 
L 433.292 102.6 
" style="fill: none; stroke: #000000; stroke-width: 0.8; stroke-linejoin: miter; stroke-linecap: square"/>
   </g>
  </g>
  <g id="axes_9">
   <g id="patch_42">
    <path d="M 447.592 179.489008 
L 571.246 179.489008 
L 571.246 102.6 
L 447.592 102.6 
z
" style="fill: #ffffff"/>
   </g>
   <g id="matplotlib.axis_17">
    <g id="xtick_33">
     <g id="line2d_65">
      <g>
       <use xlink:href="#m34114d89c6" x="453.212636" y="179.489008" style="stroke: #000000; stroke-width: 0.8"/>
      </g>
     </g>
    </g>
    <g id="xtick_34">
     <g id="line2d_66">
      <g>
       <use xlink:href="#m34114d89c6" x="489.996906" y="179.489008" style="stroke: #000000; stroke-width: 0.8"/>
      </g>
     </g>
    </g>
    <g id="xtick_35">
     <g id="line2d_67">
      <g>
       <use xlink:href="#m34114d89c6" x="526.781175" y="179.489008" style="stroke: #000000; stroke-width: 0.8"/>
      </g>
     </g>
    </g>
    <g id="xtick_36">
     <g id="line2d_68">
      <g>
       <use xlink:href="#m34114d89c6" x="563.565445" y="179.489008" style="stroke: #000000; stroke-width: 0.8"/>
      </g>
     </g>
    </g>
   </g>
   <g id="matplotlib.axis_18">
    <g id="ytick_17">
     <g id="line2d_69">
      <g>
       <use xlink:href="#m495165b88c" x="447.592" y="177.218716" style="stroke: #000000; stroke-width: 0.8"/>
      </g>
     </g>
    </g>
    <g id="ytick_18">
     <g id="line2d_70">
      <g>
       <use xlink:href="#m495165b88c" x="447.592" y="135.701875" style="stroke: #000000; stroke-width: 0.8"/>
      </g>
     </g>
    </g>
   </g>
   <g id="line2d_71">
    <path d="M 453.212636 164.385258 
L 453.948322 161.597959 
L 454.978281 156.684234 
L 455.861104 152.735879 
L 456.743926 149.852717 
L 457.773886 147.364218 
L 459.098119 144.73346 
L 460.863764 141.781652 
L 464.10078 136.898855 
L 468.809167 130.205009 
L 471.604771 126.57486 
L 473.958964 123.874402 
L 476.16602 121.663761 
L 478.520214 119.622001 
L 481.168681 117.629876 
L 483.964286 115.804718 
L 487.201301 113.968448 
L 490.585454 112.289073 
L 490.732591 175.45303 
L 491.468277 174.596882 
L 492.351099 173.173993 
L 493.969607 170.454357 
L 495.440978 168.551201 
L 497.795171 165.860302 
L 504.269202 158.97094 
L 516.48158 145.9591 
L 528.105409 133.3055 
L 528.252546 165.079199 
L 530.165328 164.311777 
L 532.07811 163.310177 
L 533.990892 162.063863 
L 535.903674 160.56425 
L 537.963593 158.666747 
L 540.170649 156.333718 
L 543.407665 152.539842 
L 546.791818 148.659266 
L 549.293148 146.135098 
L 551.647341 144.086251 
L 554.001535 142.341232 
L 556.650002 140.666824 
L 559.592743 139.073367 
L 562.976896 137.495631 
L 565.625364 136.40955 
L 565.625364 136.40955 
" clip-path="url(#p1ba617b95f)" style="fill: none; stroke: #0000ff; stroke-width: 1.5; stroke-linecap: square"/>
   </g>
   <g id="line2d_72">
    <path d="M 453.212636 164.379279 
L 453.801185 162.227718 
L 454.684007 158.172433 
L 455.861104 152.748255 
L 456.743926 149.875231 
L 457.773886 147.377999 
L 459.098119 144.758307 
L 460.863764 141.779445 
L 467.484933 132.018631 
L 471.457634 126.756045 
L 476.313158 121.559075 
L 478.22594 119.920779 
L 480.580133 118.081089 
L 487.201301 113.972561 
L 488.378398 113.379014 
L 490.144043 112.507941 
L 490.438317 112.356635 
L 490.585454 112.264312 
L 490.732591 175.46369 
L 491.615414 174.39201 
L 492.498236 172.919548 
L 493.82247 170.684222 
L 495.146703 168.944136 
L 497.35376 166.369865 
L 501.620735 161.821684 
L 502.650694 160.748796 
L 504.563476 158.730486 
L 510.890371 152.072264 
L 511.92033 150.965444 
L 518.835773 143.640613 
L 519.424321 142.990082 
L 520.454281 141.921202 
L 521.189966 141.141432 
L 523.691297 138.395775 
L 525.604079 136.284739 
L 527.516861 134.247698 
L 527.811135 133.917052 
L 528.105409 133.176094 
L 528.252546 165.114808 
L 529.57678 164.585884 
L 531.489562 163.653595 
L 532.07811 163.335393 
L 532.813795 162.867053 
L 533.255207 162.683302 
L 535.020851 161.387485 
L 537.227908 159.505161 
L 538.699278 158.014002 
L 539.14069 157.684766 
L 539.582101 157.098422 
L 539.876375 156.798854 
L 540.170649 156.496243 
L 542.230568 154.044218 
L 542.524842 153.780167 
L 543.849076 152.180867 
L 544.879036 150.986869 
L 545.614721 150.179735 
L 545.908995 149.874102 
L 546.350406 149.201609 
L 547.086092 148.661835 
L 547.67464 147.84596 
L 548.851737 146.749325 
L 549.293148 146.394857 
L 549.587422 146.120981 
L 549.881696 145.82495 
L 550.17597 145.674979 
L 550.470245 145.273313 
L 550.764519 145.092189 
L 551.353067 144.476151 
L 552.088752 143.938211 
L 552.23589 143.948334 
L 552.971575 143.29826 
L 553.70726 142.964182 
L 554.148672 142.434488 
L 554.442946 142.26108 
L 554.884357 141.907149 
L 555.178631 141.732009 
L 555.472905 141.677214 
L 555.767179 141.622087 
L 556.061454 141.269735 
L 556.650002 140.909129 
L 556.944276 140.678482 
L 557.385687 140.630113 
L 557.827099 140.082369 
L 558.121373 140.093089 
L 558.415647 140.012023 
L 558.709921 139.905205 
L 558.857058 139.879034 
L 559.298469 139.354716 
L 559.739881 139.357896 
L 560.034155 139.070798 
L 560.328429 138.934453 
L 561.505525 138.392825 
L 561.946937 138.408735 
L 562.388348 138.096178 
L 562.976896 137.924092 
L 563.124033 137.883081 
L 563.418307 137.554583 
L 564.30113 137.547724 
L 564.889678 136.975206 
L 565.183952 137.104773 
L 565.331089 136.960561 
L 565.478227 136.574999 
L 565.625364 137.115624 
L 565.625364 137.115624 
" clip-path="url(#p1ba617b95f)" style="fill: none; stroke: #ffa500; stroke-width: 1.5; stroke-linecap: square"/>
   </g>
   <g id="patch_43">
    <path d="M 447.592 179.489008 
L 447.592 102.6 
" style="fill: none; stroke: #000000; stroke-width: 0.8; stroke-linejoin: miter; stroke-linecap: square"/>
   </g>
   <g id="patch_44">
    <path d="M 571.246 179.489008 
L 571.246 102.6 
" style="fill: none; stroke: #000000; stroke-width: 0.8; stroke-linejoin: miter; stroke-linecap: square"/>
   </g>
   <g id="patch_45">
    <path d="M 447.592 179.489008 
L 571.246 179.489008 
" style="fill: none; stroke: #000000; stroke-width: 0.8; stroke-linejoin: miter; stroke-linecap: square"/>
   </g>
   <g id="patch_46">
    <path d="M 447.592 102.6 
L 571.246 102.6 
" style="fill: none; stroke: #000000; stroke-width: 0.8; stroke-linejoin: miter; stroke-linecap: square"/>
   </g>
  </g>
  <g id="axes_10">
   <g id="patch_47">
    <path d="M 585.546 179.489008 
L 709.2 179.489008 
L 709.2 102.6 
L 585.546 102.6 
z
" style="fill: #ffffff"/>
   </g>
   <g id="matplotlib.axis_19">
    <g id="xtick_37">
     <g id="line2d_73">
      <g>
       <use xlink:href="#m34114d89c6" x="591.166636" y="179.489008" style="stroke: #000000; stroke-width: 0.8"/>
      </g>
     </g>
    </g>
    <g id="xtick_38">
     <g id="line2d_74">
      <g>
       <use xlink:href="#m34114d89c6" x="627.950906" y="179.489008" style="stroke: #000000; stroke-width: 0.8"/>
      </g>
     </g>
    </g>
    <g id="xtick_39">
     <g id="line2d_75">
      <g>
       <use xlink:href="#m34114d89c6" x="664.735175" y="179.489008" style="stroke: #000000; stroke-width: 0.8"/>
      </g>
     </g>
    </g>
    <g id="xtick_40">
     <g id="line2d_76">
      <g>
       <use xlink:href="#m34114d89c6" x="701.519445" y="179.489008" style="stroke: #000000; stroke-width: 0.8"/>
      </g>
     </g>
    </g>
   </g>
   <g id="matplotlib.axis_20">
    <g id="ytick_19">
     <g id="line2d_77">
      <g>
       <use xlink:href="#m495165b88c" x="585.546" y="177.218716" style="stroke: #000000; stroke-width: 0.8"/>
      </g>
     </g>
    </g>
    <g id="ytick_20">
     <g id="line2d_78">
      <g>
       <use xlink:href="#m495165b88c" x="585.546" y="135.701875" style="stroke: #000000; stroke-width: 0.8"/>
      </g>
     </g>
    </g>
   </g>
   <g id="line2d_79">
    <path d="M 591.166636 164.849224 
L 591.902322 162.183227 
L 592.932281 157.394164 
L 593.962241 152.840931 
L 594.845063 150.033214 
L 595.875023 147.574898 
L 597.199257 144.998113 
L 598.817764 142.354058 
L 602.201917 137.355301 
L 607.498852 129.960469 
L 610.294456 126.403756 
L 612.64865 123.744005 
L 615.002843 121.423121 
L 617.357036 119.425825 
L 620.005504 117.490289 
L 622.948245 115.60971 
L 626.185261 113.811648 
L 628.539454 112.643505 
L 628.686591 175.634389 
L 629.569414 174.757463 
L 630.599373 173.320709 
L 631.77647 171.727008 
L 632.953566 170.511514 
L 635.013485 168.772717 
L 638.397638 166.295899 
L 645.313081 161.530066 
L 666.059409 147.363857 
L 666.206546 165.928289 
L 668.413602 163.794599 
L 670.620658 161.338921 
L 672.680577 158.720492 
L 674.740496 155.758988 
L 676.947553 152.194014 
L 679.448883 147.712899 
L 686.217188 135.28303 
L 688.424245 131.862177 
L 690.484164 129.09049 
L 692.544083 126.70975 
L 694.751139 124.50876 
L 697.252469 122.309863 
L 699.900937 120.283782 
L 702.843678 118.318997 
L 703.579364 117.86668 
L 703.579364 117.86668 
" clip-path="url(#p1bb3c991b3)" style="fill: none; stroke: #0000ff; stroke-width: 1.5; stroke-linecap: square"/>
   </g>
   <g id="line2d_80">
    <path d="M 591.166636 164.887122 
L 591.902322 162.187659 
L 592.932281 157.447019 
L 593.962241 152.873108 
L 594.845063 150.074221 
L 595.875023 147.604355 
L 597.346394 144.762494 
L 598.964901 142.154623 
L 608.675949 128.448718 
L 612.207238 124.24136 
L 616.621351 120.051279 
L 618.534133 118.57437 
L 622.21256 116.078274 
L 628.539454 112.591078 
L 628.686591 175.654344 
L 629.716551 174.587006 
L 630.893647 172.88982 
L 631.923607 171.562378 
L 633.100703 170.395625 
L 635.602034 168.349792 
L 639.869009 165.317393 
L 640.31042 165.028981 
L 641.781791 163.983538 
L 642.958888 163.194707 
L 654.43558 155.416261 
L 654.729854 155.234583 
L 655.318402 154.866705 
L 655.90695 154.485501 
L 656.789773 153.887643 
L 657.819733 153.180102 
L 660.026789 151.635401 
L 660.909611 151.060318 
L 661.498159 150.675889 
L 661.792434 150.428929 
L 662.528119 149.886505 
L 663.116667 149.459959 
L 664.588038 148.590391 
L 664.882312 148.275681 
L 665.323723 148.063987 
L 665.765135 147.581782 
L 665.912272 147.564272 
L 666.059409 147.767951 
L 666.206546 165.869906 
L 666.795094 165.359034 
L 670.620658 161.35959 
L 671.944892 159.762063 
L 673.416263 157.761651 
L 675.476182 154.801843 
L 678.56606 149.46712 
L 679.154609 148.46992 
L 681.067391 144.887563 
L 682.538762 142.083018 
L 682.980173 141.318301 
L 684.010132 139.331173 
L 685.62864 136.430834 
L 686.217188 135.549103 
L 688.571382 131.794497 
L 690.631301 129.340162 
L 691.66126 127.862496 
L 692.69122 127.065498 
L 693.279768 126.16332 
L 693.721179 125.873594 
L 694.751139 124.861969 
L 694.898276 124.926769 
L 695.19255 124.635885 
L 695.486824 124.222276 
L 696.516784 123.29061 
L 697.105332 122.652204 
L 697.399606 122.570344 
L 697.988155 122.117047 
L 698.429566 121.769134 
L 698.576703 121.70765 
L 699.018114 121.225331 
L 699.312388 121.118206 
L 699.606663 121.05745 
L 700.636622 120.137019 
L 700.930896 120.02246 
L 701.22517 119.884427 
L 701.666582 119.439143 
L 701.960856 119.196811 
L 702.843678 118.566412 
L 702.990815 118.394947 
L 703.137952 118.62553 
L 703.285089 119.074377 
L 703.432227 118.980674 
L 703.579364 117.030534 
L 703.579364 117.030534 
" clip-path="url(#p1bb3c991b3)" style="fill: none; stroke: #ffa500; stroke-width: 1.5; stroke-linecap: square"/>
   </g>
   <g id="patch_48">
    <path d="M 585.546 179.489008 
L 585.546 102.6 
" style="fill: none; stroke: #000000; stroke-width: 0.8; stroke-linejoin: miter; stroke-linecap: square"/>
   </g>
   <g id="patch_49">
    <path d="M 709.2 179.489008 
L 709.2 102.6 
" style="fill: none; stroke: #000000; stroke-width: 0.8; stroke-linejoin: miter; stroke-linecap: square"/>
   </g>
   <g id="patch_50">
    <path d="M 585.546 179.489008 
L 709.2 179.489008 
" style="fill: none; stroke: #000000; stroke-width: 0.8; stroke-linejoin: miter; stroke-linecap: square"/>
   </g>
   <g id="patch_51">
    <path d="M 585.546 102.6 
L 709.2 102.6 
" style="fill: none; stroke: #000000; stroke-width: 0.8; stroke-linejoin: miter; stroke-linecap: square"/>
   </g>
  </g>
 </g>
 <defs>
  <clipPath id="pc5fe57f4c0">
   <rect x="33.73" y="10.8" width="123.654" height="76.889008"/>
  </clipPath>
  <clipPath id="p054e7d98ce">
   <rect x="171.684" y="10.8" width="123.654" height="76.889008"/>
  </clipPath>
  <clipPath id="p9e1f56dc54">
   <rect x="309.638" y="10.8" width="123.654" height="76.889008"/>
  </clipPath>
  <clipPath id="p9da6ed669b">
   <rect x="447.592" y="10.8" width="123.654" height="76.889008"/>
  </clipPath>
  <clipPath id="p8fa00903cd">
   <rect x="585.546" y="10.8" width="123.654" height="76.889008"/>
  </clipPath>
  <clipPath id="peecad737b0">
   <rect x="33.73" y="102.6" width="123.654" height="76.889008"/>
  </clipPath>
  <clipPath id="pf03442ebe4">
   <rect x="171.684" y="102.6" width="123.654" height="76.889008"/>
  </clipPath>
  <clipPath id="p8538f6f404">
   <rect x="309.638" y="102.6" width="123.654" height="76.889008"/>
  </clipPath>
  <clipPath id="p1ba617b95f">
   <rect x="447.592" y="102.6" width="123.654" height="76.889008"/>
  </clipPath>
  <clipPath id="p1bb3c991b3">
   <rect x="585.546" y="102.6" width="123.654" height="76.889008"/>
  </clipPath>
 </defs>
</svg>
