<?xml version="1.0" encoding="utf-8" standalone="no"?>
<!DOCTYPE svg PUBLIC "-//W3C//DTD SVG 1.1//EN"
  "http://www.w3.org/Graphics/SVG/1.1/DTD/svg11.dtd">
<svg xmlns:xlink="http://www.w3.org/1999/xlink" width="288pt" height="144pt" viewBox="0 0 288 144" xmlns="http://www.w3.org/2000/svg" version="1.1">
 <metadata>
  <rdf:RDF xmlns:dc="http://purl.org/dc/elements/1.1/" xmlns:cc="http://creativecommons.org/ns#" xmlns:rdf="http://www.w3.org/1999/02/22-rdf-syntax-ns#">
   <cc:Work>
    <dc:type rdf:resource="http://purl.org/dc/dcmitype/StillImage"/>
    <dc:date>2025-04-21T16:25:49.587690</dc:date>
    <dc:format>image/svg+xml</dc:format>
    <dc:creator>
     <cc:Agent>
      <dc:title>Matplotlib v3.8.4, https://matplotlib.org/</dc:title>
     </cc:Agent>
    </dc:creator>
   </cc:Work>
  </rdf:RDF>
 </metadata>
 <defs>
  <style type="text/css">*{stroke-linejoin: round; stroke-linecap: butt}</style>
 </defs>
 <g id="figure_1">
  <g id="patch_1">
   <path d="M 0 144 
L 288 144 
L 288 0 
L 0 0 
z
" style="fill: #ffffff"/>
  </g>
  <g id="axes_1">
   <g id="patch_2">
    <path d="M 36 128.16 
L 259.2 128.16 
L 259.2 17.28 
L 36 17.28 
z
" style="fill: #ffffff"/>
   </g>
   <g id="matplotlib.axis_1">
    <g id="xtick_1">
     <g id="line2d_1">
      <defs>
       <path id="m142302c029" d="M 0 0 
L 0 3.5 
" style="stroke: #000000; stroke-width: 0.8"/>
      </defs>
      <g>
       <use xlink:href="#m142302c029" x="46.145455" y="128.16" style="stroke: #000000; stroke-width: 0.8"/>
      </g>
     </g>
     <g id="text_1">
      <text style="font: 10px 'DejaVu Sans', 'Bitstream Vera Sans', 'Computer Modern Sans Serif', 'Lucida Grande', 'Verdana', 'Geneva', 'Lucid', 'Arial', 'Helvetica', 'Avant Garde', sans-serif; text-anchor: middle" x="46.145455" y="142.758438" transform="rotate(-0 46.145455 142.758438)">0</text>
     </g>
    </g>
    <g id="xtick_2">
     <g id="line2d_2">
      <g>
       <use xlink:href="#m142302c029" x="88.773415" y="128.16" style="stroke: #000000; stroke-width: 0.8"/>
      </g>
     </g>
     <g id="text_2">
      <text style="font: 10px 'DejaVu Sans', 'Bitstream Vera Sans', 'Computer Modern Sans Serif', 'Lucida Grande', 'Verdana', 'Geneva', 'Lucid', 'Arial', 'Helvetica', 'Avant Garde', sans-serif; text-anchor: middle" x="88.773415" y="142.758438" transform="rotate(-0 88.773415 142.758438)">50</text>
     </g>
    </g>
    <g id="xtick_3">
     <g id="line2d_3">
      <g>
       <use xlink:href="#m142302c029" x="131.401375" y="128.16" style="stroke: #000000; stroke-width: 0.8"/>
      </g>
     </g>
     <g id="text_3">
      <text style="font: 10px 'DejaVu Sans', 'Bitstream Vera Sans', 'Computer Modern Sans Serif', 'Lucida Grande', 'Verdana', 'Geneva', 'Lucid', 'Arial', 'Helvetica', 'Avant Garde', sans-serif; text-anchor: middle" x="131.401375" y="142.758438" transform="rotate(-0 131.401375 142.758438)">100</text>
     </g>
    </g>
    <g id="xtick_4">
     <g id="line2d_4">
      <g>
       <use xlink:href="#m142302c029" x="174.029335" y="128.16" style="stroke: #000000; stroke-width: 0.8"/>
      </g>
     </g>
     <g id="text_4">
      <text style="font: 10px 'DejaVu Sans', 'Bitstream Vera Sans', 'Computer Modern Sans Serif', 'Lucida Grande', 'Verdana', 'Geneva', 'Lucid', 'Arial', 'Helvetica', 'Avant Garde', sans-serif; text-anchor: middle" x="174.029335" y="142.758438" transform="rotate(-0 174.029335 142.758438)">150</text>
     </g>
    </g>
    <g id="xtick_5">
     <g id="line2d_5">
      <g>
       <use xlink:href="#m142302c029" x="216.657296" y="128.16" style="stroke: #000000; stroke-width: 0.8"/>
      </g>
     </g>
     <g id="text_5">
      <text style="font: 10px 'DejaVu Sans', 'Bitstream Vera Sans', 'Computer Modern Sans Serif', 'Lucida Grande', 'Verdana', 'Geneva', 'Lucid', 'Arial', 'Helvetica', 'Avant Garde', sans-serif; text-anchor: middle" x="216.657296" y="142.758438" transform="rotate(-0 216.657296 142.758438)">200</text>
     </g>
    </g>
    <g id="text_6">
     <text style="font: 10px 'DejaVu Sans', 'Bitstream Vera Sans', 'Computer Modern Sans Serif', 'Lucida Grande', 'Verdana', 'Geneva', 'Lucid', 'Arial', 'Helvetica', 'Avant Garde', sans-serif; text-anchor: middle" x="147.6" y="156.436563" transform="rotate(-0 147.6 156.436563)">Epoch</text>
    </g>
   </g>
   <g id="matplotlib.axis_2">
    <g id="ytick_1">
     <g id="line2d_6">
      <defs>
       <path id="md725cd0578" d="M 0 0 
L -3.5 0 
" style="stroke: #000000; stroke-width: 0.8"/>
      </defs>
      <g>
       <use xlink:href="#md725cd0578" x="36" y="112.45302" style="stroke: #000000; stroke-width: 0.8"/>
      </g>
     </g>
     <g id="text_7">
      <!-- $\mathdefault{10^{-4}}$ -->
      <g transform="translate(5.5 116.252238)">
       <text>
        <tspan style="font: 10px 'DejaVu Sans'" x="0 6.362305" y="-0.06406250000000036">10</tspan>
        <tspan style="font: 7px 'DejaVu Sans'" x="12.820312 18.685547" y="-3.8921875000000004">−4</tspan>
       </text>
      </g>
     </g>
    </g>
    <g id="ytick_2">
     <g id="line2d_7">
      <g>
       <use xlink:href="#md725cd0578" x="36" y="81.505313" style="stroke: #000000; stroke-width: 0.8"/>
      </g>
     </g>
     <g id="text_8">
      <!-- $\mathdefault{10^{-3}}$ -->
      <g transform="translate(5.5 85.304532)">
       <text>
        <tspan style="font: 10px 'DejaVu Sans'" x="0 6.362305" y="-0.9765625">10</tspan>
        <tspan style="font: 7px 'DejaVu Sans'" x="12.820312 18.685547" y="-4.8046875">−3</tspan>
       </text>
      </g>
     </g>
    </g>
    <g id="ytick_3">
     <g id="line2d_8">
      <g>
       <use xlink:href="#md725cd0578" x="36" y="50.557606" style="stroke: #000000; stroke-width: 0.8"/>
      </g>
     </g>
     <g id="text_9">
      <!-- $\mathdefault{10^{-2}}$ -->
      <g transform="translate(5.5 54.356825)">
       <text>
        <tspan style="font: 10px 'DejaVu Sans'" x="0 6.362305" y="-0.9765625">10</tspan>
        <tspan style="font: 7px 'DejaVu Sans'" x="12.820312 18.685547" y="-4.8046875">−2</tspan>
       </text>
      </g>
     </g>
    </g>
    <g id="ytick_4">
     <g id="line2d_9">
      <g>
       <use xlink:href="#md725cd0578" x="36" y="19.6099" style="stroke: #000000; stroke-width: 0.8"/>
      </g>
     </g>
     <g id="text_10">
      <!-- $\mathdefault{10^{-1}}$ -->
      <g transform="translate(5.5 23.409119)">
       <text>
        <tspan style="font: 10px 'DejaVu Sans'" x="0 6.362305" y="-0.06406250000000036">10</tspan>
        <tspan style="font: 7px 'DejaVu Sans'" x="12.820312 18.685547" y="-3.8921875000000004">−1</tspan>
       </text>
      </g>
     </g>
    </g>
    <g id="ytick_5">
     <g id="line2d_10">
      <defs>
       <path id="macf10de385" d="M 0 0 
L -2 0 
" style="stroke: #000000; stroke-width: 0.6"/>
      </defs>
      <g>
       <use xlink:href="#macf10de385" x="36" y="124.76835" style="stroke: #000000; stroke-width: 0.6"/>
      </g>
     </g>
    </g>
    <g id="ytick_6">
     <g id="line2d_11">
      <g>
       <use xlink:href="#macf10de385" x="36" y="121.769208" style="stroke: #000000; stroke-width: 0.6"/>
      </g>
     </g>
    </g>
    <g id="ytick_7">
     <g id="line2d_12">
      <g>
       <use xlink:href="#macf10de385" x="36" y="119.31873" style="stroke: #000000; stroke-width: 0.6"/>
      </g>
     </g>
    </g>
    <g id="ytick_8">
     <g id="line2d_13">
      <g>
       <use xlink:href="#macf10de385" x="36" y="117.24688" style="stroke: #000000; stroke-width: 0.6"/>
      </g>
     </g>
    </g>
    <g id="ytick_9">
     <g id="line2d_14">
      <g>
       <use xlink:href="#macf10de385" x="36" y="115.452162" style="stroke: #000000; stroke-width: 0.6"/>
      </g>
     </g>
    </g>
    <g id="ytick_10">
     <g id="line2d_15">
      <g>
       <use xlink:href="#macf10de385" x="36" y="113.869109" style="stroke: #000000; stroke-width: 0.6"/>
      </g>
     </g>
    </g>
    <g id="ytick_11">
     <g id="line2d_16">
      <g>
       <use xlink:href="#macf10de385" x="36" y="103.136832" style="stroke: #000000; stroke-width: 0.6"/>
      </g>
     </g>
    </g>
    <g id="ytick_12">
     <g id="line2d_17">
      <g>
       <use xlink:href="#macf10de385" x="36" y="97.687211" style="stroke: #000000; stroke-width: 0.6"/>
      </g>
     </g>
    </g>
    <g id="ytick_13">
     <g id="line2d_18">
      <g>
       <use xlink:href="#macf10de385" x="36" y="93.820644" style="stroke: #000000; stroke-width: 0.6"/>
      </g>
     </g>
    </g>
    <g id="ytick_14">
     <g id="line2d_19">
      <g>
       <use xlink:href="#macf10de385" x="36" y="90.821501" style="stroke: #000000; stroke-width: 0.6"/>
      </g>
     </g>
    </g>
    <g id="ytick_15">
     <g id="line2d_20">
      <g>
       <use xlink:href="#macf10de385" x="36" y="88.371023" style="stroke: #000000; stroke-width: 0.6"/>
      </g>
     </g>
    </g>
    <g id="ytick_16">
     <g id="line2d_21">
      <g>
       <use xlink:href="#macf10de385" x="36" y="86.299173" style="stroke: #000000; stroke-width: 0.6"/>
      </g>
     </g>
    </g>
    <g id="ytick_17">
     <g id="line2d_22">
      <g>
       <use xlink:href="#macf10de385" x="36" y="84.504456" style="stroke: #000000; stroke-width: 0.6"/>
      </g>
     </g>
    </g>
    <g id="ytick_18">
     <g id="line2d_23">
      <g>
       <use xlink:href="#macf10de385" x="36" y="82.921402" style="stroke: #000000; stroke-width: 0.6"/>
      </g>
     </g>
    </g>
    <g id="ytick_19">
     <g id="line2d_24">
      <g>
       <use xlink:href="#macf10de385" x="36" y="72.189125" style="stroke: #000000; stroke-width: 0.6"/>
      </g>
     </g>
    </g>
    <g id="ytick_20">
     <g id="line2d_25">
      <g>
       <use xlink:href="#macf10de385" x="36" y="66.739504" style="stroke: #000000; stroke-width: 0.6"/>
      </g>
     </g>
    </g>
    <g id="ytick_21">
     <g id="line2d_26">
      <g>
       <use xlink:href="#macf10de385" x="36" y="62.872937" style="stroke: #000000; stroke-width: 0.6"/>
      </g>
     </g>
    </g>
    <g id="ytick_22">
     <g id="line2d_27">
      <g>
       <use xlink:href="#macf10de385" x="36" y="59.873794" style="stroke: #000000; stroke-width: 0.6"/>
      </g>
     </g>
    </g>
    <g id="ytick_23">
     <g id="line2d_28">
      <g>
       <use xlink:href="#macf10de385" x="36" y="57.423316" style="stroke: #000000; stroke-width: 0.6"/>
      </g>
     </g>
    </g>
    <g id="ytick_24">
     <g id="line2d_29">
      <g>
       <use xlink:href="#macf10de385" x="36" y="55.351467" style="stroke: #000000; stroke-width: 0.6"/>
      </g>
     </g>
    </g>
    <g id="ytick_25">
     <g id="line2d_30">
      <g>
       <use xlink:href="#macf10de385" x="36" y="53.556749" style="stroke: #000000; stroke-width: 0.6"/>
      </g>
     </g>
    </g>
    <g id="ytick_26">
     <g id="line2d_31">
      <g>
       <use xlink:href="#macf10de385" x="36" y="51.973696" style="stroke: #000000; stroke-width: 0.6"/>
      </g>
     </g>
    </g>
    <g id="ytick_27">
     <g id="line2d_32">
      <g>
       <use xlink:href="#macf10de385" x="36" y="41.241418" style="stroke: #000000; stroke-width: 0.6"/>
      </g>
     </g>
    </g>
    <g id="ytick_28">
     <g id="line2d_33">
      <g>
       <use xlink:href="#macf10de385" x="36" y="35.791798" style="stroke: #000000; stroke-width: 0.6"/>
      </g>
     </g>
    </g>
    <g id="ytick_29">
     <g id="line2d_34">
      <g>
       <use xlink:href="#macf10de385" x="36" y="31.92523" style="stroke: #000000; stroke-width: 0.6"/>
      </g>
     </g>
    </g>
    <g id="ytick_30">
     <g id="line2d_35">
      <g>
       <use xlink:href="#macf10de385" x="36" y="28.926088" style="stroke: #000000; stroke-width: 0.6"/>
      </g>
     </g>
    </g>
    <g id="ytick_31">
     <g id="line2d_36">
      <g>
       <use xlink:href="#macf10de385" x="36" y="26.47561" style="stroke: #000000; stroke-width: 0.6"/>
      </g>
     </g>
    </g>
    <g id="ytick_32">
     <g id="line2d_37">
      <g>
       <use xlink:href="#macf10de385" x="36" y="24.40376" style="stroke: #000000; stroke-width: 0.6"/>
      </g>
     </g>
    </g>
    <g id="ytick_33">
     <g id="line2d_38">
      <g>
       <use xlink:href="#macf10de385" x="36" y="22.609042" style="stroke: #000000; stroke-width: 0.6"/>
      </g>
     </g>
    </g>
    <g id="ytick_34">
     <g id="line2d_39">
      <g>
       <use xlink:href="#macf10de385" x="36" y="21.025989" style="stroke: #000000; stroke-width: 0.6"/>
      </g>
     </g>
    </g>
    <g id="text_11">
     <text style="font: 10px 'DejaVu Sans', 'Bitstream Vera Sans', 'Computer Modern Sans Serif', 'Lucida Grande', 'Verdana', 'Geneva', 'Lucid', 'Arial', 'Helvetica', 'Avant Garde', sans-serif; text-anchor: middle" x="-0.579687" y="72.72" transform="rotate(-90 -0.579687 72.72)">Loss</text>
    </g>
   </g>
   <g id="line2d_40">
    <path d="M 46.145455 22.32 
L 46.998014 56.863263 
L 47.850573 62.089051 
L 49.555691 69.833776 
L 50.408251 73.206259 
L 51.26081 77.46946 
L 52.965928 81.964812 
L 53.818487 83.834055 
L 55.523606 88.069689 
L 56.376165 89.276385 
L 57.228724 91.18886 
L 58.081283 89.262397 
L 58.933843 91.796775 
L 59.786402 89.896598 
L 60.638961 92.235836 
L 61.49152 93.016789 
L 62.344079 94.661565 
L 63.196639 93.001807 
L 64.049198 97.358025 
L 64.901757 94.520612 
L 65.754316 92.909269 
L 66.606875 94.50838 
L 67.459435 96.450261 
L 68.311994 94.689425 
L 69.164553 96.407832 
L 70.017112 100.050542 
L 70.869672 97.248507 
L 71.722231 97.920461 
L 72.57479 97.273782 
L 73.427349 99.495518 
L 74.279908 97.150004 
L 75.132468 100.757293 
L 75.985027 99.51536 
L 76.837586 101.226734 
L 77.690145 100.210165 
L 78.542704 98.958438 
L 79.395264 102.471015 
L 80.247823 99.493769 
L 81.100382 101.518391 
L 82.8055 104.65005 
L 83.65806 101.704618 
L 84.510619 101.983952 
L 85.363178 100.634986 
L 86.215737 102.870243 
L 87.068296 102.816362 
L 87.920856 101.971237 
L 88.773415 102.925642 
L 89.625974 104.277914 
L 90.478533 104.984836 
L 91.331092 104.69069 
L 92.183652 106.071268 
L 93.036211 102.757919 
L 94.741329 105.329642 
L 95.593888 103.403962 
L 96.446448 105.107473 
L 97.299007 107.183245 
L 98.151566 106.83633 
L 99.004125 103.279085 
L 99.856684 107.447884 
L 100.709244 106.953532 
L 101.561803 103.887766 
L 102.414362 107.090387 
L 103.266921 104.012292 
L 104.119481 104.643627 
L 104.97204 108.465773 
L 105.824599 107.326701 
L 106.677158 108.819016 
L 107.529717 107.980547 
L 108.382277 108.132681 
L 109.234836 108.890492 
L 110.087395 104.82867 
L 110.939954 107.919105 
L 111.792513 107.124374 
L 112.645073 109.974897 
L 113.497632 109.623769 
L 114.350191 109.5964 
L 115.20275 107.796573 
L 116.055309 111.840385 
L 116.907869 109.33671 
L 117.760428 108.785896 
L 118.612987 110.335579 
L 119.465546 110.544019 
L 120.318105 109.138933 
L 121.170665 111.162324 
L 122.023224 110.615891 
L 122.875783 108.464333 
L 123.728342 106.998546 
L 124.580901 111.936434 
L 125.433461 111.511574 
L 126.28602 110.32469 
L 127.138579 111.25089 
L 127.991138 111.971074 
L 128.843697 110.871104 
L 129.696257 110.848042 
L 130.548816 112.403085 
L 131.401375 113.336409 
L 132.253934 112.85677 
L 133.106494 111.214208 
L 133.959053 111.181866 
L 134.811612 112.89927 
L 135.664171 112.979665 
L 136.51673 111.135823 
L 137.36929 112.155305 
L 138.221849 112.140763 
L 139.074408 113.052522 
L 139.926967 112.847023 
L 140.779526 111.537717 
L 141.632086 114.535485 
L 142.484645 113.55439 
L 143.337204 113.444334 
L 144.189763 114.849324 
L 145.042322 114.203668 
L 145.894882 113.230832 
L 146.747441 113.007557 
L 147.6 114.185459 
L 148.452559 113.962849 
L 149.305118 112.83833 
L 150.157678 113.968487 
L 151.010237 114.44124 
L 151.862796 114.240746 
L 152.715355 114.419759 
L 153.567914 114.302783 
L 154.420474 114.325134 
L 156.978151 114.684429 
L 157.83071 114.246031 
L 158.68327 115.318431 
L 159.535829 114.923504 
L 160.388388 116.056899 
L 161.240947 115.859296 
L 162.093506 114.144858 
L 162.946066 116.522895 
L 163.798625 115.417113 
L 164.651184 116.442687 
L 165.503743 116.663056 
L 166.356303 114.479376 
L 168.061421 117.096895 
L 168.91398 115.497669 
L 169.766539 117.272967 
L 170.619099 115.999933 
L 171.471658 117.66783 
L 172.324217 116.40658 
L 173.176776 116.28832 
L 174.029335 117.47861 
L 174.881895 116.12108 
L 175.734454 116.040903 
L 176.587013 117.160166 
L 177.439572 117.255877 
L 178.292131 118.113183 
L 179.144691 117.858943 
L 179.99725 116.851124 
L 180.849809 117.450473 
L 181.702368 117.083026 
L 182.554927 117.449021 
L 183.407487 118.362771 
L 184.260046 118.429767 
L 185.112605 117.967411 
L 185.965164 117.881751 
L 186.817723 118.546704 
L 187.670283 118.602948 
L 188.522842 118.33355 
L 189.375401 118.681623 
L 190.22796 118.563685 
L 191.080519 117.300247 
L 191.933079 119.161134 
L 192.785638 118.893747 
L 193.638197 118.450853 
L 195.343316 118.96551 
L 196.195875 119.016481 
L 197.048434 119.769695 
L 197.900993 119.646257 
L 198.753552 119.339106 
L 199.606112 120.075079 
L 200.458671 119.410243 
L 201.31123 119.505763 
L 202.163789 120.016279 
L 203.016348 118.878058 
L 203.868908 119.456168 
L 204.721467 120.404823 
L 205.574026 119.984181 
L 206.426585 118.737024 
L 207.279144 119.486085 
L 208.131704 119.714083 
L 208.984263 120.218779 
L 210.689381 120.070451 
L 211.54194 120.7699 
L 212.3945 119.821345 
L 213.247059 121.247033 
L 214.099618 121.052041 
L 215.804736 120.326546 
L 216.657296 121.33416 
L 217.509855 120.517589 
L 218.362414 120.881682 
L 220.067532 121.055252 
L 220.920092 120.864066 
L 221.772651 120.96296 
L 222.62521 121.677356 
L 223.477769 121.401489 
L 224.330328 121.605046 
L 225.182888 121.657725 
L 226.035447 122.392134 
L 226.888006 121.724021 
L 227.740565 121.494828 
L 228.593125 121.798751 
L 229.445684 121.037981 
L 230.298243 121.635107 
L 231.150802 121.805202 
L 232.003361 121.712471 
L 232.855921 121.929946 
L 233.70848 121.916657 
L 234.561039 121.703707 
L 235.413598 121.930245 
L 236.266157 122.385277 
L 237.118717 122.495787 
L 237.971276 122.073412 
L 238.823835 122.344935 
L 239.676394 122.248155 
L 240.528953 122.506307 
L 241.381513 123.028202 
L 242.234072 122.911208 
L 243.93919 122.120935 
L 244.791749 123.12 
L 245.644309 123.0096 
L 246.496868 122.612529 
L 247.349427 122.71551 
L 248.201986 123.072187 
L 249.054545 122.370286 
L 249.054545 122.370286 
" clip-path="url(#pa1825f3dd5)" style="fill: none; stroke: #1f77b4; stroke-width: 1.5; stroke-linecap: square"/>
   </g>
   <g id="line2d_41">
    <path d="M 46.145455 50.785989 
L 46.998014 59.803731 
L 47.850573 63.402285 
L 48.703132 68.099559 
L 49.555691 71.785554 
L 50.408251 76.113505 
L 51.26081 77.844741 
L 52.113369 81.684426 
L 52.965928 84.32147 
L 53.818487 83.221269 
L 54.671047 86.273429 
L 55.523606 88.790939 
L 56.376165 88.256745 
L 57.228724 85.416222 
L 58.933843 90.906466 
L 59.786402 94.750104 
L 60.638961 90.028701 
L 61.49152 89.872622 
L 62.344079 83.919311 
L 63.196639 93.418033 
L 64.049198 96.763957 
L 64.901757 89.086447 
L 65.754316 97.110684 
L 66.606875 85.423171 
L 67.459435 94.884876 
L 68.311994 92.095837 
L 69.164553 98.308182 
L 70.017112 94.445257 
L 70.869672 98.761853 
L 71.722231 97.368349 
L 72.57479 101.764422 
L 73.427349 97.584661 
L 74.279908 98.374321 
L 75.132468 97.382417 
L 75.985027 97.235245 
L 76.837586 95.118884 
L 77.690145 100.499463 
L 78.542704 100.128202 
L 79.395264 98.056175 
L 80.247823 100.724984 
L 81.100382 102.757153 
L 81.952941 100.890701 
L 82.8055 99.914013 
L 83.65806 100.346082 
L 84.510619 96.536359 
L 85.363178 102.610944 
L 86.215737 103.995721 
L 87.068296 99.878383 
L 87.920856 99.855018 
L 88.773415 103.05783 
L 89.625974 103.063195 
L 90.478533 101.366769 
L 91.331092 100.829277 
L 92.183652 104.903386 
L 93.036211 101.365876 
L 93.88877 104.594344 
L 94.741329 97.648704 
L 95.593888 101.853872 
L 96.446448 103.918301 
L 97.299007 103.880412 
L 98.151566 103.129336 
L 99.004125 102.95897 
L 99.856684 97.955868 
L 100.709244 96.371772 
L 101.561803 103.420696 
L 102.414362 103.918227 
L 103.266921 101.195351 
L 104.119481 106.557927 
L 104.97204 105.823314 
L 105.824599 103.710995 
L 106.677158 107.787409 
L 107.529717 100.568377 
L 108.382277 102.845888 
L 109.234836 106.469581 
L 110.087395 103.281692 
L 110.939954 102.641634 
L 111.792513 104.070378 
L 112.645073 104.814381 
L 113.497632 108.994621 
L 114.350191 104.446264 
L 115.20275 107.56698 
L 116.907869 107.883154 
L 117.760428 105.628772 
L 118.612987 108.019946 
L 120.318105 106.891798 
L 121.170665 107.33211 
L 122.023224 107.97467 
L 122.875783 107.104471 
L 123.728342 110.318835 
L 125.433461 104.920698 
L 127.991138 108.239984 
L 128.843697 105.20424 
L 129.696257 105.708587 
L 130.548816 106.633239 
L 131.401375 103.502507 
L 132.253934 108.402121 
L 133.106494 108.685578 
L 133.959053 109.344599 
L 134.811612 108.351628 
L 135.664171 103.760895 
L 136.51673 107.976905 
L 137.36929 104.907266 
L 138.221849 110.051305 
L 139.074408 107.613596 
L 139.926967 105.791081 
L 140.779526 109.210758 
L 141.632086 109.345656 
L 142.484645 103.438829 
L 143.337204 109.833125 
L 144.189763 110.661807 
L 145.042322 108.048142 
L 145.894882 110.362652 
L 146.747441 107.757709 
L 147.6 110.087231 
L 148.452559 109.479595 
L 149.305118 109.173363 
L 151.010237 111.59913 
L 151.862796 107.853698 
L 152.715355 108.060172 
L 153.567914 110.260492 
L 154.420474 104.677794 
L 155.273033 109.269895 
L 156.125592 109.225054 
L 156.978151 105.386782 
L 157.83071 110.613563 
L 158.68327 109.831364 
L 159.535829 107.634331 
L 160.388388 110.111905 
L 161.240947 109.027696 
L 162.093506 111.217488 
L 162.946066 110.043059 
L 163.798625 111.449758 
L 164.651184 110.69861 
L 165.503743 107.259634 
L 166.356303 110.623915 
L 167.208862 108.636419 
L 168.061421 111.603737 
L 168.91398 112.108078 
L 169.766539 110.247012 
L 170.619099 109.521752 
L 171.471658 111.770312 
L 172.324217 110.457126 
L 173.176776 111.507555 
L 174.029335 111.83536 
L 174.881895 110.581253 
L 175.734454 108.454083 
L 176.587013 111.097922 
L 177.439572 111.623938 
L 178.292131 113.116355 
L 179.144691 104.921869 
L 179.99725 110.941399 
L 180.849809 111.805194 
L 181.702368 108.853203 
L 182.554927 110.547497 
L 183.407487 111.863981 
L 184.260046 109.952659 
L 185.112605 106.305819 
L 185.965164 110.923514 
L 186.817723 111.745653 
L 188.522842 112.919919 
L 189.375401 111.585588 
L 190.22796 113.806189 
L 191.080519 110.464294 
L 191.933079 112.421266 
L 192.785638 111.73431 
L 193.638197 112.490104 
L 194.490756 110.123324 
L 195.343316 111.776461 
L 196.195875 112.805264 
L 197.048434 111.681685 
L 197.900993 110.883905 
L 198.753552 112.005043 
L 199.606112 113.985985 
L 200.458671 113.646243 
L 201.31123 111.973293 
L 202.163789 112.225816 
L 203.016348 113.080486 
L 203.868908 113.304659 
L 204.721467 111.638282 
L 205.574026 112.822707 
L 206.426585 113.178949 
L 207.279144 113.20198 
L 208.131704 111.435949 
L 208.984263 112.227112 
L 209.836822 111.853616 
L 210.689381 110.908162 
L 211.54194 112.976752 
L 212.3945 114.044915 
L 213.247059 112.70418 
L 214.099618 112.992712 
L 214.952177 114.04076 
L 215.804736 112.848814 
L 216.657296 113.281771 
L 217.509855 112.680489 
L 218.362414 112.844186 
L 219.214973 114.032615 
L 220.067532 112.230702 
L 220.920092 112.724467 
L 221.772651 112.310422 
L 222.62521 112.204609 
L 223.477769 114.807544 
L 224.330328 112.10932 
L 225.182888 113.517611 
L 226.035447 112.337271 
L 226.888006 114.017529 
L 227.740565 112.412551 
L 228.593125 113.826135 
L 229.445684 114.041973 
L 230.298243 113.157226 
L 231.150802 114.378502 
L 232.003361 113.779714 
L 232.855921 111.580337 
L 233.70848 114.215891 
L 234.561039 111.083869 
L 235.413598 112.886864 
L 236.266157 113.63348 
L 237.118717 113.497528 
L 237.971276 112.14627 
L 238.823835 112.954273 
L 239.676394 113.462438 
L 240.528953 114.455754 
L 241.381513 114.76659 
L 242.234072 114.076526 
L 243.086631 113.158523 
L 243.93919 113.792039 
L 244.791749 113.583679 
L 245.644309 113.655901 
L 246.496868 113.473285 
L 248.201986 113.822647 
L 249.054545 113.169367 
L 249.054545 113.169367 
" clip-path="url(#pa1825f3dd5)" style="fill: none; stroke: #ff7f0e; stroke-width: 1.5; stroke-linecap: square"/>
   </g>
   <g id="patch_3">
    <path d="M 36 128.16 
L 36 17.28 
" style="fill: none; stroke: #000000; stroke-width: 0.8; stroke-linejoin: miter; stroke-linecap: square"/>
   </g>
   <g id="patch_4">
    <path d="M 259.2 128.16 
L 259.2 17.28 
" style="fill: none; stroke: #000000; stroke-width: 0.8; stroke-linejoin: miter; stroke-linecap: square"/>
   </g>
   <g id="patch_5">
    <path d="M 36 128.16 
L 259.2 128.16 
" style="fill: none; stroke: #000000; stroke-width: 0.8; stroke-linejoin: miter; stroke-linecap: square"/>
   </g>
   <g id="patch_6">
    <path d="M 36 17.28 
L 259.2 17.28 
" style="fill: none; stroke: #000000; stroke-width: 0.8; stroke-linejoin: miter; stroke-linecap: square"/>
   </g>
   <g id="legend_1">
    <g id="patch_7">
     <path d="M 180.748437 54.63625 
L 252.2 54.63625 
Q 254.2 54.63625 254.2 52.63625 
L 254.2 24.28 
Q 254.2 22.28 252.2 22.28 
L 180.748437 22.28 
Q 178.748437 22.28 178.748437 24.28 
L 178.748437 52.63625 
Q 178.748437 54.63625 180.748437 54.63625 
z
" style="fill: #ffffff; opacity: 0.8; stroke: #cccccc; stroke-linejoin: miter"/>
    </g>
    <g id="line2d_42">
     <path d="M 182.748437 30.378438 
L 192.748437 30.378438 
L 202.748437 30.378438 
" style="fill: none; stroke: #1f77b4; stroke-width: 1.5; stroke-linecap: square"/>
    </g>
    <g id="text_12">
     <text style="font: 10px 'DejaVu Sans', 'Bitstream Vera Sans', 'Computer Modern Sans Serif', 'Lucida Grande', 'Verdana', 'Geneva', 'Lucid', 'Arial', 'Helvetica', 'Avant Garde', sans-serif; text-anchor: start" x="210.748437" y="33.878438" transform="rotate(-0 210.748437 33.878438)">Training</text>
    </g>
    <g id="line2d_43">
     <path d="M 182.748437 45.056563 
L 192.748437 45.056563 
L 202.748437 45.056563 
" style="fill: none; stroke: #ff7f0e; stroke-width: 1.5; stroke-linecap: square"/>
    </g>
    <g id="text_13">
     <text style="font: 10px 'DejaVu Sans', 'Bitstream Vera Sans', 'Computer Modern Sans Serif', 'Lucida Grande', 'Verdana', 'Geneva', 'Lucid', 'Arial', 'Helvetica', 'Avant Garde', sans-serif; text-anchor: start" x="210.748437" y="48.556563" transform="rotate(-0 210.748437 48.556563)">Testing</text>
    </g>
   </g>
  </g>
 </g>
 <defs>
  <clipPath id="pa1825f3dd5">
   <rect x="36" y="17.28" width="223.2" height="110.88"/>
  </clipPath>
 </defs>
</svg>
