<?xml version="1.0" encoding="utf-8" standalone="no"?>
<!DOCTYPE svg PUBLIC "-//W3C//DTD SVG 1.1//EN"
  "http://www.w3.org/Graphics/SVG/1.1/DTD/svg11.dtd">
<svg xmlns:xlink="http://www.w3.org/1999/xlink" width="288pt" height="144pt" viewBox="0 0 288 144" xmlns="http://www.w3.org/2000/svg" version="1.1">
 <metadata>
  <rdf:RDF xmlns:dc="http://purl.org/dc/elements/1.1/" xmlns:cc="http://creativecommons.org/ns#" xmlns:rdf="http://www.w3.org/1999/02/22-rdf-syntax-ns#">
   <cc:Work>
    <dc:type rdf:resource="http://purl.org/dc/dcmitype/StillImage"/>
    <dc:date>2025-03-13T13:10:47.399849</dc:date>
    <dc:format>image/svg+xml</dc:format>
    <dc:creator>
     <cc:Agent>
      <dc:title>Matplotlib v3.8.4, https://matplotlib.org/</dc:title>
     </cc:Agent>
    </dc:creator>
   </cc:Work>
  </rdf:RDF>
 </metadata>
 <defs>
  <style type="text/css">*{stroke-linejoin: round; stroke-linecap: butt}</style>
 </defs>
 <g id="figure_1">
  <g id="patch_1">
   <path d="M 0 144 
L 288 144 
L 288 0 
L 0 0 
z
" style="fill: #ffffff"/>
  </g>
  <g id="axes_1">
   <g id="patch_2">
    <path d="M 36 128.16 
L 259.2 128.16 
L 259.2 17.28 
L 36 17.28 
z
" style="fill: #ffffff"/>
   </g>
   <g id="matplotlib.axis_1">
    <g id="xtick_1">
     <g id="line2d_1">
      <defs>
       <path id="m5e4d5f1c03" d="M 0 0 
L 0 3.5 
" style="stroke: #000000; stroke-width: 0.8"/>
      </defs>
      <g>
       <use xlink:href="#m5e4d5f1c03" x="46.145455" y="128.16" style="stroke: #000000; stroke-width: 0.8"/>
      </g>
     </g>
     <g id="text_1">
      <text style="font: 10px 'DejaVu Sans', 'Bitstream Vera Sans', 'Computer Modern Sans Serif', 'Lucida Grande', 'Verdana', 'Geneva', 'Lucid', 'Arial', 'Helvetica', 'Avant Garde', sans-serif; text-anchor: middle" x="46.145455" y="142.758438" transform="rotate(-0 46.145455 142.758438)">0</text>
     </g>
    </g>
    <g id="xtick_2">
     <g id="line2d_2">
      <g>
       <use xlink:href="#m5e4d5f1c03" x="85.016928" y="128.16" style="stroke: #000000; stroke-width: 0.8"/>
      </g>
     </g>
     <g id="text_2">
      <text style="font: 10px 'DejaVu Sans', 'Bitstream Vera Sans', 'Computer Modern Sans Serif', 'Lucida Grande', 'Verdana', 'Geneva', 'Lucid', 'Arial', 'Helvetica', 'Avant Garde', sans-serif; text-anchor: middle" x="85.016928" y="142.758438" transform="rotate(-0 85.016928 142.758438)">50</text>
     </g>
    </g>
    <g id="xtick_3">
     <g id="line2d_3">
      <g>
       <use xlink:href="#m5e4d5f1c03" x="123.888401" y="128.16" style="stroke: #000000; stroke-width: 0.8"/>
      </g>
     </g>
     <g id="text_3">
      <text style="font: 10px 'DejaVu Sans', 'Bitstream Vera Sans', 'Computer Modern Sans Serif', 'Lucida Grande', 'Verdana', 'Geneva', 'Lucid', 'Arial', 'Helvetica', 'Avant Garde', sans-serif; text-anchor: middle" x="123.888401" y="142.758438" transform="rotate(-0 123.888401 142.758438)">100</text>
     </g>
    </g>
    <g id="xtick_4">
     <g id="line2d_4">
      <g>
       <use xlink:href="#m5e4d5f1c03" x="162.759875" y="128.16" style="stroke: #000000; stroke-width: 0.8"/>
      </g>
     </g>
     <g id="text_4">
      <text style="font: 10px 'DejaVu Sans', 'Bitstream Vera Sans', 'Computer Modern Sans Serif', 'Lucida Grande', 'Verdana', 'Geneva', 'Lucid', 'Arial', 'Helvetica', 'Avant Garde', sans-serif; text-anchor: middle" x="162.759875" y="142.758438" transform="rotate(-0 162.759875 142.758438)">150</text>
     </g>
    </g>
    <g id="xtick_5">
     <g id="line2d_5">
      <g>
       <use xlink:href="#m5e4d5f1c03" x="201.631348" y="128.16" style="stroke: #000000; stroke-width: 0.8"/>
      </g>
     </g>
     <g id="text_5">
      <text style="font: 10px 'DejaVu Sans', 'Bitstream Vera Sans', 'Computer Modern Sans Serif', 'Lucida Grande', 'Verdana', 'Geneva', 'Lucid', 'Arial', 'Helvetica', 'Avant Garde', sans-serif; text-anchor: middle" x="201.631348" y="142.758438" transform="rotate(-0 201.631348 142.758438)">200</text>
     </g>
    </g>
    <g id="xtick_6">
     <g id="line2d_6">
      <g>
       <use xlink:href="#m5e4d5f1c03" x="240.502821" y="128.16" style="stroke: #000000; stroke-width: 0.8"/>
      </g>
     </g>
     <g id="text_6">
      <text style="font: 10px 'DejaVu Sans', 'Bitstream Vera Sans', 'Computer Modern Sans Serif', 'Lucida Grande', 'Verdana', 'Geneva', 'Lucid', 'Arial', 'Helvetica', 'Avant Garde', sans-serif; text-anchor: middle" x="240.502821" y="142.758438" transform="rotate(-0 240.502821 142.758438)">250</text>
     </g>
    </g>
    <g id="text_7">
     <text style="font: 10px 'DejaVu Sans', 'Bitstream Vera Sans', 'Computer Modern Sans Serif', 'Lucida Grande', 'Verdana', 'Geneva', 'Lucid', 'Arial', 'Helvetica', 'Avant Garde', sans-serif; text-anchor: middle" x="147.6" y="156.436563" transform="rotate(-0 147.6 156.436563)">Epoch</text>
    </g>
   </g>
   <g id="matplotlib.axis_2">
    <g id="ytick_1">
     <g id="line2d_7">
      <defs>
       <path id="m3f36b317d3" d="M 0 0 
L -3.5 0 
" style="stroke: #000000; stroke-width: 0.8"/>
      </defs>
      <g>
       <use xlink:href="#m3f36b317d3" x="36" y="108.782636" style="stroke: #000000; stroke-width: 0.8"/>
      </g>
     </g>
     <g id="text_8">
      <!-- $\mathdefault{10^{-3}}$ -->
      <g transform="translate(5.5 112.581854)">
       <text>
        <tspan style="font: 10px 'DejaVu Sans'" x="0 6.362305" y="-0.9765625">10</tspan>
        <tspan style="font: 7px 'DejaVu Sans'" x="12.820312 18.685547" y="-4.8046875">−3</tspan>
       </text>
      </g>
     </g>
    </g>
    <g id="ytick_2">
     <g id="line2d_8">
      <g>
       <use xlink:href="#m3f36b317d3" x="36" y="76.483141" style="stroke: #000000; stroke-width: 0.8"/>
      </g>
     </g>
     <g id="text_9">
      <!-- $\mathdefault{10^{-2}}$ -->
      <g transform="translate(5.5 80.28236)">
       <text>
        <tspan style="font: 10px 'DejaVu Sans'" x="0 6.362305" y="-0.9765625">10</tspan>
        <tspan style="font: 7px 'DejaVu Sans'" x="12.820312 18.685547" y="-4.8046875">−2</tspan>
       </text>
      </g>
     </g>
    </g>
    <g id="ytick_3">
     <g id="line2d_9">
      <g>
       <use xlink:href="#m3f36b317d3" x="36" y="44.183647" style="stroke: #000000; stroke-width: 0.8"/>
      </g>
     </g>
     <g id="text_10">
      <!-- $\mathdefault{10^{-1}}$ -->
      <g transform="translate(5.5 47.982866)">
       <text>
        <tspan style="font: 10px 'DejaVu Sans'" x="0 6.362305" y="-0.06406250000000036">10</tspan>
        <tspan style="font: 7px 'DejaVu Sans'" x="12.820312 18.685547" y="-3.8921875000000004">−1</tspan>
       </text>
      </g>
     </g>
    </g>
    <g id="ytick_4">
     <g id="line2d_10">
      <defs>
       <path id="m859ee41798" d="M 0 0 
L -2 0 
" style="stroke: #000000; stroke-width: 0.6"/>
      </defs>
      <g>
       <use xlink:href="#m859ee41798" x="36" y="125.671355" style="stroke: #000000; stroke-width: 0.6"/>
      </g>
     </g>
    </g>
    <g id="ytick_5">
     <g id="line2d_11">
      <g>
       <use xlink:href="#m859ee41798" x="36" y="121.635897" style="stroke: #000000; stroke-width: 0.6"/>
      </g>
     </g>
    </g>
    <g id="ytick_6">
     <g id="line2d_12">
      <g>
       <use xlink:href="#m859ee41798" x="36" y="118.505752" style="stroke: #000000; stroke-width: 0.6"/>
      </g>
     </g>
    </g>
    <g id="ytick_7">
     <g id="line2d_13">
      <g>
       <use xlink:href="#m859ee41798" x="36" y="115.948238" style="stroke: #000000; stroke-width: 0.6"/>
      </g>
     </g>
    </g>
    <g id="ytick_8">
     <g id="line2d_14">
      <g>
       <use xlink:href="#m859ee41798" x="36" y="113.785891" style="stroke: #000000; stroke-width: 0.6"/>
      </g>
     </g>
    </g>
    <g id="ytick_9">
     <g id="line2d_15">
      <g>
       <use xlink:href="#m859ee41798" x="36" y="111.91278" style="stroke: #000000; stroke-width: 0.6"/>
      </g>
     </g>
    </g>
    <g id="ytick_10">
     <g id="line2d_16">
      <g>
       <use xlink:href="#m859ee41798" x="36" y="110.260579" style="stroke: #000000; stroke-width: 0.6"/>
      </g>
     </g>
    </g>
    <g id="ytick_11">
     <g id="line2d_17">
      <g>
       <use xlink:href="#m859ee41798" x="36" y="99.059519" style="stroke: #000000; stroke-width: 0.6"/>
      </g>
     </g>
    </g>
    <g id="ytick_12">
     <g id="line2d_18">
      <g>
       <use xlink:href="#m859ee41798" x="36" y="93.37186" style="stroke: #000000; stroke-width: 0.6"/>
      </g>
     </g>
    </g>
    <g id="ytick_13">
     <g id="line2d_19">
      <g>
       <use xlink:href="#m859ee41798" x="36" y="89.336402" style="stroke: #000000; stroke-width: 0.6"/>
      </g>
     </g>
    </g>
    <g id="ytick_14">
     <g id="line2d_20">
      <g>
       <use xlink:href="#m859ee41798" x="36" y="86.206258" style="stroke: #000000; stroke-width: 0.6"/>
      </g>
     </g>
    </g>
    <g id="ytick_15">
     <g id="line2d_21">
      <g>
       <use xlink:href="#m859ee41798" x="36" y="83.648744" style="stroke: #000000; stroke-width: 0.6"/>
      </g>
     </g>
    </g>
    <g id="ytick_16">
     <g id="line2d_22">
      <g>
       <use xlink:href="#m859ee41798" x="36" y="81.486396" style="stroke: #000000; stroke-width: 0.6"/>
      </g>
     </g>
    </g>
    <g id="ytick_17">
     <g id="line2d_23">
      <g>
       <use xlink:href="#m859ee41798" x="36" y="79.613286" style="stroke: #000000; stroke-width: 0.6"/>
      </g>
     </g>
    </g>
    <g id="ytick_18">
     <g id="line2d_24">
      <g>
       <use xlink:href="#m859ee41798" x="36" y="77.961085" style="stroke: #000000; stroke-width: 0.6"/>
      </g>
     </g>
    </g>
    <g id="ytick_19">
     <g id="line2d_25">
      <g>
       <use xlink:href="#m859ee41798" x="36" y="66.760025" style="stroke: #000000; stroke-width: 0.6"/>
      </g>
     </g>
    </g>
    <g id="ytick_20">
     <g id="line2d_26">
      <g>
       <use xlink:href="#m859ee41798" x="36" y="61.072366" style="stroke: #000000; stroke-width: 0.6"/>
      </g>
     </g>
    </g>
    <g id="ytick_21">
     <g id="line2d_27">
      <g>
       <use xlink:href="#m859ee41798" x="36" y="57.036908" style="stroke: #000000; stroke-width: 0.6"/>
      </g>
     </g>
    </g>
    <g id="ytick_22">
     <g id="line2d_28">
      <g>
       <use xlink:href="#m859ee41798" x="36" y="53.906763" style="stroke: #000000; stroke-width: 0.6"/>
      </g>
     </g>
    </g>
    <g id="ytick_23">
     <g id="line2d_29">
      <g>
       <use xlink:href="#m859ee41798" x="36" y="51.349249" style="stroke: #000000; stroke-width: 0.6"/>
      </g>
     </g>
    </g>
    <g id="ytick_24">
     <g id="line2d_30">
      <g>
       <use xlink:href="#m859ee41798" x="36" y="49.186902" style="stroke: #000000; stroke-width: 0.6"/>
      </g>
     </g>
    </g>
    <g id="ytick_25">
     <g id="line2d_31">
      <g>
       <use xlink:href="#m859ee41798" x="36" y="47.313791" style="stroke: #000000; stroke-width: 0.6"/>
      </g>
     </g>
    </g>
    <g id="ytick_26">
     <g id="line2d_32">
      <g>
       <use xlink:href="#m859ee41798" x="36" y="45.661591" style="stroke: #000000; stroke-width: 0.6"/>
      </g>
     </g>
    </g>
    <g id="ytick_27">
     <g id="line2d_33">
      <g>
       <use xlink:href="#m859ee41798" x="36" y="34.46053" style="stroke: #000000; stroke-width: 0.6"/>
      </g>
     </g>
    </g>
    <g id="ytick_28">
     <g id="line2d_34">
      <g>
       <use xlink:href="#m859ee41798" x="36" y="28.772872" style="stroke: #000000; stroke-width: 0.6"/>
      </g>
     </g>
    </g>
    <g id="ytick_29">
     <g id="line2d_35">
      <g>
       <use xlink:href="#m859ee41798" x="36" y="24.737413" style="stroke: #000000; stroke-width: 0.6"/>
      </g>
     </g>
    </g>
    <g id="ytick_30">
     <g id="line2d_36">
      <g>
       <use xlink:href="#m859ee41798" x="36" y="21.607269" style="stroke: #000000; stroke-width: 0.6"/>
      </g>
     </g>
    </g>
    <g id="ytick_31">
     <g id="line2d_37">
      <g>
       <use xlink:href="#m859ee41798" x="36" y="19.049755" style="stroke: #000000; stroke-width: 0.6"/>
      </g>
     </g>
    </g>
    <g id="text_11">
     <text style="font: 10px 'DejaVu Sans', 'Bitstream Vera Sans', 'Computer Modern Sans Serif', 'Lucida Grande', 'Verdana', 'Geneva', 'Lucid', 'Arial', 'Helvetica', 'Avant Garde', sans-serif; text-anchor: middle" x="-0.579687" y="72.72" transform="rotate(-90 -0.579687 72.72)">Loss</text>
    </g>
   </g>
   <g id="line2d_38">
    <path d="M 46.145455 22.32 
L 46.922884 52.751273 
L 47.700313 55.662198 
L 48.477743 57.85594 
L 50.810031 69.177687 
L 51.587461 71.897396 
L 52.36489 73.414848 
L 53.14232 76.750182 
L 53.919749 77.892824 
L 54.697179 80.486804 
L 55.474608 82.312633 
L 56.252038 82.98027 
L 57.029467 82.147144 
L 57.806897 85.396377 
L 59.361755 89.365777 
L 60.139185 89.522214 
L 60.916614 90.858229 
L 62.471473 90.98048 
L 63.248903 92.033198 
L 64.026332 92.379319 
L 64.803762 93.08453 
L 65.581191 93.958048 
L 66.358621 93.695981 
L 67.13605 95.853504 
L 67.91348 95.825202 
L 69.468339 96.302578 
L 70.245768 94.797109 
L 71.023197 96.713479 
L 71.800627 96.681594 
L 72.578056 98.489555 
L 73.355486 98.443726 
L 74.132915 98.798136 
L 74.910345 98.733406 
L 75.687774 97.980883 
L 76.465204 100.03706 
L 77.242633 100.460169 
L 78.020063 99.877404 
L 78.797492 100.249595 
L 79.574922 100.238146 
L 80.352351 99.767165 
L 81.90721 101.91373 
L 82.684639 100.973742 
L 83.462069 102.306926 
L 84.239498 102.150724 
L 85.016928 103.51354 
L 85.794357 102.079007 
L 86.571787 102.070646 
L 87.349216 102.774679 
L 88.126646 105.063696 
L 88.904075 103.91731 
L 89.681505 104.209635 
L 90.458934 103.312439 
L 91.236364 104.472262 
L 92.013793 104.413019 
L 92.791223 104.054914 
L 93.568652 105.306994 
L 94.346082 104.794924 
L 95.90094 105.275178 
L 96.67837 106.371662 
L 97.455799 105.756097 
L 98.233229 106.528018 
L 99.010658 105.16706 
L 99.788088 106.816804 
L 100.565517 107.018188 
L 101.342947 104.662604 
L 102.120376 107.141985 
L 102.897806 106.186804 
L 103.675235 107.492615 
L 104.452665 107.489341 
L 105.230094 108.237618 
L 106.007524 108.047558 
L 106.784953 107.32911 
L 107.562382 108.405684 
L 108.339812 108.16292 
L 109.117241 109.296856 
L 109.894671 108.689607 
L 110.6721 107.213957 
L 111.44953 109.651399 
L 112.226959 108.634521 
L 113.004389 109.897825 
L 114.559248 109.237008 
L 115.336677 108.71432 
L 116.114107 109.766785 
L 116.891536 107.939365 
L 117.668966 109.152183 
L 118.446395 110.041948 
L 120.001254 111.355899 
L 120.778683 110.65824 
L 122.333542 110.509157 
L 123.110972 110.909533 
L 123.888401 110.956803 
L 124.665831 110.589162 
L 125.44326 109.670226 
L 126.22069 111.52728 
L 126.998119 112.630134 
L 127.775549 112.666205 
L 128.552978 111.997164 
L 129.330408 112.633079 
L 130.107837 112.47317 
L 130.885266 111.889924 
L 131.662696 111.16597 
L 132.440125 111.91344 
L 133.217555 113.512932 
L 133.994984 112.814082 
L 134.772414 112.459439 
L 135.549843 113.338225 
L 136.327273 113.489297 
L 137.104702 113.07185 
L 137.882132 114.044313 
L 138.659561 112.83207 
L 139.436991 112.977505 
L 140.21442 114.03627 
L 140.99185 113.921468 
L 141.769279 114.308982 
L 142.546708 113.732231 
L 143.324138 114.305684 
L 144.101567 113.905894 
L 145.656426 113.777162 
L 146.433856 114.560373 
L 147.988715 114.996803 
L 148.766144 114.726363 
L 149.543574 114.656891 
L 151.098433 115.352817 
L 151.875862 114.258492 
L 152.653292 115.664406 
L 153.430721 115.509874 
L 154.20815 115.098914 
L 155.763009 115.362518 
L 156.540439 116.926908 
L 157.317868 116.016067 
L 158.095298 115.563063 
L 158.872727 115.967673 
L 159.650157 116.637308 
L 160.427586 115.29215 
L 161.205016 116.434991 
L 161.982445 116.401447 
L 162.759875 116.23222 
L 163.537304 116.780111 
L 164.314734 116.675316 
L 165.092163 116.283614 
L 165.869592 117.236476 
L 166.647022 117.200135 
L 167.424451 117.690024 
L 168.201881 117.023115 
L 168.97931 117.35898 
L 169.75674 117.272991 
L 170.534169 117.641816 
L 171.311599 117.528425 
L 172.089028 117.764324 
L 172.866458 117.289008 
L 173.643887 117.870861 
L 174.421317 117.939181 
L 175.198746 117.499683 
L 175.976176 117.390863 
L 176.753605 117.765956 
L 177.531034 118.265842 
L 178.308464 118.022925 
L 179.085893 118.387742 
L 179.863323 118.2212 
L 180.640752 118.545012 
L 181.418182 118.717669 
L 182.195611 117.64904 
L 182.973041 118.600448 
L 184.5279 118.434485 
L 185.305329 119.066076 
L 186.082759 119.366854 
L 186.860188 118.066903 
L 187.637618 118.826328 
L 188.415047 118.541337 
L 189.192476 119.352218 
L 189.969906 119.642831 
L 190.747335 118.923017 
L 191.524765 118.966519 
L 192.302194 119.446305 
L 193.079624 119.143293 
L 193.857053 120.079393 
L 194.634483 119.434687 
L 195.411912 119.861072 
L 196.189342 119.643126 
L 196.966771 119.868975 
L 197.744201 119.555163 
L 198.52163 119.955722 
L 200.076489 120.009049 
L 200.853918 120.281802 
L 201.631348 119.898972 
L 202.408777 120.545136 
L 203.186207 120.528414 
L 203.963636 120.211423 
L 204.741066 120.313418 
L 205.518495 120.813125 
L 206.295925 120.111155 
L 207.073354 121.11433 
L 207.850784 121.072622 
L 208.628213 120.680298 
L 209.405643 120.963355 
L 210.183072 120.144127 
L 210.960502 120.847351 
L 211.737931 121.023677 
L 212.515361 120.823616 
L 213.29279 121.367252 
L 214.070219 120.615456 
L 214.847649 121.136506 
L 215.625078 120.580247 
L 216.402508 121.049074 
L 217.957367 121.60877 
L 218.734796 120.839076 
L 219.512226 120.735626 
L 220.289655 121.65794 
L 221.067085 121.408556 
L 221.844514 121.704234 
L 222.621944 121.646872 
L 226.509091 122.03467 
L 227.28652 121.750259 
L 231.173668 122.251559 
L 231.951097 122.263644 
L 232.728527 121.774299 
L 233.505956 122.434016 
L 234.283386 122.164642 
L 235.060815 122.215478 
L 235.838245 122.030735 
L 236.615674 122.59947 
L 237.393103 122.49334 
L 241.280251 122.854039 
L 242.05768 122.7512 
L 243.612539 122.902332 
L 244.389969 122.699974 
L 245.167398 122.846834 
L 245.944828 123.12 
L 246.722257 123.06417 
L 247.499687 122.858193 
L 248.277116 123.038129 
L 249.054545 123.000521 
L 249.054545 123.000521 
" clip-path="url(#pc77717495a)" style="fill: none; stroke: #1f77b4; stroke-width: 1.5; stroke-linecap: square"/>
   </g>
   <g id="line2d_39">
    <path d="M 46.145455 48.014028 
L 46.922884 54.089988 
L 47.700313 56.010284 
L 48.477743 59.139854 
L 50.032602 67.607546 
L 50.810031 66.442656 
L 51.587461 69.896673 
L 52.36489 75.719557 
L 53.14232 76.815778 
L 53.919749 75.081467 
L 54.697179 81.940453 
L 55.474608 79.083512 
L 56.252038 73.793999 
L 57.029467 83.053623 
L 57.806897 81.255777 
L 58.584326 86.420387 
L 59.361755 86.137401 
L 60.139185 86.842194 
L 60.916614 87.802502 
L 61.694044 91.808778 
L 62.471473 89.324126 
L 63.248903 90.980341 
L 64.026332 89.395735 
L 64.803762 83.467661 
L 65.581191 88.673579 
L 66.358621 91.085058 
L 67.13605 93.941501 
L 67.91348 89.711068 
L 68.690909 91.950053 
L 69.468339 95.143751 
L 70.245768 90.79359 
L 71.023197 95.111336 
L 71.800627 92.609278 
L 72.578056 93.801783 
L 73.355486 94.079762 
L 74.132915 94.125763 
L 74.910345 92.389966 
L 75.687774 98.255388 
L 76.465204 97.687541 
L 77.242633 95.966552 
L 78.020063 89.033274 
L 78.797492 89.505821 
L 79.574922 95.483685 
L 80.352351 97.129775 
L 81.129781 98.172907 
L 81.90721 92.959656 
L 82.684639 98.195493 
L 83.462069 95.469311 
L 84.239498 98.256506 
L 85.016928 97.224495 
L 85.794357 97.481592 
L 86.571787 96.523811 
L 87.349216 100.482178 
L 88.126646 97.588201 
L 88.904075 96.674124 
L 89.681505 99.608969 
L 90.458934 98.596654 
L 91.236364 93.318341 
L 92.013793 98.626996 
L 92.791223 101.102153 
L 93.568652 98.453951 
L 94.346082 100.170902 
L 95.123511 97.584051 
L 95.90094 100.476444 
L 96.67837 100.949361 
L 97.455799 100.446506 
L 98.233229 100.447857 
L 99.010658 100.249076 
L 99.788088 100.889135 
L 100.565517 98.917293 
L 101.342947 101.756024 
L 102.120376 101.888999 
L 102.897806 99.198037 
L 103.675235 97.625899 
L 104.452665 100.487118 
L 106.007524 104.489355 
L 106.784953 102.029775 
L 107.562382 101.853013 
L 108.339812 102.102787 
L 109.117241 103.379798 
L 109.894671 102.858373 
L 110.6721 104.1415 
L 111.44953 102.094729 
L 112.226959 103.722791 
L 113.004389 102.007621 
L 113.781818 103.089982 
L 114.559248 101.841993 
L 115.336677 103.386817 
L 116.114107 103.043341 
L 116.891536 100.073019 
L 117.668966 102.848424 
L 118.446395 103.248402 
L 119.223824 104.364476 
L 120.778683 103.027082 
L 121.556113 103.841459 
L 122.333542 100.352153 
L 123.110972 105.58729 
L 123.888401 104.277 
L 124.665831 104.143638 
L 125.44326 104.84408 
L 126.22069 102.956357 
L 126.998119 104.647405 
L 127.775549 103.827277 
L 128.552978 103.444277 
L 130.107837 105.831502 
L 130.885266 100.617067 
L 131.662696 101.330506 
L 132.440125 104.5905 
L 133.217555 104.080459 
L 133.994984 105.295382 
L 134.772414 101.489179 
L 135.549843 105.334653 
L 136.327273 104.903863 
L 137.104702 104.14656 
L 137.882132 103.059264 
L 138.659561 104.719219 
L 139.436991 104.697222 
L 140.21442 104.221696 
L 140.99185 105.401732 
L 141.769279 105.68885 
L 142.546708 103.824534 
L 143.324138 104.137237 
L 144.101567 106.519424 
L 144.878997 105.322265 
L 145.656426 105.304922 
L 146.433856 106.274571 
L 147.211285 104.277849 
L 147.988715 105.866625 
L 148.766144 105.670758 
L 149.543574 106.187075 
L 150.321003 105.702496 
L 151.098433 103.091916 
L 151.875862 103.015404 
L 152.653292 104.333477 
L 153.430721 105.090764 
L 154.20815 104.125793 
L 154.98558 103.88547 
L 155.763009 104.898618 
L 156.540439 106.602567 
L 157.317868 106.499345 
L 158.095298 106.166007 
L 158.872727 105.53849 
L 159.650157 106.350867 
L 160.427586 106.44699 
L 161.205016 106.084879 
L 161.982445 106.744645 
L 162.759875 105.928637 
L 163.537304 107.495797 
L 164.314734 107.375611 
L 165.092163 106.544063 
L 165.869592 106.377381 
L 166.647022 106.748758 
L 167.424451 106.510127 
L 168.201881 107.731947 
L 168.97931 107.850151 
L 169.75674 106.534454 
L 170.534169 106.731723 
L 171.311599 107.346631 
L 172.089028 106.626761 
L 172.866458 106.28295 
L 173.643887 106.445075 
L 174.421317 107.278895 
L 175.198746 105.53765 
L 175.976176 107.123945 
L 176.753605 107.477792 
L 177.531034 106.975646 
L 178.308464 107.038557 
L 179.085893 106.11901 
L 179.863323 106.773445 
L 180.640752 106.100119 
L 181.418182 104.900645 
L 182.195611 107.230612 
L 182.973041 106.893225 
L 183.75047 107.149747 
L 184.5279 107.925234 
L 185.305329 106.853485 
L 186.082759 106.927738 
L 186.860188 107.241768 
L 187.637618 106.700081 
L 188.415047 106.945378 
L 189.192476 107.953568 
L 189.969906 107.178992 
L 190.747335 107.13816 
L 191.524765 106.638139 
L 192.302194 107.264236 
L 193.857053 107.164926 
L 194.634483 107.4835 
L 195.411912 108.114898 
L 196.189342 106.924306 
L 196.966771 104.632823 
L 197.744201 107.250913 
L 198.52163 107.423345 
L 199.29906 108.229917 
L 200.076489 107.942463 
L 200.853918 108.077374 
L 201.631348 107.970041 
L 202.408777 108.289173 
L 203.186207 107.160949 
L 203.963636 108.07397 
L 205.518495 107.314568 
L 206.295925 107.371647 
L 207.073354 107.644732 
L 207.850784 108.482532 
L 208.628213 107.924481 
L 209.405643 106.321037 
L 210.183072 107.649153 
L 211.737931 108.148167 
L 212.515361 107.706186 
L 213.29279 107.562437 
L 214.070219 107.625607 
L 214.847649 108.139617 
L 216.402508 107.885691 
L 217.179937 108.301091 
L 217.957367 107.919714 
L 218.734796 107.690126 
L 219.512226 108.425769 
L 220.289655 108.245361 
L 221.067085 108.522025 
L 221.844514 107.95253 
L 222.621944 108.250982 
L 224.176803 108.152623 
L 224.954232 108.271648 
L 225.731661 108.847159 
L 226.509091 106.209612 
L 227.28652 108.119428 
L 228.841379 107.691949 
L 229.618809 108.280635 
L 230.396238 107.958156 
L 231.173668 108.382677 
L 231.951097 108.346839 
L 232.728527 108.498657 
L 233.505956 108.28281 
L 234.283386 108.330009 
L 235.060815 108.54323 
L 235.838245 108.315724 
L 236.615674 108.412758 
L 237.393103 108.329566 
L 238.170533 108.596384 
L 238.947962 108.355103 
L 239.725392 107.489029 
L 240.502821 108.429219 
L 241.280251 108.224824 
L 244.389969 108.028586 
L 245.167398 108.598343 
L 245.944828 108.363262 
L 246.722257 108.608798 
L 247.499687 108.653878 
L 248.277116 108.141123 
L 249.054545 107.847064 
L 249.054545 107.847064 
" clip-path="url(#pc77717495a)" style="fill: none; stroke: #ff7f0e; stroke-width: 1.5; stroke-linecap: square"/>
   </g>
   <g id="patch_3">
    <path d="M 36 128.16 
L 36 17.28 
" style="fill: none; stroke: #000000; stroke-width: 0.8; stroke-linejoin: miter; stroke-linecap: square"/>
   </g>
   <g id="patch_4">
    <path d="M 259.2 128.16 
L 259.2 17.28 
" style="fill: none; stroke: #000000; stroke-width: 0.8; stroke-linejoin: miter; stroke-linecap: square"/>
   </g>
   <g id="patch_5">
    <path d="M 36 128.16 
L 259.2 128.16 
" style="fill: none; stroke: #000000; stroke-width: 0.8; stroke-linejoin: miter; stroke-linecap: square"/>
   </g>
   <g id="patch_6">
    <path d="M 36 17.28 
L 259.2 17.28 
" style="fill: none; stroke: #000000; stroke-width: 0.8; stroke-linejoin: miter; stroke-linecap: square"/>
   </g>
   <g id="legend_1">
    <g id="patch_7">
     <path d="M 180.748437 54.63625 
L 252.2 54.63625 
Q 254.2 54.63625 254.2 52.63625 
L 254.2 24.28 
Q 254.2 22.28 252.2 22.28 
L 180.748437 22.28 
Q 178.748437 22.28 178.748437 24.28 
L 178.748437 52.63625 
Q 178.748437 54.63625 180.748437 54.63625 
z
" style="fill: #ffffff; opacity: 0.8; stroke: #cccccc; stroke-linejoin: miter"/>
    </g>
    <g id="line2d_40">
     <path d="M 182.748437 30.378438 
L 192.748437 30.378438 
L 202.748437 30.378438 
" style="fill: none; stroke: #1f77b4; stroke-width: 1.5; stroke-linecap: square"/>
    </g>
    <g id="text_12">
     <text style="font: 10px 'DejaVu Sans', 'Bitstream Vera Sans', 'Computer Modern Sans Serif', 'Lucida Grande', 'Verdana', 'Geneva', 'Lucid', 'Arial', 'Helvetica', 'Avant Garde', sans-serif; text-anchor: start" x="210.748437" y="33.878438" transform="rotate(-0 210.748437 33.878438)">Training</text>
    </g>
    <g id="line2d_41">
     <path d="M 182.748437 45.056563 
L 192.748437 45.056563 
L 202.748437 45.056563 
" style="fill: none; stroke: #ff7f0e; stroke-width: 1.5; stroke-linecap: square"/>
    </g>
    <g id="text_13">
     <text style="font: 10px 'DejaVu Sans', 'Bitstream Vera Sans', 'Computer Modern Sans Serif', 'Lucida Grande', 'Verdana', 'Geneva', 'Lucid', 'Arial', 'Helvetica', 'Avant Garde', sans-serif; text-anchor: start" x="210.748437" y="48.556563" transform="rotate(-0 210.748437 48.556563)">Testing</text>
    </g>
   </g>
  </g>
 </g>
 <defs>
  <clipPath id="pc77717495a">
   <rect x="36" y="17.28" width="223.2" height="110.88"/>
  </clipPath>
 </defs>
</svg>
