<?xml version="1.0" encoding="utf-8" standalone="no"?>
<!DOCTYPE svg PUBLIC "-//W3C//DTD SVG 1.1//EN"
  "http://www.w3.org/Graphics/SVG/1.1/DTD/svg11.dtd">
<svg xmlns:xlink="http://www.w3.org/1999/xlink" width="720pt" height="216pt" viewBox="0 0 720 216" xmlns="http://www.w3.org/2000/svg" version="1.1">
 <metadata>
  <rdf:RDF xmlns:dc="http://purl.org/dc/elements/1.1/" xmlns:cc="http://creativecommons.org/ns#" xmlns:rdf="http://www.w3.org/1999/02/22-rdf-syntax-ns#">
   <cc:Work>
    <dc:type rdf:resource="http://purl.org/dc/dcmitype/StillImage"/>
    <dc:date>2025-03-23T22:53:10.622126</dc:date>
    <dc:format>image/svg+xml</dc:format>
    <dc:creator>
     <cc:Agent>
      <dc:title>Matplotlib v3.8.4, https://matplotlib.org/</dc:title>
     </cc:Agent>
    </dc:creator>
   </cc:Work>
  </rdf:RDF>
 </metadata>
 <defs>
  <style type="text/css">*{stroke-linejoin: round; stroke-linecap: butt}</style>
 </defs>
 <g id="figure_1">
  <g id="patch_1">
   <path d="M 0 216 
L 720 216 
L 720 0 
L 0 0 
z
" style="fill: #ffffff"/>
  </g>
  <g id="axes_1">
   <g id="patch_2">
    <path d="M 33.73 85.52 
L 136.728 85.52 
L 136.728 25.44 
L 33.73 25.44 
z
" style="fill: #ffffff"/>
   </g>
   <g id="matplotlib.axis_1">
    <g id="xtick_1">
     <g id="line2d_1">
      <defs>
       <path id="ma9175929b7" d="M 0 0 
L 0 3.5 
" style="stroke: #000000; stroke-width: 0.8"/>
      </defs>
      <g>
       <use xlink:href="#ma9175929b7" x="38.411727" y="85.52" style="stroke: #000000; stroke-width: 0.8"/>
      </g>
     </g>
     <g id="text_1">
      <text style="font: 10px 'DejaVu Sans', 'Bitstream Vera Sans', 'Computer Modern Sans Serif', 'Lucida Grande', 'Verdana', 'Geneva', 'Lucid', 'Arial', 'Helvetica', 'Avant Garde', sans-serif; text-anchor: middle" x="38.411727" y="100.118438" transform="rotate(-0 38.411727 100.118438)">0</text>
     </g>
    </g>
    <g id="xtick_2">
     <g id="line2d_2">
      <g>
       <use xlink:href="#ma9175929b7" x="81.561287" y="85.52" style="stroke: #000000; stroke-width: 0.8"/>
      </g>
     </g>
     <g id="text_2">
      <text style="font: 10px 'DejaVu Sans', 'Bitstream Vera Sans', 'Computer Modern Sans Serif', 'Lucida Grande', 'Verdana', 'Geneva', 'Lucid', 'Arial', 'Helvetica', 'Avant Garde', sans-serif; text-anchor: middle" x="81.561287" y="100.118438" transform="rotate(-0 81.561287 100.118438)">200</text>
     </g>
    </g>
    <g id="xtick_3">
     <g id="line2d_3">
      <g>
       <use xlink:href="#ma9175929b7" x="124.710848" y="85.52" style="stroke: #000000; stroke-width: 0.8"/>
      </g>
     </g>
     <g id="text_3">
      <text style="font: 10px 'DejaVu Sans', 'Bitstream Vera Sans', 'Computer Modern Sans Serif', 'Lucida Grande', 'Verdana', 'Geneva', 'Lucid', 'Arial', 'Helvetica', 'Avant Garde', sans-serif; text-anchor: middle" x="124.710848" y="100.118438" transform="rotate(-0 124.710848 100.118438)">400</text>
     </g>
    </g>
   </g>
   <g id="matplotlib.axis_2">
    <g id="ytick_1">
     <g id="line2d_4">
      <defs>
       <path id="m326d3c5344" d="M 0 0 
L -3.5 0 
" style="stroke: #000000; stroke-width: 0.8"/>
      </defs>
      <g>
       <use xlink:href="#m326d3c5344" x="33.73" y="84.916713" style="stroke: #000000; stroke-width: 0.8"/>
      </g>
     </g>
     <g id="text_4">
      <text style="font: 10px 'DejaVu Sans', 'Bitstream Vera Sans', 'Computer Modern Sans Serif', 'Lucida Grande', 'Verdana', 'Geneva', 'Lucid', 'Arial', 'Helvetica', 'Avant Garde', sans-serif; text-anchor: end" x="26.73" y="88.715932" transform="rotate(-0 26.73 88.715932)">0.0</text>
     </g>
    </g>
    <g id="ytick_2">
     <g id="line2d_5">
      <g>
       <use xlink:href="#m326d3c5344" x="33.73" y="54.16531" style="stroke: #000000; stroke-width: 0.8"/>
      </g>
     </g>
     <g id="text_5">
      <text style="font: 10px 'DejaVu Sans', 'Bitstream Vera Sans', 'Computer Modern Sans Serif', 'Lucida Grande', 'Verdana', 'Geneva', 'Lucid', 'Arial', 'Helvetica', 'Avant Garde', sans-serif; text-anchor: end" x="26.73" y="57.964529" transform="rotate(-0 26.73 57.964529)">0.5</text>
     </g>
    </g>
   </g>
   <g id="line2d_6">
    <path d="M 38.411727 82.729286 
L 40.569205 81.975217 
L 42.510935 81.079517 
L 44.236918 80.06297 
L 45.9629 78.792752 
L 47.688883 77.221813 
L 49.199117 75.562946 
L 50.9251 73.305647 
L 52.651082 70.633518 
L 54.377065 67.529908 
L 56.318795 63.528491 
L 58.476273 58.498024 
L 60.849499 52.375381 
L 64.301463 42.766341 
L 69.479411 28.170909 
L 69.695158 55.742511 
L 71.636889 55.885428 
L 73.362871 56.238226 
L 75.736097 56.976187 
L 77.246331 57.612268 
L 79.188062 58.747084 
L 81.992783 60.66262 
L 84.366009 62.561184 
L 88.249469 65.602742 
L 90.622695 67.250187 
L 92.564425 68.312469 
L 94.721903 69.220422 
L 96.447886 69.703063 
L 98.389616 69.988869 
L 100.547094 70.066055 
L 100.762842 70.060765 
L 100.978589 70.271574 
L 103.567563 69.93052 
L 106.372284 69.787639 
L 109.608501 69.854773 
L 113.923457 70.195521 
L 127.084073 71.402043 
L 131.614777 71.505006 
L 132.046273 71.502552 
L 132.046273 71.502552 
" clip-path="url(#p44a10f293c)" style="fill: none; stroke: #0000ff; stroke-width: 1.5; stroke-linecap: square"/>
   </g>
   <g id="line2d_7">
    <path d="M 38.411727 82.789091 
L 41.647944 81.661415 
L 42.07944 81.419381 
L 44.668413 80.09136 
L 47.257387 77.832049 
L 47.473135 77.843538 
L 47.688883 77.726856 
L 48.551874 76.693594 
L 49.414865 75.869267 
L 50.277856 74.515211 
L 50.709352 74.157904 
L 51.356595 73.220643 
L 52.86683 71.094641 
L 53.298326 70.025077 
L 53.729821 69.596496 
L 53.945569 68.872567 
L 55.024308 67.212079 
L 55.671551 65.838884 
L 55.887299 65.515172 
L 56.534543 63.893353 
L 57.181786 62.40623 
L 57.613282 61.011052 
L 57.829029 60.813533 
L 58.692021 58.359217 
L 59.339264 57.381836 
L 59.77076 55.950374 
L 60.202255 54.987957 
L 61.496742 51.035556 
L 62.143985 49.704998 
L 63.65422 45.057649 
L 63.869968 44.392535 
L 64.085716 44.171598 
L 64.301463 43.342657 
L 64.517211 42.969624 
L 66.243194 37.866382 
L 66.458941 37.603838 
L 67.106185 35.461356 
L 67.321933 35.473475 
L 67.753428 33.665634 
L 68.400672 32.014325 
L 68.616419 31.106469 
L 69.047915 30.461979 
L 69.263663 29.408303 
L 69.479411 29.208789 
L 69.695158 55.764343 
L 69.910906 55.809649 
L 70.126654 56.067976 
L 70.773897 55.859072 
L 71.421141 55.885508 
L 73.578619 56.259946 
L 74.010114 56.446463 
L 74.657358 56.640538 
L 75.088853 56.855372 
L 75.520349 56.868853 
L 75.736097 56.857157 
L 76.167592 57.177747 
L 76.599088 57.277763 
L 77.246331 57.552016 
L 77.677827 57.89382 
L 79.619557 59.091183 
L 80.266801 59.512703 
L 80.482548 59.526153 
L 80.914044 59.886625 
L 82.208531 60.87228 
L 83.718765 62.134519 
L 83.934513 62.274949 
L 84.366009 62.699317 
L 86.954982 64.652011 
L 87.602226 65.340133 
L 88.680965 66.081 
L 89.975452 67.119238 
L 90.406947 67.297451 
L 94.07466 69.162272 
L 94.290408 69.164521 
L 94.721903 69.490894 
L 96.232138 69.894489 
L 97.526625 69.928696 
L 97.95812 70.063525 
L 98.605364 70.17466 
L 99.036859 70.209981 
L 99.684103 70.23185 
L 100.331346 70.078778 
L 100.547094 70.467104 
L 100.762842 71.519477 
L 100.978589 68.910119 
L 101.194337 69.720565 
L 101.410085 69.780846 
L 101.625833 70.131107 
L 101.841581 70.10685 
L 102.273076 69.744406 
L 103.136067 69.812711 
L 103.783311 69.239664 
L 104.430554 69.440342 
L 106.372284 69.50373 
L 107.019528 69.310164 
L 107.451023 69.377496 
L 107.666771 69.466978 
L 108.098267 69.442652 
L 108.74551 69.491374 
L 109.608501 69.42667 
L 110.902988 69.456937 
L 111.118736 69.58949 
L 111.765979 69.591283 
L 113.276214 69.80098 
L 114.139205 69.793835 
L 114.570701 69.856719 
L 115.865188 69.790858 
L 116.080935 69.924753 
L 116.512431 69.944696 
L 116.943927 69.996621 
L 117.375422 69.991471 
L 117.59117 70.060269 
L 118.022666 70.072936 
L 118.454161 70.048619 
L 118.669909 70.01336 
L 119.317152 70.216454 
L 121.258883 70.261642 
L 121.906126 70.195702 
L 122.984865 70.692956 
L 124.063604 70.605244 
L 124.926595 70.876587 
L 125.358091 70.675046 
L 126.005334 70.710418 
L 126.43683 71.045511 
L 126.868326 70.854629 
L 127.084073 70.942884 
L 127.731317 70.64348 
L 128.162812 70.80136 
L 128.594308 70.916793 
L 129.457299 70.805614 
L 129.673047 70.770927 
L 130.104543 71.011158 
L 130.536038 70.624244 
L 131.183282 70.654759 
L 131.614777 70.064589 
L 131.830525 70.129408 
L 132.046273 70.777612 
L 132.046273 70.777612 
" clip-path="url(#p44a10f293c)" style="fill: none; stroke: #ffa500; stroke-width: 1.5; stroke-linecap: square"/>
   </g>
   <g id="patch_3">
    <path d="M 33.73 85.52 
L 33.73 25.44 
" style="fill: none; stroke: #000000; stroke-width: 0.8; stroke-linejoin: miter; stroke-linecap: square"/>
   </g>
   <g id="patch_4">
    <path d="M 136.728 85.52 
L 136.728 25.44 
" style="fill: none; stroke: #000000; stroke-width: 0.8; stroke-linejoin: miter; stroke-linecap: square"/>
   </g>
   <g id="patch_5">
    <path d="M 33.73 85.52 
L 136.728 85.52 
" style="fill: none; stroke: #000000; stroke-width: 0.8; stroke-linejoin: miter; stroke-linecap: square"/>
   </g>
   <g id="patch_6">
    <path d="M 33.73 25.44 
L 136.728 25.44 
" style="fill: none; stroke: #000000; stroke-width: 0.8; stroke-linejoin: miter; stroke-linecap: square"/>
   </g>
   <g id="text_6">
    <text style="font: 12px 'DejaVu Sans', 'Bitstream Vera Sans', 'Computer Modern Sans Serif', 'Lucida Grande', 'Verdana', 'Geneva', 'Lucid', 'Arial', 'Helvetica', 'Avant Garde', sans-serif; text-anchor: middle" x="85.229" y="19.44" transform="rotate(-0 85.229 19.44)">Training 1</text>
   </g>
  </g>
  <g id="axes_2">
   <g id="patch_7">
    <path d="M 176.848 85.52 
L 279.846 85.52 
L 279.846 25.44 
L 176.848 25.44 
z
" style="fill: #ffffff"/>
   </g>
   <g id="matplotlib.axis_3">
    <g id="xtick_4">
     <g id="line2d_8">
      <g>
       <use xlink:href="#ma9175929b7" x="181.529727" y="85.52" style="stroke: #000000; stroke-width: 0.8"/>
      </g>
     </g>
     <g id="text_7">
      <text style="font: 10px 'DejaVu Sans', 'Bitstream Vera Sans', 'Computer Modern Sans Serif', 'Lucida Grande', 'Verdana', 'Geneva', 'Lucid', 'Arial', 'Helvetica', 'Avant Garde', sans-serif; text-anchor: middle" x="181.529727" y="100.118438" transform="rotate(-0 181.529727 100.118438)">0</text>
     </g>
    </g>
    <g id="xtick_5">
     <g id="line2d_9">
      <g>
       <use xlink:href="#ma9175929b7" x="224.679287" y="85.52" style="stroke: #000000; stroke-width: 0.8"/>
      </g>
     </g>
     <g id="text_8">
      <text style="font: 10px 'DejaVu Sans', 'Bitstream Vera Sans', 'Computer Modern Sans Serif', 'Lucida Grande', 'Verdana', 'Geneva', 'Lucid', 'Arial', 'Helvetica', 'Avant Garde', sans-serif; text-anchor: middle" x="224.679287" y="100.118438" transform="rotate(-0 224.679287 100.118438)">200</text>
     </g>
    </g>
    <g id="xtick_6">
     <g id="line2d_10">
      <g>
       <use xlink:href="#ma9175929b7" x="267.828848" y="85.52" style="stroke: #000000; stroke-width: 0.8"/>
      </g>
     </g>
     <g id="text_9">
      <text style="font: 10px 'DejaVu Sans', 'Bitstream Vera Sans', 'Computer Modern Sans Serif', 'Lucida Grande', 'Verdana', 'Geneva', 'Lucid', 'Arial', 'Helvetica', 'Avant Garde', sans-serif; text-anchor: middle" x="267.828848" y="100.118438" transform="rotate(-0 267.828848 100.118438)">400</text>
     </g>
    </g>
   </g>
   <g id="matplotlib.axis_4">
    <g id="ytick_3">
     <g id="line2d_11">
      <g>
       <use xlink:href="#m326d3c5344" x="176.848" y="61.112533" style="stroke: #000000; stroke-width: 0.8"/>
      </g>
     </g>
     <g id="text_10">
      <text style="font: 10px 'DejaVu Sans', 'Bitstream Vera Sans', 'Computer Modern Sans Serif', 'Lucida Grande', 'Verdana', 'Geneva', 'Lucid', 'Arial', 'Helvetica', 'Avant Garde', sans-serif; text-anchor: end" x="169.848" y="64.911752" transform="rotate(-0 169.848 64.911752)">0.2</text>
     </g>
    </g>
    <g id="ytick_4">
     <g id="line2d_12">
      <g>
       <use xlink:href="#m326d3c5344" x="176.848" y="34.794822" style="stroke: #000000; stroke-width: 0.8"/>
      </g>
     </g>
     <g id="text_11">
      <text style="font: 10px 'DejaVu Sans', 'Bitstream Vera Sans', 'Computer Modern Sans Serif', 'Lucida Grande', 'Verdana', 'Geneva', 'Lucid', 'Arial', 'Helvetica', 'Avant Garde', sans-serif; text-anchor: end" x="169.848" y="38.594041" transform="rotate(-0 169.848 38.594041)">0.4</text>
     </g>
    </g>
   </g>
   <g id="line2d_13">
    <path d="M 181.529727 82.789091 
L 185.19744 81.698533 
L 188.649405 80.441083 
L 191.885622 79.017043 
L 194.906091 77.43537 
L 197.710812 75.714534 
L 200.515534 73.718342 
L 203.104507 71.603448 
L 205.693481 69.201727 
L 208.282455 66.489972 
L 210.871428 63.447707 
L 212.597411 61.227504 
L 212.813158 28.461444 
L 214.323393 37.452995 
L 215.833628 45.09144 
L 217.343862 51.575691 
L 218.854097 56.984241 
L 220.364331 61.516982 
L 221.874566 65.402665 
L 223.384801 68.653669 
L 224.895035 71.340005 
L 226.40527 73.5917 
L 227.915504 75.469926 
L 229.425739 76.995675 
L 231.151721 78.383942 
L 232.877704 79.477288 
L 234.603686 80.293933 
L 236.545416 80.936685 
L 238.487147 81.353028 
L 240.644625 81.571263 
L 243.01785 81.573343 
L 243.880842 81.521788 
L 244.096589 46.070553 
L 246.469815 48.177186 
L 248.627293 49.814928 
L 250.784771 51.19597 
L 252.942249 52.330894 
L 255.099727 53.229994 
L 257.257205 53.904431 
L 259.630431 54.40144 
L 262.003657 54.656792 
L 264.376883 54.687106 
L 266.965856 54.481481 
L 269.55483 54.046516 
L 272.359551 53.338098 
L 275.164273 52.405366 
L 275.164273 52.405366 
" clip-path="url(#pfc5c1962f7)" style="fill: none; stroke: #0000ff; stroke-width: 1.5; stroke-linecap: square"/>
   </g>
   <g id="line2d_14">
    <path d="M 181.529727 82.782065 
L 183.902953 82.210957 
L 184.334449 82.046334 
L 185.19744 81.854193 
L 185.628935 81.637583 
L 186.923422 81.682896 
L 187.13917 81.429759 
L 187.354918 81.433016 
L 188.002161 81.058594 
L 188.433657 81.292943 
L 189.728144 80.455591 
L 190.375387 80.376755 
L 191.669874 79.408521 
L 191.885622 79.459585 
L 192.10137 78.964231 
L 192.532865 78.703486 
L 192.748613 78.794412 
L 192.964361 78.727123 
L 193.180109 78.782221 
L 193.395856 78.98968 
L 193.611604 78.728109 
L 193.827352 78.816229 
L 194.258848 78.40976 
L 194.474595 78.443494 
L 194.906091 78.050893 
L 195.337587 77.986629 
L 195.98483 77.422789 
L 196.200578 77.627294 
L 196.416326 77.392005 
L 197.063569 77.213978 
L 197.279317 76.813251 
L 197.710812 76.60046 
L 197.92656 76.33972 
L 199.005299 76.02065 
L 199.221047 76.064315 
L 199.436795 75.237004 
L 199.652543 75.678712 
L 200.084038 75.382329 
L 200.299786 75.120203 
L 200.515534 74.535773 
L 200.731282 74.480189 
L 200.947029 74.104421 
L 201.162777 74.038723 
L 201.378525 73.701846 
L 201.594273 73.770121 
L 202.025768 72.819117 
L 202.241516 72.841133 
L 202.673012 72.724604 
L 202.88876 72.728253 
L 203.536003 72.154995 
L 203.751751 71.603865 
L 204.183246 71.572166 
L 204.614742 71.38724 
L 205.046238 71.097484 
L 205.261985 71.027591 
L 205.909229 70.021635 
L 206.124977 69.785387 
L 206.340724 69.874912 
L 206.556472 69.627715 
L 206.77222 69.565649 
L 207.419463 68.087572 
L 207.635211 67.854979 
L 208.066707 67.731226 
L 208.498202 67.273348 
L 208.71395 67.194327 
L 208.929698 67.310945 
L 209.792689 65.449826 
L 210.224185 65.91969 
L 210.439933 65.576541 
L 210.65568 65.68356 
L 211.302924 64.557576 
L 211.518672 64.544264 
L 211.734419 64.251386 
L 212.381663 62.118493 
L 212.597411 62.320693 
L 212.813158 28.170909 
L 214.539141 39.000405 
L 215.61788 44.286323 
L 217.128114 51.269838 
L 217.775358 53.783785 
L 219.285592 58.896027 
L 219.717088 60.332014 
L 221.011575 64.193586 
L 223.169053 68.973571 
L 224.679287 71.825785 
L 224.895035 71.989827 
L 225.973774 73.839669 
L 226.189522 74.060354 
L 226.40527 74.08513 
L 226.836765 74.730159 
L 227.484009 75.766843 
L 227.699757 75.893304 
L 228.347 76.729263 
L 228.778496 77.145807 
L 230.935974 79.041817 
L 231.151721 78.952035 
L 231.583217 79.19248 
L 232.661956 80.004694 
L 233.093452 80.208782 
L 233.309199 80.376271 
L 233.740695 80.449175 
L 234.387938 80.7975 
L 234.819434 80.868225 
L 235.682425 80.982923 
L 236.329669 81.280828 
L 236.545416 81.529334 
L 237.408408 81.675222 
L 237.839903 81.526185 
L 238.702894 82.010544 
L 238.918642 81.847032 
L 239.13439 81.975992 
L 239.565886 81.974232 
L 239.997381 82.028308 
L 240.428877 82.059786 
L 240.644625 81.94633 
L 241.07612 82.053373 
L 241.723364 81.888833 
L 242.370607 82.095433 
L 242.802103 82.054345 
L 243.233598 82.325174 
L 243.449346 81.912616 
L 243.665094 81.844453 
L 243.880842 81.503314 
L 244.096589 45.626427 
L 244.312337 45.48824 
L 245.175328 46.575877 
L 245.391076 46.860149 
L 245.822572 46.954386 
L 246.03832 47.047906 
L 246.469815 47.629207 
L 248.195798 49.214657 
L 248.627293 49.744181 
L 248.843041 49.778688 
L 250.137528 50.803112 
L 250.784771 51.165605 
L 251.000519 51.380409 
L 251.216267 51.413096 
L 251.432015 51.681807 
L 252.079258 51.670101 
L 252.295006 51.777217 
L 252.942249 52.395641 
L 253.589493 52.74249 
L 253.80524 52.738647 
L 254.236736 52.97935 
L 254.668232 53.085023 
L 254.883979 53.354369 
L 255.099727 53.425778 
L 255.531223 53.844308 
L 255.746971 53.997774 
L 255.962718 53.974114 
L 256.178466 53.821856 
L 256.609962 54.15853 
L 257.257205 54.404993 
L 257.472953 54.463771 
L 257.688701 54.364204 
L 258.120196 54.687801 
L 258.983188 54.659767 
L 260.277674 55.399705 
L 260.493422 55.264057 
L 261.140666 55.462055 
L 261.356413 55.409534 
L 261.572161 55.50243 
L 261.787909 55.42535 
L 262.003657 55.507334 
L 262.219405 55.466051 
L 262.435152 55.583396 
L 262.6509 55.512279 
L 263.729639 55.669592 
L 264.161135 55.629625 
L 265.239874 55.693628 
L 265.887117 55.924121 
L 266.534361 55.875563 
L 266.750109 55.907828 
L 267.181604 55.653982 
L 268.044595 56.003695 
L 268.260343 55.839542 
L 268.907587 55.714544 
L 269.339082 55.575449 
L 269.55483 55.604352 
L 269.770578 55.458417 
L 269.986326 55.460092 
L 270.202073 55.233056 
L 270.417821 55.269573 
L 270.633569 55.163798 
L 270.849317 55.265476 
L 271.280812 55.268786 
L 271.928056 55.475818 
L 272.143804 55.389348 
L 272.359551 55.101995 
L 272.791047 54.971941 
L 273.006795 55.159492 
L 273.222543 54.987863 
L 273.43829 54.989304 
L 273.869786 54.691944 
L 274.085534 55.020623 
L 274.301282 54.677206 
L 274.732777 54.416927 
L 274.948525 54.258618 
L 275.164273 54.653441 
L 275.164273 54.653441 
" clip-path="url(#pfc5c1962f7)" style="fill: none; stroke: #ffa500; stroke-width: 1.5; stroke-linecap: square"/>
   </g>
   <g id="patch_8">
    <path d="M 176.848 85.52 
L 176.848 25.44 
" style="fill: none; stroke: #000000; stroke-width: 0.8; stroke-linejoin: miter; stroke-linecap: square"/>
   </g>
   <g id="patch_9">
    <path d="M 279.846 85.52 
L 279.846 25.44 
" style="fill: none; stroke: #000000; stroke-width: 0.8; stroke-linejoin: miter; stroke-linecap: square"/>
   </g>
   <g id="patch_10">
    <path d="M 176.848 85.52 
L 279.846 85.52 
" style="fill: none; stroke: #000000; stroke-width: 0.8; stroke-linejoin: miter; stroke-linecap: square"/>
   </g>
   <g id="patch_11">
    <path d="M 176.848 25.44 
L 279.846 25.44 
" style="fill: none; stroke: #000000; stroke-width: 0.8; stroke-linejoin: miter; stroke-linecap: square"/>
   </g>
   <g id="text_12">
    <text style="font: 12px 'DejaVu Sans', 'Bitstream Vera Sans', 'Computer Modern Sans Serif', 'Lucida Grande', 'Verdana', 'Geneva', 'Lucid', 'Arial', 'Helvetica', 'Avant Garde', sans-serif; text-anchor: middle" x="228.347" y="19.44" transform="rotate(-0 228.347 19.44)">Training 2</text>
   </g>
  </g>
  <g id="axes_3">
   <g id="patch_12">
    <path d="M 319.966 85.52 
L 422.964 85.52 
L 422.964 25.44 
L 319.966 25.44 
z
" style="fill: #ffffff"/>
   </g>
   <g id="matplotlib.axis_5">
    <g id="xtick_7">
     <g id="line2d_15">
      <g>
       <use xlink:href="#ma9175929b7" x="324.647727" y="85.52" style="stroke: #000000; stroke-width: 0.8"/>
      </g>
     </g>
     <g id="text_13">
      <text style="font: 10px 'DejaVu Sans', 'Bitstream Vera Sans', 'Computer Modern Sans Serif', 'Lucida Grande', 'Verdana', 'Geneva', 'Lucid', 'Arial', 'Helvetica', 'Avant Garde', sans-serif; text-anchor: middle" x="324.647727" y="100.118438" transform="rotate(-0 324.647727 100.118438)">0</text>
     </g>
    </g>
    <g id="xtick_8">
     <g id="line2d_16">
      <g>
       <use xlink:href="#ma9175929b7" x="367.797287" y="85.52" style="stroke: #000000; stroke-width: 0.8"/>
      </g>
     </g>
     <g id="text_14">
      <text style="font: 10px 'DejaVu Sans', 'Bitstream Vera Sans', 'Computer Modern Sans Serif', 'Lucida Grande', 'Verdana', 'Geneva', 'Lucid', 'Arial', 'Helvetica', 'Avant Garde', sans-serif; text-anchor: middle" x="367.797287" y="100.118438" transform="rotate(-0 367.797287 100.118438)">200</text>
     </g>
    </g>
    <g id="xtick_9">
     <g id="line2d_17">
      <g>
       <use xlink:href="#ma9175929b7" x="410.946848" y="85.52" style="stroke: #000000; stroke-width: 0.8"/>
      </g>
     </g>
     <g id="text_15">
      <text style="font: 10px 'DejaVu Sans', 'Bitstream Vera Sans', 'Computer Modern Sans Serif', 'Lucida Grande', 'Verdana', 'Geneva', 'Lucid', 'Arial', 'Helvetica', 'Avant Garde', sans-serif; text-anchor: middle" x="410.946848" y="100.118438" transform="rotate(-0 410.946848 100.118438)">400</text>
     </g>
    </g>
   </g>
   <g id="matplotlib.axis_6">
    <g id="ytick_5">
     <g id="line2d_18">
      <g>
       <use xlink:href="#m326d3c5344" x="319.966" y="83.432227" style="stroke: #000000; stroke-width: 0.8"/>
      </g>
     </g>
     <g id="text_16">
      <text style="font: 10px 'DejaVu Sans', 'Bitstream Vera Sans', 'Computer Modern Sans Serif', 'Lucida Grande', 'Verdana', 'Geneva', 'Lucid', 'Arial', 'Helvetica', 'Avant Garde', sans-serif; text-anchor: end" x="312.966" y="87.231446" transform="rotate(-0 312.966 87.231446)">0.0</text>
     </g>
    </g>
    <g id="ytick_6">
     <g id="line2d_19">
      <g>
       <use xlink:href="#m326d3c5344" x="319.966" y="55.747134" style="stroke: #000000; stroke-width: 0.8"/>
      </g>
     </g>
     <g id="text_17">
      <text style="font: 10px 'DejaVu Sans', 'Bitstream Vera Sans', 'Computer Modern Sans Serif', 'Lucida Grande', 'Verdana', 'Geneva', 'Lucid', 'Arial', 'Helvetica', 'Avant Garde', sans-serif; text-anchor: end" x="312.966" y="59.546353" transform="rotate(-0 312.966 59.546353)">0.2</text>
     </g>
    </g>
    <g id="ytick_7">
     <g id="line2d_20">
      <g>
       <use xlink:href="#m326d3c5344" x="319.966" y="28.062041" style="stroke: #000000; stroke-width: 0.8"/>
      </g>
     </g>
     <g id="text_18">
      <text style="font: 10px 'DejaVu Sans', 'Bitstream Vera Sans', 'Computer Modern Sans Serif', 'Lucida Grande', 'Verdana', 'Geneva', 'Lucid', 'Arial', 'Helvetica', 'Avant Garde', sans-serif; text-anchor: end" x="312.966" y="31.861259" transform="rotate(-0 312.966 31.861259)">0.4</text>
     </g>
    </g>
   </g>
   <g id="line2d_21">
    <path d="M 324.647727 78.563001 
L 344.712273 77.44503 
L 355.715411 76.727274 
L 355.931158 29.12247 
L 357.009897 38.392735 
L 358.088636 46.063212 
L 359.383123 53.563848 
L 360.461862 58.632071 
L 361.540601 62.798128 
L 362.61934 66.223115 
L 363.913827 69.577488 
L 365.208314 72.271775 
L 366.502801 74.409605 
L 367.797287 76.09938 
L 369.091774 77.445811 
L 370.602009 78.681823 
L 372.112243 79.622627 
L 373.838226 80.42309 
L 375.779956 81.077404 
L 377.937434 81.576629 
L 380.742155 81.986804 
L 384.19412 82.264044 
L 386.998842 82.379566 
L 387.214589 42.555545 
L 388.940572 45.817412 
L 390.666554 48.654999 
L 392.608284 51.404428 
L 394.550015 53.747061 
L 396.491745 55.739605 
L 398.433475 57.429827 
L 400.590953 59.003817 
L 402.748431 60.30501 
L 405.121657 61.470089 
L 407.71063 62.475855 
L 410.515352 63.308543 
L 413.535821 63.964007 
L 416.987786 64.470311 
L 418.282273 64.605451 
L 418.282273 64.605451 
" clip-path="url(#p8ca55171d2)" style="fill: none; stroke: #0000ff; stroke-width: 1.5; stroke-linecap: square"/>
   </g>
   <g id="line2d_22">
    <path d="M 324.647727 78.594088 
L 326.37371 78.562975 
L 327.452449 78.572141 
L 327.883944 78.570775 
L 328.531188 78.703392 
L 329.178431 78.511758 
L 329.609927 78.57671 
L 330.041422 78.431711 
L 330.688666 78.568441 
L 331.120161 78.535696 
L 331.767405 78.71861 
L 332.630396 78.560918 
L 333.277639 78.491513 
L 333.493387 78.367703 
L 333.924883 78.491648 
L 334.356378 78.406081 
L 334.572126 78.572354 
L 335.21937 78.539301 
L 335.435117 78.701363 
L 335.866613 78.670233 
L 336.298109 78.652926 
L 336.513856 78.319378 
L 336.729604 78.436396 
L 337.376848 78.337082 
L 338.024091 78.362847 
L 338.455587 78.263491 
L 338.887082 78.354667 
L 339.10283 78.314006 
L 339.318578 78.400224 
L 339.534326 78.310767 
L 339.965821 78.393099 
L 340.181569 78.543923 
L 340.613065 78.548743 
L 340.828812 78.248397 
L 341.04456 78.465007 
L 341.260308 78.378395 
L 341.476056 78.531941 
L 342.554795 78.493538 
L 342.770543 78.50304 
L 343.202038 78.180159 
L 343.417786 78.575935 
L 343.633534 78.479208 
L 343.849282 78.222174 
L 344.280777 78.772121 
L 344.496525 78.709349 
L 344.712273 78.449175 
L 345.143768 78.881926 
L 345.359516 78.606534 
L 346.00676 78.445165 
L 346.438255 78.519649 
L 347.301246 78.434545 
L 347.516994 78.445209 
L 347.732742 78.194778 
L 348.164238 78.242421 
L 348.379985 78.083797 
L 348.595733 78.133395 
L 348.811481 78.415696 
L 349.027229 78.18904 
L 349.242977 78.488057 
L 349.674472 78.44702 
L 350.537463 78.318028 
L 350.968959 78.510189 
L 351.184707 78.13338 
L 351.400455 78.307742 
L 351.616202 78.306439 
L 352.047698 78.064337 
L 352.479194 78.285811 
L 352.694941 78.240199 
L 353.126437 78.550305 
L 353.989428 78.315629 
L 354.205176 78.074932 
L 354.420924 78.714356 
L 354.636672 78.137258 
L 355.499663 78.318826 
L 355.715411 78.871392 
L 355.931158 28.170909 
L 356.578402 34.387318 
L 358.088636 46.154033 
L 358.951628 51.597901 
L 360.67761 60.07077 
L 362.187845 65.691228 
L 364.129575 70.615302 
L 365.639809 73.702711 
L 366.934296 75.602484 
L 368.444531 77.307768 
L 368.876026 77.806364 
L 369.307522 78.209656 
L 369.739018 78.548055 
L 370.817757 79.326309 
L 373.190982 80.646787 
L 373.838226 80.772695 
L 376.211452 81.426737 
L 376.427199 81.66853 
L 376.642947 81.566915 
L 376.858695 81.633226 
L 377.074443 81.554111 
L 377.505938 81.868565 
L 377.937434 81.994517 
L 378.36893 82.077783 
L 378.584677 82.188662 
L 379.231921 82.114882 
L 379.663416 82.359506 
L 379.879164 82.289611 
L 380.31066 82.370187 
L 380.526408 82.253416 
L 380.957903 82.455125 
L 381.173651 82.382247 
L 381.389399 82.461954 
L 381.605147 82.343734 
L 383.115381 82.450126 
L 383.331129 82.415567 
L 383.546877 82.501453 
L 383.762625 82.41736 
L 384.19412 82.482258 
L 384.409868 82.354819 
L 384.625616 82.509552 
L 384.841364 82.5048 
L 385.057111 82.636228 
L 385.272859 82.420681 
L 385.488607 82.584616 
L 385.704355 82.553222 
L 385.920103 82.703609 
L 386.567346 82.43322 
L 386.998842 82.789091 
L 387.214589 42.219795 
L 387.430337 42.600607 
L 387.861833 43.836729 
L 388.077581 44.137855 
L 388.509076 44.895715 
L 389.803563 46.674596 
L 390.235059 47.418736 
L 390.450806 47.667221 
L 391.313798 49.244828 
L 391.745293 49.793533 
L 393.902771 52.774657 
L 394.550015 53.358393 
L 395.628754 54.580658 
L 395.844501 54.714599 
L 397.138988 56.325775 
L 398.001979 57.044032 
L 398.433475 57.148986 
L 399.080718 57.565332 
L 399.296466 57.894274 
L 399.94371 58.12453 
L 400.806701 59.217973 
L 401.022449 59.476514 
L 401.238196 59.506708 
L 401.88544 59.980613 
L 402.101188 60.094287 
L 402.748431 60.071201 
L 403.611422 60.535451 
L 404.042918 60.674167 
L 404.258666 60.71388 
L 404.690161 61.203778 
L 404.905909 61.15095 
L 405.121657 61.273466 
L 405.337405 61.2636 
L 406.200396 61.679686 
L 406.847639 62.029832 
L 407.279135 62.201999 
L 407.494883 62.106527 
L 408.142126 62.261213 
L 408.357874 62.629432 
L 408.78937 62.716273 
L 409.436613 62.720758 
L 409.868109 63.058061 
L 410.515352 63.190542 
L 410.7311 63.100012 
L 411.594091 63.557824 
L 411.809839 63.703678 
L 412.67283 63.815359 
L 412.888578 63.932807 
L 413.320073 63.979331 
L 413.967317 64.012897 
L 414.183065 64.200498 
L 414.398812 64.161249 
L 414.61456 64.379288 
L 415.477551 64.475478 
L 416.340543 64.562842 
L 417.850777 64.881896 
L 418.066525 64.516396 
L 418.282273 64.385031 
L 418.282273 64.385031 
" clip-path="url(#p8ca55171d2)" style="fill: none; stroke: #ffa500; stroke-width: 1.5; stroke-linecap: square"/>
   </g>
   <g id="patch_13">
    <path d="M 319.966 85.52 
L 319.966 25.44 
" style="fill: none; stroke: #000000; stroke-width: 0.8; stroke-linejoin: miter; stroke-linecap: square"/>
   </g>
   <g id="patch_14">
    <path d="M 422.964 85.52 
L 422.964 25.44 
" style="fill: none; stroke: #000000; stroke-width: 0.8; stroke-linejoin: miter; stroke-linecap: square"/>
   </g>
   <g id="patch_15">
    <path d="M 319.966 85.52 
L 422.964 85.52 
" style="fill: none; stroke: #000000; stroke-width: 0.8; stroke-linejoin: miter; stroke-linecap: square"/>
   </g>
   <g id="patch_16">
    <path d="M 319.966 25.44 
L 422.964 25.44 
" style="fill: none; stroke: #000000; stroke-width: 0.8; stroke-linejoin: miter; stroke-linecap: square"/>
   </g>
   <g id="text_19">
    <text style="font: 12px 'DejaVu Sans', 'Bitstream Vera Sans', 'Computer Modern Sans Serif', 'Lucida Grande', 'Verdana', 'Geneva', 'Lucid', 'Arial', 'Helvetica', 'Avant Garde', sans-serif; text-anchor: middle" x="371.465" y="19.44" transform="rotate(-0 371.465 19.44)">Training 3</text>
   </g>
  </g>
  <g id="axes_4">
   <g id="patch_17">
    <path d="M 463.084 85.52 
L 566.082 85.52 
L 566.082 25.44 
L 463.084 25.44 
z
" style="fill: #ffffff"/>
   </g>
   <g id="matplotlib.axis_7">
    <g id="xtick_10">
     <g id="line2d_23">
      <g>
       <use xlink:href="#ma9175929b7" x="467.765727" y="85.52" style="stroke: #000000; stroke-width: 0.8"/>
      </g>
     </g>
     <g id="text_20">
      <text style="font: 10px 'DejaVu Sans', 'Bitstream Vera Sans', 'Computer Modern Sans Serif', 'Lucida Grande', 'Verdana', 'Geneva', 'Lucid', 'Arial', 'Helvetica', 'Avant Garde', sans-serif; text-anchor: middle" x="467.765727" y="100.118438" transform="rotate(-0 467.765727 100.118438)">0</text>
     </g>
    </g>
    <g id="xtick_11">
     <g id="line2d_24">
      <g>
       <use xlink:href="#ma9175929b7" x="510.915287" y="85.52" style="stroke: #000000; stroke-width: 0.8"/>
      </g>
     </g>
     <g id="text_21">
      <text style="font: 10px 'DejaVu Sans', 'Bitstream Vera Sans', 'Computer Modern Sans Serif', 'Lucida Grande', 'Verdana', 'Geneva', 'Lucid', 'Arial', 'Helvetica', 'Avant Garde', sans-serif; text-anchor: middle" x="510.915287" y="100.118438" transform="rotate(-0 510.915287 100.118438)">200</text>
     </g>
    </g>
    <g id="xtick_12">
     <g id="line2d_25">
      <g>
       <use xlink:href="#ma9175929b7" x="554.064848" y="85.52" style="stroke: #000000; stroke-width: 0.8"/>
      </g>
     </g>
     <g id="text_22">
      <text style="font: 10px 'DejaVu Sans', 'Bitstream Vera Sans', 'Computer Modern Sans Serif', 'Lucida Grande', 'Verdana', 'Geneva', 'Lucid', 'Arial', 'Helvetica', 'Avant Garde', sans-serif; text-anchor: middle" x="554.064848" y="100.118438" transform="rotate(-0 554.064848 100.118438)">400</text>
     </g>
    </g>
   </g>
   <g id="matplotlib.axis_8">
    <g id="ytick_8">
     <g id="line2d_26">
      <g>
       <use xlink:href="#m326d3c5344" x="463.084" y="84.594256" style="stroke: #000000; stroke-width: 0.8"/>
      </g>
     </g>
     <g id="text_23">
      <text style="font: 10px 'DejaVu Sans', 'Bitstream Vera Sans', 'Computer Modern Sans Serif', 'Lucida Grande', 'Verdana', 'Geneva', 'Lucid', 'Arial', 'Helvetica', 'Avant Garde', sans-serif; text-anchor: end" x="456.084" y="88.393474" transform="rotate(-0 456.084 88.393474)">0.0</text>
     </g>
    </g>
    <g id="ytick_9">
     <g id="line2d_27">
      <g>
       <use xlink:href="#m326d3c5344" x="463.084" y="61.671512" style="stroke: #000000; stroke-width: 0.8"/>
      </g>
     </g>
     <g id="text_24">
      <text style="font: 10px 'DejaVu Sans', 'Bitstream Vera Sans', 'Computer Modern Sans Serif', 'Lucida Grande', 'Verdana', 'Geneva', 'Lucid', 'Arial', 'Helvetica', 'Avant Garde', sans-serif; text-anchor: end" x="456.084" y="65.470731" transform="rotate(-0 456.084 65.470731)">0.2</text>
     </g>
    </g>
    <g id="ytick_10">
     <g id="line2d_28">
      <g>
       <use xlink:href="#m326d3c5344" x="463.084" y="38.748769" style="stroke: #000000; stroke-width: 0.8"/>
      </g>
     </g>
     <g id="text_25">
      <text style="font: 10px 'DejaVu Sans', 'Bitstream Vera Sans', 'Computer Modern Sans Serif', 'Lucida Grande', 'Verdana', 'Geneva', 'Lucid', 'Arial', 'Helvetica', 'Avant Garde', sans-serif; text-anchor: end" x="456.084" y="42.547987" transform="rotate(-0 456.084 42.547987)">0.4</text>
     </g>
    </g>
   </g>
   <g id="line2d_29">
    <path d="M 467.765727 80.434858 
L 474.669657 79.391371 
L 480.926343 78.222947 
L 486.535786 76.957746 
L 491.929481 75.512524 
L 496.89168 73.954918 
L 498.833411 73.279678 
L 499.049158 28.451134 
L 500.343645 37.975137 
L 501.638132 45.873449 
L 502.932619 52.444664 
L 504.227106 57.858785 
L 505.521592 62.295266 
L 506.816079 65.972132 
L 508.110566 69.049672 
L 509.405053 71.585396 
L 510.69954 73.660228 
L 512.209774 75.624566 
L 513.720009 77.203882 
L 515.230243 78.450143 
L 516.740478 79.42654 
L 518.46646 80.298034 
L 520.408191 81.02273 
L 522.565669 81.579566 
L 525.154642 82.009789 
L 528.175111 82.266209 
L 530.116842 82.335839 
L 530.332589 42.283825 
L 532.27432 47.440532 
L 534.21605 52.034583 
L 536.373528 56.55011 
L 538.531006 60.517038 
L 540.688484 64.001248 
L 542.845962 67.059857 
L 545.00344 69.745234 
L 547.160918 72.102337 
L 549.534144 74.364345 
L 551.90737 76.325425 
L 554.496343 78.169537 
L 557.085317 79.750693 
L 559.890038 81.212295 
L 561.400273 81.906026 
L 561.400273 81.906026 
" clip-path="url(#p6f37b8698c)" style="fill: none; stroke: #0000ff; stroke-width: 1.5; stroke-linecap: square"/>
   </g>
   <g id="line2d_30">
    <path d="M 467.765727 80.408543 
L 471.649188 80.007188 
L 472.296431 80.039001 
L 472.943674 79.846071 
L 474.238161 79.818315 
L 474.453909 79.717827 
L 474.885405 79.691402 
L 477.042883 79.484053 
L 477.690126 79.42116 
L 478.33737 79.366987 
L 478.768865 79.451134 
L 478.984613 79.283349 
L 479.416109 79.245857 
L 479.631856 78.920385 
L 479.847604 78.89269 
L 480.063352 78.701177 
L 480.710595 78.760384 
L 481.357839 78.65746 
L 483.731065 78.055913 
L 484.809804 78.081751 
L 485.241299 77.726931 
L 485.457047 77.57923 
L 485.672795 77.659665 
L 486.10429 77.319372 
L 487.183029 77.541305 
L 487.830273 77.298976 
L 488.261768 77.7022 
L 489.340507 77.049634 
L 489.556255 77.148287 
L 489.772003 77.11269 
L 490.203499 77.28342 
L 490.634994 76.9203 
L 490.850742 76.594366 
L 491.497985 76.520833 
L 491.713733 76.313049 
L 492.145229 76.183128 
L 492.360977 76.146941 
L 492.576724 75.939461 
L 493.00822 75.950889 
L 493.223968 75.698384 
L 493.655463 75.836568 
L 493.871211 75.618605 
L 494.086959 75.676735 
L 494.302707 75.343493 
L 494.94995 75.489258 
L 495.381446 75.341269 
L 495.812941 75.531631 
L 496.028689 75.421216 
L 496.244437 75.1484 
L 496.460185 75.118951 
L 496.675933 74.718331 
L 496.89168 74.556763 
L 497.323176 75.117757 
L 497.538924 74.74809 
L 497.754672 74.63571 
L 498.186167 74.808666 
L 498.401915 74.976651 
L 498.617663 74.426452 
L 498.833411 74.20386 
L 499.049158 28.170909 
L 501.206636 43.673248 
L 502.716871 51.773407 
L 504.442853 59.402784 
L 505.73734 63.618166 
L 508.110566 69.499739 
L 509.405053 72.038266 
L 509.836548 72.698718 
L 510.915287 74.411868 
L 511.346783 74.795049 
L 511.994026 75.766974 
L 514.367252 78.134855 
L 515.014496 78.622474 
L 516.093235 79.477885 
L 516.740478 79.746337 
L 517.387721 80.216363 
L 518.682208 80.798711 
L 519.113704 80.966088 
L 519.545199 81.112548 
L 520.192443 81.383613 
L 520.408191 81.552684 
L 520.839686 81.48079 
L 521.271182 81.566066 
L 521.702677 81.812677 
L 521.918425 81.706636 
L 522.781416 82.056634 
L 522.997164 81.975157 
L 524.291651 82.289272 
L 524.723147 82.387976 
L 525.801886 82.282569 
L 526.017633 82.483382 
L 527.527868 82.604245 
L 527.743616 82.528401 
L 527.959364 82.596345 
L 528.390859 82.55529 
L 529.25385 82.460095 
L 529.469598 82.646286 
L 529.685346 82.49047 
L 530.116842 82.789091 
L 530.332589 42.947803 
L 530.548337 43.273103 
L 530.979833 44.4664 
L 533.137311 50.044266 
L 533.784554 51.423501 
L 535.942032 56.075236 
L 536.589276 57.29699 
L 537.020771 58.146157 
L 538.746754 61.264892 
L 540.904232 64.435969 
L 541.335727 64.909472 
L 541.982971 66.149413 
L 542.414466 66.699021 
L 542.845962 67.325664 
L 543.06171 67.394093 
L 543.493205 68.125164 
L 543.924701 68.491038 
L 544.356196 69.043082 
L 546.297927 71.365174 
L 546.513674 71.683061 
L 546.94517 71.885448 
L 548.671152 73.592889 
L 548.8869 73.707245 
L 549.749891 74.616177 
L 549.965639 74.6742 
L 550.397135 75.125669 
L 550.82863 75.53446 
L 551.260126 76.026371 
L 551.691622 76.473718 
L 552.123117 76.618206 
L 552.986109 77.65437 
L 553.201856 77.874977 
L 553.417604 77.889916 
L 553.8491 78.358842 
L 554.280595 78.430498 
L 554.496343 78.754688 
L 554.712091 78.685328 
L 555.575082 79.303953 
L 556.222326 79.521353 
L 556.653821 79.626453 
L 556.869569 79.823263 
L 557.085317 79.832915 
L 557.516812 80.175969 
L 559.242795 81.187825 
L 559.458543 81.475719 
L 560.105786 81.568615 
L 560.321534 81.755808 
L 560.537282 81.652428 
L 560.753029 81.981386 
L 560.968777 82.567788 
L 561.184525 80.869756 
L 561.400273 80.879098 
L 561.400273 80.879098 
" clip-path="url(#p6f37b8698c)" style="fill: none; stroke: #ffa500; stroke-width: 1.5; stroke-linecap: square"/>
   </g>
   <g id="patch_18">
    <path d="M 463.084 85.52 
L 463.084 25.44 
" style="fill: none; stroke: #000000; stroke-width: 0.8; stroke-linejoin: miter; stroke-linecap: square"/>
   </g>
   <g id="patch_19">
    <path d="M 566.082 85.52 
L 566.082 25.44 
" style="fill: none; stroke: #000000; stroke-width: 0.8; stroke-linejoin: miter; stroke-linecap: square"/>
   </g>
   <g id="patch_20">
    <path d="M 463.084 85.52 
L 566.082 85.52 
" style="fill: none; stroke: #000000; stroke-width: 0.8; stroke-linejoin: miter; stroke-linecap: square"/>
   </g>
   <g id="patch_21">
    <path d="M 463.084 25.44 
L 566.082 25.44 
" style="fill: none; stroke: #000000; stroke-width: 0.8; stroke-linejoin: miter; stroke-linecap: square"/>
   </g>
   <g id="text_26">
    <text style="font: 12px 'DejaVu Sans', 'Bitstream Vera Sans', 'Computer Modern Sans Serif', 'Lucida Grande', 'Verdana', 'Geneva', 'Lucid', 'Arial', 'Helvetica', 'Avant Garde', sans-serif; text-anchor: middle" x="514.583" y="19.44" transform="rotate(-0 514.583 19.44)">Training 4</text>
   </g>
  </g>
  <g id="axes_5">
   <g id="patch_22">
    <path d="M 606.202 85.52 
L 709.2 85.52 
L 709.2 25.44 
L 606.202 25.44 
z
" style="fill: #ffffff"/>
   </g>
   <g id="matplotlib.axis_9">
    <g id="xtick_13">
     <g id="line2d_31">
      <g>
       <use xlink:href="#ma9175929b7" x="610.883727" y="85.52" style="stroke: #000000; stroke-width: 0.8"/>
      </g>
     </g>
     <g id="text_27">
      <text style="font: 10px 'DejaVu Sans', 'Bitstream Vera Sans', 'Computer Modern Sans Serif', 'Lucida Grande', 'Verdana', 'Geneva', 'Lucid', 'Arial', 'Helvetica', 'Avant Garde', sans-serif; text-anchor: middle" x="610.883727" y="100.118438" transform="rotate(-0 610.883727 100.118438)">0</text>
     </g>
    </g>
    <g id="xtick_14">
     <g id="line2d_32">
      <g>
       <use xlink:href="#ma9175929b7" x="654.033287" y="85.52" style="stroke: #000000; stroke-width: 0.8"/>
      </g>
     </g>
     <g id="text_28">
      <text style="font: 10px 'DejaVu Sans', 'Bitstream Vera Sans', 'Computer Modern Sans Serif', 'Lucida Grande', 'Verdana', 'Geneva', 'Lucid', 'Arial', 'Helvetica', 'Avant Garde', sans-serif; text-anchor: middle" x="654.033287" y="100.118438" transform="rotate(-0 654.033287 100.118438)">200</text>
     </g>
    </g>
    <g id="xtick_15">
     <g id="line2d_33">
      <g>
       <use xlink:href="#ma9175929b7" x="697.182848" y="85.52" style="stroke: #000000; stroke-width: 0.8"/>
      </g>
     </g>
     <g id="text_29">
      <text style="font: 10px 'DejaVu Sans', 'Bitstream Vera Sans', 'Computer Modern Sans Serif', 'Lucida Grande', 'Verdana', 'Geneva', 'Lucid', 'Arial', 'Helvetica', 'Avant Garde', sans-serif; text-anchor: middle" x="697.182848" y="100.118438" transform="rotate(-0 697.182848 100.118438)">400</text>
     </g>
    </g>
   </g>
   <g id="matplotlib.axis_10">
    <g id="ytick_11">
     <g id="line2d_34">
      <g>
       <use xlink:href="#m326d3c5344" x="606.202" y="84.286686" style="stroke: #000000; stroke-width: 0.8"/>
      </g>
     </g>
     <g id="text_30">
      <text style="font: 10px 'DejaVu Sans', 'Bitstream Vera Sans', 'Computer Modern Sans Serif', 'Lucida Grande', 'Verdana', 'Geneva', 'Lucid', 'Arial', 'Helvetica', 'Avant Garde', sans-serif; text-anchor: end" x="599.202" y="88.085905" transform="rotate(-0 599.202 88.085905)">0.0</text>
     </g>
    </g>
    <g id="ytick_12">
     <g id="line2d_35">
      <g>
       <use xlink:href="#m326d3c5344" x="606.202" y="62.060842" style="stroke: #000000; stroke-width: 0.8"/>
      </g>
     </g>
     <g id="text_31">
      <text style="font: 10px 'DejaVu Sans', 'Bitstream Vera Sans', 'Computer Modern Sans Serif', 'Lucida Grande', 'Verdana', 'Geneva', 'Lucid', 'Arial', 'Helvetica', 'Avant Garde', sans-serif; text-anchor: end" x="599.202" y="65.860061" transform="rotate(-0 599.202 65.860061)">0.2</text>
     </g>
    </g>
    <g id="ytick_13">
     <g id="line2d_36">
      <g>
       <use xlink:href="#m326d3c5344" x="606.202" y="39.834999" style="stroke: #000000; stroke-width: 0.8"/>
      </g>
     </g>
     <g id="text_32">
      <text style="font: 10px 'DejaVu Sans', 'Bitstream Vera Sans', 'Computer Modern Sans Serif', 'Lucida Grande', 'Verdana', 'Geneva', 'Lucid', 'Arial', 'Helvetica', 'Avant Garde', sans-serif; text-anchor: end" x="599.202" y="43.634218" transform="rotate(-0 599.202 43.634218)">0.4</text>
     </g>
    </g>
   </g>
   <g id="line2d_37">
    <path d="M 610.883727 80.237369 
L 618.003405 79.198444 
L 624.260091 78.069146 
L 630.085282 76.797423 
L 635.478977 75.396713 
L 640.656924 73.819159 
L 641.951411 73.385571 
L 642.167158 28.170909 
L 643.461645 37.720613 
L 644.756132 45.635243 
L 646.050619 52.21647 
L 647.345106 57.636768 
L 648.639592 62.076078 
L 649.934079 65.752259 
L 651.228566 68.828045 
L 652.523053 71.361547 
L 653.81754 73.433804 
L 655.327774 75.394511 
L 656.838009 76.970524 
L 658.348243 78.214138 
L 659.858478 79.188411 
L 661.58446 80.058026 
L 663.526191 80.781878 
L 665.683669 81.339099 
L 668.272642 81.771441 
L 671.293111 82.032714 
L 673.234842 82.106608 
L 673.450589 38.575542 
L 675.39232 41.92166 
L 677.33405 44.827631 
L 679.27578 47.338247 
L 681.21751 49.494849 
L 683.15924 51.335128 
L 685.100971 52.891582 
L 687.258449 54.324761 
L 689.415927 55.481326 
L 691.573405 56.393277 
L 693.94663 57.148379 
L 696.319856 57.675409 
L 698.90883 58.024683 
L 701.713551 58.173598 
L 704.518273 58.118417 
L 704.518273 58.118417 
" clip-path="url(#pc260e56120)" style="fill: none; stroke: #0000ff; stroke-width: 1.5; stroke-linecap: square"/>
   </g>
   <g id="line2d_38">
    <path d="M 610.883727 80.265688 
L 613.256953 80.095234 
L 613.904196 79.898793 
L 615.630179 79.904557 
L 615.845927 79.780309 
L 617.140413 79.806709 
L 617.787657 79.685835 
L 618.219152 79.82572 
L 618.4349 79.593015 
L 618.650648 79.594807 
L 618.866396 79.39992 
L 619.729387 79.580332 
L 619.945135 79.320592 
L 620.592378 79.27555 
L 621.023874 79.411429 
L 621.886865 78.827082 
L 622.534109 78.834507 
L 623.181352 79.055757 
L 623.612848 78.794897 
L 624.260091 78.800276 
L 624.691587 78.515958 
L 625.123082 78.503161 
L 625.554578 78.418947 
L 625.770326 78.576425 
L 626.201821 78.488387 
L 626.633317 78.074313 
L 627.064812 78.123348 
L 627.28056 78.390329 
L 627.496308 78.312523 
L 627.712056 78.041452 
L 628.143551 77.969336 
L 628.359299 78.230167 
L 628.575047 78.158138 
L 628.790795 77.509665 
L 629.22229 77.865635 
L 629.438038 77.991129 
L 629.653786 77.894596 
L 629.869534 77.378865 
L 630.085282 77.184125 
L 630.732525 77.098629 
L 631.164021 77.322064 
L 631.379768 77.141159 
L 631.811264 77.070245 
L 632.24276 76.632238 
L 632.458507 76.914399 
L 632.890003 76.858941 
L 633.105751 76.798212 
L 633.537246 76.92078 
L 633.752994 76.611232 
L 634.18449 76.590881 
L 634.615985 76.501127 
L 634.831733 76.283517 
L 635.263229 76.339287 
L 635.478977 76.109957 
L 635.694724 76.364232 
L 635.910472 76.383125 
L 636.341968 75.816735 
L 636.773463 75.954657 
L 637.852202 75.792928 
L 638.283698 75.50481 
L 638.499446 75.53689 
L 638.715194 75.312706 
L 638.930941 75.579724 
L 639.362437 75.404864 
L 639.578185 74.932848 
L 639.793933 75.081563 
L 640.225428 74.910745 
L 640.441176 75.004858 
L 640.656924 74.691815 
L 640.872672 74.677686 
L 641.088419 74.531875 
L 641.304167 74.746694 
L 641.519915 74.693285 
L 641.735663 74.350327 
L 641.951411 73.372278 
L 642.167158 28.190622 
L 643.893141 40.789805 
L 644.97188 47.253929 
L 645.834871 51.662834 
L 647.345106 58.399987 
L 648.208097 61.364939 
L 649.286836 64.51006 
L 650.149827 66.954674 
L 652.091557 71.116462 
L 653.386044 73.265092 
L 655.75927 76.176352 
L 655.975018 76.360812 
L 656.838009 77.539121 
L 659.211235 79.324882 
L 659.64273 79.456645 
L 660.289974 80.052791 
L 660.937217 80.087574 
L 661.58446 80.46226 
L 661.800208 80.39066 
L 662.447452 80.671232 
L 662.878947 80.970879 
L 663.310443 80.950557 
L 665.036425 81.546771 
L 665.899416 81.519334 
L 666.762408 81.856908 
L 667.625399 82.05576 
L 668.272642 81.9688 
L 669.135633 82.230927 
L 669.351381 82.152001 
L 669.782877 82.248448 
L 670.214372 82.319193 
L 670.645868 82.453157 
L 671.077364 82.474549 
L 671.940355 82.518014 
L 672.156103 82.675296 
L 672.37185 82.657551 
L 672.587598 82.789091 
L 672.803346 82.376346 
L 673.019094 82.487245 
L 673.234842 82.163664 
L 673.450589 38.794314 
L 677.981293 45.930666 
L 679.060032 47.415994 
L 679.27578 47.629059 
L 679.707276 48.270019 
L 680.354519 48.986249 
L 680.570267 49.135401 
L 681.001762 49.693706 
L 681.21751 49.900233 
L 681.433258 49.859242 
L 682.080501 50.398017 
L 682.296249 50.584851 
L 682.511997 50.947681 
L 682.727745 50.981078 
L 683.15924 51.376338 
L 684.022232 52.060528 
L 684.453727 52.585343 
L 685.100971 53.215967 
L 686.826953 54.443212 
L 687.042701 54.486435 
L 687.474196 54.776324 
L 688.337188 55.168788 
L 688.552935 55.370261 
L 689.200179 55.402586 
L 690.278918 56.190558 
L 690.710413 56.315063 
L 691.141909 56.493181 
L 691.789152 56.863518 
L 693.515135 57.285154 
L 694.162378 57.807422 
L 694.593874 57.809327 
L 694.809622 58.042856 
L 695.672613 57.845501 
L 696.104109 58.092939 
L 696.751352 58.360163 
L 697.614343 58.165814 
L 698.261587 58.455564 
L 699.124578 58.185265 
L 699.556073 58.191147 
L 699.771821 58.390906 
L 699.987569 58.394749 
L 700.419065 58.759437 
L 700.85056 58.638461 
L 701.066308 58.894995 
L 701.929299 58.922683 
L 702.145047 58.766074 
L 702.360795 58.907504 
L 703.223786 58.607152 
L 703.439534 58.945308 
L 704.086777 58.976743 
L 704.518273 58.761404 
L 704.518273 58.761404 
" clip-path="url(#pc260e56120)" style="fill: none; stroke: #ffa500; stroke-width: 1.5; stroke-linecap: square"/>
   </g>
   <g id="patch_23">
    <path d="M 606.202 85.52 
L 606.202 25.44 
" style="fill: none; stroke: #000000; stroke-width: 0.8; stroke-linejoin: miter; stroke-linecap: square"/>
   </g>
   <g id="patch_24">
    <path d="M 709.2 85.52 
L 709.2 25.44 
" style="fill: none; stroke: #000000; stroke-width: 0.8; stroke-linejoin: miter; stroke-linecap: square"/>
   </g>
   <g id="patch_25">
    <path d="M 606.202 85.52 
L 709.2 85.52 
" style="fill: none; stroke: #000000; stroke-width: 0.8; stroke-linejoin: miter; stroke-linecap: square"/>
   </g>
   <g id="patch_26">
    <path d="M 606.202 25.44 
L 709.2 25.44 
" style="fill: none; stroke: #000000; stroke-width: 0.8; stroke-linejoin: miter; stroke-linecap: square"/>
   </g>
   <g id="text_33">
    <text style="font: 12px 'DejaVu Sans', 'Bitstream Vera Sans', 'Computer Modern Sans Serif', 'Lucida Grande', 'Verdana', 'Geneva', 'Lucid', 'Arial', 'Helvetica', 'Avant Garde', sans-serif; text-anchor: middle" x="657.701" y="19.44" transform="rotate(-0 657.701 19.44)">Training 5</text>
   </g>
  </g>
  <g id="axes_6">
   <g id="patch_27">
    <path d="M 33.73 188.12 
L 136.728 188.12 
L 136.728 128.04 
L 33.73 128.04 
z
" style="fill: #ffffff"/>
   </g>
   <g id="matplotlib.axis_11">
    <g id="xtick_16">
     <g id="line2d_39">
      <g>
       <use xlink:href="#ma9175929b7" x="38.411727" y="188.12" style="stroke: #000000; stroke-width: 0.8"/>
      </g>
     </g>
     <g id="text_34">
      <text style="font: 10px 'DejaVu Sans', 'Bitstream Vera Sans', 'Computer Modern Sans Serif', 'Lucida Grande', 'Verdana', 'Geneva', 'Lucid', 'Arial', 'Helvetica', 'Avant Garde', sans-serif; text-anchor: middle" x="38.411727" y="202.718437" transform="rotate(-0 38.411727 202.718437)">0</text>
     </g>
    </g>
    <g id="xtick_17">
     <g id="line2d_40">
      <g>
       <use xlink:href="#ma9175929b7" x="81.561287" y="188.12" style="stroke: #000000; stroke-width: 0.8"/>
      </g>
     </g>
     <g id="text_35">
      <text style="font: 10px 'DejaVu Sans', 'Bitstream Vera Sans', 'Computer Modern Sans Serif', 'Lucida Grande', 'Verdana', 'Geneva', 'Lucid', 'Arial', 'Helvetica', 'Avant Garde', sans-serif; text-anchor: middle" x="81.561287" y="202.718437" transform="rotate(-0 81.561287 202.718437)">200</text>
     </g>
    </g>
    <g id="xtick_18">
     <g id="line2d_41">
      <g>
       <use xlink:href="#ma9175929b7" x="124.710848" y="188.12" style="stroke: #000000; stroke-width: 0.8"/>
      </g>
     </g>
     <g id="text_36">
      <text style="font: 10px 'DejaVu Sans', 'Bitstream Vera Sans', 'Computer Modern Sans Serif', 'Lucida Grande', 'Verdana', 'Geneva', 'Lucid', 'Arial', 'Helvetica', 'Avant Garde', sans-serif; text-anchor: middle" x="124.710848" y="202.718437" transform="rotate(-0 124.710848 202.718437)">400</text>
     </g>
    </g>
   </g>
   <g id="matplotlib.axis_12">
    <g id="ytick_14">
     <g id="line2d_42">
      <g>
       <use xlink:href="#m326d3c5344" x="33.73" y="186.020607" style="stroke: #000000; stroke-width: 0.8"/>
      </g>
     </g>
     <g id="text_37">
      <text style="font: 10px 'DejaVu Sans', 'Bitstream Vera Sans', 'Computer Modern Sans Serif', 'Lucida Grande', 'Verdana', 'Geneva', 'Lucid', 'Arial', 'Helvetica', 'Avant Garde', sans-serif; text-anchor: end" x="26.73" y="189.819826" transform="rotate(-0 26.73 189.819826)">0.0</text>
     </g>
    </g>
    <g id="ytick_15">
     <g id="line2d_43">
      <g>
       <use xlink:href="#m326d3c5344" x="33.73" y="158.835713" style="stroke: #000000; stroke-width: 0.8"/>
      </g>
     </g>
     <g id="text_38">
      <text style="font: 10px 'DejaVu Sans', 'Bitstream Vera Sans', 'Computer Modern Sans Serif', 'Lucida Grande', 'Verdana', 'Geneva', 'Lucid', 'Arial', 'Helvetica', 'Avant Garde', sans-serif; text-anchor: end" x="26.73" y="162.634932" transform="rotate(-0 26.73 162.634932)">0.2</text>
     </g>
    </g>
    <g id="ytick_16">
     <g id="line2d_44">
      <g>
       <use xlink:href="#m326d3c5344" x="33.73" y="131.650819" style="stroke: #000000; stroke-width: 0.8"/>
      </g>
     </g>
     <g id="text_39">
      <text style="font: 10px 'DejaVu Sans', 'Bitstream Vera Sans', 'Computer Modern Sans Serif', 'Lucida Grande', 'Verdana', 'Geneva', 'Lucid', 'Arial', 'Helvetica', 'Avant Garde', sans-serif; text-anchor: end" x="26.73" y="135.450037" transform="rotate(-0 26.73 135.450037)">0.4</text>
     </g>
    </g>
   </g>
   <g id="line2d_45">
    <path d="M 38.411727 181.723452 
L 69.479411 181.392125 
L 69.695158 131.451309 
L 70.773897 141.302793 
L 71.852636 149.360466 
L 72.931375 155.96835 
L 74.010114 161.375099 
L 75.088853 165.773765 
L 76.167592 169.348576 
L 77.462079 172.796799 
L 78.756566 175.53319 
L 80.051053 177.679211 
L 81.34554 179.354549 
L 82.640026 180.669926 
L 84.150261 181.862653 
L 85.660496 182.760002 
L 87.386478 183.513496 
L 89.328208 184.120426 
L 91.701434 184.615953 
L 94.721903 184.996979 
L 98.605364 185.253634 
L 100.762842 185.332398 
L 100.978589 155.700361 
L 102.704572 158.313505 
L 104.646302 160.839605 
L 106.588032 162.989273 
L 108.529762 164.817819 
L 110.68724 166.53059 
L 112.844718 167.959852 
L 115.217944 169.25945 
L 117.806918 170.408766 
L 120.611639 171.398065 
L 123.632109 172.22683 
L 127.084073 172.940554 
L 131.183282 173.545135 
L 132.046273 173.64582 
L 132.046273 173.64582 
" clip-path="url(#p7c9da2c231)" style="fill: none; stroke: #0000ff; stroke-width: 1.5; stroke-linecap: square"/>
   </g>
   <g id="line2d_46">
    <path d="M 38.411727 181.736677 
L 40.569205 181.70989 
L 41.216449 181.857767 
L 41.647944 181.742621 
L 42.942431 181.749867 
L 43.373927 181.746541 
L 43.805422 181.823598 
L 44.02117 181.684412 
L 44.668413 181.815567 
L 45.531405 181.680236 
L 45.9629 181.73563 
L 46.394396 181.802912 
L 46.825891 181.610913 
L 47.041639 181.71458 
L 47.257387 181.679596 
L 47.688883 181.977291 
L 48.551874 181.791179 
L 48.767622 181.795293 
L 48.98337 181.597137 
L 49.199117 181.800045 
L 49.414865 181.786627 
L 49.846361 181.609002 
L 50.062109 181.911033 
L 50.277856 181.672177 
L 50.709352 181.919345 
L 50.9251 181.586343 
L 51.572343 181.93843 
L 51.788091 181.734814 
L 52.003839 181.858044 
L 52.435334 181.785421 
L 52.651082 181.740369 
L 52.86683 181.89076 
L 53.082578 181.685396 
L 53.514073 181.720641 
L 53.729821 181.60194 
L 54.377065 181.8438 
L 54.592812 181.629158 
L 54.80856 181.714334 
L 55.024308 181.651816 
L 55.455804 181.853642 
L 55.671551 181.574834 
L 55.887299 181.714539 
L 56.318795 181.684634 
L 56.534543 181.815536 
L 57.181786 181.725195 
L 57.397534 181.752568 
L 57.613282 181.592537 
L 58.044777 181.800109 
L 58.692021 181.689919 
L 58.907768 181.528551 
L 59.123516 181.540828 
L 59.339264 181.703384 
L 59.77076 181.620248 
L 60.202255 181.727231 
L 60.418003 181.590474 
L 60.633751 181.722134 
L 61.065246 181.513022 
L 61.280994 181.772732 
L 61.496742 181.790334 
L 61.71249 181.932435 
L 61.928238 181.625875 
L 62.143985 181.727276 
L 62.359733 181.701598 
L 62.575481 181.86543 
L 62.791229 181.784117 
L 63.438472 182.103735 
L 63.65422 182.064317 
L 63.869968 182.189991 
L 64.085716 181.996128 
L 64.301463 181.970904 
L 64.517211 181.766236 
L 64.732959 182.138976 
L 64.948707 181.90227 
L 65.164455 182.004387 
L 65.380202 181.725134 
L 65.59595 181.816311 
L 65.811698 181.462864 
L 66.027446 181.734591 
L 66.243194 181.66728 
L 66.458941 181.957386 
L 66.674689 181.822482 
L 66.890437 181.909918 
L 67.321933 181.7779 
L 67.53768 181.763062 
L 67.753428 181.599664 
L 67.969176 181.179605 
L 68.184924 181.697829 
L 68.400672 181.783378 
L 68.832167 181.64353 
L 69.047915 181.760062 
L 69.479411 180.729272 
L 69.695158 130.770909 
L 70.55815 138.615911 
L 71.421141 145.590439 
L 72.284132 151.536368 
L 74.225862 161.832079 
L 75.520349 166.86873 
L 76.599088 170.310778 
L 77.677827 172.984026 
L 78.756566 175.351344 
L 78.972314 175.559276 
L 79.619557 176.767725 
L 79.835305 176.998272 
L 80.266801 177.793361 
L 83.28727 181.192346 
L 83.934513 181.65434 
L 85.229 182.394991 
L 85.444748 182.419528 
L 85.876243 182.789502 
L 87.386478 183.243709 
L 87.602226 183.491301 
L 88.465217 183.695584 
L 89.11246 183.880125 
L 89.759704 184.157947 
L 89.975452 184.118416 
L 90.406947 184.312455 
L 90.838443 184.277166 
L 91.269938 184.635658 
L 92.780173 184.974896 
L 92.995921 184.919791 
L 93.427416 185.121048 
L 93.858912 185.165014 
L 94.290408 185.01883 
L 94.937651 185.253778 
L 95.153399 185.314898 
L 95.584894 185.189424 
L 96.01639 185.218116 
L 97.310877 185.251926 
L 97.526625 185.185333 
L 97.95812 185.207119 
L 98.821111 185.298262 
L 99.252607 185.271798 
L 99.89985 185.363525 
L 100.115598 185.238894 
L 100.547094 185.383097 
L 100.762842 185.389091 
L 100.978589 157.070469 
L 101.194337 157.21201 
L 101.625833 158.04328 
L 102.273076 158.73025 
L 103.136067 159.950632 
L 103.351815 159.948323 
L 104.214806 160.818182 
L 104.646302 161.561453 
L 105.509293 162.49045 
L 105.940789 162.753083 
L 107.019528 163.746195 
L 107.235276 163.750173 
L 107.666771 164.41092 
L 108.098267 164.469435 
L 108.314015 164.455629 
L 109.177006 165.264642 
L 109.608501 165.658325 
L 110.039997 165.813601 
L 110.255745 165.866706 
L 111.550232 167.036986 
L 111.981727 167.177098 
L 112.197475 167.449105 
L 113.276214 167.757824 
L 113.923457 168.508708 
L 114.354953 168.632689 
L 115.433692 169.272265 
L 115.64944 169.205906 
L 115.865188 169.301843 
L 116.512431 169.297028 
L 116.943927 169.525716 
L 117.159674 169.837949 
L 118.022666 170.25703 
L 118.238413 170.207671 
L 118.669909 170.415307 
L 119.317152 170.512186 
L 119.748648 170.637058 
L 120.395891 170.873254 
L 120.611639 170.779283 
L 120.827387 170.859393 
L 121.258883 170.832456 
L 121.47463 170.846708 
L 121.690378 171.074867 
L 122.121874 171.207525 
L 122.984865 171.69849 
L 123.200613 171.736941 
L 123.632109 171.592684 
L 124.4951 171.683353 
L 125.358091 171.649617 
L 125.573839 171.550898 
L 126.005334 171.877607 
L 127.084073 171.831873 
L 127.515569 172.22062 
L 127.947065 172.34952 
L 128.162812 172.234849 
L 128.594308 172.518209 
L 128.810056 172.531315 
L 129.025804 172.729778 
L 129.457299 172.704517 
L 129.673047 172.777499 
L 129.888795 173.017169 
L 130.104543 172.860139 
L 130.536038 173.346538 
L 131.183282 173.349468 
L 131.614777 172.598048 
L 131.830525 172.803229 
L 132.046273 172.767742 
L 132.046273 172.767742 
" clip-path="url(#p7c9da2c231)" style="fill: none; stroke: #ffa500; stroke-width: 1.5; stroke-linecap: square"/>
   </g>
   <g id="patch_28">
    <path d="M 33.73 188.12 
L 33.73 128.04 
" style="fill: none; stroke: #000000; stroke-width: 0.8; stroke-linejoin: miter; stroke-linecap: square"/>
   </g>
   <g id="patch_29">
    <path d="M 136.728 188.12 
L 136.728 128.04 
" style="fill: none; stroke: #000000; stroke-width: 0.8; stroke-linejoin: miter; stroke-linecap: square"/>
   </g>
   <g id="patch_30">
    <path d="M 33.73 188.12 
L 136.728 188.12 
" style="fill: none; stroke: #000000; stroke-width: 0.8; stroke-linejoin: miter; stroke-linecap: square"/>
   </g>
   <g id="patch_31">
    <path d="M 33.73 128.04 
L 136.728 128.04 
" style="fill: none; stroke: #000000; stroke-width: 0.8; stroke-linejoin: miter; stroke-linecap: square"/>
   </g>
   <g id="text_40">
    <text style="font: 12px 'DejaVu Sans', 'Bitstream Vera Sans', 'Computer Modern Sans Serif', 'Lucida Grande', 'Verdana', 'Geneva', 'Lucid', 'Arial', 'Helvetica', 'Avant Garde', sans-serif; text-anchor: middle" x="85.229" y="122.04" transform="rotate(-0 85.229 122.04)">Testing 1</text>
   </g>
  </g>
  <g id="axes_7">
   <g id="patch_32">
    <path d="M 176.848 188.12 
L 279.846 188.12 
L 279.846 128.04 
L 176.848 128.04 
z
" style="fill: #ffffff"/>
   </g>
   <g id="matplotlib.axis_13">
    <g id="xtick_19">
     <g id="line2d_47">
      <g>
       <use xlink:href="#ma9175929b7" x="181.529727" y="188.12" style="stroke: #000000; stroke-width: 0.8"/>
      </g>
     </g>
     <g id="text_41">
      <text style="font: 10px 'DejaVu Sans', 'Bitstream Vera Sans', 'Computer Modern Sans Serif', 'Lucida Grande', 'Verdana', 'Geneva', 'Lucid', 'Arial', 'Helvetica', 'Avant Garde', sans-serif; text-anchor: middle" x="181.529727" y="202.718437" transform="rotate(-0 181.529727 202.718437)">0</text>
     </g>
    </g>
    <g id="xtick_20">
     <g id="line2d_48">
      <g>
       <use xlink:href="#ma9175929b7" x="224.679287" y="188.12" style="stroke: #000000; stroke-width: 0.8"/>
      </g>
     </g>
     <g id="text_42">
      <text style="font: 10px 'DejaVu Sans', 'Bitstream Vera Sans', 'Computer Modern Sans Serif', 'Lucida Grande', 'Verdana', 'Geneva', 'Lucid', 'Arial', 'Helvetica', 'Avant Garde', sans-serif; text-anchor: middle" x="224.679287" y="202.718437" transform="rotate(-0 224.679287 202.718437)">200</text>
     </g>
    </g>
    <g id="xtick_21">
     <g id="line2d_49">
      <g>
       <use xlink:href="#ma9175929b7" x="267.828848" y="188.12" style="stroke: #000000; stroke-width: 0.8"/>
      </g>
     </g>
     <g id="text_43">
      <text style="font: 10px 'DejaVu Sans', 'Bitstream Vera Sans', 'Computer Modern Sans Serif', 'Lucida Grande', 'Verdana', 'Geneva', 'Lucid', 'Arial', 'Helvetica', 'Avant Garde', sans-serif; text-anchor: middle" x="267.828848" y="202.718437" transform="rotate(-0 267.828848 202.718437)">400</text>
     </g>
    </g>
   </g>
   <g id="matplotlib.axis_14">
    <g id="ytick_17">
     <g id="line2d_50">
      <g>
       <use xlink:href="#m326d3c5344" x="176.848" y="165.875902" style="stroke: #000000; stroke-width: 0.8"/>
      </g>
     </g>
     <g id="text_44">
      <text style="font: 10px 'DejaVu Sans', 'Bitstream Vera Sans', 'Computer Modern Sans Serif', 'Lucida Grande', 'Verdana', 'Geneva', 'Lucid', 'Arial', 'Helvetica', 'Avant Garde', sans-serif; text-anchor: end" x="169.848" y="169.67512" transform="rotate(-0 169.848 169.67512)">0.2</text>
     </g>
    </g>
    <g id="ytick_18">
     <g id="line2d_51">
      <g>
       <use xlink:href="#m326d3c5344" x="176.848" y="142.422495" style="stroke: #000000; stroke-width: 0.8"/>
      </g>
     </g>
     <g id="text_45">
      <text style="font: 10px 'DejaVu Sans', 'Bitstream Vera Sans', 'Computer Modern Sans Serif', 'Lucida Grande', 'Verdana', 'Geneva', 'Lucid', 'Arial', 'Helvetica', 'Avant Garde', sans-serif; text-anchor: end" x="169.848" y="146.221713" transform="rotate(-0 169.848 146.221713)">0.4</text>
     </g>
    </g>
   </g>
   <g id="line2d_52">
    <path d="M 181.529727 185.357833 
L 184.765944 184.302173 
L 187.570666 183.165409 
L 190.159639 181.893765 
L 192.748613 180.36885 
L 195.121839 178.712471 
L 197.495065 176.773563 
L 199.652543 174.736684 
L 201.810021 172.412703 
L 203.967499 169.778494 
L 206.124977 166.814319 
L 208.498202 163.154453 
L 210.871428 159.064804 
L 212.597411 155.81896 
L 212.813158 132.147935 
L 214.539141 140.333246 
L 216.265123 147.414097 
L 217.775358 152.778489 
L 219.285592 157.381205 
L 221.011575 161.944978 
L 222.737557 165.884698 
L 224.247792 168.794752 
L 225.973774 171.613037 
L 227.699757 174.000039 
L 229.209991 175.724061 
L 230.935974 177.329406 
L 232.661956 178.632702 
L 234.387938 179.631536 
L 236.113921 180.355139 
L 238.055651 180.911534 
L 239.781633 181.181959 
L 241.723364 181.259137 
L 243.880842 181.117043 
L 244.096589 154.572844 
L 247.117059 155.895329 
L 249.92178 156.890807 
L 252.726501 157.64013 
L 255.315475 158.102098 
L 257.904449 158.33802 
L 260.493422 158.347498 
L 263.082396 158.133362 
L 265.67137 157.701824 
L 268.476091 156.998228 
L 271.280812 156.061491 
L 274.301282 154.807612 
L 275.164273 154.405179 
L 275.164273 154.405179 
" clip-path="url(#pc3bd341225)" style="fill: none; stroke: #0000ff; stroke-width: 1.5; stroke-linecap: square"/>
   </g>
   <g id="line2d_53">
    <path d="M 181.529727 185.389091 
L 182.608466 185.091985 
L 184.550196 184.526569 
L 185.19744 184.327977 
L 186.060431 183.949972 
L 186.276179 183.957948 
L 186.707674 183.747177 
L 186.923422 183.621858 
L 187.354918 183.727109 
L 187.570666 183.573331 
L 187.786413 183.267596 
L 188.002161 183.293269 
L 188.217909 183.174461 
L 188.865152 183.248107 
L 189.728144 182.710945 
L 189.943891 182.705854 
L 190.375387 182.442053 
L 190.806883 181.926742 
L 191.238378 181.931085 
L 191.669874 182.256943 
L 191.885622 182.137281 
L 192.317117 181.456773 
L 192.748613 180.69553 
L 193.827352 180.243812 
L 194.0431 179.897827 
L 194.474595 179.861842 
L 195.121839 179.509674 
L 195.553334 179.321786 
L 195.98483 178.690857 
L 197.710812 177.302177 
L 197.92656 176.968365 
L 198.142308 176.965965 
L 198.358056 176.649002 
L 198.573804 176.617736 
L 199.005299 175.536945 
L 199.221047 175.563706 
L 199.436795 174.714663 
L 199.652543 174.727729 
L 199.86829 174.536852 
L 200.084038 174.100515 
L 200.299786 174.009129 
L 200.515534 173.735704 
L 200.731282 173.933452 
L 201.162777 173.641019 
L 201.594273 173.575134 
L 201.810021 172.997026 
L 202.241516 172.649451 
L 202.457264 172.454627 
L 203.104507 171.231933 
L 203.320255 171.264145 
L 203.967499 170.345616 
L 205.046238 169.394611 
L 205.477733 169.413015 
L 205.693481 168.958528 
L 205.909229 168.953438 
L 206.124977 168.567431 
L 206.340724 168.647957 
L 206.556472 167.86942 
L 206.77222 167.63926 
L 207.203716 166.617293 
L 207.635211 166.380565 
L 207.850959 166.197967 
L 209.792689 161.933102 
L 210.008437 162.008206 
L 210.439933 161.533257 
L 210.65568 161.573589 
L 211.087176 160.38968 
L 211.302924 160.124872 
L 211.518672 160.289377 
L 211.950167 159.469376 
L 212.165915 159.581819 
L 212.381663 159.36096 
L 212.597411 159.954378 
L 212.813158 130.770909 
L 213.460402 134.269213 
L 216.696619 148.656806 
L 219.069845 156.687789 
L 219.932836 159.170306 
L 220.795827 161.521009 
L 221.227323 162.342459 
L 223.600548 167.613096 
L 223.816296 167.877382 
L 224.247792 168.768668 
L 224.46354 168.992281 
L 225.110783 170.342392 
L 225.326531 170.604394 
L 225.973774 171.835394 
L 227.052513 173.31522 
L 227.699757 174.322156 
L 228.347 175.174584 
L 228.994243 176.251875 
L 229.209991 176.237211 
L 231.367469 178.318399 
L 231.798965 178.638276 
L 232.446208 179.194943 
L 233.093452 179.666286 
L 233.740695 179.637714 
L 233.956443 179.870346 
L 234.387938 180.005245 
L 235.035182 180.436989 
L 235.466677 180.504217 
L 236.545416 180.93494 
L 236.761164 180.837543 
L 237.624155 181.117811 
L 238.055651 181.559776 
L 238.702894 181.612893 
L 238.918642 181.414318 
L 239.350138 181.397245 
L 239.781633 181.368232 
L 239.997381 181.494469 
L 240.213129 181.78568 
L 240.644625 181.917144 
L 240.860372 181.726272 
L 241.291868 181.856304 
L 241.723364 181.983654 
L 242.586355 182.192722 
L 242.802103 182.111234 
L 243.233598 182.133438 
L 243.880842 181.332618 
L 244.096589 154.937746 
L 244.312337 154.835599 
L 244.528085 155.205562 
L 244.743833 155.23668 
L 244.959581 155.445733 
L 245.175328 155.303144 
L 246.03832 155.215162 
L 246.469815 155.582605 
L 246.901311 155.780804 
L 248.195798 156.482684 
L 249.058789 156.694111 
L 249.92178 157.001401 
L 250.137528 157.150351 
L 250.353276 157.078612 
L 250.784771 157.281246 
L 252.295006 157.630858 
L 252.726501 157.882986 
L 252.942249 157.950918 
L 253.373745 157.902448 
L 255.531223 158.241489 
L 256.178466 158.242488 
L 256.394214 158.403838 
L 256.609962 158.416811 
L 257.041457 158.26235 
L 257.257205 158.420823 
L 257.472953 158.41298 
L 257.688701 158.273767 
L 257.904449 158.364591 
L 258.120196 158.585988 
L 258.983188 158.386898 
L 259.198935 158.569975 
L 259.414683 158.508836 
L 259.630431 158.683068 
L 259.846179 158.465259 
L 260.493422 158.463599 
L 264.808378 158.132492 
L 265.024126 157.882042 
L 265.239874 157.967966 
L 265.67137 157.891352 
L 266.102865 158.123769 
L 266.318613 158.067107 
L 266.534361 158.136029 
L 266.750109 157.986247 
L 266.965856 157.667121 
L 267.397352 157.527908 
L 267.828848 157.638837 
L 268.476091 157.343531 
L 268.691839 157.106372 
L 268.907587 157.112313 
L 269.339082 156.87811 
L 269.770578 156.988054 
L 270.417821 156.78721 
L 270.633569 156.632836 
L 271.712308 157.014702 
L 273.222543 155.647685 
L 273.43829 155.720909 
L 273.654038 155.31647 
L 273.869786 155.214075 
L 274.085534 155.736 
L 274.517029 155.056797 
L 274.732777 154.831762 
L 274.948525 154.984416 
L 275.164273 155.760579 
L 275.164273 155.760579 
" clip-path="url(#pc3bd341225)" style="fill: none; stroke: #ffa500; stroke-width: 1.5; stroke-linecap: square"/>
   </g>
   <g id="patch_33">
    <path d="M 176.848 188.12 
L 176.848 128.04 
" style="fill: none; stroke: #000000; stroke-width: 0.8; stroke-linejoin: miter; stroke-linecap: square"/>
   </g>
   <g id="patch_34">
    <path d="M 279.846 188.12 
L 279.846 128.04 
" style="fill: none; stroke: #000000; stroke-width: 0.8; stroke-linejoin: miter; stroke-linecap: square"/>
   </g>
   <g id="patch_35">
    <path d="M 176.848 188.12 
L 279.846 188.12 
" style="fill: none; stroke: #000000; stroke-width: 0.8; stroke-linejoin: miter; stroke-linecap: square"/>
   </g>
   <g id="patch_36">
    <path d="M 176.848 128.04 
L 279.846 128.04 
" style="fill: none; stroke: #000000; stroke-width: 0.8; stroke-linejoin: miter; stroke-linecap: square"/>
   </g>
   <g id="text_46">
    <text style="font: 12px 'DejaVu Sans', 'Bitstream Vera Sans', 'Computer Modern Sans Serif', 'Lucida Grande', 'Verdana', 'Geneva', 'Lucid', 'Arial', 'Helvetica', 'Avant Garde', sans-serif; text-anchor: middle" x="228.347" y="122.04" transform="rotate(-0 228.347 122.04)">Testing 2</text>
   </g>
  </g>
  <g id="axes_8">
   <g id="patch_37">
    <path d="M 319.966 188.12 
L 422.964 188.12 
L 422.964 128.04 
L 319.966 128.04 
z
" style="fill: #ffffff"/>
   </g>
   <g id="matplotlib.axis_15">
    <g id="xtick_22">
     <g id="line2d_54">
      <g>
       <use xlink:href="#ma9175929b7" x="324.647727" y="188.12" style="stroke: #000000; stroke-width: 0.8"/>
      </g>
     </g>
     <g id="text_47">
      <text style="font: 10px 'DejaVu Sans', 'Bitstream Vera Sans', 'Computer Modern Sans Serif', 'Lucida Grande', 'Verdana', 'Geneva', 'Lucid', 'Arial', 'Helvetica', 'Avant Garde', sans-serif; text-anchor: middle" x="324.647727" y="202.718437" transform="rotate(-0 324.647727 202.718437)">0</text>
     </g>
    </g>
    <g id="xtick_23">
     <g id="line2d_55">
      <g>
       <use xlink:href="#ma9175929b7" x="367.797287" y="188.12" style="stroke: #000000; stroke-width: 0.8"/>
      </g>
     </g>
     <g id="text_48">
      <text style="font: 10px 'DejaVu Sans', 'Bitstream Vera Sans', 'Computer Modern Sans Serif', 'Lucida Grande', 'Verdana', 'Geneva', 'Lucid', 'Arial', 'Helvetica', 'Avant Garde', sans-serif; text-anchor: middle" x="367.797287" y="202.718437" transform="rotate(-0 367.797287 202.718437)">200</text>
     </g>
    </g>
    <g id="xtick_24">
     <g id="line2d_56">
      <g>
       <use xlink:href="#ma9175929b7" x="410.946848" y="188.12" style="stroke: #000000; stroke-width: 0.8"/>
      </g>
     </g>
     <g id="text_49">
      <text style="font: 10px 'DejaVu Sans', 'Bitstream Vera Sans', 'Computer Modern Sans Serif', 'Lucida Grande', 'Verdana', 'Geneva', 'Lucid', 'Arial', 'Helvetica', 'Avant Garde', sans-serif; text-anchor: middle" x="410.946848" y="202.718437" transform="rotate(-0 410.946848 202.718437)">400</text>
     </g>
    </g>
   </g>
   <g id="matplotlib.axis_16">
    <g id="ytick_19">
     <g id="line2d_57">
      <g>
       <use xlink:href="#m326d3c5344" x="319.966" y="163.69917" style="stroke: #000000; stroke-width: 0.8"/>
      </g>
     </g>
     <g id="text_50">
      <text style="font: 10px 'DejaVu Sans', 'Bitstream Vera Sans', 'Computer Modern Sans Serif', 'Lucida Grande', 'Verdana', 'Geneva', 'Lucid', 'Arial', 'Helvetica', 'Avant Garde', sans-serif; text-anchor: end" x="312.966" y="167.498389" transform="rotate(-0 312.966 167.498389)">0.2</text>
     </g>
    </g>
    <g id="ytick_20">
     <g id="line2d_58">
      <g>
       <use xlink:href="#m326d3c5344" x="319.966" y="139.237378" style="stroke: #000000; stroke-width: 0.8"/>
      </g>
     </g>
     <g id="text_51">
      <text style="font: 10px 'DejaVu Sans', 'Bitstream Vera Sans', 'Computer Modern Sans Serif', 'Lucida Grande', 'Verdana', 'Geneva', 'Lucid', 'Arial', 'Helvetica', 'Avant Garde', sans-serif; text-anchor: end" x="312.966" y="143.036596" transform="rotate(-0 312.966 143.036596)">0.4</text>
     </g>
    </g>
   </g>
   <g id="line2d_59">
    <path d="M 324.647727 183.904483 
L 329.825674 182.852276 
L 334.572126 181.662978 
L 338.887082 180.356261 
L 342.98629 178.880056 
L 346.869751 177.237725 
L 350.537463 175.439676 
L 353.989428 173.503469 
L 355.715411 172.439557 
L 355.931158 131.303847 
L 357.225645 140.10348 
L 358.520132 147.535955 
L 359.814619 153.835799 
L 361.109106 159.117997 
L 362.403592 163.518424 
L 363.913827 167.793516 
L 365.208314 170.866959 
L 366.502801 173.436175 
L 367.797287 175.569951 
L 369.307522 177.629204 
L 370.817757 179.310798 
L 372.327991 180.654599 
L 374.053974 181.855643 
L 375.779956 182.789809 
L 377.505938 183.491461 
L 379.663416 184.107569 
L 382.036642 184.541141 
L 384.625616 184.775981 
L 386.998842 184.834121 
L 387.214589 138.124035 
L 389.15632 141.384496 
L 391.09805 144.250445 
L 393.03978 146.752126 
L 394.98151 148.919049 
L 396.92324 150.779376 
L 398.864971 152.357689 
L 401.022449 153.809922 
L 403.179927 154.973767 
L 405.337405 155.876303 
L 407.494883 156.543187 
L 409.868109 157.031192 
L 412.241334 157.288972 
L 414.830308 157.336304 
L 417.419282 157.167303 
L 418.282273 157.067373 
L 418.282273 157.067373 
" clip-path="url(#p9f7fbad1ca)" style="fill: none; stroke: #0000ff; stroke-width: 1.5; stroke-linecap: square"/>
   </g>
   <g id="line2d_60">
    <path d="M 324.647727 184.018118 
L 327.020953 183.656781 
L 327.452449 183.556206 
L 328.746935 183.434693 
L 329.394179 183.333561 
L 330.041422 183.27777 
L 330.25717 183.176318 
L 330.688666 183.178571 
L 331.983152 182.92169 
L 332.414648 182.614557 
L 332.846144 182.567582 
L 333.061891 182.639459 
L 333.277639 182.59332 
L 333.493387 182.719702 
L 333.709135 182.43073 
L 334.356378 182.363545 
L 335.003622 182.031455 
L 335.21937 181.559428 
L 336.082361 181.428664 
L 336.513856 181.88835 
L 336.729604 181.768488 
L 336.945352 181.997284 
L 337.1611 181.755005 
L 337.592595 181.753319 
L 337.808343 181.74229 
L 338.024091 181.406567 
L 339.534326 180.855368 
L 340.181569 181.053738 
L 340.613065 180.56168 
L 340.828812 180.507899 
L 341.260308 180.221248 
L 341.476056 180.227226 
L 341.691804 179.977481 
L 342.339047 180.287619 
L 342.554795 179.644712 
L 342.98629 179.90317 
L 343.202038 179.859782 
L 343.417786 179.680494 
L 343.633534 179.297832 
L 343.849282 179.415005 
L 344.280777 179.371145 
L 344.496525 179.112134 
L 344.712273 179.264359 
L 345.143768 178.763547 
L 345.575264 178.716843 
L 345.791012 178.338694 
L 346.654003 177.88404 
L 346.869751 177.598995 
L 347.085499 177.528737 
L 347.301246 177.610474 
L 347.516994 177.501739 
L 348.164238 177.763506 
L 348.379985 178.184436 
L 348.595733 177.813205 
L 348.811481 177.705287 
L 349.242977 176.981745 
L 349.458724 176.943062 
L 350.105968 176.558288 
L 350.537463 176.850532 
L 350.753211 176.593268 
L 350.968959 176.662616 
L 351.184707 176.550693 
L 351.616202 175.881399 
L 351.83195 175.810874 
L 352.047698 175.899888 
L 352.479194 175.315838 
L 352.694941 175.319737 
L 352.910689 175.499474 
L 353.126437 175.439408 
L 353.77368 174.726216 
L 353.989428 174.856648 
L 354.636672 174.18736 
L 355.068167 174.156413 
L 355.283915 174.616648 
L 355.715411 173.735266 
L 355.931158 130.770909 
L 358.304384 146.403805 
L 359.383123 151.90081 
L 361.756349 161.7609 
L 362.61934 164.644586 
L 363.266584 166.484347 
L 364.345323 169.210653 
L 365.639809 172.145256 
L 366.934296 174.442629 
L 368.013035 176.074346 
L 369.307522 177.991415 
L 369.52327 178.071805 
L 369.954765 178.616654 
L 370.817757 179.700702 
L 372.112243 181.090223 
L 373.190982 181.694676 
L 374.701217 182.464293 
L 374.916965 182.502587 
L 375.779956 183.149505 
L 377.721686 183.850653 
L 379.016173 184.228533 
L 379.231921 184.343827 
L 379.447669 184.29952 
L 379.879164 184.435841 
L 380.957903 184.778747 
L 381.389399 184.788363 
L 381.820894 184.856151 
L 382.25239 184.815021 
L 382.899633 184.977517 
L 384.409868 185.170379 
L 385.057111 185.182035 
L 385.272859 185.297333 
L 385.920103 185.153999 
L 386.351598 185.389091 
L 386.567346 185.179262 
L 386.783094 185.198947 
L 386.998842 184.639713 
L 387.214589 137.459166 
L 387.646085 138.205863 
L 388.077581 139.144048 
L 388.293328 139.32117 
L 388.724824 140.00399 
L 391.745293 144.477589 
L 393.03978 145.956329 
L 393.471276 146.491123 
L 393.902771 147.032196 
L 395.197258 148.171743 
L 395.413006 148.271465 
L 396.275997 149.382303 
L 396.92324 149.888865 
L 397.570484 150.480529 
L 397.786232 150.586193 
L 398.001979 150.910643 
L 398.217727 151.025146 
L 398.649223 151.667323 
L 398.864971 151.85428 
L 399.512214 152.030535 
L 399.727962 152.282757 
L 399.94371 152.309129 
L 400.375205 152.68835 
L 400.806701 152.647991 
L 401.238196 153.062675 
L 401.88544 153.359185 
L 402.748431 154.198486 
L 402.964179 154.13026 
L 403.395674 154.486167 
L 403.611422 154.397759 
L 404.258666 154.755073 
L 404.690161 154.915814 
L 405.337405 155.170332 
L 405.553152 155.240471 
L 405.7689 155.148174 
L 407.71063 155.758348 
L 407.926378 155.959363 
L 408.142126 155.882131 
L 408.573622 156.123425 
L 408.78937 156.051927 
L 409.220865 156.151937 
L 409.436613 156.063642 
L 410.7311 156.591204 
L 411.809839 156.299159 
L 412.241334 156.687798 
L 412.457082 156.66194 
L 412.67283 156.820852 
L 412.888578 156.74047 
L 413.967317 157.112295 
L 414.61456 156.641236 
L 415.046056 156.952162 
L 415.477551 156.887692 
L 415.693299 156.967494 
L 415.909047 156.812614 
L 416.124795 156.910896 
L 416.340543 156.735797 
L 416.55629 156.732108 
L 416.772038 156.538007 
L 416.987786 156.559976 
L 417.203534 157.193573 
L 417.419282 156.73669 
L 418.066525 156.709727 
L 418.282273 156.764721 
L 418.282273 156.764721 
" clip-path="url(#p9f7fbad1ca)" style="fill: none; stroke: #ffa500; stroke-width: 1.5; stroke-linecap: square"/>
   </g>
   <g id="patch_38">
    <path d="M 319.966 188.12 
L 319.966 128.04 
" style="fill: none; stroke: #000000; stroke-width: 0.8; stroke-linejoin: miter; stroke-linecap: square"/>
   </g>
   <g id="patch_39">
    <path d="M 422.964 188.12 
L 422.964 128.04 
" style="fill: none; stroke: #000000; stroke-width: 0.8; stroke-linejoin: miter; stroke-linecap: square"/>
   </g>
   <g id="patch_40">
    <path d="M 319.966 188.12 
L 422.964 188.12 
" style="fill: none; stroke: #000000; stroke-width: 0.8; stroke-linejoin: miter; stroke-linecap: square"/>
   </g>
   <g id="patch_41">
    <path d="M 319.966 128.04 
L 422.964 128.04 
" style="fill: none; stroke: #000000; stroke-width: 0.8; stroke-linejoin: miter; stroke-linecap: square"/>
   </g>
   <g id="text_52">
    <text style="font: 12px 'DejaVu Sans', 'Bitstream Vera Sans', 'Computer Modern Sans Serif', 'Lucida Grande', 'Verdana', 'Geneva', 'Lucid', 'Arial', 'Helvetica', 'Avant Garde', sans-serif; text-anchor: middle" x="371.465" y="122.04" transform="rotate(-0 371.465 122.04)">Testing 3</text>
   </g>
  </g>
  <g id="axes_9">
   <g id="patch_42">
    <path d="M 463.084 188.12 
L 566.082 188.12 
L 566.082 128.04 
L 463.084 128.04 
z
" style="fill: #ffffff"/>
   </g>
   <g id="matplotlib.axis_17">
    <g id="xtick_25">
     <g id="line2d_61">
      <g>
       <use xlink:href="#ma9175929b7" x="467.765727" y="188.12" style="stroke: #000000; stroke-width: 0.8"/>
      </g>
     </g>
     <g id="text_53">
      <text style="font: 10px 'DejaVu Sans', 'Bitstream Vera Sans', 'Computer Modern Sans Serif', 'Lucida Grande', 'Verdana', 'Geneva', 'Lucid', 'Arial', 'Helvetica', 'Avant Garde', sans-serif; text-anchor: middle" x="467.765727" y="202.718437" transform="rotate(-0 467.765727 202.718437)">0</text>
     </g>
    </g>
    <g id="xtick_26">
     <g id="line2d_62">
      <g>
       <use xlink:href="#ma9175929b7" x="510.915287" y="188.12" style="stroke: #000000; stroke-width: 0.8"/>
      </g>
     </g>
     <g id="text_54">
      <text style="font: 10px 'DejaVu Sans', 'Bitstream Vera Sans', 'Computer Modern Sans Serif', 'Lucida Grande', 'Verdana', 'Geneva', 'Lucid', 'Arial', 'Helvetica', 'Avant Garde', sans-serif; text-anchor: middle" x="510.915287" y="202.718437" transform="rotate(-0 510.915287 202.718437)">200</text>
     </g>
    </g>
    <g id="xtick_27">
     <g id="line2d_63">
      <g>
       <use xlink:href="#ma9175929b7" x="554.064848" y="188.12" style="stroke: #000000; stroke-width: 0.8"/>
      </g>
     </g>
     <g id="text_55">
      <text style="font: 10px 'DejaVu Sans', 'Bitstream Vera Sans', 'Computer Modern Sans Serif', 'Lucida Grande', 'Verdana', 'Geneva', 'Lucid', 'Arial', 'Helvetica', 'Avant Garde', sans-serif; text-anchor: middle" x="554.064848" y="202.718437" transform="rotate(-0 554.064848 202.718437)">400</text>
     </g>
    </g>
   </g>
   <g id="matplotlib.axis_18">
    <g id="ytick_21">
     <g id="line2d_64">
      <g>
       <use xlink:href="#m326d3c5344" x="463.084" y="187.010579" style="stroke: #000000; stroke-width: 0.8"/>
      </g>
     </g>
     <g id="text_56">
      <text style="font: 10px 'DejaVu Sans', 'Bitstream Vera Sans', 'Computer Modern Sans Serif', 'Lucida Grande', 'Verdana', 'Geneva', 'Lucid', 'Arial', 'Helvetica', 'Avant Garde', sans-serif; text-anchor: end" x="456.084" y="190.809798" transform="rotate(-0 456.084 190.809798)">0.0</text>
     </g>
    </g>
    <g id="ytick_22">
     <g id="line2d_65">
      <g>
       <use xlink:href="#m326d3c5344" x="463.084" y="166.958259" style="stroke: #000000; stroke-width: 0.8"/>
      </g>
     </g>
     <g id="text_57">
      <text style="font: 10px 'DejaVu Sans', 'Bitstream Vera Sans', 'Computer Modern Sans Serif', 'Lucida Grande', 'Verdana', 'Geneva', 'Lucid', 'Arial', 'Helvetica', 'Avant Garde', sans-serif; text-anchor: end" x="456.084" y="170.757478" transform="rotate(-0 456.084 170.757478)">0.2</text>
     </g>
    </g>
    <g id="ytick_23">
     <g id="line2d_66">
      <g>
       <use xlink:href="#m326d3c5344" x="463.084" y="146.905938" style="stroke: #000000; stroke-width: 0.8"/>
      </g>
     </g>
     <g id="text_58">
      <text style="font: 10px 'DejaVu Sans', 'Bitstream Vera Sans', 'Computer Modern Sans Serif', 'Lucida Grande', 'Verdana', 'Geneva', 'Lucid', 'Arial', 'Helvetica', 'Avant Garde', sans-serif; text-anchor: end" x="456.084" y="150.705157" transform="rotate(-0 456.084 150.705157)">0.4</text>
     </g>
    </g>
   </g>
   <g id="line2d_67">
    <path d="M 467.765727 182.93844 
L 474.453909 181.905114 
L 480.494848 180.748372 
L 486.10429 179.444293 
L 491.282238 178.009074 
L 496.028689 176.469357 
L 498.833411 175.447899 
L 499.049158 131.462972 
L 500.343645 140.742328 
L 501.638132 148.462996 
L 502.932619 154.908165 
L 504.227106 160.23585 
L 505.521592 164.614544 
L 506.816079 168.253848 
L 508.110566 171.310186 
L 509.405053 173.836142 
L 510.69954 175.908676 
L 512.209774 177.876298 
L 513.720009 179.463561 
L 515.230243 180.719779 
L 516.740478 181.706379 
L 518.46646 182.589205 
L 520.408191 183.325185 
L 522.565669 183.891409 
L 525.154642 184.328853 
L 528.175111 184.58752 
L 530.116842 184.655563 
L 530.332589 150.739564 
L 532.27432 153.548986 
L 534.21605 156.001377 
L 536.15778 158.132496 
L 538.315258 160.163853 
L 540.472736 161.88061 
L 542.630214 163.318293 
L 545.00344 164.616336 
L 547.376666 165.653615 
L 549.965639 166.52691 
L 552.554613 167.166847 
L 555.359334 167.634222 
L 558.379804 167.913855 
L 561.400273 167.997665 
L 561.400273 167.997665 
" clip-path="url(#p1a440d6e68)" style="fill: none; stroke: #0000ff; stroke-width: 1.5; stroke-linecap: square"/>
   </g>
   <g id="line2d_68">
    <path d="M 467.765727 183.005407 
L 477.474378 181.98366 
L 478.121622 181.697919 
L 478.553117 181.830926 
L 478.984613 181.676257 
L 479.631856 181.58665 
L 480.063352 181.501908 
L 481.789334 181.230393 
L 482.005082 181.341918 
L 483.731065 180.51087 
L 483.946812 180.649212 
L 484.809804 180.336666 
L 485.241299 180.003444 
L 485.672795 179.937319 
L 486.10429 180.582479 
L 486.535786 180.804573 
L 487.183029 180.092281 
L 487.614525 179.690495 
L 488.046021 179.674885 
L 488.261768 179.912759 
L 489.12476 179.305289 
L 489.340507 179.16308 
L 489.556255 179.32536 
L 489.987751 179.355716 
L 490.419246 179.392992 
L 490.850742 178.737486 
L 491.713733 178.537596 
L 491.929481 178.4104 
L 492.145229 178.446998 
L 492.360977 178.176402 
L 492.792472 178.036526 
L 493.00822 178.099682 
L 493.439716 177.7891 
L 493.871211 177.840151 
L 494.086959 177.75377 
L 494.302707 177.511382 
L 494.518455 177.460045 
L 494.94995 177.664747 
L 495.165698 177.958447 
L 495.597194 177.743645 
L 495.812941 177.686329 
L 496.675933 176.694584 
L 497.107428 176.722563 
L 497.323176 176.942744 
L 497.538924 176.421714 
L 497.754672 176.483615 
L 497.970419 176.350609 
L 498.186167 176.806263 
L 498.401915 176.941034 
L 498.617663 177.429297 
L 498.833411 176.834064 
L 499.049158 130.770909 
L 500.775141 143.406006 
L 501.85388 149.45769 
L 503.79561 158.54427 
L 505.73734 165.702466 
L 506.600331 167.733026 
L 507.67907 170.490352 
L 509.405053 173.959631 
L 512.425522 178.367706 
L 513.072765 178.97276 
L 513.720009 179.690782 
L 515.014496 180.908299 
L 515.877487 181.742052 
L 516.093235 181.763212 
L 516.52473 181.47759 
L 516.956226 181.632323 
L 517.387721 182.169414 
L 517.819217 182.418824 
L 518.250713 182.90802 
L 519.113704 183.342875 
L 519.329452 183.282823 
L 519.976695 183.342354 
L 520.623938 183.388164 
L 520.839686 183.391691 
L 521.48693 183.950798 
L 521.702677 184.01248 
L 522.134173 183.880761 
L 522.565669 183.920389 
L 522.781416 184.110809 
L 522.997164 184.053259 
L 523.42866 184.320843 
L 523.860155 184.3302 
L 524.075903 184.358565 
L 524.291651 184.219721 
L 524.723147 184.500392 
L 525.37039 184.838669 
L 525.586138 184.72026 
L 526.017633 184.830089 
L 526.449129 184.816626 
L 526.880625 184.502394 
L 527.527868 184.845439 
L 528.390859 184.698346 
L 528.606607 184.821608 
L 528.822355 184.720534 
L 529.25385 184.825796 
L 529.469598 185.104133 
L 529.685346 184.848828 
L 530.116842 185.389091 
L 530.332589 150.098213 
L 531.195581 151.627737 
L 532.705815 153.476406 
L 532.921563 153.511528 
L 533.137311 153.952456 
L 533.353059 154.100349 
L 533.784554 154.798472 
L 536.589276 158.006222 
L 537.452267 158.909497 
L 537.883762 159.407936 
L 540.904232 161.849807 
L 541.982971 162.440698 
L 543.277457 163.143188 
L 544.787692 164.297527 
L 545.866431 164.74066 
L 546.513674 165.146307 
L 546.94517 165.185113 
L 547.376666 165.469342 
L 548.671152 166.092525 
L 549.318396 166.226511 
L 550.397135 166.590844 
L 550.612883 166.585087 
L 551.260126 166.868973 
L 552.123117 167.112632 
L 552.554613 166.94302 
L 552.986109 167.150342 
L 553.417604 167.195735 
L 553.8491 167.420281 
L 554.496343 167.601965 
L 554.712091 167.589444 
L 554.927839 167.442388 
L 555.575082 167.679353 
L 555.79083 167.639308 
L 556.006578 167.954983 
L 556.869569 167.846704 
L 557.085317 167.909995 
L 557.301065 167.833068 
L 557.73256 167.810806 
L 558.164056 167.646372 
L 558.811299 168.128217 
L 559.242795 167.968613 
L 559.458543 167.846743 
L 559.67429 167.877286 
L 559.890038 167.632809 
L 560.537282 168.002724 
L 561.184525 167.47685 
L 561.400273 167.601332 
L 561.400273 167.601332 
" clip-path="url(#p1a440d6e68)" style="fill: none; stroke: #ffa500; stroke-width: 1.5; stroke-linecap: square"/>
   </g>
   <g id="patch_43">
    <path d="M 463.084 188.12 
L 463.084 128.04 
" style="fill: none; stroke: #000000; stroke-width: 0.8; stroke-linejoin: miter; stroke-linecap: square"/>
   </g>
   <g id="patch_44">
    <path d="M 566.082 188.12 
L 566.082 128.04 
" style="fill: none; stroke: #000000; stroke-width: 0.8; stroke-linejoin: miter; stroke-linecap: square"/>
   </g>
   <g id="patch_45">
    <path d="M 463.084 188.12 
L 566.082 188.12 
" style="fill: none; stroke: #000000; stroke-width: 0.8; stroke-linejoin: miter; stroke-linecap: square"/>
   </g>
   <g id="patch_46">
    <path d="M 463.084 128.04 
L 566.082 128.04 
" style="fill: none; stroke: #000000; stroke-width: 0.8; stroke-linejoin: miter; stroke-linecap: square"/>
   </g>
   <g id="text_59">
    <text style="font: 12px 'DejaVu Sans', 'Bitstream Vera Sans', 'Computer Modern Sans Serif', 'Lucida Grande', 'Verdana', 'Geneva', 'Lucid', 'Arial', 'Helvetica', 'Avant Garde', sans-serif; text-anchor: middle" x="514.583" y="122.04" transform="rotate(-0 514.583 122.04)">Testing 4</text>
   </g>
  </g>
  <g id="axes_10">
   <g id="patch_47">
    <path d="M 606.202 188.12 
L 709.2 188.12 
L 709.2 128.04 
L 606.202 128.04 
z
" style="fill: #ffffff"/>
   </g>
   <g id="matplotlib.axis_19">
    <g id="xtick_28">
     <g id="line2d_69">
      <g>
       <use xlink:href="#ma9175929b7" x="610.883727" y="188.12" style="stroke: #000000; stroke-width: 0.8"/>
      </g>
     </g>
     <g id="text_60">
      <text style="font: 10px 'DejaVu Sans', 'Bitstream Vera Sans', 'Computer Modern Sans Serif', 'Lucida Grande', 'Verdana', 'Geneva', 'Lucid', 'Arial', 'Helvetica', 'Avant Garde', sans-serif; text-anchor: middle" x="610.883727" y="202.718437" transform="rotate(-0 610.883727 202.718437)">0</text>
     </g>
    </g>
    <g id="xtick_29">
     <g id="line2d_70">
      <g>
       <use xlink:href="#ma9175929b7" x="654.033287" y="188.12" style="stroke: #000000; stroke-width: 0.8"/>
      </g>
     </g>
     <g id="text_61">
      <text style="font: 10px 'DejaVu Sans', 'Bitstream Vera Sans', 'Computer Modern Sans Serif', 'Lucida Grande', 'Verdana', 'Geneva', 'Lucid', 'Arial', 'Helvetica', 'Avant Garde', sans-serif; text-anchor: middle" x="654.033287" y="202.718437" transform="rotate(-0 654.033287 202.718437)">200</text>
     </g>
    </g>
    <g id="xtick_30">
     <g id="line2d_71">
      <g>
       <use xlink:href="#ma9175929b7" x="697.182848" y="188.12" style="stroke: #000000; stroke-width: 0.8"/>
      </g>
     </g>
     <g id="text_62">
      <text style="font: 10px 'DejaVu Sans', 'Bitstream Vera Sans', 'Computer Modern Sans Serif', 'Lucida Grande', 'Verdana', 'Geneva', 'Lucid', 'Arial', 'Helvetica', 'Avant Garde', sans-serif; text-anchor: middle" x="697.182848" y="202.718437" transform="rotate(-0 697.182848 202.718437)">400</text>
     </g>
    </g>
   </g>
   <g id="matplotlib.axis_20">
    <g id="ytick_24">
     <g id="line2d_72">
      <g>
       <use xlink:href="#m326d3c5344" x="606.202" y="166.704213" style="stroke: #000000; stroke-width: 0.8"/>
      </g>
     </g>
     <g id="text_63">
      <text style="font: 10px 'DejaVu Sans', 'Bitstream Vera Sans', 'Computer Modern Sans Serif', 'Lucida Grande', 'Verdana', 'Geneva', 'Lucid', 'Arial', 'Helvetica', 'Avant Garde', sans-serif; text-anchor: end" x="599.202" y="170.503432" transform="rotate(-0 599.202 170.503432)">0.25</text>
     </g>
    </g>
    <g id="ytick_25">
     <g id="line2d_73">
      <g>
       <use xlink:href="#m326d3c5344" x="606.202" y="144.77292" style="stroke: #000000; stroke-width: 0.8"/>
      </g>
     </g>
     <g id="text_64">
      <text style="font: 10px 'DejaVu Sans', 'Bitstream Vera Sans', 'Computer Modern Sans Serif', 'Lucida Grande', 'Verdana', 'Geneva', 'Lucid', 'Arial', 'Helvetica', 'Avant Garde', sans-serif; text-anchor: end" x="599.202" y="148.572139" transform="rotate(-0 599.202 148.572139)">0.50</text>
     </g>
    </g>
   </g>
   <g id="line2d_74">
    <path d="M 610.883727 185.360122 
L 613.256953 184.384614 
L 615.414431 183.249707 
L 617.356161 181.977039 
L 619.297891 180.417779 
L 621.023874 178.750405 
L 622.749856 176.781002 
L 624.475839 174.476297 
L 626.201821 171.806909 
L 627.927804 168.750464 
L 629.869534 164.83457 
L 631.811264 160.41363 
L 633.968742 154.935379 
L 636.341968 148.292339 
L 639.146689 139.772221 
L 641.951411 130.770909 
L 642.167158 148.027235 
L 647.776601 156.326177 
L 652.738801 162.976051 
L 655.327774 166.027812 
L 657.701 168.553648 
L 659.64273 170.279017 
L 661.800208 171.890065 
L 663.526191 172.896703 
L 665.252173 173.623102 
L 666.978155 174.121795 
L 668.704138 174.3768 
L 670.43012 174.388447 
L 672.37185 174.173045 
L 673.234842 174.007131 
L 673.450589 162.552824 
L 676.255311 163.041563 
L 679.707276 163.882032 
L 693.515135 167.513686 
L 696.9671 168.067445 
L 700.419065 168.393697 
L 703.655282 168.483179 
L 704.518273 168.471725 
L 704.518273 168.471725 
" clip-path="url(#p1e78000bd4)" style="fill: none; stroke: #0000ff; stroke-width: 1.5; stroke-linecap: square"/>
   </g>
   <g id="line2d_75">
    <path d="M 610.883727 185.389091 
L 613.041205 184.572516 
L 614.767188 183.740503 
L 614.982935 183.730139 
L 617.787657 181.803113 
L 618.650648 181.092308 
L 619.082144 180.657022 
L 619.297891 180.616156 
L 619.729387 180.156934 
L 620.37663 179.392832 
L 621.239622 178.792791 
L 621.886865 178.136216 
L 622.534109 177.667434 
L 623.612848 176.473616 
L 624.260091 175.548946 
L 624.475839 175.293903 
L 624.907334 174.58715 
L 625.33883 174.042627 
L 625.986073 172.985102 
L 626.201821 172.882315 
L 626.633317 172.15122 
L 627.064812 171.355326 
L 629.869534 166.162365 
L 631.811264 161.832802 
L 632.458507 160.161603 
L 634.400238 155.389255 
L 634.831733 154.083601 
L 635.047481 153.663872 
L 635.694724 151.768903 
L 638.930941 142.369097 
L 639.362437 140.834002 
L 640.656924 136.979473 
L 641.088419 135.628652 
L 641.304167 135.143307 
L 641.951411 132.44496 
L 642.167158 147.307929 
L 644.756132 151.478933 
L 651.660062 161.591839 
L 652.307305 162.419829 
L 653.170296 163.665074 
L 653.601792 164.116351 
L 654.680531 165.441817 
L 656.838009 167.898004 
L 657.485252 168.503816 
L 658.132496 169.022642 
L 660.074226 170.716278 
L 660.505721 170.897608 
L 661.58446 171.888097 
L 662.231704 172.348727 
L 663.094695 172.875951 
L 664.389182 173.549416 
L 666.978155 174.428221 
L 668.704138 174.657053 
L 669.351381 174.566588 
L 670.43012 174.696688 
L 670.645868 174.677703 
L 670.861616 174.520457 
L 671.724607 174.589187 
L 673.019094 174.394843 
L 673.234842 174.11553 
L 673.450589 163.071859 
L 673.882085 162.637578 
L 674.097833 162.561295 
L 674.313581 162.779863 
L 675.176572 162.64527 
L 676.255311 163.023006 
L 676.902554 163.117148 
L 679.707276 163.744733 
L 680.138771 163.90097 
L 680.786015 164.233356 
L 681.433258 164.306173 
L 683.590736 165.060228 
L 684.022232 165.100725 
L 684.453727 165.29776 
L 687.689944 166.282999 
L 687.905692 166.227728 
L 691.357657 167.144983 
L 693.94663 167.89488 
L 694.593874 168.15235 
L 695.456865 168.12169 
L 695.888361 168.264044 
L 696.319856 168.502815 
L 696.751352 168.550134 
L 697.614343 168.541389 
L 698.261587 168.784247 
L 698.477334 168.661371 
L 699.340326 168.728104 
L 699.771821 168.952787 
L 701.282056 168.988808 
L 701.713551 169.311055 
L 702.145047 169.306491 
L 703.008038 168.990601 
L 703.655282 168.91905 
L 703.871029 168.90727 
L 704.302525 169.086261 
L 704.518273 169.115416 
L 704.518273 169.115416 
" clip-path="url(#p1e78000bd4)" style="fill: none; stroke: #ffa500; stroke-width: 1.5; stroke-linecap: square"/>
   </g>
   <g id="patch_48">
    <path d="M 606.202 188.12 
L 606.202 128.04 
" style="fill: none; stroke: #000000; stroke-width: 0.8; stroke-linejoin: miter; stroke-linecap: square"/>
   </g>
   <g id="patch_49">
    <path d="M 709.2 188.12 
L 709.2 128.04 
" style="fill: none; stroke: #000000; stroke-width: 0.8; stroke-linejoin: miter; stroke-linecap: square"/>
   </g>
   <g id="patch_50">
    <path d="M 606.202 188.12 
L 709.2 188.12 
" style="fill: none; stroke: #000000; stroke-width: 0.8; stroke-linejoin: miter; stroke-linecap: square"/>
   </g>
   <g id="patch_51">
    <path d="M 606.202 128.04 
L 709.2 128.04 
" style="fill: none; stroke: #000000; stroke-width: 0.8; stroke-linejoin: miter; stroke-linecap: square"/>
   </g>
   <g id="text_65">
    <text style="font: 12px 'DejaVu Sans', 'Bitstream Vera Sans', 'Computer Modern Sans Serif', 'Lucida Grande', 'Verdana', 'Geneva', 'Lucid', 'Arial', 'Helvetica', 'Avant Garde', sans-serif; text-anchor: middle" x="657.701" y="122.04" transform="rotate(-0 657.701 122.04)">Testing 5</text>
   </g>
  </g>
 </g>
 <defs>
  <clipPath id="p44a10f293c">
   <rect x="33.73" y="25.44" width="102.998" height="60.08"/>
  </clipPath>
  <clipPath id="pfc5c1962f7">
   <rect x="176.848" y="25.44" width="102.998" height="60.08"/>
  </clipPath>
  <clipPath id="p8ca55171d2">
   <rect x="319.966" y="25.44" width="102.998" height="60.08"/>
  </clipPath>
  <clipPath id="p6f37b8698c">
   <rect x="463.084" y="25.44" width="102.998" height="60.08"/>
  </clipPath>
  <clipPath id="pc260e56120">
   <rect x="606.202" y="25.44" width="102.998" height="60.08"/>
  </clipPath>
  <clipPath id="p7c9da2c231">
   <rect x="33.73" y="128.04" width="102.998" height="60.08"/>
  </clipPath>
  <clipPath id="pc3bd341225">
   <rect x="176.848" y="128.04" width="102.998" height="60.08"/>
  </clipPath>
  <clipPath id="p9f7fbad1ca">
   <rect x="319.966" y="128.04" width="102.998" height="60.08"/>
  </clipPath>
  <clipPath id="p1a440d6e68">
   <rect x="463.084" y="128.04" width="102.998" height="60.08"/>
  </clipPath>
  <clipPath id="p1e78000bd4">
   <rect x="606.202" y="128.04" width="102.998" height="60.08"/>
  </clipPath>
 </defs>
</svg>
