<?xml version="1.0" encoding="utf-8" standalone="no"?>
<!DOCTYPE svg PUBLIC "-//W3C//DTD SVG 1.1//EN"
  "http://www.w3.org/Graphics/SVG/1.1/DTD/svg11.dtd">
<svg xmlns:xlink="http://www.w3.org/1999/xlink" width="720pt" height="216pt" viewBox="0 0 720 216" xmlns="http://www.w3.org/2000/svg" version="1.1">
 <metadata>
  <rdf:RDF xmlns:dc="http://purl.org/dc/elements/1.1/" xmlns:cc="http://creativecommons.org/ns#" xmlns:rdf="http://www.w3.org/1999/02/22-rdf-syntax-ns#">
   <cc:Work>
    <dc:type rdf:resource="http://purl.org/dc/dcmitype/StillImage"/>
    <dc:date>2025-03-24T00:06:17.777968</dc:date>
    <dc:format>image/svg+xml</dc:format>
    <dc:creator>
     <cc:Agent>
      <dc:title>Matplotlib v3.8.4, https://matplotlib.org/</dc:title>
     </cc:Agent>
    </dc:creator>
   </cc:Work>
  </rdf:RDF>
 </metadata>
 <defs>
  <style type="text/css">*{stroke-linejoin: round; stroke-linecap: butt}</style>
 </defs>
 <g id="figure_1">
  <g id="patch_1">
   <path d="M 0 216 
L 720 216 
L 720 0 
L 0 0 
z
" style="fill: #ffffff"/>
  </g>
  <g id="axes_1">
   <g id="patch_2">
    <path d="M 33.73 85.52 
L 141.84 85.52 
L 141.84 25.44 
L 33.73 25.44 
z
" style="fill: #ffffff"/>
   </g>
   <g id="matplotlib.axis_1">
    <g id="xtick_1">
     <g id="line2d_1">
      <defs>
       <path id="m602b59d13e" d="M 0 0 
L 0 3.5 
" style="stroke: #000000; stroke-width: 0.8"/>
      </defs>
      <g>
       <use xlink:href="#m602b59d13e" x="38.644091" y="85.52" style="stroke: #000000; stroke-width: 0.8"/>
      </g>
     </g>
     <g id="text_1">
      <text style="font: 10px 'DejaVu Sans', 'Bitstream Vera Sans', 'Computer Modern Sans Serif', 'Lucida Grande', 'Verdana', 'Geneva', 'Lucid', 'Arial', 'Helvetica', 'Avant Garde', sans-serif; text-anchor: middle" x="38.644091" y="100.118438" transform="rotate(-0 38.644091 100.118438)">0</text>
     </g>
    </g>
    <g id="xtick_2">
     <g id="line2d_2">
      <g>
       <use xlink:href="#m602b59d13e" x="83.935251" y="85.52" style="stroke: #000000; stroke-width: 0.8"/>
      </g>
     </g>
     <g id="text_2">
      <text style="font: 10px 'DejaVu Sans', 'Bitstream Vera Sans', 'Computer Modern Sans Serif', 'Lucida Grande', 'Verdana', 'Geneva', 'Lucid', 'Arial', 'Helvetica', 'Avant Garde', sans-serif; text-anchor: middle" x="83.935251" y="100.118438" transform="rotate(-0 83.935251 100.118438)">200</text>
     </g>
    </g>
    <g id="xtick_3">
     <g id="line2d_3">
      <g>
       <use xlink:href="#m602b59d13e" x="129.226412" y="85.52" style="stroke: #000000; stroke-width: 0.8"/>
      </g>
     </g>
     <g id="text_3">
      <text style="font: 10px 'DejaVu Sans', 'Bitstream Vera Sans', 'Computer Modern Sans Serif', 'Lucida Grande', 'Verdana', 'Geneva', 'Lucid', 'Arial', 'Helvetica', 'Avant Garde', sans-serif; text-anchor: middle" x="129.226412" y="100.118438" transform="rotate(-0 129.226412 100.118438)">400</text>
     </g>
    </g>
   </g>
   <g id="matplotlib.axis_2">
    <g id="ytick_1">
     <g id="line2d_4">
      <defs>
       <path id="m6b52275fab" d="M 0 0 
L -3.5 0 
" style="stroke: #000000; stroke-width: 0.8"/>
      </defs>
      <g>
       <use xlink:href="#m6b52275fab" x="33.73" y="85.283657" style="stroke: #000000; stroke-width: 0.8"/>
      </g>
     </g>
     <g id="text_4">
      <text style="font: 10px 'DejaVu Sans', 'Bitstream Vera Sans', 'Computer Modern Sans Serif', 'Lucida Grande', 'Verdana', 'Geneva', 'Lucid', 'Arial', 'Helvetica', 'Avant Garde', sans-serif; text-anchor: end" x="26.73" y="89.082876" transform="rotate(-0 26.73 89.082876)">0.0</text>
     </g>
    </g>
    <g id="ytick_2">
     <g id="line2d_5">
      <g>
       <use xlink:href="#m6b52275fab" x="33.73" y="55.248825" style="stroke: #000000; stroke-width: 0.8"/>
      </g>
     </g>
     <g id="text_5">
      <text style="font: 10px 'DejaVu Sans', 'Bitstream Vera Sans', 'Computer Modern Sans Serif', 'Lucida Grande', 'Verdana', 'Geneva', 'Lucid', 'Arial', 'Helvetica', 'Avant Garde', sans-serif; text-anchor: end" x="26.73" y="59.048043" transform="rotate(-0 26.73 59.048043)">0.5</text>
     </g>
    </g>
   </g>
   <g id="line2d_6">
    <path d="M 38.644091 82.675815 
L 39.323458 81.862629 
L 40.002826 80.711818 
L 40.682193 79.073873 
L 41.361561 76.747224 
L 42.040928 73.487967 
L 42.720295 69.057015 
L 44.531942 55.754922 
L 45.211309 52.685372 
L 46.117132 49.760933 
L 47.022956 47.567167 
L 48.155235 45.418493 
L 49.513969 43.361436 
L 51.09916 41.404687 
L 52.910806 39.543056 
L 54.948909 37.766976 
L 57.439922 35.908958 
L 60.157392 34.157762 
L 63.327773 32.374092 
L 66.951066 30.585111 
L 71.253726 28.714633 
L 71.480182 74.241986 
L 72.612461 75.267726 
L 73.518284 75.744239 
L 74.197652 75.847761 
L 74.877019 75.67625 
L 75.556387 75.153979 
L 76.688666 74.081752 
L 77.141577 73.923953 
L 78.047401 73.942598 
L 79.17968 73.912768 
L 80.538414 73.640894 
L 88.917279 71.578509 
L 93.899307 70.813979 
L 104.089818 69.726496 
L 104.316274 61.887552 
L 105.448553 61.157524 
L 106.580832 60.701948 
L 107.713111 60.479933 
L 109.071845 60.439854 
L 111.109948 60.630277 
L 114.73324 60.999074 
L 116.771343 60.988438 
L 118.809445 60.766527 
L 121.074003 60.281847 
L 123.565017 59.502633 
L 126.508942 58.324823 
L 130.132235 56.624965 
L 136.020086 53.570233 
L 136.925909 53.087856 
L 136.925909 53.087856 
" clip-path="url(#pb733f21892)" style="fill: none; stroke: #0000ff; stroke-width: 1.5; stroke-linecap: square"/>
   </g>
   <g id="line2d_7">
    <path d="M 38.644091 82.789091 
L 40.229282 80.259062 
L 40.908649 78.450797 
L 41.588016 75.859453 
L 42.267384 72.206372 
L 42.946751 67.289673 
L 44.305486 57.025003 
L 44.984853 53.660599 
L 45.890677 50.234696 
L 46.570044 48.626671 
L 47.702323 46.40381 
L 49.513969 43.432847 
L 52.004983 40.200753 
L 52.684351 39.585384 
L 53.590174 38.637186 
L 53.81663 38.460287 
L 54.495997 38.251631 
L 54.948909 37.982934 
L 56.081188 36.91725 
L 56.760555 36.640834 
L 56.987011 36.506972 
L 57.666378 35.641572 
L 58.345746 35.275684 
L 59.704481 34.160394 
L 59.930936 33.929857 
L 60.383848 33.713409 
L 61.289671 33.103196 
L 63.101318 32.227559 
L 63.327773 32.042315 
L 63.780685 32.050285 
L 64.233597 31.838069 
L 64.686508 31.700852 
L 65.365876 31.219263 
L 65.818787 31.102294 
L 66.498155 30.589258 
L 67.403978 30.324102 
L 67.856889 30.140966 
L 68.309801 29.989718 
L 68.762713 29.815355 
L 70.347903 28.934382 
L 71.253726 28.170909 
L 71.480182 74.381293 
L 71.933094 74.722755 
L 73.065373 75.535211 
L 74.197652 75.82854 
L 74.877019 75.631108 
L 75.329931 75.264659 
L 75.782842 74.790048 
L 76.915121 73.624923 
L 77.141577 73.533809 
L 77.594489 73.642771 
L 78.500312 73.456448 
L 80.085503 73.41274 
L 80.76487 73.154772 
L 81.897149 73.05191 
L 82.350061 72.864851 
L 84.161707 72.450376 
L 84.388163 72.515395 
L 85.293986 72.000131 
L 85.746898 71.90592 
L 85.973354 71.825266 
L 86.652721 71.901741 
L 87.332088 71.738841 
L 88.237912 71.468022 
L 88.464367 71.407215 
L 88.917279 71.503015 
L 89.596646 71.314102 
L 89.823102 71.408978 
L 90.276014 71.267271 
L 90.50247 71.321019 
L 90.728925 71.105771 
L 90.955381 71.143983 
L 91.408293 70.963754 
L 92.314116 70.862702 
L 92.540572 70.685801 
L 92.767028 70.802431 
L 92.993483 70.631158 
L 93.219939 70.657346 
L 93.672851 70.577011 
L 94.352218 70.484968 
L 94.80513 70.139107 
L 95.484497 70.529421 
L 96.843232 70.055128 
L 97.296144 70.020647 
L 97.975511 69.872544 
L 99.560702 69.661694 
L 99.787158 69.524755 
L 100.240069 69.619615 
L 100.466525 69.44247 
L 100.692981 69.553343 
L 100.919437 69.519569 
L 101.145892 69.316437 
L 101.372348 69.423764 
L 102.051716 69.290103 
L 102.504627 69.347671 
L 102.731083 69.253204 
L 102.957539 69.354735 
L 103.41045 69.057708 
L 103.863362 69.381056 
L 104.089818 69.765539 
L 104.316274 60.466327 
L 104.769185 61.02838 
L 104.995641 60.844729 
L 105.448553 61.02165 
L 105.675008 60.856043 
L 106.12792 60.228726 
L 106.580832 60.126609 
L 107.486655 59.983057 
L 108.166022 60.069682 
L 109.298301 60.089666 
L 109.751213 60.264864 
L 110.43058 60.310002 
L 111.336403 60.416715 
L 112.921594 60.458561 
L 113.374506 60.719976 
L 113.600961 60.669125 
L 114.053873 60.769593 
L 115.412608 60.612224 
L 115.865519 60.865739 
L 116.318431 60.799075 
L 116.544887 60.851938 
L 116.997798 60.687763 
L 117.677166 61.075409 
L 117.903622 61.045688 
L 118.356533 60.689429 
L 119.262357 60.626612 
L 119.488812 60.659026 
L 120.394636 60.402726 
L 122.206282 60.001179 
L 122.432738 59.650782 
L 123.791473 59.300363 
L 125.376663 58.981646 
L 129.679323 57.025478 
L 130.358691 56.429409 
L 132.170337 55.961565 
L 133.981984 54.444413 
L 134.887807 54.088862 
L 135.114263 54.141397 
L 136.246542 53.624218 
L 136.699453 53.194151 
L 136.925909 53.462641 
L 136.925909 53.462641 
" clip-path="url(#pb733f21892)" style="fill: none; stroke: #ffa500; stroke-width: 1.5; stroke-linecap: square"/>
   </g>
   <g id="patch_3">
    <path d="M 33.73 85.52 
L 33.73 25.44 
" style="fill: none; stroke: #000000; stroke-width: 0.8; stroke-linejoin: miter; stroke-linecap: square"/>
   </g>
   <g id="patch_4">
    <path d="M 141.84 85.52 
L 141.84 25.44 
" style="fill: none; stroke: #000000; stroke-width: 0.8; stroke-linejoin: miter; stroke-linecap: square"/>
   </g>
   <g id="patch_5">
    <path d="M 33.73 85.52 
L 141.84 85.52 
" style="fill: none; stroke: #000000; stroke-width: 0.8; stroke-linejoin: miter; stroke-linecap: square"/>
   </g>
   <g id="patch_6">
    <path d="M 33.73 25.44 
L 141.84 25.44 
" style="fill: none; stroke: #000000; stroke-width: 0.8; stroke-linejoin: miter; stroke-linecap: square"/>
   </g>
   <g id="text_6">
    <text style="font: 12px 'DejaVu Sans', 'Bitstream Vera Sans', 'Computer Modern Sans Serif', 'Lucida Grande', 'Verdana', 'Geneva', 'Lucid', 'Arial', 'Helvetica', 'Avant Garde', sans-serif; text-anchor: middle" x="87.785" y="19.44" transform="rotate(-0 87.785 19.44)">Training 1</text>
   </g>
  </g>
  <g id="axes_2">
   <g id="patch_7">
    <path d="M 175.57 85.52 
L 283.68 85.52 
L 283.68 25.44 
L 175.57 25.44 
z
" style="fill: #ffffff"/>
   </g>
   <g id="matplotlib.axis_3">
    <g id="xtick_4">
     <g id="line2d_8">
      <g>
       <use xlink:href="#m602b59d13e" x="180.484091" y="85.52" style="stroke: #000000; stroke-width: 0.8"/>
      </g>
     </g>
     <g id="text_7">
      <text style="font: 10px 'DejaVu Sans', 'Bitstream Vera Sans', 'Computer Modern Sans Serif', 'Lucida Grande', 'Verdana', 'Geneva', 'Lucid', 'Arial', 'Helvetica', 'Avant Garde', sans-serif; text-anchor: middle" x="180.484091" y="100.118438" transform="rotate(-0 180.484091 100.118438)">0</text>
     </g>
    </g>
    <g id="xtick_5">
     <g id="line2d_9">
      <g>
       <use xlink:href="#m602b59d13e" x="225.775251" y="85.52" style="stroke: #000000; stroke-width: 0.8"/>
      </g>
     </g>
     <g id="text_8">
      <text style="font: 10px 'DejaVu Sans', 'Bitstream Vera Sans', 'Computer Modern Sans Serif', 'Lucida Grande', 'Verdana', 'Geneva', 'Lucid', 'Arial', 'Helvetica', 'Avant Garde', sans-serif; text-anchor: middle" x="225.775251" y="100.118438" transform="rotate(-0 225.775251 100.118438)">200</text>
     </g>
    </g>
    <g id="xtick_6">
     <g id="line2d_10">
      <g>
       <use xlink:href="#m602b59d13e" x="271.066412" y="85.52" style="stroke: #000000; stroke-width: 0.8"/>
      </g>
     </g>
     <g id="text_9">
      <text style="font: 10px 'DejaVu Sans', 'Bitstream Vera Sans', 'Computer Modern Sans Serif', 'Lucida Grande', 'Verdana', 'Geneva', 'Lucid', 'Arial', 'Helvetica', 'Avant Garde', sans-serif; text-anchor: middle" x="271.066412" y="100.118438" transform="rotate(-0 271.066412 100.118438)">400</text>
     </g>
    </g>
   </g>
   <g id="matplotlib.axis_4">
    <g id="ytick_3">
     <g id="line2d_11">
      <g>
       <use xlink:href="#m6b52275fab" x="175.57" y="84.722561" style="stroke: #000000; stroke-width: 0.8"/>
      </g>
     </g>
     <g id="text_10">
      <text style="font: 10px 'DejaVu Sans', 'Bitstream Vera Sans', 'Computer Modern Sans Serif', 'Lucida Grande', 'Verdana', 'Geneva', 'Lucid', 'Arial', 'Helvetica', 'Avant Garde', sans-serif; text-anchor: end" x="168.57" y="88.52178" transform="rotate(-0 168.57 88.52178)">0.0</text>
     </g>
    </g>
    <g id="ytick_4">
     <g id="line2d_12">
      <g>
       <use xlink:href="#m6b52275fab" x="175.57" y="55.403528" style="stroke: #000000; stroke-width: 0.8"/>
      </g>
     </g>
     <g id="text_11">
      <text style="font: 10px 'DejaVu Sans', 'Bitstream Vera Sans', 'Computer Modern Sans Serif', 'Lucida Grande', 'Verdana', 'Geneva', 'Lucid', 'Arial', 'Helvetica', 'Avant Garde', sans-serif; text-anchor: end" x="168.57" y="59.202746" transform="rotate(-0 168.57 59.202746)">0.5</text>
     </g>
    </g>
    <g id="ytick_5">
     <g id="line2d_13">
      <g>
       <use xlink:href="#m6b52275fab" x="175.57" y="26.084494" style="stroke: #000000; stroke-width: 0.8"/>
      </g>
     </g>
     <g id="text_12">
      <text style="font: 10px 'DejaVu Sans', 'Bitstream Vera Sans', 'Computer Modern Sans Serif', 'Lucida Grande', 'Verdana', 'Geneva', 'Lucid', 'Arial', 'Helvetica', 'Avant Garde', sans-serif; text-anchor: end" x="168.57" y="29.883713" transform="rotate(-0 168.57 29.883713)">1.0</text>
     </g>
    </g>
   </g>
   <g id="line2d_14">
    <path d="M 180.484091 82.789091 
L 181.163458 82.0919 
L 181.842826 81.070212 
L 182.522193 79.561066 
L 183.201561 77.332582 
L 183.880928 74.086349 
L 184.560295 69.499756 
L 186.371942 55.516606 
L 187.051309 52.458458 
L 187.957132 49.572986 
L 188.862956 47.408998 
L 189.995235 45.284857 
L 191.353969 43.245923 
L 192.93916 41.300893 
L 194.750806 39.445504 
L 196.788909 37.671782 
L 199.279922 35.813231 
L 201.997392 34.059176 
L 205.167773 32.271183 
L 208.791066 30.476627 
L 213.093726 28.599576 
L 213.320182 73.380176 
L 214.452461 73.80544 
L 215.58474 73.89841 
L 216.264108 73.688493 
L 216.943475 73.234798 
L 218.528666 71.670364 
L 218.981577 71.724134 
L 220.793224 72.525724 
L 221.699047 72.578984 
L 223.057782 72.365299 
L 232.568925 70.217379 
L 236.64513 69.64164 
L 242.306525 68.985924 
L 245.929818 68.637803 
L 246.156274 54.005693 
L 247.288553 52.233408 
L 248.194376 51.214146 
L 249.100199 50.569153 
L 249.779566 50.319285 
L 250.68539 50.2615 
L 251.591213 50.463506 
L 252.723492 50.98342 
L 254.308682 52.002354 
L 258.158431 54.601472 
L 259.970078 55.504966 
L 261.555268 56.053302 
L 263.140459 56.374601 
L 264.725649 56.485012 
L 266.537296 56.379814 
L 268.575398 56.019321 
L 270.839956 55.373064 
L 273.557426 54.349713 
L 276.954263 52.823178 
L 278.765909 51.937869 
L 278.765909 51.937869 
" clip-path="url(#p16d513c0e0)" style="fill: none; stroke: #0000ff; stroke-width: 1.5; stroke-linecap: square"/>
   </g>
   <g id="line2d_15">
    <path d="M 180.484091 82.788896 
L 181.163458 82.091441 
L 181.842826 81.05343 
L 182.522193 79.506632 
L 183.201561 77.237008 
L 183.880928 73.943744 
L 184.560295 69.278639 
L 186.145486 56.487535 
L 187.051309 52.266199 
L 187.957132 49.336735 
L 188.6365 47.746946 
L 189.995235 45.134354 
L 191.127514 43.381103 
L 191.806881 42.602507 
L 192.259793 41.828688 
L 192.93916 41.271988 
L 193.392072 40.626929 
L 195.430174 38.564036 
L 199.732834 35.356432 
L 201.318025 34.254999 
L 201.544481 34.209885 
L 202.223848 33.709903 
L 202.903215 33.267833 
L 203.356127 32.94938 
L 204.488406 32.411176 
L 205.167773 32.152755 
L 207.432331 30.850449 
L 208.111699 30.678092 
L 208.338155 30.470797 
L 208.56461 30.427063 
L 209.017522 30.07662 
L 210.376257 29.433707 
L 212.867271 28.449416 
L 213.093726 28.170909 
L 213.320182 73.788569 
L 213.546638 73.737133 
L 213.99955 73.926696 
L 214.678917 74.050394 
L 215.58474 74.06097 
L 216.490563 73.736015 
L 217.169931 73.098113 
L 217.849298 72.145064 
L 218.528666 71.679218 
L 218.981577 71.592828 
L 219.887401 72.116287 
L 221.246135 72.358726 
L 222.60487 72.245682 
L 226.681075 71.325134 
L 227.133986 71.02926 
L 227.360442 71.068194 
L 228.039809 70.907715 
L 228.945633 70.877994 
L 229.851456 70.51425 
L 230.077912 70.526207 
L 230.304367 70.359582 
L 230.530823 70.536966 
L 231.663102 70.167848 
L 232.568925 70.057505 
L 234.154116 69.806413 
L 234.833483 69.735071 
L 235.059939 69.726866 
L 235.512851 69.525384 
L 236.192218 69.548796 
L 236.871586 69.495062 
L 237.550953 69.402009 
L 237.777409 69.469819 
L 238.003865 69.203356 
L 238.23032 69.32353 
L 238.683232 69.205423 
L 239.136144 69.218355 
L 239.815511 69.035165 
L 241.627158 68.887201 
L 244.118171 68.661357 
L 244.344627 68.673937 
L 244.797539 68.426523 
L 245.476906 68.288609 
L 245.929818 68.208007 
L 246.156274 54.513832 
L 246.609185 54.061038 
L 247.062097 53.200447 
L 247.288553 53.003445 
L 247.96792 51.980614 
L 248.194376 51.807928 
L 248.647287 50.983452 
L 249.100199 50.637685 
L 249.326655 50.620622 
L 249.779566 50.322769 
L 250.68539 50.114901 
L 251.138301 50.204219 
L 251.591213 50.231963 
L 253.629315 51.103197 
L 253.855771 51.248419 
L 254.308682 51.66298 
L 255.214506 52.332704 
L 255.667417 52.649699 
L 255.893873 52.814846 
L 256.346785 53.35148 
L 258.158431 54.489744 
L 258.837798 54.803866 
L 259.064254 55.169258 
L 259.29071 55.279969 
L 259.743622 55.218801 
L 260.422989 55.729953 
L 261.781724 56.185541 
L 262.234636 56.206237 
L 263.140459 56.420833 
L 263.59337 56.406594 
L 264.272738 56.455473 
L 264.952105 56.311625 
L 265.405017 56.270846 
L 265.857928 56.235769 
L 266.084384 56.331573 
L 270.6135 55.412023 
L 271.972235 54.854255 
L 273.783881 54.09549 
L 274.236793 54.009206 
L 274.689705 53.808486 
L 275.142616 53.469727 
L 275.595528 53.373454 
L 278.312997 52.007555 
L 278.765909 51.253106 
L 278.765909 51.253106 
" clip-path="url(#p16d513c0e0)" style="fill: none; stroke: #ffa500; stroke-width: 1.5; stroke-linecap: square"/>
   </g>
   <g id="patch_8">
    <path d="M 175.57 85.52 
L 175.57 25.44 
" style="fill: none; stroke: #000000; stroke-width: 0.8; stroke-linejoin: miter; stroke-linecap: square"/>
   </g>
   <g id="patch_9">
    <path d="M 283.68 85.52 
L 283.68 25.44 
" style="fill: none; stroke: #000000; stroke-width: 0.8; stroke-linejoin: miter; stroke-linecap: square"/>
   </g>
   <g id="patch_10">
    <path d="M 175.57 85.52 
L 283.68 85.52 
" style="fill: none; stroke: #000000; stroke-width: 0.8; stroke-linejoin: miter; stroke-linecap: square"/>
   </g>
   <g id="patch_11">
    <path d="M 175.57 25.44 
L 283.68 25.44 
" style="fill: none; stroke: #000000; stroke-width: 0.8; stroke-linejoin: miter; stroke-linecap: square"/>
   </g>
   <g id="text_13">
    <text style="font: 12px 'DejaVu Sans', 'Bitstream Vera Sans', 'Computer Modern Sans Serif', 'Lucida Grande', 'Verdana', 'Geneva', 'Lucid', 'Arial', 'Helvetica', 'Avant Garde', sans-serif; text-anchor: middle" x="229.625" y="19.44" transform="rotate(-0 229.625 19.44)">Training 2</text>
   </g>
  </g>
  <g id="axes_3">
   <g id="patch_12">
    <path d="M 317.41 85.52 
L 425.52 85.52 
L 425.52 25.44 
L 317.41 25.44 
z
" style="fill: #ffffff"/>
   </g>
   <g id="matplotlib.axis_5">
    <g id="xtick_7">
     <g id="line2d_16">
      <g>
       <use xlink:href="#m602b59d13e" x="322.324091" y="85.52" style="stroke: #000000; stroke-width: 0.8"/>
      </g>
     </g>
     <g id="text_14">
      <text style="font: 10px 'DejaVu Sans', 'Bitstream Vera Sans', 'Computer Modern Sans Serif', 'Lucida Grande', 'Verdana', 'Geneva', 'Lucid', 'Arial', 'Helvetica', 'Avant Garde', sans-serif; text-anchor: middle" x="322.324091" y="100.118438" transform="rotate(-0 322.324091 100.118438)">0</text>
     </g>
    </g>
    <g id="xtick_8">
     <g id="line2d_17">
      <g>
       <use xlink:href="#m602b59d13e" x="367.615251" y="85.52" style="stroke: #000000; stroke-width: 0.8"/>
      </g>
     </g>
     <g id="text_15">
      <text style="font: 10px 'DejaVu Sans', 'Bitstream Vera Sans', 'Computer Modern Sans Serif', 'Lucida Grande', 'Verdana', 'Geneva', 'Lucid', 'Arial', 'Helvetica', 'Avant Garde', sans-serif; text-anchor: middle" x="367.615251" y="100.118438" transform="rotate(-0 367.615251 100.118438)">200</text>
     </g>
    </g>
    <g id="xtick_9">
     <g id="line2d_18">
      <g>
       <use xlink:href="#m602b59d13e" x="412.906412" y="85.52" style="stroke: #000000; stroke-width: 0.8"/>
      </g>
     </g>
     <g id="text_16">
      <text style="font: 10px 'DejaVu Sans', 'Bitstream Vera Sans', 'Computer Modern Sans Serif', 'Lucida Grande', 'Verdana', 'Geneva', 'Lucid', 'Arial', 'Helvetica', 'Avant Garde', sans-serif; text-anchor: middle" x="412.906412" y="100.118438" transform="rotate(-0 412.906412 100.118438)">400</text>
     </g>
    </g>
   </g>
   <g id="matplotlib.axis_6">
    <g id="ytick_6">
     <g id="line2d_19">
      <g>
       <use xlink:href="#m6b52275fab" x="317.41" y="85.458724" style="stroke: #000000; stroke-width: 0.8"/>
      </g>
     </g>
     <g id="text_17">
      <text style="font: 10px 'DejaVu Sans', 'Bitstream Vera Sans', 'Computer Modern Sans Serif', 'Lucida Grande', 'Verdana', 'Geneva', 'Lucid', 'Arial', 'Helvetica', 'Avant Garde', sans-serif; text-anchor: end" x="310.41" y="89.257942" transform="rotate(-0 310.41 89.257942)">0.0</text>
     </g>
    </g>
    <g id="ytick_7">
     <g id="line2d_20">
      <g>
       <use xlink:href="#m6b52275fab" x="317.41" y="54.544271" style="stroke: #000000; stroke-width: 0.8"/>
      </g>
     </g>
     <g id="text_18">
      <text style="font: 10px 'DejaVu Sans', 'Bitstream Vera Sans', 'Computer Modern Sans Serif', 'Lucida Grande', 'Verdana', 'Geneva', 'Lucid', 'Arial', 'Helvetica', 'Avant Garde', sans-serif; text-anchor: end" x="310.41" y="58.343489" transform="rotate(-0 310.41 58.343489)">0.5</text>
     </g>
    </g>
   </g>
   <g id="line2d_21">
    <path d="M 322.324091 82.656362 
L 323.003458 81.859199 
L 323.682826 80.758843 
L 324.362193 79.231856 
L 325.041561 77.114843 
L 325.720928 74.20938 
L 326.400295 70.302171 
L 327.306119 63.57509 
L 328.211942 57.081055 
L 328.891309 53.556624 
L 329.570677 50.968327 
L 330.4765 48.371863 
L 331.608779 45.914641 
L 332.741058 43.974369 
L 334.099793 42.066977 
L 335.684983 40.216876 
L 337.49663 38.432702 
L 339.761188 36.536687 
L 342.252202 34.748522 
L 345.196127 32.916789 
L 348.592964 31.075323 
L 352.442713 29.244257 
L 354.933726 28.170909 
L 355.160182 73.228427 
L 355.83955 73.93331 
L 356.292461 74.203938 
L 356.745373 74.281005 
L 357.198284 74.195758 
L 357.651196 73.867459 
L 358.104108 73.247764 
L 358.557019 72.329932 
L 359.236387 70.235894 
L 360.14221 66.274539 
L 361.048033 62.589354 
L 361.727401 60.795407 
L 362.633224 59.14021 
L 363.765503 57.582337 
L 365.350693 55.821036 
L 367.16234 54.212392 
L 368.973986 52.922367 
L 371.238544 51.588089 
L 374.18247 50.205464 
L 376.447028 49.337759 
L 379.843865 48.155183 
L 381.429055 47.65161 
L 384.599437 46.847023 
L 386.863995 46.324386 
L 387.769818 46.12499 
L 387.996274 29.552557 
L 388.675641 29.871132 
L 389.355008 30.447423 
L 390.260832 31.566244 
L 391.393111 33.410603 
L 392.978301 36.519676 
L 397.280961 45.289549 
L 398.866152 47.985851 
L 400.451343 50.246021 
L 401.810078 51.829413 
L 403.168812 53.097308 
L 404.527547 54.075373 
L 405.886282 54.791251 
L 407.245017 55.271351 
L 408.830207 55.578813 
L 410.415398 55.659883 
L 412.227044 55.515508 
L 414.265147 55.118015 
L 416.75616 54.390166 
L 419.700086 53.287277 
L 420.605909 52.911035 
L 420.605909 52.911035 
" clip-path="url(#pb52ab34a0f)" style="fill: none; stroke: #0000ff; stroke-width: 1.5; stroke-linecap: square"/>
   </g>
   <g id="line2d_22">
    <path d="M 322.324091 82.789091 
L 323.909282 80.379076 
L 324.588649 78.636537 
L 325.268016 76.228026 
L 325.947384 73.03648 
L 326.626751 68.803933 
L 327.532574 61.701174 
L 328.211942 56.860212 
L 328.891309 53.407694 
L 329.570677 50.708344 
L 330.702956 47.819504 
L 331.382323 46.274889 
L 332.06169 45.062045 
L 333.420425 42.649422 
L 334.099793 41.707908 
L 336.364351 39.296685 
L 336.590806 39.316527 
L 337.49663 38.632703 
L 338.175997 37.774509 
L 338.628909 37.542292 
L 339.08182 37.34936 
L 340.893467 36.205811 
L 341.346378 35.554152 
L 341.572834 35.327764 
L 341.79929 35.279856 
L 344.290304 33.4001 
L 345.422583 32.885103 
L 346.10195 32.476817 
L 346.328406 32.546686 
L 346.554862 32.482529 
L 346.781318 32.297398 
L 347.234229 32.3105 
L 347.913597 31.663001 
L 348.592964 31.194343 
L 349.951699 30.694069 
L 350.857522 30.087411 
L 351.536889 29.937759 
L 351.989801 29.757102 
L 352.442713 29.722446 
L 353.12208 29.454868 
L 353.801447 28.801709 
L 354.254359 28.683419 
L 354.480815 28.822929 
L 354.707271 28.445423 
L 354.933726 28.794442 
L 355.160182 72.597703 
L 355.613094 73.385186 
L 356.066005 73.73959 
L 356.518917 73.87245 
L 356.971829 73.977044 
L 357.42474 73.778906 
L 357.877652 73.340273 
L 358.330563 72.652856 
L 358.783475 71.658038 
L 359.462842 69.26946 
L 361.274489 61.814373 
L 361.727401 60.668878 
L 362.85968 58.688211 
L 363.086135 58.445594 
L 363.765503 57.335452 
L 363.991959 56.995941 
L 364.218414 56.859246 
L 366.256517 54.324307 
L 367.615251 53.356432 
L 367.841707 53.045198 
L 368.068163 53.051249 
L 368.521075 52.718766 
L 368.973986 52.307705 
L 369.426898 51.840944 
L 370.332721 51.624323 
L 371.238544 51.107815 
L 371.465 51.173181 
L 371.691456 51.094098 
L 371.917912 50.882135 
L 372.370823 50.78756 
L 372.823735 50.461975 
L 373.956014 50.102737 
L 374.861837 49.508956 
L 375.088293 49.64006 
L 375.994116 49.505082 
L 376.673483 49.108121 
L 376.899939 48.94337 
L 377.126395 48.945257 
L 378.258674 48.49319 
L 378.711586 48.33414 
L 378.938041 48.050178 
L 380.296776 47.81112 
L 380.749688 47.430983 
L 381.202599 47.469535 
L 381.429055 47.567873 
L 382.561334 47.189607 
L 382.78779 47.256223 
L 383.920069 46.905914 
L 384.372981 47.138654 
L 384.825892 46.891331 
L 385.50526 46.969975 
L 386.184627 46.616084 
L 386.637539 46.568688 
L 387.316906 46.343741 
L 387.543362 46.339374 
L 387.769818 46.159193 
L 387.996274 29.474713 
L 388.222729 29.489134 
L 388.449185 30.173897 
L 388.675641 30.267544 
L 388.902097 29.98873 
L 389.128553 30.226262 
L 390.260832 32.260122 
L 390.487287 32.300494 
L 390.713743 32.178857 
L 394.11058 38.533001 
L 397.054506 44.784605 
L 397.960329 46.406148 
L 398.186785 46.648994 
L 398.866152 47.856343 
L 399.545519 48.650073 
L 400.677798 50.285774 
L 401.357166 51.036317 
L 401.810078 51.596783 
L 402.036533 51.655051 
L 402.489445 52.391011 
L 403.168812 52.61853 
L 403.395268 52.666807 
L 403.621724 53.124063 
L 404.074636 53.334755 
L 404.301091 53.458087 
L 404.527547 53.79591 
L 404.754003 53.812947 
L 405.206915 54.299114 
L 405.886282 54.666086 
L 406.112738 54.597258 
L 406.339194 54.783284 
L 407.018561 54.813271 
L 407.245017 54.997668 
L 407.471473 54.973176 
L 408.15084 55.323474 
L 408.377296 55.395906 
L 408.603752 55.239147 
L 408.830207 55.246996 
L 409.056663 55.481934 
L 409.283119 55.529391 
L 409.736031 55.408331 
L 409.962486 55.499116 
L 410.415398 55.447648 
L 411.094765 55.433459 
L 411.774133 55.25761 
L 412.000589 55.368939 
L 413.132868 55.200136 
L 413.585779 55.100432 
L 413.812235 55.128514 
L 414.265147 55.005114 
L 415.623881 54.782115 
L 416.303249 54.537795 
L 417.661984 53.820306 
L 417.888439 53.875018 
L 419.926542 53.020661 
L 420.379453 52.732906 
L 420.605909 53.396668 
L 420.605909 53.396668 
" clip-path="url(#pb52ab34a0f)" style="fill: none; stroke: #ffa500; stroke-width: 1.5; stroke-linecap: square"/>
   </g>
   <g id="patch_13">
    <path d="M 317.41 85.52 
L 317.41 25.44 
" style="fill: none; stroke: #000000; stroke-width: 0.8; stroke-linejoin: miter; stroke-linecap: square"/>
   </g>
   <g id="patch_14">
    <path d="M 425.52 85.52 
L 425.52 25.44 
" style="fill: none; stroke: #000000; stroke-width: 0.8; stroke-linejoin: miter; stroke-linecap: square"/>
   </g>
   <g id="patch_15">
    <path d="M 317.41 85.52 
L 425.52 85.52 
" style="fill: none; stroke: #000000; stroke-width: 0.8; stroke-linejoin: miter; stroke-linecap: square"/>
   </g>
   <g id="patch_16">
    <path d="M 317.41 25.44 
L 425.52 25.44 
" style="fill: none; stroke: #000000; stroke-width: 0.8; stroke-linejoin: miter; stroke-linecap: square"/>
   </g>
   <g id="text_19">
    <text style="font: 12px 'DejaVu Sans', 'Bitstream Vera Sans', 'Computer Modern Sans Serif', 'Lucida Grande', 'Verdana', 'Geneva', 'Lucid', 'Arial', 'Helvetica', 'Avant Garde', sans-serif; text-anchor: middle" x="371.465" y="19.44" transform="rotate(-0 371.465 19.44)">Training 3</text>
   </g>
  </g>
  <g id="axes_4">
   <g id="patch_17">
    <path d="M 459.25 85.52 
L 567.36 85.52 
L 567.36 25.44 
L 459.25 25.44 
z
" style="fill: #ffffff"/>
   </g>
   <g id="matplotlib.axis_7">
    <g id="xtick_10">
     <g id="line2d_23">
      <g>
       <use xlink:href="#m602b59d13e" x="464.164091" y="85.52" style="stroke: #000000; stroke-width: 0.8"/>
      </g>
     </g>
     <g id="text_20">
      <text style="font: 10px 'DejaVu Sans', 'Bitstream Vera Sans', 'Computer Modern Sans Serif', 'Lucida Grande', 'Verdana', 'Geneva', 'Lucid', 'Arial', 'Helvetica', 'Avant Garde', sans-serif; text-anchor: middle" x="464.164091" y="100.118438" transform="rotate(-0 464.164091 100.118438)">0</text>
     </g>
    </g>
    <g id="xtick_11">
     <g id="line2d_24">
      <g>
       <use xlink:href="#m602b59d13e" x="509.455251" y="85.52" style="stroke: #000000; stroke-width: 0.8"/>
      </g>
     </g>
     <g id="text_21">
      <text style="font: 10px 'DejaVu Sans', 'Bitstream Vera Sans', 'Computer Modern Sans Serif', 'Lucida Grande', 'Verdana', 'Geneva', 'Lucid', 'Arial', 'Helvetica', 'Avant Garde', sans-serif; text-anchor: middle" x="509.455251" y="100.118438" transform="rotate(-0 509.455251 100.118438)">200</text>
     </g>
    </g>
    <g id="xtick_12">
     <g id="line2d_25">
      <g>
       <use xlink:href="#m602b59d13e" x="554.746412" y="85.52" style="stroke: #000000; stroke-width: 0.8"/>
      </g>
     </g>
     <g id="text_22">
      <text style="font: 10px 'DejaVu Sans', 'Bitstream Vera Sans', 'Computer Modern Sans Serif', 'Lucida Grande', 'Verdana', 'Geneva', 'Lucid', 'Arial', 'Helvetica', 'Avant Garde', sans-serif; text-anchor: middle" x="554.746412" y="100.118438" transform="rotate(-0 554.746412 100.118438)">400</text>
     </g>
    </g>
   </g>
   <g id="matplotlib.axis_8">
    <g id="ytick_8">
     <g id="line2d_26">
      <g>
       <use xlink:href="#m6b52275fab" x="459.25" y="84.760223" style="stroke: #000000; stroke-width: 0.8"/>
      </g>
     </g>
     <g id="text_23">
      <text style="font: 10px 'DejaVu Sans', 'Bitstream Vera Sans', 'Computer Modern Sans Serif', 'Lucida Grande', 'Verdana', 'Geneva', 'Lucid', 'Arial', 'Helvetica', 'Avant Garde', sans-serif; text-anchor: end" x="452.25" y="88.559442" transform="rotate(-0 452.25 88.559442)">0.0</text>
     </g>
    </g>
    <g id="ytick_9">
     <g id="line2d_27">
      <g>
       <use xlink:href="#m6b52275fab" x="459.25" y="53.618619" style="stroke: #000000; stroke-width: 0.8"/>
      </g>
     </g>
     <g id="text_24">
      <text style="font: 10px 'DejaVu Sans', 'Bitstream Vera Sans', 'Computer Modern Sans Serif', 'Lucida Grande', 'Verdana', 'Geneva', 'Lucid', 'Arial', 'Helvetica', 'Avant Garde', sans-serif; text-anchor: end" x="452.25" y="57.417838" transform="rotate(-0 452.25 57.417838)">0.5</text>
     </g>
    </g>
   </g>
   <g id="line2d_28">
    <path d="M 464.164091 82.789091 
L 465.069914 82.005933 
L 465.749282 81.165848 
L 466.428649 80.0138 
L 467.108016 78.431595 
L 467.787384 76.267776 
L 468.466751 73.340766 
L 469.146119 69.476624 
L 470.278398 61.246352 
L 471.184221 55.388801 
L 471.863588 52.275904 
L 472.769411 49.250513 
L 473.675235 46.989814 
L 474.807514 44.768456 
L 476.166248 42.648496 
L 477.751439 40.637198 
L 479.563085 38.728183 
L 481.601188 36.911076 
L 484.092202 35.013584 
L 486.809671 33.228287 
L 489.980052 31.412423 
L 493.603345 29.593526 
L 496.773726 28.170909 
L 497.000182 73.211462 
L 497.906005 74.54195 
L 498.585373 75.168896 
L 499.26474 75.520484 
L 499.717652 75.530911 
L 500.170563 75.353889 
L 500.623475 74.965029 
L 501.076387 74.305944 
L 501.755754 72.780898 
L 502.435121 70.558419 
L 503.793856 65.715513 
L 504.473224 64.118627 
L 505.379047 62.633718 
L 506.511326 61.232099 
L 508.096517 59.701866 
L 509.681707 58.481718 
L 511.719809 57.207455 
L 514.210823 55.985292 
L 516.475381 55.078339 
L 521.004497 53.593884 
L 528.251083 51.884472 
L 529.609818 51.595297 
L 529.836274 66.660259 
L 531.421464 65.652117 
L 533.006655 64.921016 
L 534.591845 64.451251 
L 536.629948 64.117101 
L 543.423622 63.255204 
L 545.914636 62.620079 
L 548.632105 61.691209 
L 551.802486 60.359637 
L 555.878691 58.384059 
L 562.445909 54.9266 
L 562.445909 54.9266 
" clip-path="url(#p0034777e90)" style="fill: none; stroke: #0000ff; stroke-width: 1.5; stroke-linecap: square"/>
   </g>
   <g id="line2d_29">
    <path d="M 464.164091 82.785707 
L 464.843458 82.235517 
L 465.522826 81.46912 
L 466.428649 80.050796 
L 466.881561 79.065969 
L 467.560928 77.055909 
L 468.240295 74.31531 
L 469.146119 69.238685 
L 470.051942 62.850658 
L 470.957765 56.76947 
L 471.863588 52.501757 
L 472.542956 50.12364 
L 473.448779 47.6264 
L 474.807514 44.879708 
L 475.713337 43.499579 
L 477.751439 40.524316 
L 481.374732 37.052209 
L 481.601188 36.996634 
L 482.054099 36.676929 
L 482.280555 36.643109 
L 483.865746 35.310584 
L 484.318657 34.963315 
L 485.903848 33.696521 
L 487.262583 33.076381 
L 488.394862 32.606291 
L 488.621318 32.340601 
L 489.300685 32.115033 
L 489.753597 31.713169 
L 492.24461 30.436345 
L 492.471066 30.194833 
L 493.829801 29.665843 
L 494.96208 29.071849 
L 495.188536 29.031744 
L 496.547271 28.197148 
L 496.773726 28.401113 
L 497.000182 73.706959 
L 497.906005 74.825965 
L 498.358917 75.253125 
L 499.038284 75.675716 
L 499.717652 75.766775 
L 500.397019 75.340785 
L 500.849931 74.792122 
L 501.755754 72.877349 
L 502.888033 68.849433 
L 503.567401 66.425019 
L 504.246768 64.422711 
L 505.152591 62.795659 
L 506.964238 60.598943 
L 507.870061 59.748551 
L 509.228796 58.365612 
L 509.681707 58.049803 
L 509.908163 58.040873 
L 511.040442 57.169557 
L 512.172721 56.506595 
L 512.852088 56.313593 
L 513.305 55.876831 
L 513.531456 55.79417 
L 513.984367 55.484621 
L 514.437279 55.604733 
L 515.116646 55.269009 
L 515.343102 55.237942 
L 516.02247 54.662706 
L 516.248925 54.570194 
L 516.928293 54.590725 
L 517.381204 54.528475 
L 517.60766 54.420253 
L 518.287028 53.767255 
L 520.098674 53.28213 
L 521.004497 53.100811 
L 522.136776 52.799987 
L 522.363232 52.860264 
L 523.042599 52.692603 
L 523.495511 52.616451 
L 525.307158 52.032195 
L 525.533613 52.033041 
L 525.986525 51.843064 
L 526.439437 51.804719 
L 527.571716 51.444523 
L 527.798171 51.429261 
L 528.024627 51.630795 
L 528.251083 51.62869 
L 528.703995 51.421892 
L 529.156906 51.429213 
L 529.383362 51.428467 
L 529.609818 51.290025 
L 529.836274 66.44057 
L 530.062729 66.680512 
L 530.289185 66.475192 
L 530.515641 66.098264 
L 530.742097 66.047674 
L 530.968553 65.859252 
L 531.195008 65.463664 
L 531.64792 65.414117 
L 532.327287 64.987208 
L 532.780199 64.881598 
L 533.686022 64.505845 
L 534.818301 64.22088 
L 535.271213 64.192384 
L 535.497669 64.005208 
L 536.629948 63.909908 
L 536.856403 63.979779 
L 537.762227 63.660929 
L 537.988682 63.699272 
L 538.441594 63.631876 
L 538.66805 63.57416 
L 538.894506 63.640899 
L 539.347417 63.470839 
L 540.026785 63.337825 
L 540.706152 63.151243 
L 541.385519 63.327775 
L 541.611975 63.163555 
L 541.838431 63.256372 
L 542.517798 63.032158 
L 543.197166 63.183141 
L 544.329445 62.691219 
L 544.555901 62.783303 
L 545.914636 62.338487 
L 546.141091 62.276457 
L 546.367547 62.409276 
L 546.594003 62.159409 
L 546.820459 62.082693 
L 547.27337 61.760902 
L 547.726282 61.59226 
L 548.405649 61.456502 
L 548.858561 61.162627 
L 549.085017 61.236825 
L 549.537928 60.995617 
L 549.764384 60.971758 
L 549.99084 60.787572 
L 550.217296 60.857573 
L 550.670207 60.551174 
L 550.896663 60.547846 
L 551.576031 59.941329 
L 551.802486 60.081911 
L 553.387677 59.320714 
L 553.614133 59.329319 
L 554.2935 58.864738 
L 555.199323 58.839451 
L 556.558058 57.875878 
L 557.01097 57.796588 
L 558.369705 57.06996 
L 558.822616 56.831598 
L 559.728439 56.328864 
L 560.181351 56.179875 
L 560.860718 55.630528 
L 562.219453 54.974582 
L 562.445909 55.087671 
L 562.445909 55.087671 
" clip-path="url(#p0034777e90)" style="fill: none; stroke: #ffa500; stroke-width: 1.5; stroke-linecap: square"/>
   </g>
   <g id="patch_18">
    <path d="M 459.25 85.52 
L 459.25 25.44 
" style="fill: none; stroke: #000000; stroke-width: 0.8; stroke-linejoin: miter; stroke-linecap: square"/>
   </g>
   <g id="patch_19">
    <path d="M 567.36 85.52 
L 567.36 25.44 
" style="fill: none; stroke: #000000; stroke-width: 0.8; stroke-linejoin: miter; stroke-linecap: square"/>
   </g>
   <g id="patch_20">
    <path d="M 459.25 85.52 
L 567.36 85.52 
" style="fill: none; stroke: #000000; stroke-width: 0.8; stroke-linejoin: miter; stroke-linecap: square"/>
   </g>
   <g id="patch_21">
    <path d="M 459.25 25.44 
L 567.36 25.44 
" style="fill: none; stroke: #000000; stroke-width: 0.8; stroke-linejoin: miter; stroke-linecap: square"/>
   </g>
   <g id="text_25">
    <text style="font: 12px 'DejaVu Sans', 'Bitstream Vera Sans', 'Computer Modern Sans Serif', 'Lucida Grande', 'Verdana', 'Geneva', 'Lucid', 'Arial', 'Helvetica', 'Avant Garde', sans-serif; text-anchor: middle" x="513.305" y="19.44" transform="rotate(-0 513.305 19.44)">Training 4</text>
   </g>
  </g>
  <g id="axes_5">
   <g id="patch_22">
    <path d="M 601.09 85.52 
L 709.2 85.52 
L 709.2 25.44 
L 601.09 25.44 
z
" style="fill: #ffffff"/>
   </g>
   <g id="matplotlib.axis_9">
    <g id="xtick_13">
     <g id="line2d_30">
      <g>
       <use xlink:href="#m602b59d13e" x="606.004091" y="85.52" style="stroke: #000000; stroke-width: 0.8"/>
      </g>
     </g>
     <g id="text_26">
      <text style="font: 10px 'DejaVu Sans', 'Bitstream Vera Sans', 'Computer Modern Sans Serif', 'Lucida Grande', 'Verdana', 'Geneva', 'Lucid', 'Arial', 'Helvetica', 'Avant Garde', sans-serif; text-anchor: middle" x="606.004091" y="100.118438" transform="rotate(-0 606.004091 100.118438)">0</text>
     </g>
    </g>
    <g id="xtick_14">
     <g id="line2d_31">
      <g>
       <use xlink:href="#m602b59d13e" x="651.295251" y="85.52" style="stroke: #000000; stroke-width: 0.8"/>
      </g>
     </g>
     <g id="text_27">
      <text style="font: 10px 'DejaVu Sans', 'Bitstream Vera Sans', 'Computer Modern Sans Serif', 'Lucida Grande', 'Verdana', 'Geneva', 'Lucid', 'Arial', 'Helvetica', 'Avant Garde', sans-serif; text-anchor: middle" x="651.295251" y="100.118438" transform="rotate(-0 651.295251 100.118438)">200</text>
     </g>
    </g>
    <g id="xtick_15">
     <g id="line2d_32">
      <g>
       <use xlink:href="#m602b59d13e" x="696.586412" y="85.52" style="stroke: #000000; stroke-width: 0.8"/>
      </g>
     </g>
     <g id="text_28">
      <text style="font: 10px 'DejaVu Sans', 'Bitstream Vera Sans', 'Computer Modern Sans Serif', 'Lucida Grande', 'Verdana', 'Geneva', 'Lucid', 'Arial', 'Helvetica', 'Avant Garde', sans-serif; text-anchor: middle" x="696.586412" y="100.118438" transform="rotate(-0 696.586412 100.118438)">400</text>
     </g>
    </g>
   </g>
   <g id="matplotlib.axis_10">
    <g id="ytick_10">
     <g id="line2d_33">
      <g>
       <use xlink:href="#m6b52275fab" x="601.09" y="85.030581" style="stroke: #000000; stroke-width: 0.8"/>
      </g>
     </g>
     <g id="text_29">
      <text style="font: 10px 'DejaVu Sans', 'Bitstream Vera Sans', 'Computer Modern Sans Serif', 'Lucida Grande', 'Verdana', 'Geneva', 'Lucid', 'Arial', 'Helvetica', 'Avant Garde', sans-serif; text-anchor: end" x="594.09" y="88.8298" transform="rotate(-0 594.09 88.8298)">0.0</text>
     </g>
    </g>
    <g id="ytick_11">
     <g id="line2d_34">
      <g>
       <use xlink:href="#m6b52275fab" x="601.09" y="54.957307" style="stroke: #000000; stroke-width: 0.8"/>
      </g>
     </g>
     <g id="text_30">
      <text style="font: 10px 'DejaVu Sans', 'Bitstream Vera Sans', 'Computer Modern Sans Serif', 'Lucida Grande', 'Verdana', 'Geneva', 'Lucid', 'Arial', 'Helvetica', 'Avant Garde', sans-serif; text-anchor: end" x="594.09" y="58.756525" transform="rotate(-0 594.09 58.756525)">0.5</text>
     </g>
    </g>
   </g>
   <g id="line2d_35">
    <path d="M 606.004091 82.777495 
L 606.683458 82.035182 
L 607.362826 80.9734 
L 608.042193 79.444021 
L 608.721561 77.242312 
L 609.400928 74.110918 
L 610.080295 69.772153 
L 612.118398 54.727407 
L 612.797765 51.82132 
L 613.703588 49.017197 
L 614.609411 46.888416 
L 615.74169 44.783253 
L 617.100425 42.753164 
L 618.685616 40.810936 
L 620.497262 38.955222 
L 622.535364 37.179102 
L 625.026378 35.316454 
L 627.743848 33.5576 
L 630.914229 31.763591 
L 634.537522 29.962287 
L 638.613726 28.170909 
L 638.840182 73.60285 
L 639.746005 74.231174 
L 640.425373 74.456986 
L 641.10474 74.494644 
L 641.557652 74.326385 
L 642.237019 73.763785 
L 642.689931 73.113668 
L 643.595754 71.254748 
L 644.275121 70.095511 
L 644.728033 69.687226 
L 645.633856 69.345607 
L 647.445503 68.715489 
L 652.653986 66.53081 
L 655.597912 65.624506 
L 658.768293 64.859912 
L 662.844497 64.068909 
L 671.449818 62.757832 
L 671.676274 48.471529 
L 672.582097 47.535231 
L 673.261464 47.086212 
L 673.940832 46.851239 
L 674.620199 46.816458 
L 675.526022 47.044027 
L 676.431845 47.526989 
L 677.564124 48.388683 
L 679.375771 50.084402 
L 682.546152 53.045229 
L 684.357798 54.393624 
L 685.942989 55.290412 
L 687.52818 55.918822 
L 689.11337 56.29236 
L 690.698561 56.439973 
L 692.510207 56.365859 
L 694.54831 56.026632 
L 696.812868 55.407138 
L 699.530337 54.411137 
L 702.927174 52.918667 
L 704.285909 52.271293 
L 704.285909 52.271293 
" clip-path="url(#p1c4bd37ddf)" style="fill: none; stroke: #0000ff; stroke-width: 1.5; stroke-linecap: square"/>
   </g>
   <g id="line2d_36">
    <path d="M 606.004091 82.789091 
L 606.909914 81.707197 
L 607.589282 80.529069 
L 608.268649 78.814441 
L 608.948016 76.339523 
L 609.627384 72.92566 
L 610.306751 68.249851 
L 611.891942 56.190263 
L 612.571309 52.865025 
L 613.477132 49.828737 
L 614.609411 47.043328 
L 617.100425 42.884744 
L 618.232704 41.458228 
L 618.45916 41.104298 
L 618.685616 41.029797 
L 619.138527 40.406195 
L 622.082453 37.595534 
L 623.667643 36.446856 
L 624.799922 35.779531 
L 626.158657 34.689342 
L 627.064481 34.106692 
L 627.743848 33.652094 
L 628.19676 33.451172 
L 628.876127 33.01964 
L 631.820052 31.501806 
L 633.631699 30.69649 
L 633.858155 30.472029 
L 634.311066 30.323326 
L 635.669801 29.692855 
L 638.160815 28.642769 
L 638.387271 28.206275 
L 638.613726 28.730422 
L 638.840182 73.622082 
L 639.293094 74.008187 
L 640.198917 74.473545 
L 641.10474 74.641237 
L 641.557652 74.506458 
L 642.237019 73.981602 
L 642.916387 72.869026 
L 644.501577 70.008848 
L 644.954489 69.624646 
L 646.992591 69.005873 
L 648.577782 68.305094 
L 649.257149 68.002607 
L 651.068796 66.966185 
L 651.748163 66.809011 
L 652.880442 66.5173 
L 653.333354 66.277785 
L 654.692088 65.763251 
L 656.730191 65.385407 
L 657.183102 65.364768 
L 658.541837 64.844113 
L 658.994749 64.881223 
L 659.44766 64.619725 
L 659.674116 64.674587 
L 660.353483 64.545311 
L 660.806395 64.482226 
L 661.485762 64.320506 
L 662.844497 64.118596 
L 663.297409 64.168065 
L 663.523865 64.022822 
L 663.976776 63.964758 
L 664.203232 63.93478 
L 664.656144 63.635515 
L 666.694246 63.488872 
L 667.600069 63.181212 
L 667.826525 63.154043 
L 668.279437 63.276008 
L 670.091083 62.925039 
L 670.77045 63.067291 
L 670.996906 62.871404 
L 671.223362 62.826125 
L 671.449818 63.005637 
L 671.676274 49.108991 
L 671.902729 49.168868 
L 672.129185 48.82484 
L 672.355641 48.776793 
L 673.261464 47.89237 
L 673.48792 47.693965 
L 673.714376 47.822355 
L 674.393743 47.606139 
L 675.752478 47.79945 
L 678.017036 49.310763 
L 679.375771 50.536512 
L 680.055138 51.198667 
L 681.640329 52.859916 
L 681.866785 52.901491 
L 683.451975 54.315955 
L 683.904887 54.502297 
L 685.490078 55.572608 
L 685.716533 55.617915 
L 685.942989 55.826092 
L 686.395901 55.901538 
L 688.886915 56.570665 
L 692.736663 56.72071 
L 693.642486 56.443761 
L 694.774765 56.196081 
L 695.680589 55.977354 
L 696.586412 55.879657 
L 697.039323 55.61527 
L 698.171602 55.127638 
L 699.756793 54.532809 
L 701.115528 53.969775 
L 701.341984 53.809439 
L 701.794895 53.684225 
L 702.474263 53.351712 
L 702.927174 53.14495 
L 703.832997 52.632199 
L 704.059453 52.468339 
L 704.285909 52.645665 
L 704.285909 52.645665 
" clip-path="url(#p1c4bd37ddf)" style="fill: none; stroke: #ffa500; stroke-width: 1.5; stroke-linecap: square"/>
   </g>
   <g id="patch_23">
    <path d="M 601.09 85.52 
L 601.09 25.44 
" style="fill: none; stroke: #000000; stroke-width: 0.8; stroke-linejoin: miter; stroke-linecap: square"/>
   </g>
   <g id="patch_24">
    <path d="M 709.2 85.52 
L 709.2 25.44 
" style="fill: none; stroke: #000000; stroke-width: 0.8; stroke-linejoin: miter; stroke-linecap: square"/>
   </g>
   <g id="patch_25">
    <path d="M 601.09 85.52 
L 709.2 85.52 
" style="fill: none; stroke: #000000; stroke-width: 0.8; stroke-linejoin: miter; stroke-linecap: square"/>
   </g>
   <g id="patch_26">
    <path d="M 601.09 25.44 
L 709.2 25.44 
" style="fill: none; stroke: #000000; stroke-width: 0.8; stroke-linejoin: miter; stroke-linecap: square"/>
   </g>
   <g id="text_31">
    <text style="font: 12px 'DejaVu Sans', 'Bitstream Vera Sans', 'Computer Modern Sans Serif', 'Lucida Grande', 'Verdana', 'Geneva', 'Lucid', 'Arial', 'Helvetica', 'Avant Garde', sans-serif; text-anchor: middle" x="655.145" y="19.44" transform="rotate(-0 655.145 19.44)">Training 5</text>
   </g>
  </g>
  <g id="axes_6">
   <g id="patch_27">
    <path d="M 33.73 188.12 
L 141.84 188.12 
L 141.84 128.04 
L 33.73 128.04 
z
" style="fill: #ffffff"/>
   </g>
   <g id="matplotlib.axis_11">
    <g id="xtick_16">
     <g id="line2d_37">
      <g>
       <use xlink:href="#m602b59d13e" x="38.644091" y="188.12" style="stroke: #000000; stroke-width: 0.8"/>
      </g>
     </g>
     <g id="text_32">
      <text style="font: 10px 'DejaVu Sans', 'Bitstream Vera Sans', 'Computer Modern Sans Serif', 'Lucida Grande', 'Verdana', 'Geneva', 'Lucid', 'Arial', 'Helvetica', 'Avant Garde', sans-serif; text-anchor: middle" x="38.644091" y="202.718437" transform="rotate(-0 38.644091 202.718437)">0</text>
     </g>
    </g>
    <g id="xtick_17">
     <g id="line2d_38">
      <g>
       <use xlink:href="#m602b59d13e" x="83.935251" y="188.12" style="stroke: #000000; stroke-width: 0.8"/>
      </g>
     </g>
     <g id="text_33">
      <text style="font: 10px 'DejaVu Sans', 'Bitstream Vera Sans', 'Computer Modern Sans Serif', 'Lucida Grande', 'Verdana', 'Geneva', 'Lucid', 'Arial', 'Helvetica', 'Avant Garde', sans-serif; text-anchor: middle" x="83.935251" y="202.718437" transform="rotate(-0 83.935251 202.718437)">200</text>
     </g>
    </g>
    <g id="xtick_18">
     <g id="line2d_39">
      <g>
       <use xlink:href="#m602b59d13e" x="129.226412" y="188.12" style="stroke: #000000; stroke-width: 0.8"/>
      </g>
     </g>
     <g id="text_34">
      <text style="font: 10px 'DejaVu Sans', 'Bitstream Vera Sans', 'Computer Modern Sans Serif', 'Lucida Grande', 'Verdana', 'Geneva', 'Lucid', 'Arial', 'Helvetica', 'Avant Garde', sans-serif; text-anchor: middle" x="129.226412" y="202.718437" transform="rotate(-0 129.226412 202.718437)">400</text>
     </g>
    </g>
   </g>
   <g id="matplotlib.axis_12">
    <g id="ytick_12">
     <g id="line2d_40">
      <g>
       <use xlink:href="#m6b52275fab" x="33.73" y="187.857258" style="stroke: #000000; stroke-width: 0.8"/>
      </g>
     </g>
     <g id="text_35">
      <text style="font: 10px 'DejaVu Sans', 'Bitstream Vera Sans', 'Computer Modern Sans Serif', 'Lucida Grande', 'Verdana', 'Geneva', 'Lucid', 'Arial', 'Helvetica', 'Avant Garde', sans-serif; text-anchor: end" x="26.73" y="191.656477" transform="rotate(-0 26.73 191.656477)">0.0</text>
     </g>
    </g>
    <g id="ytick_13">
     <g id="line2d_41">
      <g>
       <use xlink:href="#m6b52275fab" x="33.73" y="158.52663" style="stroke: #000000; stroke-width: 0.8"/>
      </g>
     </g>
     <g id="text_36">
      <text style="font: 10px 'DejaVu Sans', 'Bitstream Vera Sans', 'Computer Modern Sans Serif', 'Lucida Grande', 'Verdana', 'Geneva', 'Lucid', 'Arial', 'Helvetica', 'Avant Garde', sans-serif; text-anchor: end" x="26.73" y="162.325849" transform="rotate(-0 26.73 162.325849)">0.5</text>
     </g>
    </g>
    <g id="ytick_14">
     <g id="line2d_42">
      <g>
       <use xlink:href="#m6b52275fab" x="33.73" y="129.196002" style="stroke: #000000; stroke-width: 0.8"/>
      </g>
     </g>
     <g id="text_37">
      <text style="font: 10px 'DejaVu Sans', 'Bitstream Vera Sans', 'Computer Modern Sans Serif', 'Lucida Grande', 'Verdana', 'Geneva', 'Lucid', 'Arial', 'Helvetica', 'Avant Garde', sans-serif; text-anchor: end" x="26.73" y="132.995221" transform="rotate(-0 26.73 132.995221)">1.0</text>
     </g>
    </g>
   </g>
   <g id="line2d_43">
    <path d="M 38.644091 185.309541 
L 39.323458 184.388972 
L 40.002826 183.023525 
L 40.682193 180.987972 
L 41.361561 177.972686 
L 42.040928 173.6298 
L 44.07903 157.727796 
L 44.758398 154.785645 
L 45.664221 151.979203 
L 46.570044 149.864628 
L 47.702323 147.77722 
L 49.061058 145.764302 
L 50.646248 143.838215 
L 52.457895 141.996827 
L 54.495997 140.233148 
L 56.987011 138.382491 
L 59.930936 136.498135 
L 63.327773 134.612188 
L 67.177522 132.743667 
L 71.253726 130.994639 
L 71.480182 175.701772 
L 72.386005 175.72728 
L 73.065373 175.514857 
L 73.74474 175.109897 
L 74.424108 174.318716 
L 75.103475 173.14128 
L 75.782842 171.80801 
L 76.235754 171.397505 
L 76.688666 171.398035 
L 78.726768 172.104185 
L 79.632591 172.02946 
L 80.991326 171.642026 
L 87.785 169.478156 
L 91.181837 168.727129 
L 95.484497 167.97177 
L 104.089818 166.796186 
L 104.316274 173.202637 
L 105.901464 171.577679 
L 107.486655 170.280333 
L 109.071845 169.259995 
L 111.336403 168.102386 
L 121.074003 163.480026 
L 125.829575 160.78865 
L 136.925909 154.167683 
L 136.925909 154.167683 
" clip-path="url(#pc2fab999a8)" style="fill: none; stroke: #0000ff; stroke-width: 1.5; stroke-linecap: square"/>
   </g>
   <g id="line2d_44">
    <path d="M 38.644091 185.389091 
L 40.002826 183.107292 
L 40.682193 181.066042 
L 41.361561 178.138439 
L 42.040928 173.791659 
L 42.946751 165.984353 
L 43.626119 160.575812 
L 44.305486 156.731511 
L 44.758398 154.758082 
L 45.890677 151.439465 
L 48.155235 147.051168 
L 49.740425 144.791489 
L 51.09916 143.133701 
L 51.325616 143.015643 
L 52.004983 142.244476 
L 52.684351 141.630214 
L 53.137262 141.423176 
L 53.363718 141.293226 
L 54.043085 140.398182 
L 54.269541 140.345277 
L 54.722453 139.989996 
L 55.175364 139.832444 
L 56.307643 138.955869 
L 56.760555 138.740307 
L 57.213467 138.40389 
L 58.572202 137.127809 
L 59.478025 136.582222 
L 63.554229 134.167855 
L 64.233597 133.950048 
L 64.912964 133.739654 
L 65.592331 133.427761 
L 66.271699 133.137353 
L 66.72461 132.932411 
L 70.121447 131.443793 
L 70.574359 131.066131 
L 70.800815 130.984911 
L 71.027271 130.770909 
L 71.253726 131.008698 
L 71.480182 175.690722 
L 71.933094 175.787044 
L 72.612461 175.681536 
L 73.74474 175.044898 
L 74.424108 174.167834 
L 75.103475 172.929269 
L 75.782842 171.535368 
L 76.235754 171.028873 
L 76.688666 171.040731 
L 77.368033 171.310535 
L 77.820945 171.468499 
L 78.273856 171.465861 
L 78.500312 171.497223 
L 78.726768 171.399669 
L 79.406135 171.454339 
L 79.859047 171.39196 
L 81.217782 170.995679 
L 84.388163 169.955512 
L 85.293986 169.193257 
L 86.652721 168.897555 
L 87.105633 168.628876 
L 88.237912 168.472307 
L 89.370191 168.526681 
L 89.823102 168.273969 
L 90.276014 168.134524 
L 91.634749 167.932446 
L 92.08766 167.731344 
L 92.767028 167.82426 
L 93.219939 167.789339 
L 94.125762 167.372378 
L 94.578674 167.231398 
L 95.258041 167.12478 
L 95.937409 167.160713 
L 96.163865 166.971508 
L 99.787158 166.502771 
L 100.240069 166.532203 
L 100.692981 166.412214 
L 101.145892 166.284113 
L 101.598804 166.300143 
L 102.957539 166.13421 
L 103.183995 166.070936 
L 103.41045 166.20242 
L 103.636906 166.193939 
L 104.089818 166.055328 
L 104.316274 172.406335 
L 104.542729 172.706338 
L 104.769185 172.582769 
L 104.995641 172.085064 
L 105.448553 171.986531 
L 105.901464 171.389304 
L 106.12792 171.234121 
L 106.354376 170.756605 
L 106.580832 170.886637 
L 106.807287 170.451853 
L 107.260199 170.288296 
L 107.486655 170.065146 
L 107.939566 169.956101 
L 108.618934 169.550299 
L 108.84539 169.442487 
L 109.298301 169.064812 
L 109.751213 169.096597 
L 110.657036 168.426337 
L 110.883492 168.31354 
L 111.109948 168.043318 
L 111.336403 167.978215 
L 111.562859 167.790769 
L 112.468682 167.60135 
L 112.695138 167.448614 
L 113.14805 167.354396 
L 113.374506 167.307819 
L 114.053873 166.815984 
L 114.506785 166.749754 
L 114.959696 166.448275 
L 115.412608 166.531049 
L 115.639064 166.326606 
L 116.318431 166.158593 
L 117.45071 165.461247 
L 117.677166 165.479721 
L 119.488812 164.502027 
L 122.206282 163.055043 
L 122.432738 162.729975 
L 122.659194 162.694139 
L 123.112105 162.310601 
L 123.791473 162.082592 
L 130.132235 158.373397 
L 131.49097 157.709292 
L 132.396793 157.065453 
L 133.07616 156.83122 
L 133.529072 156.382912 
L 136.472997 154.511643 
L 136.699453 154.290022 
L 136.925909 154.576887 
L 136.925909 154.576887 
" clip-path="url(#pc2fab999a8)" style="fill: none; stroke: #ffa500; stroke-width: 1.5; stroke-linecap: square"/>
   </g>
   <g id="patch_28">
    <path d="M 33.73 188.12 
L 33.73 128.04 
" style="fill: none; stroke: #000000; stroke-width: 0.8; stroke-linejoin: miter; stroke-linecap: square"/>
   </g>
   <g id="patch_29">
    <path d="M 141.84 188.12 
L 141.84 128.04 
" style="fill: none; stroke: #000000; stroke-width: 0.8; stroke-linejoin: miter; stroke-linecap: square"/>
   </g>
   <g id="patch_30">
    <path d="M 33.73 188.12 
L 141.84 188.12 
" style="fill: none; stroke: #000000; stroke-width: 0.8; stroke-linejoin: miter; stroke-linecap: square"/>
   </g>
   <g id="patch_31">
    <path d="M 33.73 128.04 
L 141.84 128.04 
" style="fill: none; stroke: #000000; stroke-width: 0.8; stroke-linejoin: miter; stroke-linecap: square"/>
   </g>
   <g id="text_38">
    <text style="font: 12px 'DejaVu Sans', 'Bitstream Vera Sans', 'Computer Modern Sans Serif', 'Lucida Grande', 'Verdana', 'Geneva', 'Lucid', 'Arial', 'Helvetica', 'Avant Garde', sans-serif; text-anchor: middle" x="87.785" y="122.04" transform="rotate(-0 87.785 122.04)">Testing 1</text>
   </g>
  </g>
  <g id="axes_7">
   <g id="patch_32">
    <path d="M 175.57 188.12 
L 283.68 188.12 
L 283.68 128.04 
L 175.57 128.04 
z
" style="fill: #ffffff"/>
   </g>
   <g id="matplotlib.axis_13">
    <g id="xtick_19">
     <g id="line2d_45">
      <g>
       <use xlink:href="#m602b59d13e" x="180.484091" y="188.12" style="stroke: #000000; stroke-width: 0.8"/>
      </g>
     </g>
     <g id="text_39">
      <text style="font: 10px 'DejaVu Sans', 'Bitstream Vera Sans', 'Computer Modern Sans Serif', 'Lucida Grande', 'Verdana', 'Geneva', 'Lucid', 'Arial', 'Helvetica', 'Avant Garde', sans-serif; text-anchor: middle" x="180.484091" y="202.718437" transform="rotate(-0 180.484091 202.718437)">0</text>
     </g>
    </g>
    <g id="xtick_20">
     <g id="line2d_46">
      <g>
       <use xlink:href="#m602b59d13e" x="225.775251" y="188.12" style="stroke: #000000; stroke-width: 0.8"/>
      </g>
     </g>
     <g id="text_40">
      <text style="font: 10px 'DejaVu Sans', 'Bitstream Vera Sans', 'Computer Modern Sans Serif', 'Lucida Grande', 'Verdana', 'Geneva', 'Lucid', 'Arial', 'Helvetica', 'Avant Garde', sans-serif; text-anchor: middle" x="225.775251" y="202.718437" transform="rotate(-0 225.775251 202.718437)">200</text>
     </g>
    </g>
    <g id="xtick_21">
     <g id="line2d_47">
      <g>
       <use xlink:href="#m602b59d13e" x="271.066412" y="188.12" style="stroke: #000000; stroke-width: 0.8"/>
      </g>
     </g>
     <g id="text_41">
      <text style="font: 10px 'DejaVu Sans', 'Bitstream Vera Sans', 'Computer Modern Sans Serif', 'Lucida Grande', 'Verdana', 'Geneva', 'Lucid', 'Arial', 'Helvetica', 'Avant Garde', sans-serif; text-anchor: middle" x="271.066412" y="202.718437" transform="rotate(-0 271.066412 202.718437)">400</text>
     </g>
    </g>
   </g>
   <g id="matplotlib.axis_14">
    <g id="ytick_15">
     <g id="line2d_48">
      <g>
       <use xlink:href="#m6b52275fab" x="175.57" y="187.168737" style="stroke: #000000; stroke-width: 0.8"/>
      </g>
     </g>
     <g id="text_42">
      <text style="font: 10px 'DejaVu Sans', 'Bitstream Vera Sans', 'Computer Modern Sans Serif', 'Lucida Grande', 'Verdana', 'Geneva', 'Lucid', 'Arial', 'Helvetica', 'Avant Garde', sans-serif; text-anchor: end" x="168.57" y="190.967955" transform="rotate(-0 168.57 190.967955)">0.0</text>
     </g>
    </g>
    <g id="ytick_16">
     <g id="line2d_49">
      <g>
       <use xlink:href="#m6b52275fab" x="175.57" y="157.978522" style="stroke: #000000; stroke-width: 0.8"/>
      </g>
     </g>
     <g id="text_43">
      <text style="font: 10px 'DejaVu Sans', 'Bitstream Vera Sans', 'Computer Modern Sans Serif', 'Lucida Grande', 'Verdana', 'Geneva', 'Lucid', 'Arial', 'Helvetica', 'Avant Garde', sans-serif; text-anchor: end" x="168.57" y="161.777741" transform="rotate(-0 168.57 161.777741)">0.5</text>
     </g>
    </g>
    <g id="ytick_17">
     <g id="line2d_50">
      <g>
       <use xlink:href="#m6b52275fab" x="175.57" y="128.788307" style="stroke: #000000; stroke-width: 0.8"/>
      </g>
     </g>
     <g id="text_44">
      <text style="font: 10px 'DejaVu Sans', 'Bitstream Vera Sans', 'Computer Modern Sans Serif', 'Lucida Grande', 'Verdana', 'Geneva', 'Lucid', 'Arial', 'Helvetica', 'Avant Garde', sans-serif; text-anchor: end" x="168.57" y="132.587526" transform="rotate(-0 168.57 132.587526)">1.0</text>
     </g>
    </g>
   </g>
   <g id="line2d_51">
    <path d="M 180.484091 185.389091 
L 181.163458 184.705549 
L 181.842826 183.685019 
L 182.522193 182.14839 
L 183.201561 179.835603 
L 183.880928 176.408022 
L 184.560295 171.504215 
L 186.145486 158.589769 
L 186.824853 155.291936 
L 187.730677 152.256687 
L 188.6365 150.007512 
L 189.768779 147.820364 
L 191.127514 145.732204 
L 192.712704 143.747518 
L 194.524351 141.859119 
L 196.562453 140.05674 
L 199.053467 138.170513 
L 201.770936 136.392211 
L 204.941318 134.580742 
L 208.56461 132.763905 
L 212.867271 130.864535 
L 213.093726 130.770909 
L 213.320182 178.348924 
L 214.452461 178.273282 
L 215.358284 177.961291 
L 216.037652 177.482961 
L 216.717019 176.716766 
L 217.396387 175.545035 
L 218.30221 173.981331 
L 218.755121 173.699057 
L 219.208033 173.704889 
L 220.793224 173.950355 
L 221.925503 173.808407 
L 223.963605 173.22412 
L 227.586898 172.160277 
L 231.436646 171.305241 
L 236.192218 170.526702 
L 245.929818 169.35756 
L 246.156274 167.594468 
L 247.741464 165.203547 
L 248.873743 163.881477 
L 250.006022 162.92465 
L 251.138301 162.303458 
L 252.27058 161.951921 
L 253.629315 161.777284 
L 255.667417 161.773274 
L 259.29071 161.787042 
L 261.555268 161.548632 
L 263.819826 161.067599 
L 266.084384 160.364371 
L 268.801854 159.281408 
L 272.198691 157.667099 
L 277.180718 155.00698 
L 278.765909 154.126211 
L 278.765909 154.126211 
" clip-path="url(#p19edf15539)" style="fill: none; stroke: #0000ff; stroke-width: 1.5; stroke-linecap: square"/>
   </g>
   <g id="line2d_52">
    <path d="M 180.484091 185.322581 
L 181.163458 184.627381 
L 181.842826 183.610102 
L 182.522193 182.045106 
L 183.201561 179.665974 
L 183.880928 176.172394 
L 184.560295 171.211525 
L 185.91903 159.803142 
L 186.598398 156.174038 
L 187.504221 152.970463 
L 188.183588 151.016255 
L 189.542323 148.155947 
L 190.901058 145.976534 
L 192.93916 143.444084 
L 193.392072 142.920755 
L 194.977262 141.300237 
L 198.600555 138.39892 
L 199.506378 137.760314 
L 200.412202 137.114383 
L 200.865113 136.868132 
L 202.450304 135.757161 
L 203.129671 135.324875 
L 206.073597 133.737071 
L 206.97942 133.282025 
L 208.111699 132.938933 
L 208.56461 132.639699 
L 209.017522 132.325356 
L 209.923345 132.013185 
L 211.961447 131.0341 
L 212.187903 130.805884 
L 212.414359 130.938521 
L 213.093726 130.788116 
L 213.320182 178.308752 
L 213.773094 178.382323 
L 214.905373 178.197012 
L 215.58474 177.886862 
L 216.264108 177.316101 
L 216.943475 176.419367 
L 218.30221 174.078854 
L 218.755121 173.78945 
L 219.208033 173.801401 
L 221.01968 173.956963 
L 221.699047 173.945876 
L 225.548796 172.724524 
L 226.001707 172.637978 
L 227.586898 172.179901 
L 228.039809 172.07521 
L 229.172088 171.858797 
L 230.983735 171.464659 
L 232.34247 171.212343 
L 232.795381 171.079935 
L 233.92766 170.850641 
L 235.512851 170.663752 
L 235.739307 170.700042 
L 236.192218 170.596915 
L 236.871586 170.489627 
L 237.777409 170.473988 
L 238.003865 170.254264 
L 238.456776 170.329608 
L 239.362599 170.167735 
L 240.041967 170.092082 
L 240.494879 170.073861 
L 245.929818 169.334352 
L 246.382729 167.062669 
L 246.835641 166.396797 
L 248.647287 164.076385 
L 250.911845 162.4886 
L 251.817669 162.239269 
L 252.044124 162.29339 
L 252.497036 162.160561 
L 252.723492 162.206199 
L 253.402859 162.000743 
L 254.082227 162.072014 
L 255.214506 161.95392 
L 255.440961 161.857903 
L 255.667417 161.916077 
L 256.120329 161.883074 
L 257.026152 161.887672 
L 257.252608 161.992338 
L 257.931975 161.945974 
L 258.611343 161.954576 
L 259.29071 161.861035 
L 260.422989 161.851086 
L 260.649445 161.752867 
L 261.102357 161.815121 
L 262.234636 161.445999 
L 263.366915 161.202932 
L 264.499194 160.833668 
L 264.952105 160.624254 
L 266.537296 160.280559 
L 267.896031 159.64263 
L 269.481221 159.139239 
L 271.519323 158.109157 
L 272.878058 157.308869 
L 273.33097 157.086461 
L 276.048439 155.683661 
L 277.860086 154.608591 
L 278.312997 154.425894 
L 278.539453 154.218953 
L 278.765909 154.179827 
L 278.765909 154.179827 
" clip-path="url(#p19edf15539)" style="fill: none; stroke: #ffa500; stroke-width: 1.5; stroke-linecap: square"/>
   </g>
   <g id="patch_33">
    <path d="M 175.57 188.12 
L 175.57 128.04 
" style="fill: none; stroke: #000000; stroke-width: 0.8; stroke-linejoin: miter; stroke-linecap: square"/>
   </g>
   <g id="patch_34">
    <path d="M 283.68 188.12 
L 283.68 128.04 
" style="fill: none; stroke: #000000; stroke-width: 0.8; stroke-linejoin: miter; stroke-linecap: square"/>
   </g>
   <g id="patch_35">
    <path d="M 175.57 188.12 
L 283.68 188.12 
" style="fill: none; stroke: #000000; stroke-width: 0.8; stroke-linejoin: miter; stroke-linecap: square"/>
   </g>
   <g id="patch_36">
    <path d="M 175.57 128.04 
L 283.68 128.04 
" style="fill: none; stroke: #000000; stroke-width: 0.8; stroke-linejoin: miter; stroke-linecap: square"/>
   </g>
   <g id="text_45">
    <text style="font: 12px 'DejaVu Sans', 'Bitstream Vera Sans', 'Computer Modern Sans Serif', 'Lucida Grande', 'Verdana', 'Geneva', 'Lucid', 'Arial', 'Helvetica', 'Avant Garde', sans-serif; text-anchor: middle" x="229.625" y="122.04" transform="rotate(-0 229.625 122.04)">Testing 2</text>
   </g>
  </g>
  <g id="axes_8">
   <g id="patch_37">
    <path d="M 317.41 188.12 
L 425.52 188.12 
L 425.52 128.04 
L 317.41 128.04 
z
" style="fill: #ffffff"/>
   </g>
   <g id="matplotlib.axis_15">
    <g id="xtick_22">
     <g id="line2d_53">
      <g>
       <use xlink:href="#m602b59d13e" x="322.324091" y="188.12" style="stroke: #000000; stroke-width: 0.8"/>
      </g>
     </g>
     <g id="text_46">
      <text style="font: 10px 'DejaVu Sans', 'Bitstream Vera Sans', 'Computer Modern Sans Serif', 'Lucida Grande', 'Verdana', 'Geneva', 'Lucid', 'Arial', 'Helvetica', 'Avant Garde', sans-serif; text-anchor: middle" x="322.324091" y="202.718437" transform="rotate(-0 322.324091 202.718437)">0</text>
     </g>
    </g>
    <g id="xtick_23">
     <g id="line2d_54">
      <g>
       <use xlink:href="#m602b59d13e" x="367.615251" y="188.12" style="stroke: #000000; stroke-width: 0.8"/>
      </g>
     </g>
     <g id="text_47">
      <text style="font: 10px 'DejaVu Sans', 'Bitstream Vera Sans', 'Computer Modern Sans Serif', 'Lucida Grande', 'Verdana', 'Geneva', 'Lucid', 'Arial', 'Helvetica', 'Avant Garde', sans-serif; text-anchor: middle" x="367.615251" y="202.718437" transform="rotate(-0 367.615251 202.718437)">200</text>
     </g>
    </g>
    <g id="xtick_24">
     <g id="line2d_55">
      <g>
       <use xlink:href="#m602b59d13e" x="412.906412" y="188.12" style="stroke: #000000; stroke-width: 0.8"/>
      </g>
     </g>
     <g id="text_48">
      <text style="font: 10px 'DejaVu Sans', 'Bitstream Vera Sans', 'Computer Modern Sans Serif', 'Lucida Grande', 'Verdana', 'Geneva', 'Lucid', 'Arial', 'Helvetica', 'Avant Garde', sans-serif; text-anchor: middle" x="412.906412" y="202.718437" transform="rotate(-0 412.906412 202.718437)">400</text>
     </g>
    </g>
   </g>
   <g id="matplotlib.axis_16">
    <g id="ytick_18">
     <g id="line2d_56">
      <g>
       <use xlink:href="#m6b52275fab" x="317.41" y="187.854639" style="stroke: #000000; stroke-width: 0.8"/>
      </g>
     </g>
     <g id="text_49">
      <text style="font: 10px 'DejaVu Sans', 'Bitstream Vera Sans', 'Computer Modern Sans Serif', 'Lucida Grande', 'Verdana', 'Geneva', 'Lucid', 'Arial', 'Helvetica', 'Avant Garde', sans-serif; text-anchor: end" x="310.41" y="191.653858" transform="rotate(-0 310.41 191.653858)">0.0</text>
     </g>
    </g>
    <g id="ytick_19">
     <g id="line2d_57">
      <g>
       <use xlink:href="#m6b52275fab" x="317.41" y="157.552059" style="stroke: #000000; stroke-width: 0.8"/>
      </g>
     </g>
     <g id="text_50">
      <text style="font: 10px 'DejaVu Sans', 'Bitstream Vera Sans', 'Computer Modern Sans Serif', 'Lucida Grande', 'Verdana', 'Geneva', 'Lucid', 'Arial', 'Helvetica', 'Avant Garde', sans-serif; text-anchor: end" x="310.41" y="161.351278" transform="rotate(-0 310.41 161.351278)">0.5</text>
     </g>
    </g>
   </g>
   <g id="line2d_58">
    <path d="M 322.324091 185.306781 
L 323.003458 184.533775 
L 323.682826 183.450264 
L 324.362193 181.922362 
L 325.041561 179.769681 
L 325.720928 176.770114 
L 326.400295 172.687207 
L 328.664853 156.922755 
L 329.344221 154.212406 
L 330.250044 151.535666 
L 331.155867 149.483766 
L 332.288146 147.4372 
L 333.646881 145.453573 
L 335.232072 143.54942 
L 337.043718 141.725997 
L 339.08182 139.978353 
L 341.572834 138.143573 
L 344.51676 136.275121 
L 347.913597 134.404929 
L 351.763345 132.551942 
L 354.933726 131.185932 
L 355.160182 173.658951 
L 356.066005 174.88006 
L 356.745373 175.466148 
L 357.42474 175.817956 
L 357.877652 175.828919 
L 358.330563 175.659079 
L 358.783475 175.278956 
L 359.462842 174.231491 
L 360.595121 172.118118 
L 361.048033 171.622913 
L 361.727401 171.250981 
L 364.44487 170.065151 
L 368.521075 168.171045 
L 371.012088 167.28476 
L 373.956014 166.441958 
L 378.48513 165.422994 
L 387.769818 163.879487 
L 387.996274 160.703033 
L 388.902097 160.18851 
L 389.80792 159.886252 
L 390.940199 159.774656 
L 392.072478 159.898995 
L 393.657669 160.331382 
L 399.319064 162.14407 
L 401.13071 162.398126 
L 402.942357 162.434942 
L 404.980459 162.232516 
L 407.018561 161.807179 
L 409.509575 161.04111 
L 412.4535 159.881206 
L 416.303249 158.097811 
L 420.605909 155.923699 
L 420.605909 155.923699 
" clip-path="url(#pb2c9f9fb3f)" style="fill: none; stroke: #0000ff; stroke-width: 1.5; stroke-linecap: square"/>
   </g>
   <g id="line2d_59">
    <path d="M 322.324091 185.389091 
L 323.45637 183.902288 
L 324.135737 182.522868 
L 324.815105 180.561237 
L 325.494472 177.837658 
L 326.17384 174.097633 
L 327.079663 167.269292 
L 328.211942 158.980981 
L 328.891309 155.585261 
L 329.570677 153.135717 
L 330.4765 150.879942 
L 331.382323 149.058935 
L 333.193969 146.011745 
L 334.77916 143.905862 
L 335.005616 143.789548 
L 335.458527 143.167234 
L 338.855364 139.90046 
L 340.440555 138.985055 
L 340.667011 138.941172 
L 341.572834 137.981486 
L 342.025746 137.677005 
L 342.705113 137.28564 
L 343.158025 136.896055 
L 343.384481 136.864266 
L 344.290304 136.22233 
L 344.743215 135.997743 
L 347.460685 134.720084 
L 348.592964 134.177018 
L 350.178155 133.11312 
L 350.40461 133.143059 
L 352.216257 132.354296 
L 352.895624 131.981927 
L 353.801447 131.584706 
L 354.480815 131.45326 
L 354.933726 130.770909 
L 355.160182 173.861421 
L 356.745373 175.368887 
L 357.198284 175.601184 
L 357.877652 175.711801 
L 358.557019 175.295262 
L 359.236387 174.353898 
L 360.14221 172.563103 
L 360.821577 171.412933 
L 361.500945 170.96148 
L 363.312591 170.343488 
L 366.030061 169.088502 
L 366.256517 168.872801 
L 367.16234 168.57518 
L 367.841707 168.172192 
L 368.068163 168.189787 
L 368.74753 167.70645 
L 369.426898 167.451375 
L 369.879809 167.442821 
L 370.332721 167.168739 
L 370.785633 166.988273 
L 371.012088 167.036399 
L 371.465 166.757383 
L 372.370823 166.724509 
L 372.823735 166.631418 
L 375.314749 165.808747 
L 375.76766 165.62578 
L 375.994116 165.660309 
L 376.447028 165.461154 
L 376.899939 165.341931 
L 378.48513 164.857311 
L 379.843865 164.761379 
L 380.749688 164.452281 
L 381.202599 164.202332 
L 382.108423 164.137035 
L 383.014246 163.913214 
L 383.693613 164.125526 
L 385.50526 163.754184 
L 386.184627 163.747162 
L 386.637539 163.495303 
L 387.543362 163.270529 
L 387.769818 163.53744 
L 387.996274 161.09124 
L 388.222729 160.783903 
L 388.449185 160.88252 
L 388.675641 160.830874 
L 389.128553 161.005483 
L 389.355008 160.937227 
L 389.80792 160.525846 
L 390.487287 160.113547 
L 391.393111 160.061072 
L 394.337036 160.510806 
L 395.016403 160.786533 
L 395.695771 160.82272 
L 396.601594 161.167276 
L 398.186785 161.743119 
L 399.545519 162.088759 
L 399.771975 162.001469 
L 401.13071 162.214375 
L 401.357166 162.454206 
L 401.810078 162.434002 
L 402.036533 162.393085 
L 402.489445 162.462612 
L 402.715901 162.527457 
L 403.168812 162.383061 
L 405.886282 161.958182 
L 406.112738 161.745904 
L 406.339194 161.712277 
L 406.792105 161.468384 
L 407.245017 161.550574 
L 407.697928 161.442842 
L 408.603752 161.094829 
L 409.736031 160.80069 
L 410.188942 160.645021 
L 411.547677 160.0933 
L 412.4535 159.754826 
L 413.359323 159.375417 
L 414.265147 158.87228 
L 415.17097 158.428014 
L 416.076793 158.018292 
L 416.75616 157.738375 
L 417.435528 157.434231 
L 420.379453 155.654239 
L 420.605909 155.865038 
L 420.605909 155.865038 
" clip-path="url(#pb2c9f9fb3f)" style="fill: none; stroke: #ffa500; stroke-width: 1.5; stroke-linecap: square"/>
   </g>
   <g id="patch_38">
    <path d="M 317.41 188.12 
L 317.41 128.04 
" style="fill: none; stroke: #000000; stroke-width: 0.8; stroke-linejoin: miter; stroke-linecap: square"/>
   </g>
   <g id="patch_39">
    <path d="M 425.52 188.12 
L 425.52 128.04 
" style="fill: none; stroke: #000000; stroke-width: 0.8; stroke-linejoin: miter; stroke-linecap: square"/>
   </g>
   <g id="patch_40">
    <path d="M 317.41 188.12 
L 425.52 188.12 
" style="fill: none; stroke: #000000; stroke-width: 0.8; stroke-linejoin: miter; stroke-linecap: square"/>
   </g>
   <g id="patch_41">
    <path d="M 317.41 128.04 
L 425.52 128.04 
" style="fill: none; stroke: #000000; stroke-width: 0.8; stroke-linejoin: miter; stroke-linecap: square"/>
   </g>
   <g id="text_51">
    <text style="font: 12px 'DejaVu Sans', 'Bitstream Vera Sans', 'Computer Modern Sans Serif', 'Lucida Grande', 'Verdana', 'Geneva', 'Lucid', 'Arial', 'Helvetica', 'Avant Garde', sans-serif; text-anchor: middle" x="371.465" y="122.04" transform="rotate(-0 371.465 122.04)">Testing 3</text>
   </g>
  </g>
  <g id="axes_9">
   <g id="patch_42">
    <path d="M 459.25 188.12 
L 567.36 188.12 
L 567.36 128.04 
L 459.25 128.04 
z
" style="fill: #ffffff"/>
   </g>
   <g id="matplotlib.axis_17">
    <g id="xtick_25">
     <g id="line2d_60">
      <g>
       <use xlink:href="#m602b59d13e" x="464.164091" y="188.12" style="stroke: #000000; stroke-width: 0.8"/>
      </g>
     </g>
     <g id="text_52">
      <text style="font: 10px 'DejaVu Sans', 'Bitstream Vera Sans', 'Computer Modern Sans Serif', 'Lucida Grande', 'Verdana', 'Geneva', 'Lucid', 'Arial', 'Helvetica', 'Avant Garde', sans-serif; text-anchor: middle" x="464.164091" y="202.718437" transform="rotate(-0 464.164091 202.718437)">0</text>
     </g>
    </g>
    <g id="xtick_26">
     <g id="line2d_61">
      <g>
       <use xlink:href="#m602b59d13e" x="509.455251" y="188.12" style="stroke: #000000; stroke-width: 0.8"/>
      </g>
     </g>
     <g id="text_53">
      <text style="font: 10px 'DejaVu Sans', 'Bitstream Vera Sans', 'Computer Modern Sans Serif', 'Lucida Grande', 'Verdana', 'Geneva', 'Lucid', 'Arial', 'Helvetica', 'Avant Garde', sans-serif; text-anchor: middle" x="509.455251" y="202.718437" transform="rotate(-0 509.455251 202.718437)">200</text>
     </g>
    </g>
    <g id="xtick_27">
     <g id="line2d_62">
      <g>
       <use xlink:href="#m602b59d13e" x="554.746412" y="188.12" style="stroke: #000000; stroke-width: 0.8"/>
      </g>
     </g>
     <g id="text_54">
      <text style="font: 10px 'DejaVu Sans', 'Bitstream Vera Sans', 'Computer Modern Sans Serif', 'Lucida Grande', 'Verdana', 'Geneva', 'Lucid', 'Arial', 'Helvetica', 'Avant Garde', sans-serif; text-anchor: middle" x="554.746412" y="202.718437" transform="rotate(-0 554.746412 202.718437)">400</text>
     </g>
    </g>
   </g>
   <g id="matplotlib.axis_18">
    <g id="ytick_20">
     <g id="line2d_63">
      <g>
       <use xlink:href="#m6b52275fab" x="459.25" y="187.499451" style="stroke: #000000; stroke-width: 0.8"/>
      </g>
     </g>
     <g id="text_55">
      <text style="font: 10px 'DejaVu Sans', 'Bitstream Vera Sans', 'Computer Modern Sans Serif', 'Lucida Grande', 'Verdana', 'Geneva', 'Lucid', 'Arial', 'Helvetica', 'Avant Garde', sans-serif; text-anchor: end" x="452.25" y="191.29867" transform="rotate(-0 452.25 191.29867)">0.0</text>
     </g>
    </g>
    <g id="ytick_21">
     <g id="line2d_64">
      <g>
       <use xlink:href="#m6b52275fab" x="459.25" y="157.092484" style="stroke: #000000; stroke-width: 0.8"/>
      </g>
     </g>
     <g id="text_56">
      <text style="font: 10px 'DejaVu Sans', 'Bitstream Vera Sans', 'Computer Modern Sans Serif', 'Lucida Grande', 'Verdana', 'Geneva', 'Lucid', 'Arial', 'Helvetica', 'Avant Garde', sans-serif; text-anchor: end" x="452.25" y="160.891703" transform="rotate(-0 452.25 160.891703)">0.5</text>
     </g>
    </g>
   </g>
   <g id="line2d_65">
    <path d="M 464.164091 185.375952 
L 464.843458 184.710355 
L 465.522826 183.775003 
L 466.202193 182.45103 
L 466.881561 180.574713 
L 467.560928 177.93549 
L 468.240295 174.284597 
L 468.919663 169.46547 
L 470.278398 159.213515 
L 470.957765 155.765179 
L 471.863588 152.553765 
L 472.769411 150.18219 
L 473.90169 147.899451 
L 475.260425 145.736399 
L 476.845616 143.697033 
L 478.657262 141.7686 
L 480.695364 139.936716 
L 482.959922 138.189204 
L 485.677392 136.3729 
L 488.847773 134.531124 
L 492.471066 132.690106 
L 496.547271 130.865987 
L 496.773726 130.770909 
L 497.000182 176.891584 
L 497.67955 177.322289 
L 498.132461 177.451821 
L 498.811829 177.357908 
L 499.26474 177.088377 
L 499.717652 176.568289 
L 500.170563 175.77264 
L 500.623475 174.650578 
L 501.302842 172.192429 
L 502.435121 166.569616 
L 503.114489 163.731127 
L 503.793856 161.895538 
L 504.69968 160.215818 
L 505.831959 158.629349 
L 507.190693 157.071852 
L 509.00234 155.385565 
L 510.813986 154.040655 
L 512.852088 152.778274 
L 515.569558 151.419622 
L 517.834116 150.488264 
L 524.174879 148.395986 
L 529.609818 146.999879 
L 529.836274 158.880018 
L 530.968553 157.896262 
L 531.874376 157.388883 
L 532.780199 157.125883 
L 533.686022 157.082824 
L 534.818301 157.281309 
L 536.177036 157.779139 
L 538.66805 159.006989 
L 541.159064 160.151188 
L 542.97071 160.750203 
L 544.782357 161.103763 
L 546.594003 161.213241 
L 548.405649 161.096827 
L 550.443752 160.734904 
L 552.70831 160.102572 
L 555.425779 159.094696 
L 558.822616 157.591277 
L 562.445909 155.811816 
L 562.445909 155.811816 
" clip-path="url(#p5c33cdfbd4)" style="fill: none; stroke: #0000ff; stroke-width: 1.5; stroke-linecap: square"/>
   </g>
   <g id="line2d_66">
    <path d="M 464.164091 185.389091 
L 464.843458 184.726972 
L 465.522826 183.794238 
L 466.202193 182.519762 
L 466.881561 180.693788 
L 467.560928 178.131814 
L 468.240295 174.611868 
L 468.919663 169.790088 
L 470.278398 159.326344 
L 470.957765 155.865702 
L 471.637132 153.415425 
L 472.3165 151.58721 
L 473.448779 148.949271 
L 474.354602 147.273852 
L 475.260425 145.722694 
L 476.392704 144.337751 
L 476.61916 143.959511 
L 476.845616 143.805668 
L 477.298527 143.095629 
L 477.751439 142.673794 
L 478.657262 141.980574 
L 481.148276 139.572707 
L 482.507011 138.615226 
L 482.733467 138.560803 
L 483.186378 138.115577 
L 484.092202 137.498463 
L 484.545113 137.104437 
L 485.450936 136.60215 
L 485.903848 136.347508 
L 487.036127 135.741076 
L 487.715494 135.255079 
L 488.168406 135.208729 
L 489.300685 134.589871 
L 489.753597 134.195864 
L 490.885876 133.750565 
L 491.338787 133.4849 
L 491.565243 133.449899 
L 492.923978 132.570267 
L 493.603345 132.288508 
L 493.829801 132.313596 
L 495.188536 131.667411 
L 495.867903 131.298418 
L 496.094359 131.37945 
L 496.320815 131.313356 
L 496.547271 130.811206 
L 496.773726 131.248795 
L 497.000182 176.892325 
L 497.453094 177.252177 
L 498.358917 177.482458 
L 498.811829 177.407731 
L 499.26474 177.118495 
L 499.944108 176.231304 
L 500.397019 175.400266 
L 501.076387 173.239142 
L 501.755754 170.049683 
L 503.114489 163.553264 
L 503.567401 162.191555 
L 504.926135 159.545287 
L 505.605503 158.577031 
L 506.964238 156.882848 
L 509.681707 154.305091 
L 510.361075 153.848555 
L 511.946265 152.838554 
L 512.399177 152.457168 
L 512.625633 152.457411 
L 513.078544 151.994032 
L 513.531456 151.769893 
L 513.984367 151.469524 
L 515.796014 150.514511 
L 516.928293 150.183589 
L 517.381204 149.904944 
L 518.287028 149.7154 
L 518.739939 149.365372 
L 519.192851 149.541134 
L 519.419307 149.499884 
L 520.32513 148.87406 
L 520.551586 148.890937 
L 521.457409 148.451319 
L 522.136776 148.369431 
L 522.589688 148.141906 
L 523.495511 147.953446 
L 523.721967 147.936852 
L 524.401334 147.634725 
L 524.854246 147.569037 
L 525.760069 147.295985 
L 526.665892 146.963276 
L 527.34526 146.905812 
L 527.571716 146.728701 
L 527.798171 146.759871 
L 528.024627 146.570149 
L 529.383362 146.541114 
L 529.609818 146.415838 
L 529.836274 158.103493 
L 530.062729 158.300754 
L 530.742097 157.428076 
L 531.421464 156.966338 
L 533.233111 156.480141 
L 533.459566 156.439518 
L 534.138934 156.564972 
L 534.591845 156.640512 
L 535.724124 157.043944 
L 536.629948 157.539541 
L 537.082859 157.821546 
L 537.762227 158.053991 
L 538.215138 158.313476 
L 539.347417 159.162215 
L 540.026785 159.334786 
L 540.706152 159.52283 
L 541.159064 159.756506 
L 542.744254 160.609365 
L 542.97071 160.546324 
L 543.197166 160.741382 
L 544.555901 160.978469 
L 547.27337 161.285907 
L 547.726282 161.244896 
L 547.952738 161.194044 
L 548.179194 161.302052 
L 548.405649 161.140727 
L 549.764384 160.956812 
L 549.99084 160.843494 
L 550.443752 160.775837 
L 551.349575 160.573927 
L 552.934765 160.023912 
L 554.746412 159.395467 
L 555.199323 159.141038 
L 558.369705 157.86993 
L 560.634263 156.745334 
L 561.087174 156.503129 
L 561.540086 156.294022 
L 561.766542 156.220428 
L 562.219453 155.789262 
L 562.445909 155.986197 
L 562.445909 155.986197 
" clip-path="url(#p5c33cdfbd4)" style="fill: none; stroke: #ffa500; stroke-width: 1.5; stroke-linecap: square"/>
   </g>
   <g id="patch_43">
    <path d="M 459.25 188.12 
L 459.25 128.04 
" style="fill: none; stroke: #000000; stroke-width: 0.8; stroke-linejoin: miter; stroke-linecap: square"/>
   </g>
   <g id="patch_44">
    <path d="M 567.36 188.12 
L 567.36 128.04 
" style="fill: none; stroke: #000000; stroke-width: 0.8; stroke-linejoin: miter; stroke-linecap: square"/>
   </g>
   <g id="patch_45">
    <path d="M 459.25 188.12 
L 567.36 188.12 
" style="fill: none; stroke: #000000; stroke-width: 0.8; stroke-linejoin: miter; stroke-linecap: square"/>
   </g>
   <g id="patch_46">
    <path d="M 459.25 128.04 
L 567.36 128.04 
" style="fill: none; stroke: #000000; stroke-width: 0.8; stroke-linejoin: miter; stroke-linecap: square"/>
   </g>
   <g id="text_57">
    <text style="font: 12px 'DejaVu Sans', 'Bitstream Vera Sans', 'Computer Modern Sans Serif', 'Lucida Grande', 'Verdana', 'Geneva', 'Lucid', 'Arial', 'Helvetica', 'Avant Garde', sans-serif; text-anchor: middle" x="513.305" y="122.04" transform="rotate(-0 513.305 122.04)">Testing 4</text>
   </g>
  </g>
  <g id="axes_10">
   <g id="patch_47">
    <path d="M 601.09 188.12 
L 709.2 188.12 
L 709.2 128.04 
L 601.09 128.04 
z
" style="fill: #ffffff"/>
   </g>
   <g id="matplotlib.axis_19">
    <g id="xtick_28">
     <g id="line2d_67">
      <g>
       <use xlink:href="#m602b59d13e" x="606.004091" y="188.12" style="stroke: #000000; stroke-width: 0.8"/>
      </g>
     </g>
     <g id="text_58">
      <text style="font: 10px 'DejaVu Sans', 'Bitstream Vera Sans', 'Computer Modern Sans Serif', 'Lucida Grande', 'Verdana', 'Geneva', 'Lucid', 'Arial', 'Helvetica', 'Avant Garde', sans-serif; text-anchor: middle" x="606.004091" y="202.718437" transform="rotate(-0 606.004091 202.718437)">0</text>
     </g>
    </g>
    <g id="xtick_29">
     <g id="line2d_68">
      <g>
       <use xlink:href="#m602b59d13e" x="651.295251" y="188.12" style="stroke: #000000; stroke-width: 0.8"/>
      </g>
     </g>
     <g id="text_59">
      <text style="font: 10px 'DejaVu Sans', 'Bitstream Vera Sans', 'Computer Modern Sans Serif', 'Lucida Grande', 'Verdana', 'Geneva', 'Lucid', 'Arial', 'Helvetica', 'Avant Garde', sans-serif; text-anchor: middle" x="651.295251" y="202.718437" transform="rotate(-0 651.295251 202.718437)">200</text>
     </g>
    </g>
    <g id="xtick_30">
     <g id="line2d_69">
      <g>
       <use xlink:href="#m602b59d13e" x="696.586412" y="188.12" style="stroke: #000000; stroke-width: 0.8"/>
      </g>
     </g>
     <g id="text_60">
      <text style="font: 10px 'DejaVu Sans', 'Bitstream Vera Sans', 'Computer Modern Sans Serif', 'Lucida Grande', 'Verdana', 'Geneva', 'Lucid', 'Arial', 'Helvetica', 'Avant Garde', sans-serif; text-anchor: middle" x="696.586412" y="202.718437" transform="rotate(-0 696.586412 202.718437)">400</text>
     </g>
    </g>
   </g>
   <g id="matplotlib.axis_20">
    <g id="ytick_22">
     <g id="line2d_70">
      <g>
       <use xlink:href="#m6b52275fab" x="601.09" y="187.486823" style="stroke: #000000; stroke-width: 0.8"/>
      </g>
     </g>
     <g id="text_61">
      <text style="font: 10px 'DejaVu Sans', 'Bitstream Vera Sans', 'Computer Modern Sans Serif', 'Lucida Grande', 'Verdana', 'Geneva', 'Lucid', 'Arial', 'Helvetica', 'Avant Garde', sans-serif; text-anchor: end" x="594.09" y="191.286041" transform="rotate(-0 594.09 191.286041)">0.0</text>
     </g>
    </g>
    <g id="ytick_23">
     <g id="line2d_71">
      <g>
       <use xlink:href="#m6b52275fab" x="601.09" y="156.949207" style="stroke: #000000; stroke-width: 0.8"/>
      </g>
     </g>
     <g id="text_62">
      <text style="font: 10px 'DejaVu Sans', 'Bitstream Vera Sans', 'Computer Modern Sans Serif', 'Lucida Grande', 'Verdana', 'Geneva', 'Lucid', 'Arial', 'Helvetica', 'Avant Garde', sans-serif; text-anchor: end" x="594.09" y="160.748426" transform="rotate(-0 594.09 160.748426)">0.5</text>
     </g>
    </g>
   </g>
   <g id="line2d_72">
    <path d="M 606.004091 185.36707 
L 606.909914 184.472064 
L 607.589282 183.491017 
L 608.268649 182.120335 
L 608.948016 180.205617 
L 609.627384 177.552241 
L 610.306751 173.942222 
L 611.212574 167.501829 
L 612.344853 159.315103 
L 613.024221 155.899893 
L 613.930044 152.682583 
L 614.835867 150.323374 
L 615.968146 148.042847 
L 617.326881 145.885497 
L 618.912072 143.851336 
L 620.723718 141.9292 
L 622.76182 140.104466 
L 625.026378 138.364202 
L 627.743848 136.556542 
L 630.914229 134.723817 
L 634.537522 132.892544 
L 638.613726 131.078458 
L 638.840182 178.047855 
L 639.746005 178.927683 
L 640.425373 179.324801 
L 641.10474 179.522877 
L 641.557652 179.479319 
L 642.237019 179.130404 
L 642.689931 178.658384 
L 643.369298 177.525075 
L 644.275121 175.368878 
L 644.954489 173.860625 
L 645.633856 172.87047 
L 646.53968 172.005268 
L 648.12487 170.885957 
L 650.389428 169.606158 
L 652.653986 168.60412 
L 655.145 167.738654 
L 658.088925 166.921611 
L 663.070953 165.850331 
L 671.449818 164.527687 
L 671.676274 165.195901 
L 673.035008 164.232847 
L 674.167287 163.694296 
L 675.299566 163.383311 
L 676.658301 163.255923 
L 678.469948 163.358394 
L 684.131343 163.897613 
L 686.169445 163.797253 
L 688.207547 163.489213 
L 690.472105 162.923843 
L 692.963119 162.079507 
L 696.1335 160.752253 
L 700.209705 158.790215 
L 704.285909 156.686962 
L 704.285909 156.686962 
" clip-path="url(#pf3440630de)" style="fill: none; stroke: #0000ff; stroke-width: 1.5; stroke-linecap: square"/>
   </g>
   <g id="line2d_73">
    <path d="M 606.004091 185.389091 
L 606.909914 184.453799 
L 607.589282 183.491524 
L 608.268649 182.089739 
L 608.948016 180.185592 
L 609.85384 176.394937 
L 610.533207 172.312281 
L 612.797765 156.918111 
L 613.477132 154.097689 
L 614.382956 151.334693 
L 615.062323 149.682134 
L 617.100425 146.145131 
L 619.138527 143.60197 
L 620.723718 141.873069 
L 621.17663 141.53647 
L 621.629541 141.097904 
L 623.894099 139.151927 
L 624.347011 138.884007 
L 626.611569 137.021318 
L 627.290936 136.660135 
L 627.743848 136.349831 
L 628.19676 136.098936 
L 628.649671 135.767943 
L 629.102583 135.557191 
L 629.78195 135.071734 
L 630.234862 134.730712 
L 630.461318 134.674763 
L 631.140685 134.290253 
L 631.593597 134.089614 
L 632.046508 133.900093 
L 632.725876 133.468855 
L 633.631699 133.064071 
L 633.858155 132.836683 
L 634.08461 132.815634 
L 634.537522 132.571307 
L 636.122713 131.794628 
L 636.80208 131.516526 
L 637.481447 131.305814 
L 637.707903 131.077523 
L 638.160815 131.015287 
L 638.387271 130.770909 
L 638.613726 130.834139 
L 638.840182 177.633437 
L 639.746005 178.551095 
L 640.651829 179.079119 
L 641.557652 179.136757 
L 642.237019 178.76057 
L 643.142842 177.670114 
L 643.82221 176.238153 
L 644.728033 174.066657 
L 645.407401 172.902092 
L 646.086768 172.157117 
L 648.12487 170.733129 
L 648.804238 170.336971 
L 650.615884 169.300147 
L 651.295251 168.938861 
L 651.748163 168.775088 
L 652.201075 168.694692 
L 652.653986 168.374759 
L 653.106898 168.234388 
L 653.786265 167.941138 
L 654.239177 167.821142 
L 658.541837 166.676789 
L 658.994749 166.732478 
L 659.44766 166.425855 
L 659.674116 166.425955 
L 660.127028 166.183587 
L 661.485762 166.056827 
L 662.618041 165.744382 
L 663.297409 165.758963 
L 663.523865 165.561 
L 664.203232 165.456061 
L 664.656144 165.313586 
L 665.109055 165.355278 
L 666.694246 165.008338 
L 666.920702 165.007273 
L 667.373613 164.85047 
L 668.279437 164.816458 
L 668.732348 164.767724 
L 670.543995 164.46755 
L 670.77045 164.766876 
L 671.223362 164.466678 
L 671.449818 164.22897 
L 671.676274 165.776483 
L 671.902729 165.117283 
L 672.129185 164.846298 
L 672.355641 164.389546 
L 672.582097 164.431158 
L 673.48792 163.71788 
L 674.393743 163.608664 
L 674.846655 163.361949 
L 675.978934 163.308747 
L 676.20539 163.236935 
L 677.111213 163.331341 
L 677.337669 163.257554 
L 678.696403 163.414472 
L 679.602227 163.431653 
L 680.734506 163.597521 
L 680.960961 163.534062 
L 681.640329 163.664533 
L 682.09324 163.678397 
L 682.319696 163.832173 
L 682.999064 163.815388 
L 683.451975 163.800011 
L 683.678431 163.710853 
L 684.131343 163.746368 
L 685.490078 163.619245 
L 685.716533 163.711542 
L 686.169445 163.518461 
L 686.395901 163.575029 
L 687.075268 163.403822 
L 687.981091 163.328343 
L 688.434003 163.156124 
L 688.660459 162.983707 
L 688.886915 163.144098 
L 689.339826 163.044898 
L 689.566282 163.075334 
L 690.698561 162.624143 
L 691.377928 162.503201 
L 692.057296 162.314915 
L 692.283752 162.110818 
L 692.963119 162.019873 
L 693.868942 161.611704 
L 699.756793 158.844413 
L 700.43616 158.496183 
L 700.889072 158.263461 
L 702.021351 157.629817 
L 702.700718 157.23127 
L 703.832997 156.818845 
L 704.059453 156.634297 
L 704.285909 156.658709 
L 704.285909 156.658709 
" clip-path="url(#pf3440630de)" style="fill: none; stroke: #ffa500; stroke-width: 1.5; stroke-linecap: square"/>
   </g>
   <g id="patch_48">
    <path d="M 601.09 188.12 
L 601.09 128.04 
" style="fill: none; stroke: #000000; stroke-width: 0.8; stroke-linejoin: miter; stroke-linecap: square"/>
   </g>
   <g id="patch_49">
    <path d="M 709.2 188.12 
L 709.2 128.04 
" style="fill: none; stroke: #000000; stroke-width: 0.8; stroke-linejoin: miter; stroke-linecap: square"/>
   </g>
   <g id="patch_50">
    <path d="M 601.09 188.12 
L 709.2 188.12 
" style="fill: none; stroke: #000000; stroke-width: 0.8; stroke-linejoin: miter; stroke-linecap: square"/>
   </g>
   <g id="patch_51">
    <path d="M 601.09 128.04 
L 709.2 128.04 
" style="fill: none; stroke: #000000; stroke-width: 0.8; stroke-linejoin: miter; stroke-linecap: square"/>
   </g>
   <g id="text_63">
    <text style="font: 12px 'DejaVu Sans', 'Bitstream Vera Sans', 'Computer Modern Sans Serif', 'Lucida Grande', 'Verdana', 'Geneva', 'Lucid', 'Arial', 'Helvetica', 'Avant Garde', sans-serif; text-anchor: middle" x="655.145" y="122.04" transform="rotate(-0 655.145 122.04)">Testing 5</text>
   </g>
  </g>
 </g>
 <defs>
  <clipPath id="pb733f21892">
   <rect x="33.73" y="25.44" width="108.11" height="60.08"/>
  </clipPath>
  <clipPath id="p16d513c0e0">
   <rect x="175.57" y="25.44" width="108.11" height="60.08"/>
  </clipPath>
  <clipPath id="pb52ab34a0f">
   <rect x="317.41" y="25.44" width="108.11" height="60.08"/>
  </clipPath>
  <clipPath id="p0034777e90">
   <rect x="459.25" y="25.44" width="108.11" height="60.08"/>
  </clipPath>
  <clipPath id="p1c4bd37ddf">
   <rect x="601.09" y="25.44" width="108.11" height="60.08"/>
  </clipPath>
  <clipPath id="pc2fab999a8">
   <rect x="33.73" y="128.04" width="108.11" height="60.08"/>
  </clipPath>
  <clipPath id="p19edf15539">
   <rect x="175.57" y="128.04" width="108.11" height="60.08"/>
  </clipPath>
  <clipPath id="pb2c9f9fb3f">
   <rect x="317.41" y="128.04" width="108.11" height="60.08"/>
  </clipPath>
  <clipPath id="p5c33cdfbd4">
   <rect x="459.25" y="128.04" width="108.11" height="60.08"/>
  </clipPath>
  <clipPath id="pf3440630de">
   <rect x="601.09" y="128.04" width="108.11" height="60.08"/>
  </clipPath>
 </defs>
</svg>
