<?xml version="1.0" encoding="utf-8" standalone="no"?>
<!DOCTYPE svg PUBLIC "-//W3C//DTD SVG 1.1//EN"
  "http://www.w3.org/Graphics/SVG/1.1/DTD/svg11.dtd">
<svg xmlns:xlink="http://www.w3.org/1999/xlink" width="720pt" height="216pt" viewBox="0 0 720 216" xmlns="http://www.w3.org/2000/svg" version="1.1">
 <metadata>
  <rdf:RDF xmlns:dc="http://purl.org/dc/elements/1.1/" xmlns:cc="http://creativecommons.org/ns#" xmlns:rdf="http://www.w3.org/1999/02/22-rdf-syntax-ns#">
   <cc:Work>
    <dc:type rdf:resource="http://purl.org/dc/dcmitype/StillImage"/>
    <dc:date>2025-03-23T23:36:27.522715</dc:date>
    <dc:format>image/svg+xml</dc:format>
    <dc:creator>
     <cc:Agent>
      <dc:title>Matplotlib v3.8.4, https://matplotlib.org/</dc:title>
     </cc:Agent>
    </dc:creator>
   </cc:Work>
  </rdf:RDF>
 </metadata>
 <defs>
  <style type="text/css">*{stroke-linejoin: round; stroke-linecap: butt}</style>
 </defs>
 <g id="figure_1">
  <g id="patch_1">
   <path d="M 0 216 
L 720 216 
L 720 0 
L 0 0 
z
" style="fill: #ffffff"/>
  </g>
  <g id="axes_1">
   <g id="patch_2">
    <path d="M 40.12 85.52 
L 141.84 85.52 
L 141.84 25.44 
L 40.12 25.44 
z
" style="fill: #ffffff"/>
   </g>
   <g id="matplotlib.axis_1">
    <g id="xtick_1">
     <g id="line2d_1">
      <defs>
       <path id="m67da57884d" d="M 0 0 
L 0 3.5 
" style="stroke: #000000; stroke-width: 0.8"/>
      </defs>
      <g>
       <use xlink:href="#m67da57884d" x="44.743636" y="85.52" style="stroke: #000000; stroke-width: 0.8"/>
      </g>
     </g>
     <g id="text_1">
      <text style="font: 10px 'DejaVu Sans', 'Bitstream Vera Sans', 'Computer Modern Sans Serif', 'Lucida Grande', 'Verdana', 'Geneva', 'Lucid', 'Arial', 'Helvetica', 'Avant Garde', sans-serif; text-anchor: middle" x="44.743636" y="100.118438" transform="rotate(-0 44.743636 100.118438)">0</text>
     </g>
    </g>
    <g id="xtick_2">
     <g id="line2d_2">
      <g>
       <use xlink:href="#m67da57884d" x="87.357796" y="85.52" style="stroke: #000000; stroke-width: 0.8"/>
      </g>
     </g>
     <g id="text_2">
      <text style="font: 10px 'DejaVu Sans', 'Bitstream Vera Sans', 'Computer Modern Sans Serif', 'Lucida Grande', 'Verdana', 'Geneva', 'Lucid', 'Arial', 'Helvetica', 'Avant Garde', sans-serif; text-anchor: middle" x="87.357796" y="100.118438" transform="rotate(-0 87.357796 100.118438)">200</text>
     </g>
    </g>
    <g id="xtick_3">
     <g id="line2d_3">
      <g>
       <use xlink:href="#m67da57884d" x="129.971956" y="85.52" style="stroke: #000000; stroke-width: 0.8"/>
      </g>
     </g>
     <g id="text_3">
      <text style="font: 10px 'DejaVu Sans', 'Bitstream Vera Sans', 'Computer Modern Sans Serif', 'Lucida Grande', 'Verdana', 'Geneva', 'Lucid', 'Arial', 'Helvetica', 'Avant Garde', sans-serif; text-anchor: middle" x="129.971956" y="100.118438" transform="rotate(-0 129.971956 100.118438)">400</text>
     </g>
    </g>
   </g>
   <g id="matplotlib.axis_2">
    <g id="ytick_1">
     <g id="line2d_4">
      <defs>
       <path id="mbb28cd6d52" d="M 0 0 
L -3.5 0 
" style="stroke: #000000; stroke-width: 0.8"/>
      </defs>
      <g>
       <use xlink:href="#mbb28cd6d52" x="40.12" y="84.841104" style="stroke: #000000; stroke-width: 0.8"/>
      </g>
     </g>
     <g id="text_4">
      <text style="font: 10px 'DejaVu Sans', 'Bitstream Vera Sans', 'Computer Modern Sans Serif', 'Lucida Grande', 'Verdana', 'Geneva', 'Lucid', 'Arial', 'Helvetica', 'Avant Garde', sans-serif; text-anchor: end" x="33.12" y="88.640323" transform="rotate(-0 33.12 88.640323)">0.0</text>
     </g>
    </g>
    <g id="ytick_2">
     <g id="line2d_5">
      <g>
       <use xlink:href="#mbb28cd6d52" x="40.12" y="46.342776" style="stroke: #000000; stroke-width: 0.8"/>
      </g>
     </g>
     <g id="text_5">
      <text style="font: 10px 'DejaVu Sans', 'Bitstream Vera Sans', 'Computer Modern Sans Serif', 'Lucida Grande', 'Verdana', 'Geneva', 'Lucid', 'Arial', 'Helvetica', 'Avant Garde', sans-serif; text-anchor: end" x="33.12" y="50.141995" transform="rotate(-0 33.12 50.141995)">0.5</text>
     </g>
    </g>
   </g>
   <g id="line2d_6">
    <path d="M 44.743636 82.771708 
L 47.300486 81.938585 
L 49.431194 80.995741 
L 51.13576 80.007157 
L 52.627256 78.913789 
L 54.118752 77.550495 
L 55.610247 75.858745 
L 57.101743 73.780092 
L 58.593238 71.268702 
L 60.084734 68.304336 
L 61.7893 64.386605 
L 63.920008 58.84478 
L 67.542212 48.628781 
L 71.164416 38.640273 
L 73.934336 31.652828 
L 75.425832 28.170909 
L 75.638902 46.945905 
L 77.55654 51.368312 
L 79.474177 55.280237 
L 81.178743 58.222846 
L 83.522522 61.770292 
L 85.227088 63.890305 
L 87.357796 66.130283 
L 88.849292 67.366106 
L 90.553858 68.484547 
L 92.045354 69.216341 
L 93.53685 69.673432 
L 95.241416 69.939654 
L 96.732912 69.923391 
L 98.437478 69.650166 
L 100.142044 69.173806 
L 102.059682 68.410597 
L 105.042673 66.962467 
L 106.321098 66.28434 
L 106.534168 44.015894 
L 107.386452 43.666533 
L 108.238735 43.518123 
L 109.304089 43.584934 
L 110.369443 43.888332 
L 111.647868 44.497716 
L 113.352434 45.603164 
L 115.909284 47.593493 
L 121.236054 51.804365 
L 124.005974 53.668693 
L 126.562824 55.114972 
L 129.119673 56.295048 
L 131.676523 57.225434 
L 134.446443 57.980499 
L 137.216364 58.507708 
L 137.216364 58.507708 
" clip-path="url(#p04e513b2e4)" style="fill: none; stroke: #0000ff; stroke-width: 1.5; stroke-linecap: square"/>
   </g>
   <g id="line2d_7">
    <path d="M 44.743636 82.789091 
L 47.087415 81.946972 
L 47.726628 81.585203 
L 49.218123 80.704723 
L 49.857336 80.238388 
L 51.13576 79.742502 
L 51.561902 79.620628 
L 52.414185 78.937778 
L 53.266468 78.380665 
L 54.118752 77.533022 
L 54.544893 76.955854 
L 54.971035 76.34001 
L 55.184106 76.216472 
L 55.397176 76.263467 
L 55.610247 76.121075 
L 56.888672 74.276487 
L 57.314814 73.892476 
L 57.740955 73.217329 
L 58.593238 71.409761 
L 59.232451 69.578331 
L 59.658592 68.610087 
L 60.084734 68.08545 
L 60.297805 67.765901 
L 61.57623 64.533356 
L 62.002371 63.047297 
L 62.428513 61.838357 
L 62.854654 60.827034 
L 63.067725 59.9235 
L 63.493867 59.085221 
L 64.985362 54.347333 
L 65.198433 53.631372 
L 65.411504 53.340942 
L 67.542212 47.813652 
L 67.755283 47.584496 
L 68.394495 45.628787 
L 68.607566 45.362283 
L 69.033708 44.177779 
L 69.67292 42.552457 
L 70.312132 40.455364 
L 70.525203 40.002899 
L 71.377486 37.032474 
L 73.721265 31.456545 
L 73.934336 30.977976 
L 74.147407 30.861434 
L 74.786619 29.20256 
L 74.99969 29.488491 
L 75.212761 29.003804 
L 75.425832 29.364009 
L 75.638902 47.168959 
L 75.851973 48.625569 
L 76.065044 48.650826 
L 76.278115 48.81385 
L 76.917327 50.1099 
L 79.474177 55.288305 
L 81.604885 58.601065 
L 81.817956 58.746779 
L 83.09638 60.833033 
L 83.309451 60.856073 
L 84.800947 63.026246 
L 85.227088 63.318094 
L 85.65323 63.619546 
L 86.292442 64.399983 
L 87.783938 65.818307 
L 88.21008 66.278047 
L 88.636221 66.676435 
L 89.488504 67.444681 
L 89.914646 67.820404 
L 90.340788 67.971942 
L 90.553858 67.958726 
L 91.193071 68.312101 
L 91.619212 68.091073 
L 92.045354 68.603943 
L 92.258425 68.960048 
L 92.471496 69.057001 
L 92.897637 68.992631 
L 93.53685 69.270518 
L 93.962991 69.020121 
L 94.389133 69.304711 
L 94.815274 69.142565 
L 95.241416 69.233689 
L 95.667558 69.054547 
L 95.880628 69.054638 
L 96.30677 68.699746 
L 96.519841 68.770488 
L 96.945982 69.03858 
L 97.585195 69.019097 
L 97.798266 68.949772 
L 98.224407 68.614929 
L 98.650549 68.650458 
L 99.07669 68.56714 
L 99.502832 68.745067 
L 101.207398 68.043962 
L 104.19039 66.392477 
L 104.616531 66.056795 
L 104.829602 66.214753 
L 105.042673 66.130773 
L 105.468814 65.480722 
L 105.894956 65.170506 
L 106.108027 64.96452 
L 106.321098 65.082574 
L 106.534168 43.081913 
L 106.747239 43.342341 
L 107.173381 44.302912 
L 107.386452 44.125148 
L 108.025664 42.929491 
L 108.238735 42.834363 
L 108.877947 43.591162 
L 109.091018 43.457869 
L 109.73023 42.769295 
L 109.943301 42.881895 
L 110.156372 43.272886 
L 110.582514 43.399281 
L 110.795584 43.415426 
L 111.008655 43.574645 
L 111.434797 43.396445 
L 111.647868 43.526227 
L 111.860938 43.955071 
L 112.500151 44.348994 
L 112.713222 44.766928 
L 113.139363 44.853282 
L 113.565505 45.159704 
L 114.204717 45.327964 
L 115.270071 45.77013 
L 116.335425 46.613078 
L 116.761567 46.927954 
L 117.187708 47.411569 
L 117.400779 47.717585 
L 117.61385 47.755142 
L 120.809912 50.481632 
L 121.449124 51.041744 
L 121.662195 51.45131 
L 121.875266 51.40328 
L 122.301408 51.946401 
L 122.727549 52.011226 
L 122.94062 52.446414 
L 123.579832 52.79272 
L 123.792903 52.919393 
L 124.005974 52.877807 
L 124.645186 53.301609 
L 124.858257 53.220223 
L 125.49747 53.808776 
L 125.71054 53.668684 
L 125.923611 54.016034 
L 126.136682 54.019233 
L 126.562824 54.448769 
L 126.775894 54.712885 
L 126.988965 54.506437 
L 127.415107 54.884368 
L 127.628178 54.73831 
L 128.054319 55.241179 
L 128.480461 55.068665 
L 128.693532 55.287755 
L 128.906602 55.222923 
L 129.332744 55.654467 
L 129.758886 55.562182 
L 130.185027 56.093276 
L 130.398098 56.304268 
L 132.315735 56.558305 
L 132.741877 56.895501 
L 132.954948 56.874289 
L 133.59416 57.180993 
L 133.807231 56.95441 
L 134.233372 57.454618 
L 134.446443 57.214271 
L 134.659514 57.435744 
L 135.724868 57.758197 
L 135.937939 58.13695 
L 136.15101 57.958857 
L 136.36408 57.585665 
L 136.577151 57.650365 
L 136.790222 57.556189 
L 137.003293 57.874406 
L 137.216364 57.847898 
L 137.216364 57.847898 
" clip-path="url(#p04e513b2e4)" style="fill: none; stroke: #ffa500; stroke-width: 1.5; stroke-linecap: square"/>
   </g>
   <g id="patch_3">
    <path d="M 40.12 85.52 
L 40.12 25.44 
" style="fill: none; stroke: #000000; stroke-width: 0.8; stroke-linejoin: miter; stroke-linecap: square"/>
   </g>
   <g id="patch_4">
    <path d="M 141.84 85.52 
L 141.84 25.44 
" style="fill: none; stroke: #000000; stroke-width: 0.8; stroke-linejoin: miter; stroke-linecap: square"/>
   </g>
   <g id="patch_5">
    <path d="M 40.12 85.52 
L 141.84 85.52 
" style="fill: none; stroke: #000000; stroke-width: 0.8; stroke-linejoin: miter; stroke-linecap: square"/>
   </g>
   <g id="patch_6">
    <path d="M 40.12 25.44 
L 141.84 25.44 
" style="fill: none; stroke: #000000; stroke-width: 0.8; stroke-linejoin: miter; stroke-linecap: square"/>
   </g>
   <g id="text_6">
    <text style="font: 12px 'DejaVu Sans', 'Bitstream Vera Sans', 'Computer Modern Sans Serif', 'Lucida Grande', 'Verdana', 'Geneva', 'Lucid', 'Arial', 'Helvetica', 'Avant Garde', sans-serif; text-anchor: middle" x="90.98" y="19.44" transform="rotate(-0 90.98 19.44)">Training 1</text>
   </g>
  </g>
  <g id="axes_2">
   <g id="patch_7">
    <path d="M 181.96 85.52 
L 283.68 85.52 
L 283.68 25.44 
L 181.96 25.44 
z
" style="fill: #ffffff"/>
   </g>
   <g id="matplotlib.axis_3">
    <g id="xtick_4">
     <g id="line2d_8">
      <g>
       <use xlink:href="#m67da57884d" x="186.583636" y="85.52" style="stroke: #000000; stroke-width: 0.8"/>
      </g>
     </g>
     <g id="text_7">
      <text style="font: 10px 'DejaVu Sans', 'Bitstream Vera Sans', 'Computer Modern Sans Serif', 'Lucida Grande', 'Verdana', 'Geneva', 'Lucid', 'Arial', 'Helvetica', 'Avant Garde', sans-serif; text-anchor: middle" x="186.583636" y="100.118438" transform="rotate(-0 186.583636 100.118438)">0</text>
     </g>
    </g>
    <g id="xtick_5">
     <g id="line2d_9">
      <g>
       <use xlink:href="#m67da57884d" x="229.197796" y="85.52" style="stroke: #000000; stroke-width: 0.8"/>
      </g>
     </g>
     <g id="text_8">
      <text style="font: 10px 'DejaVu Sans', 'Bitstream Vera Sans', 'Computer Modern Sans Serif', 'Lucida Grande', 'Verdana', 'Geneva', 'Lucid', 'Arial', 'Helvetica', 'Avant Garde', sans-serif; text-anchor: middle" x="229.197796" y="100.118438" transform="rotate(-0 229.197796 100.118438)">200</text>
     </g>
    </g>
    <g id="xtick_6">
     <g id="line2d_10">
      <g>
       <use xlink:href="#m67da57884d" x="271.811956" y="85.52" style="stroke: #000000; stroke-width: 0.8"/>
      </g>
     </g>
     <g id="text_9">
      <text style="font: 10px 'DejaVu Sans', 'Bitstream Vera Sans', 'Computer Modern Sans Serif', 'Lucida Grande', 'Verdana', 'Geneva', 'Lucid', 'Arial', 'Helvetica', 'Avant Garde', sans-serif; text-anchor: middle" x="271.811956" y="100.118438" transform="rotate(-0 271.811956 100.118438)">400</text>
     </g>
    </g>
   </g>
   <g id="matplotlib.axis_4">
    <g id="ytick_3">
     <g id="line2d_11">
      <g>
       <use xlink:href="#mbb28cd6d52" x="181.96" y="84.105688" style="stroke: #000000; stroke-width: 0.8"/>
      </g>
     </g>
     <g id="text_10">
      <text style="font: 10px 'DejaVu Sans', 'Bitstream Vera Sans', 'Computer Modern Sans Serif', 'Lucida Grande', 'Verdana', 'Geneva', 'Lucid', 'Arial', 'Helvetica', 'Avant Garde', sans-serif; text-anchor: end" x="174.96" y="87.904907" transform="rotate(-0 174.96 87.904907)">0.00</text>
     </g>
    </g>
    <g id="ytick_4">
     <g id="line2d_12">
      <g>
       <use xlink:href="#mbb28cd6d52" x="181.96" y="61.935989" style="stroke: #000000; stroke-width: 0.8"/>
      </g>
     </g>
     <g id="text_11">
      <text style="font: 10px 'DejaVu Sans', 'Bitstream Vera Sans', 'Computer Modern Sans Serif', 'Lucida Grande', 'Verdana', 'Geneva', 'Lucid', 'Arial', 'Helvetica', 'Avant Garde', sans-serif; text-anchor: end" x="174.96" y="65.735208" transform="rotate(-0 174.96 65.735208)">0.25</text>
     </g>
    </g>
    <g id="ytick_5">
     <g id="line2d_13">
      <g>
       <use xlink:href="#mbb28cd6d52" x="181.96" y="39.766291" style="stroke: #000000; stroke-width: 0.8"/>
      </g>
     </g>
     <g id="text_12">
      <text style="font: 10px 'DejaVu Sans', 'Bitstream Vera Sans', 'Computer Modern Sans Serif', 'Lucida Grande', 'Verdana', 'Geneva', 'Lucid', 'Arial', 'Helvetica', 'Avant Garde', sans-serif; text-anchor: end" x="174.96" y="43.565509" transform="rotate(-0 174.96 43.565509)">0.50</text>
     </g>
    </g>
   </g>
   <g id="line2d_14">
    <path d="M 186.583636 81.443973 
L 192.336548 80.584227 
L 197.024106 79.673032 
L 201.285522 78.61757 
L 204.907725 77.499064 
L 208.316858 76.214935 
L 211.51292 74.767131 
L 214.495911 73.169214 
L 217.265832 71.446798 
L 217.478902 28.170909 
L 218.544256 37.910096 
L 219.60961 45.946402 
L 220.674964 52.606994 
L 221.740318 58.080086 
L 222.805672 62.544734 
L 224.084097 66.901922 
L 225.362522 70.389078 
L 226.427876 72.715554 
L 227.706301 74.962558 
L 228.984726 76.759798 
L 230.26315 78.16918 
L 231.541575 79.270015 
L 233.033071 80.270135 
L 234.524566 81.012791 
L 236.442204 81.689233 
L 238.359841 82.138096 
L 240.91669 82.482526 
L 243.899682 82.63932 
L 247.521885 82.603928 
L 248.161098 82.578791 
L 248.374168 29.048917 
L 250.717947 34.929703 
L 252.848655 39.687851 
L 254.979363 43.903079 
L 257.110071 47.603662 
L 259.240779 50.824495 
L 261.158416 53.345795 
L 263.289124 55.76582 
L 265.419832 57.824619 
L 267.55054 59.562568 
L 269.681248 61.017847 
L 272.025027 62.334404 
L 274.368806 63.39451 
L 276.925656 64.303293 
L 279.056364 64.893486 
L 279.056364 64.893486 
" clip-path="url(#pee028380c4)" style="fill: none; stroke: #0000ff; stroke-width: 1.5; stroke-linecap: square"/>
   </g>
   <g id="line2d_15">
    <path d="M 186.583636 81.458901 
L 189.779698 80.949505 
L 190.845052 80.564812 
L 191.271194 80.5497 
L 194.680327 79.8176 
L 195.53261 79.225872 
L 195.958752 79.203114 
L 196.811035 78.887465 
L 197.663318 78.61584 
L 198.08946 78.481508 
L 198.728672 78.846041 
L 199.367884 78.469217 
L 199.794026 78.351139 
L 200.220168 78.288184 
L 200.646309 77.797966 
L 201.072451 77.227381 
L 201.285522 77.232827 
L 201.711663 77.922148 
L 201.924734 77.953049 
L 202.137805 77.779484 
L 202.563946 77.117649 
L 202.990088 77.414074 
L 203.41623 77.082284 
L 203.842371 76.930111 
L 205.120796 75.733929 
L 205.546938 75.138862 
L 205.973079 75.128506 
L 206.612292 74.935843 
L 207.038433 75.136619 
L 207.464575 74.93471 
L 208.103787 74.113058 
L 209.169141 73.583309 
L 209.808354 72.945199 
L 210.447566 73.273322 
L 210.660637 73.249736 
L 211.086778 72.744874 
L 211.939062 72.49839 
L 212.365203 71.986875 
L 213.004416 71.560349 
L 213.643628 71.060105 
L 214.06977 70.905329 
L 214.495911 70.98281 
L 215.135124 70.48357 
L 215.561265 69.853493 
L 215.774336 69.680875 
L 216.200478 69.027726 
L 216.413548 69.374413 
L 216.83969 68.428539 
L 217.052761 68.713959 
L 217.265832 66.965249 
L 217.478902 30.46389 
L 218.118115 35.341124 
L 219.39654 44.827923 
L 220.248823 50.219962 
L 221.527248 56.825404 
L 223.444885 64.377421 
L 224.72331 68.151632 
L 225.362522 69.861708 
L 225.575593 70.084283 
L 227.919372 74.634638 
L 228.345513 75.256363 
L 228.984726 76.037091 
L 229.837009 77.052689 
L 231.115434 78.345883 
L 233.672283 80.237027 
L 234.098425 80.415859 
L 234.524566 80.619566 
L 236.442204 81.202032 
L 236.868345 81.210118 
L 237.507558 81.531093 
L 238.14677 81.459803 
L 238.999053 81.930878 
L 240.277478 81.764941 
L 240.70362 81.857016 
L 241.129761 82.195721 
L 241.342832 82.321452 
L 241.768974 82.23369 
L 243.260469 82.370787 
L 243.899682 82.396616 
L 244.325823 82.60438 
L 244.965036 82.559972 
L 245.817319 82.601123 
L 246.24346 82.728783 
L 246.456531 82.645037 
L 247.308814 82.789091 
L 247.734956 82.59733 
L 247.948027 82.78317 
L 248.161098 81.962926 
L 248.374168 30.170144 
L 248.587239 30.139498 
L 248.80031 29.936639 
L 249.226452 31.137157 
L 249.439522 31.360651 
L 250.078735 33.189302 
L 250.504876 34.119786 
L 251.144089 35.879274 
L 251.57023 36.03694 
L 251.783301 36.247442 
L 251.996372 36.72072 
L 252.848655 39.853227 
L 254.340151 42.473877 
L 254.766292 43.134202 
L 255.192434 44.032435 
L 255.831646 44.344025 
L 256.68393 46.7215 
L 257.323142 48.064546 
L 257.962354 49.256208 
L 258.601567 49.92198 
L 258.814638 50.007394 
L 259.666921 51.396423 
L 259.879992 51.812027 
L 260.093062 51.96673 
L 260.306133 52.592609 
L 261.371487 53.602674 
L 262.22377 54.69016 
L 262.862983 54.892046 
L 263.502195 55.940966 
L 263.715266 55.790097 
L 263.928337 56.30263 
L 264.567549 56.491312 
L 264.78062 56.920709 
L 265.206762 57.056921 
L 265.632903 57.634552 
L 265.845974 57.587856 
L 266.059045 57.703194 
L 266.911328 58.731521 
L 267.124399 58.685457 
L 267.33747 58.91551 
L 267.55054 58.648658 
L 267.763611 59.312059 
L 268.189753 59.510082 
L 268.402824 59.669344 
L 268.615894 60.101572 
L 268.828965 60.054088 
L 269.042036 60.181367 
L 269.468178 60.155821 
L 269.894319 60.665772 
L 270.10739 60.700607 
L 270.533532 61.365134 
L 270.959673 61.627097 
L 271.385815 61.349188 
L 271.811956 61.725009 
L 272.025027 61.762648 
L 272.66424 62.0834 
L 273.090381 62.412306 
L 273.303452 62.243044 
L 273.516523 62.308511 
L 273.729594 62.219612 
L 274.368806 62.89446 
L 274.581877 63.017969 
L 275.008018 62.963602 
L 275.221089 63.237794 
L 275.43416 63.233149 
L 275.860302 63.034167 
L 276.073372 63.107724 
L 276.286443 62.96134 
L 276.499514 63.237577 
L 276.712585 63.317578 
L 276.925656 63.766117 
L 277.351797 63.368284 
L 277.99101 63.742645 
L 278.20408 64.088078 
L 278.417151 63.750243 
L 278.630222 63.785661 
L 279.056364 64.497943 
L 279.056364 64.497943 
" clip-path="url(#pee028380c4)" style="fill: none; stroke: #ffa500; stroke-width: 1.5; stroke-linecap: square"/>
   </g>
   <g id="patch_8">
    <path d="M 181.96 85.52 
L 181.96 25.44 
" style="fill: none; stroke: #000000; stroke-width: 0.8; stroke-linejoin: miter; stroke-linecap: square"/>
   </g>
   <g id="patch_9">
    <path d="M 283.68 85.52 
L 283.68 25.44 
" style="fill: none; stroke: #000000; stroke-width: 0.8; stroke-linejoin: miter; stroke-linecap: square"/>
   </g>
   <g id="patch_10">
    <path d="M 181.96 85.52 
L 283.68 85.52 
" style="fill: none; stroke: #000000; stroke-width: 0.8; stroke-linejoin: miter; stroke-linecap: square"/>
   </g>
   <g id="patch_11">
    <path d="M 181.96 25.44 
L 283.68 25.44 
" style="fill: none; stroke: #000000; stroke-width: 0.8; stroke-linejoin: miter; stroke-linecap: square"/>
   </g>
   <g id="text_13">
    <text style="font: 12px 'DejaVu Sans', 'Bitstream Vera Sans', 'Computer Modern Sans Serif', 'Lucida Grande', 'Verdana', 'Geneva', 'Lucid', 'Arial', 'Helvetica', 'Avant Garde', sans-serif; text-anchor: middle" x="232.82" y="19.44" transform="rotate(-0 232.82 19.44)">Training 2</text>
   </g>
  </g>
  <g id="axes_3">
   <g id="patch_12">
    <path d="M 323.8 85.52 
L 425.52 85.52 
L 425.52 25.44 
L 323.8 25.44 
z
" style="fill: #ffffff"/>
   </g>
   <g id="matplotlib.axis_5">
    <g id="xtick_7">
     <g id="line2d_16">
      <g>
       <use xlink:href="#m67da57884d" x="328.423636" y="85.52" style="stroke: #000000; stroke-width: 0.8"/>
      </g>
     </g>
     <g id="text_14">
      <text style="font: 10px 'DejaVu Sans', 'Bitstream Vera Sans', 'Computer Modern Sans Serif', 'Lucida Grande', 'Verdana', 'Geneva', 'Lucid', 'Arial', 'Helvetica', 'Avant Garde', sans-serif; text-anchor: middle" x="328.423636" y="100.118438" transform="rotate(-0 328.423636 100.118438)">0</text>
     </g>
    </g>
    <g id="xtick_8">
     <g id="line2d_17">
      <g>
       <use xlink:href="#m67da57884d" x="371.037796" y="85.52" style="stroke: #000000; stroke-width: 0.8"/>
      </g>
     </g>
     <g id="text_15">
      <text style="font: 10px 'DejaVu Sans', 'Bitstream Vera Sans', 'Computer Modern Sans Serif', 'Lucida Grande', 'Verdana', 'Geneva', 'Lucid', 'Arial', 'Helvetica', 'Avant Garde', sans-serif; text-anchor: middle" x="371.037796" y="100.118438" transform="rotate(-0 371.037796 100.118438)">200</text>
     </g>
    </g>
    <g id="xtick_9">
     <g id="line2d_18">
      <g>
       <use xlink:href="#m67da57884d" x="413.651956" y="85.52" style="stroke: #000000; stroke-width: 0.8"/>
      </g>
     </g>
     <g id="text_16">
      <text style="font: 10px 'DejaVu Sans', 'Bitstream Vera Sans', 'Computer Modern Sans Serif', 'Lucida Grande', 'Verdana', 'Geneva', 'Lucid', 'Arial', 'Helvetica', 'Avant Garde', sans-serif; text-anchor: middle" x="413.651956" y="100.118438" transform="rotate(-0 413.651956 100.118438)">400</text>
     </g>
    </g>
   </g>
   <g id="matplotlib.axis_6">
    <g id="ytick_6">
     <g id="line2d_19">
      <g>
       <use xlink:href="#mbb28cd6d52" x="323.8" y="62.985092" style="stroke: #000000; stroke-width: 0.8"/>
      </g>
     </g>
     <g id="text_17">
      <text style="font: 10px 'DejaVu Sans', 'Bitstream Vera Sans', 'Computer Modern Sans Serif', 'Lucida Grande', 'Verdana', 'Geneva', 'Lucid', 'Arial', 'Helvetica', 'Avant Garde', sans-serif; text-anchor: end" x="316.8" y="66.784311" transform="rotate(-0 316.8 66.784311)">0.25</text>
     </g>
    </g>
    <g id="ytick_7">
     <g id="line2d_20">
      <g>
       <use xlink:href="#mbb28cd6d52" x="323.8" y="40.230951" style="stroke: #000000; stroke-width: 0.8"/>
      </g>
     </g>
     <g id="text_18">
      <text style="font: 10px 'DejaVu Sans', 'Bitstream Vera Sans', 'Computer Modern Sans Serif', 'Lucida Grande', 'Verdana', 'Geneva', 'Lucid', 'Arial', 'Helvetica', 'Avant Garde', sans-serif; text-anchor: end" x="316.8" y="44.030169" transform="rotate(-0 316.8 44.030169)">0.50</text>
     </g>
    </g>
   </g>
   <g id="line2d_21">
    <path d="M 328.423636 82.531016 
L 331.406628 81.658543 
L 333.963477 80.693324 
L 336.307256 79.570254 
L 338.437964 78.295047 
L 340.355601 76.892308 
L 342.273238 75.202299 
L 344.190876 73.181985 
L 346.108513 70.794546 
L 348.02615 68.017226 
L 349.943787 64.848659 
L 352.074495 60.901677 
L 354.631345 55.679744 
L 358.466619 47.253106 
L 359.105832 45.820301 
L 359.318902 37.289885 
L 360.597327 44.612108 
L 362.088823 51.791571 
L 363.367248 56.955321 
L 364.645672 61.264835 
L 366.137168 65.505015 
L 367.415593 68.572327 
L 368.694018 71.133867 
L 370.185513 73.641927 
L 371.677009 75.709588 
L 373.168504 77.371961 
L 374.873071 78.913223 
L 376.364566 79.970453 
L 378.069133 80.909294 
L 379.773699 81.618502 
L 381.691336 82.171175 
L 383.822044 82.559163 
L 386.165823 82.75511 
L 388.935744 82.770032 
L 390.001098 82.727747 
L 390.214168 29.553272 
L 394.688655 38.056563 
L 397.245505 42.432553 
L 399.589284 46.005112 
L 401.719992 48.865153 
L 403.8507 51.359638 
L 405.981408 53.506838 
L 408.112116 55.332478 
L 410.242824 56.866584 
L 412.373532 58.139981 
L 414.71731 59.276108 
L 417.061089 60.171872 
L 419.617939 60.916045 
L 420.896364 61.209267 
L 420.896364 61.209267 
" clip-path="url(#p76fdfe5a99)" style="fill: none; stroke: #0000ff; stroke-width: 1.5; stroke-linecap: square"/>
   </g>
   <g id="line2d_22">
    <path d="M 328.423636 82.533517 
L 329.062849 82.286195 
L 330.980486 81.707519 
L 332.04584 81.256482 
L 332.685052 80.969594 
L 333.324265 80.881677 
L 335.028831 79.993236 
L 335.881114 79.420091 
L 336.307256 79.252828 
L 337.585681 78.418428 
L 339.077176 77.654152 
L 339.92946 76.653405 
L 340.781743 75.706207 
L 340.994814 75.743957 
L 341.207884 75.666069 
L 341.634026 75.218085 
L 343.764734 73.295189 
L 343.977805 73.255548 
L 344.617017 72.59852 
L 345.043159 71.967812 
L 345.4693 71.56202 
L 345.682371 71.302308 
L 346.108513 70.35893 
L 346.534654 69.932009 
L 346.960796 69.235789 
L 348.239221 67.440324 
L 348.452292 67.332432 
L 348.878433 66.5641 
L 349.517646 64.964175 
L 349.730716 64.760225 
L 350.156858 63.870876 
L 351.222212 61.271489 
L 351.435283 61.075798 
L 351.648354 60.410798 
L 352.287566 59.526575 
L 353.35292 56.907964 
L 354.631345 54.680956 
L 355.057486 53.202305 
L 355.90977 51.837207 
L 356.548982 50.486108 
L 356.975124 49.629903 
L 357.401265 48.173282 
L 357.827407 47.682644 
L 358.040478 46.908824 
L 358.253548 46.684388 
L 358.892761 44.550534 
L 359.105832 45.010897 
L 359.318902 36.775366 
L 360.384256 43.305225 
L 361.023469 46.298263 
L 362.514964 53.142903 
L 363.580318 57.280721 
L 365.071814 62.309953 
L 366.350239 65.846834 
L 368.480947 70.425073 
L 369.33323 71.859285 
L 372.10315 75.65509 
L 373.168504 76.951156 
L 373.594646 77.354006 
L 374.873071 78.64439 
L 377.003779 80.104388 
L 377.42992 80.252623 
L 378.282204 80.783588 
L 378.708345 80.93556 
L 379.134487 81.085654 
L 379.560628 81.165938 
L 380.412912 81.405907 
L 381.265195 81.437324 
L 381.691336 81.549908 
L 382.330549 81.856712 
L 382.54362 81.843479 
L 382.75669 81.717095 
L 383.182832 81.832844 
L 383.395903 81.876746 
L 383.822044 81.799468 
L 384.461257 81.872702 
L 384.674328 82.001521 
L 385.100469 81.8892 
L 385.952752 82.409962 
L 386.378894 82.310758 
L 386.805036 82.102211 
L 387.018106 82.083239 
L 387.657319 82.497265 
L 388.296531 82.273825 
L 388.722673 82.462472 
L 388.935744 82.288976 
L 389.148814 82.264222 
L 389.361885 82.379079 
L 389.574956 82.267983 
L 389.788027 82.005854 
L 390.001098 81.986317 
L 390.214168 28.170909 
L 390.427239 28.921443 
L 390.64031 29.223041 
L 390.853381 29.928856 
L 391.066452 30.086936 
L 391.279522 29.877726 
L 391.492593 30.140405 
L 392.131806 31.939962 
L 392.557947 32.687745 
L 394.901726 37.278237 
L 395.327868 37.702581 
L 395.754009 38.792569 
L 396.393222 39.934371 
L 396.606292 40.011905 
L 396.819363 40.297502 
L 397.458576 41.750426 
L 398.310859 42.974826 
L 398.52393 43.217441 
L 399.589284 45.593896 
L 400.228496 46.44977 
L 400.441567 46.883502 
L 400.867708 47.025214 
L 401.719992 48.022304 
L 401.933062 48.026343 
L 402.998416 49.668505 
L 403.211487 49.847248 
L 403.637629 50.425169 
L 403.8507 50.541486 
L 404.276841 51.045269 
L 404.916054 51.645563 
L 405.129124 51.825684 
L 405.342195 52.282765 
L 405.555266 52.190944 
L 405.768337 52.771909 
L 406.194478 52.971161 
L 406.407549 52.929828 
L 406.62062 53.375712 
L 407.046762 53.459049 
L 407.472903 53.950167 
L 407.685974 54.023724 
L 408.112116 54.594473 
L 408.325186 54.739381 
L 408.538257 54.73318 
L 408.751328 55.058233 
L 408.964399 55.12281 
L 409.17747 55.429079 
L 409.39054 55.183819 
L 409.603611 55.775767 
L 410.029753 55.92956 
L 410.242824 55.765635 
L 410.455894 56.109348 
L 410.668965 56.23514 
L 410.882036 56.585862 
L 411.734319 56.917902 
L 411.94739 56.839785 
L 412.586602 57.419428 
L 413.012744 57.664034 
L 413.651956 57.980618 
L 413.865027 57.9351 
L 414.71731 58.478827 
L 414.930381 58.569717 
L 415.143452 58.469414 
L 415.356523 58.778211 
L 416.421877 59.024146 
L 416.848018 59.037174 
L 417.27416 59.375367 
L 417.913372 59.527571 
L 418.126443 59.580356 
L 418.339514 59.754702 
L 418.552585 59.666863 
L 418.765656 60.037033 
L 418.978726 59.847576 
L 419.191797 59.867355 
L 419.404868 60.296078 
L 419.617939 60.252436 
L 420.04408 60.459208 
L 420.257151 60.049047 
L 420.470222 59.993487 
L 420.896364 61.324231 
L 420.896364 61.324231 
" clip-path="url(#p76fdfe5a99)" style="fill: none; stroke: #ffa500; stroke-width: 1.5; stroke-linecap: square"/>
   </g>
   <g id="patch_13">
    <path d="M 323.8 85.52 
L 323.8 25.44 
" style="fill: none; stroke: #000000; stroke-width: 0.8; stroke-linejoin: miter; stroke-linecap: square"/>
   </g>
   <g id="patch_14">
    <path d="M 425.52 85.52 
L 425.52 25.44 
" style="fill: none; stroke: #000000; stroke-width: 0.8; stroke-linejoin: miter; stroke-linecap: square"/>
   </g>
   <g id="patch_15">
    <path d="M 323.8 85.52 
L 425.52 85.52 
" style="fill: none; stroke: #000000; stroke-width: 0.8; stroke-linejoin: miter; stroke-linecap: square"/>
   </g>
   <g id="patch_16">
    <path d="M 323.8 25.44 
L 425.52 25.44 
" style="fill: none; stroke: #000000; stroke-width: 0.8; stroke-linejoin: miter; stroke-linecap: square"/>
   </g>
   <g id="text_19">
    <text style="font: 12px 'DejaVu Sans', 'Bitstream Vera Sans', 'Computer Modern Sans Serif', 'Lucida Grande', 'Verdana', 'Geneva', 'Lucid', 'Arial', 'Helvetica', 'Avant Garde', sans-serif; text-anchor: middle" x="374.66" y="19.44" transform="rotate(-0 374.66 19.44)">Training 3</text>
   </g>
  </g>
  <g id="axes_4">
   <g id="patch_17">
    <path d="M 465.64 85.52 
L 567.36 85.52 
L 567.36 25.44 
L 465.64 25.44 
z
" style="fill: #ffffff"/>
   </g>
   <g id="matplotlib.axis_7">
    <g id="xtick_10">
     <g id="line2d_23">
      <g>
       <use xlink:href="#m67da57884d" x="470.263636" y="85.52" style="stroke: #000000; stroke-width: 0.8"/>
      </g>
     </g>
     <g id="text_20">
      <text style="font: 10px 'DejaVu Sans', 'Bitstream Vera Sans', 'Computer Modern Sans Serif', 'Lucida Grande', 'Verdana', 'Geneva', 'Lucid', 'Arial', 'Helvetica', 'Avant Garde', sans-serif; text-anchor: middle" x="470.263636" y="100.118438" transform="rotate(-0 470.263636 100.118438)">0</text>
     </g>
    </g>
    <g id="xtick_11">
     <g id="line2d_24">
      <g>
       <use xlink:href="#m67da57884d" x="512.877796" y="85.52" style="stroke: #000000; stroke-width: 0.8"/>
      </g>
     </g>
     <g id="text_21">
      <text style="font: 10px 'DejaVu Sans', 'Bitstream Vera Sans', 'Computer Modern Sans Serif', 'Lucida Grande', 'Verdana', 'Geneva', 'Lucid', 'Arial', 'Helvetica', 'Avant Garde', sans-serif; text-anchor: middle" x="512.877796" y="100.118438" transform="rotate(-0 512.877796 100.118438)">200</text>
     </g>
    </g>
    <g id="xtick_12">
     <g id="line2d_25">
      <g>
       <use xlink:href="#m67da57884d" x="555.491956" y="85.52" style="stroke: #000000; stroke-width: 0.8"/>
      </g>
     </g>
     <g id="text_22">
      <text style="font: 10px 'DejaVu Sans', 'Bitstream Vera Sans', 'Computer Modern Sans Serif', 'Lucida Grande', 'Verdana', 'Geneva', 'Lucid', 'Arial', 'Helvetica', 'Avant Garde', sans-serif; text-anchor: middle" x="555.491956" y="100.118438" transform="rotate(-0 555.491956 100.118438)">400</text>
     </g>
    </g>
   </g>
   <g id="matplotlib.axis_8">
    <g id="ytick_8">
     <g id="line2d_26">
      <g>
       <use xlink:href="#mbb28cd6d52" x="465.64" y="83.572193" style="stroke: #000000; stroke-width: 0.8"/>
      </g>
     </g>
     <g id="text_23">
      <text style="font: 10px 'DejaVu Sans', 'Bitstream Vera Sans', 'Computer Modern Sans Serif', 'Lucida Grande', 'Verdana', 'Geneva', 'Lucid', 'Arial', 'Helvetica', 'Avant Garde', sans-serif; text-anchor: end" x="458.64" y="87.371412" transform="rotate(-0 458.64 87.371412)">0.0</text>
     </g>
    </g>
    <g id="ytick_9">
     <g id="line2d_27">
      <g>
       <use xlink:href="#mbb28cd6d52" x="465.64" y="57.693576" style="stroke: #000000; stroke-width: 0.8"/>
      </g>
     </g>
     <g id="text_24">
      <text style="font: 10px 'DejaVu Sans', 'Bitstream Vera Sans', 'Computer Modern Sans Serif', 'Lucida Grande', 'Verdana', 'Geneva', 'Lucid', 'Arial', 'Helvetica', 'Avant Garde', sans-serif; text-anchor: end" x="458.64" y="61.492794" transform="rotate(-0 458.64 61.492794)">0.5</text>
     </g>
    </g>
    <g id="ytick_10">
     <g id="line2d_28">
      <g>
       <use xlink:href="#mbb28cd6d52" x="465.64" y="31.814958" style="stroke: #000000; stroke-width: 0.8"/>
      </g>
     </g>
     <g id="text_25">
      <text style="font: 10px 'DejaVu Sans', 'Bitstream Vera Sans', 'Computer Modern Sans Serif', 'Lucida Grande', 'Verdana', 'Geneva', 'Lucid', 'Arial', 'Helvetica', 'Avant Garde', sans-serif; text-anchor: end" x="458.64" y="35.614177" transform="rotate(-0 458.64 35.614177)">1.0</text>
     </g>
    </g>
   </g>
   <g id="line2d_29">
    <path d="M 470.263636 81.804035 
L 475.377336 81.117184 
L 479.425681 80.357904 
L 482.834814 79.505747 
L 486.030876 78.472945 
L 488.800796 77.350909 
L 491.570716 75.981267 
L 494.127566 74.473239 
L 496.684416 72.720615 
L 499.454336 70.5539 
L 500.945832 69.282312 
L 501.158902 54.892896 
L 502.437327 60.030841 
L 503.715752 64.255262 
L 504.994177 67.735556 
L 506.272602 70.555264 
L 507.551026 72.866441 
L 508.829451 74.789172 
L 510.107876 76.351655 
L 511.599372 77.815773 
L 513.090867 78.987508 
L 514.795434 80.014853 
L 516.713071 80.886773 
L 518.630708 81.518133 
L 520.974487 82.057518 
L 523.744407 82.453076 
L 527.15354 82.704222 
L 531.628027 82.788656 
L 531.841098 82.787986 
L 532.054168 28.170909 
L 534.824089 35.386633 
L 537.167868 40.879909 
L 539.298576 45.350184 
L 541.429284 49.321256 
L 543.559992 52.811879 
L 545.6907 55.852119 
L 547.821408 58.479114 
L 549.952116 60.732435 
L 552.082824 62.652413 
L 554.213532 64.277632 
L 556.55731 65.768489 
L 558.901089 66.991035 
L 561.457939 68.065259 
L 562.736364 68.514623 
L 562.736364 68.514623 
" clip-path="url(#p4f45ef65c0)" style="fill: none; stroke: #0000ff; stroke-width: 1.5; stroke-linecap: square"/>
   </g>
   <g id="line2d_30">
    <path d="M 470.263636 81.813315 
L 471.542061 81.677159 
L 473.672769 81.336536 
L 474.311982 81.240139 
L 477.721114 80.703493 
L 477.934185 80.741421 
L 479.425681 80.154469 
L 480.064893 80.20777 
L 482.834814 79.131834 
L 483.260955 79.150412 
L 484.113238 78.967105 
L 484.752451 78.775093 
L 485.817805 78.392398 
L 486.457017 78.07865 
L 487.3093 77.749839 
L 487.735442 77.738524 
L 488.374654 77.588954 
L 488.800796 77.208262 
L 489.226938 77.069924 
L 489.653079 76.725238 
L 490.292292 76.360318 
L 491.783787 75.544282 
L 492.209929 75.449096 
L 492.423 75.341056 
L 492.63607 75.044684 
L 493.275283 74.775022 
L 493.488354 74.485389 
L 493.914495 74.352708 
L 494.766778 73.703624 
L 495.405991 73.122403 
L 495.619062 73.028471 
L 496.045203 72.57895 
L 496.684416 72.204024 
L 497.110557 71.836238 
L 497.74977 70.955518 
L 498.388982 70.724027 
L 498.815124 70.127418 
L 499.028194 69.868404 
L 499.241265 69.805568 
L 499.880478 69.308761 
L 500.093548 69.465345 
L 500.732761 68.651492 
L 500.945832 69.066674 
L 501.158902 54.763099 
L 501.798115 57.426556 
L 503.715752 64.138057 
L 504.568035 66.494161 
L 506.059531 69.909948 
L 507.337956 72.161585 
L 510.534018 76.463225 
L 511.17323 77.165881 
L 513.94315 79.212558 
L 515.860788 80.106628 
L 516.5 80.396775 
L 516.926142 80.573713 
L 517.565354 80.758608 
L 518.204566 81.004737 
L 519.696062 81.408371 
L 520.122204 81.398523 
L 520.548345 81.488128 
L 521.187558 81.707804 
L 521.613699 81.810766 
L 522.252912 81.885465 
L 523.531336 81.921381 
L 523.744407 81.992497 
L 524.170549 81.875905 
L 526.088186 81.924099 
L 526.727398 82.067299 
L 526.940469 81.955925 
L 527.792752 82.007984 
L 528.431965 81.940189 
L 530.136531 81.65132 
L 530.349602 81.841217 
L 530.775744 81.732701 
L 530.988814 81.903229 
L 531.201885 81.750114 
L 531.414956 81.766545 
L 531.628027 82.016522 
L 531.841098 81.802984 
L 532.054168 28.960322 
L 532.693381 30.772429 
L 533.545664 32.828167 
L 533.758735 32.912477 
L 534.611018 35.370335 
L 535.03716 36.136877 
L 535.889443 38.387953 
L 536.102514 38.685609 
L 537.380938 41.624936 
L 538.020151 42.655459 
L 538.446292 43.584217 
L 539.298576 45.353377 
L 539.511646 45.56654 
L 542.707708 51.053406 
L 543.559992 52.21826 
L 546.329912 56.159688 
L 546.969124 56.80428 
L 547.608337 57.668933 
L 547.821408 57.816378 
L 548.247549 58.444131 
L 549.099832 59.254849 
L 549.952116 59.996323 
L 550.378257 60.441477 
L 550.804399 60.744102 
L 551.869753 61.914682 
L 553.574319 63.194207 
L 553.78739 63.550357 
L 555.491956 64.605286 
L 556.131169 65.194383 
L 556.770381 65.483945 
L 556.983452 65.510198 
L 557.622664 65.924001 
L 558.048806 66.04425 
L 558.474948 66.273505 
L 560.605656 67.406484 
L 561.031797 67.490896 
L 561.244868 67.709949 
L 561.457939 67.569227 
L 561.67101 67.661572 
L 561.88408 67.909496 
L 562.736364 67.923104 
L 562.736364 67.923104 
" clip-path="url(#p4f45ef65c0)" style="fill: none; stroke: #ffa500; stroke-width: 1.5; stroke-linecap: square"/>
   </g>
   <g id="patch_18">
    <path d="M 465.64 85.52 
L 465.64 25.44 
" style="fill: none; stroke: #000000; stroke-width: 0.8; stroke-linejoin: miter; stroke-linecap: square"/>
   </g>
   <g id="patch_19">
    <path d="M 567.36 85.52 
L 567.36 25.44 
" style="fill: none; stroke: #000000; stroke-width: 0.8; stroke-linejoin: miter; stroke-linecap: square"/>
   </g>
   <g id="patch_20">
    <path d="M 465.64 85.52 
L 567.36 85.52 
" style="fill: none; stroke: #000000; stroke-width: 0.8; stroke-linejoin: miter; stroke-linecap: square"/>
   </g>
   <g id="patch_21">
    <path d="M 465.64 25.44 
L 567.36 25.44 
" style="fill: none; stroke: #000000; stroke-width: 0.8; stroke-linejoin: miter; stroke-linecap: square"/>
   </g>
   <g id="text_26">
    <text style="font: 12px 'DejaVu Sans', 'Bitstream Vera Sans', 'Computer Modern Sans Serif', 'Lucida Grande', 'Verdana', 'Geneva', 'Lucid', 'Arial', 'Helvetica', 'Avant Garde', sans-serif; text-anchor: middle" x="516.5" y="19.44" transform="rotate(-0 516.5 19.44)">Training 4</text>
   </g>
  </g>
  <g id="axes_5">
   <g id="patch_22">
    <path d="M 607.48 85.52 
L 709.2 85.52 
L 709.2 25.44 
L 607.48 25.44 
z
" style="fill: #ffffff"/>
   </g>
   <g id="matplotlib.axis_9">
    <g id="xtick_13">
     <g id="line2d_31">
      <g>
       <use xlink:href="#m67da57884d" x="612.103636" y="85.52" style="stroke: #000000; stroke-width: 0.8"/>
      </g>
     </g>
     <g id="text_27">
      <text style="font: 10px 'DejaVu Sans', 'Bitstream Vera Sans', 'Computer Modern Sans Serif', 'Lucida Grande', 'Verdana', 'Geneva', 'Lucid', 'Arial', 'Helvetica', 'Avant Garde', sans-serif; text-anchor: middle" x="612.103636" y="100.118438" transform="rotate(-0 612.103636 100.118438)">0</text>
     </g>
    </g>
    <g id="xtick_14">
     <g id="line2d_32">
      <g>
       <use xlink:href="#m67da57884d" x="654.717796" y="85.52" style="stroke: #000000; stroke-width: 0.8"/>
      </g>
     </g>
     <g id="text_28">
      <text style="font: 10px 'DejaVu Sans', 'Bitstream Vera Sans', 'Computer Modern Sans Serif', 'Lucida Grande', 'Verdana', 'Geneva', 'Lucid', 'Arial', 'Helvetica', 'Avant Garde', sans-serif; text-anchor: middle" x="654.717796" y="100.118438" transform="rotate(-0 654.717796 100.118438)">200</text>
     </g>
    </g>
    <g id="xtick_15">
     <g id="line2d_33">
      <g>
       <use xlink:href="#m67da57884d" x="697.331956" y="85.52" style="stroke: #000000; stroke-width: 0.8"/>
      </g>
     </g>
     <g id="text_29">
      <text style="font: 10px 'DejaVu Sans', 'Bitstream Vera Sans', 'Computer Modern Sans Serif', 'Lucida Grande', 'Verdana', 'Geneva', 'Lucid', 'Arial', 'Helvetica', 'Avant Garde', sans-serif; text-anchor: middle" x="697.331956" y="100.118438" transform="rotate(-0 697.331956 100.118438)">400</text>
     </g>
    </g>
   </g>
   <g id="matplotlib.axis_10">
    <g id="ytick_11">
     <g id="line2d_34">
      <g>
       <use xlink:href="#mbb28cd6d52" x="607.48" y="84.653028" style="stroke: #000000; stroke-width: 0.8"/>
      </g>
     </g>
     <g id="text_30">
      <text style="font: 10px 'DejaVu Sans', 'Bitstream Vera Sans', 'Computer Modern Sans Serif', 'Lucida Grande', 'Verdana', 'Geneva', 'Lucid', 'Arial', 'Helvetica', 'Avant Garde', sans-serif; text-anchor: end" x="600.48" y="88.452247" transform="rotate(-0 600.48 88.452247)">0.0</text>
     </g>
    </g>
    <g id="ytick_12">
     <g id="line2d_35">
      <g>
       <use xlink:href="#mbb28cd6d52" x="607.48" y="52.352175" style="stroke: #000000; stroke-width: 0.8"/>
      </g>
     </g>
     <g id="text_31">
      <text style="font: 10px 'DejaVu Sans', 'Bitstream Vera Sans', 'Computer Modern Sans Serif', 'Lucida Grande', 'Verdana', 'Geneva', 'Lucid', 'Arial', 'Helvetica', 'Avant Garde', sans-serif; text-anchor: end" x="600.48" y="56.151394" transform="rotate(-0 600.48 56.151394)">0.5</text>
     </g>
    </g>
   </g>
   <g id="line2d_36">
    <path d="M 612.103636 82.789091 
L 614.447415 82.066635 
L 616.365052 81.26457 
L 618.069619 80.321036 
L 619.561114 79.256293 
L 621.05261 77.905793 
L 622.544106 76.20761 
L 623.82253 74.432118 
L 625.314026 71.953482 
L 626.805522 69.036476 
L 628.510088 65.227324 
L 631.066938 58.874913 
L 636.393708 45.444737 
L 638.950557 39.640192 
L 641.507407 34.40262 
L 642.785832 31.993119 
L 642.998902 57.719802 
L 645.342681 60.669779 
L 647.473389 63.03424 
L 649.817168 65.207655 
L 651.734805 66.756634 
L 654.078584 68.284691 
L 655.78315 69.170185 
L 657.700788 69.899661 
L 659.405354 70.349854 
L 661.10992 70.550047 
L 662.814487 70.558272 
L 664.519053 70.337359 
L 666.649761 69.806659 
L 668.780469 69.0532 
L 672.402673 67.473102 
L 673.681098 66.878273 
L 673.894168 28.331108 
L 674.533381 28.21479 
L 675.172593 28.279903 
L 676.024876 28.619665 
L 676.87716 29.20894 
L 677.942514 30.229342 
L 679.220938 31.767376 
L 681.138576 34.477991 
L 688.809124 45.804503 
L 691.152903 48.693945 
L 693.283611 50.992226 
L 695.414319 52.981018 
L 697.545027 54.677108 
L 699.675735 56.10393 
L 702.019514 57.394182 
L 704.363293 58.42701 
L 704.576364 58.509354 
L 704.576364 58.509354 
" clip-path="url(#p2fef7af14a)" style="fill: none; stroke: #0000ff; stroke-width: 1.5; stroke-linecap: square"/>
   </g>
   <g id="line2d_37">
    <path d="M 612.103636 82.784348 
L 614.021274 82.173497 
L 614.660486 81.990013 
L 615.299698 81.564763 
L 615.512769 81.343791 
L 615.938911 81.350005 
L 616.365052 81.273516 
L 618.069619 80.05932 
L 618.49576 79.849952 
L 618.921902 79.974982 
L 621.265681 77.538318 
L 622.331035 76.255048 
L 623.396389 75.064785 
L 623.60946 74.838229 
L 623.82253 74.872087 
L 624.035601 74.636611 
L 625.314026 72.249746 
L 625.527097 72.092375 
L 626.592451 69.929488 
L 627.018592 68.658442 
L 627.231663 68.564102 
L 627.657805 67.934733 
L 629.1493 63.378087 
L 629.362371 62.947308 
L 629.788513 61.588547 
L 630.214654 60.850236 
L 630.640796 59.534701 
L 631.066938 58.543907 
L 631.493079 57.2541 
L 632.558433 54.263263 
L 632.771504 54.221417 
L 633.836858 51.206641 
L 634.263 50.731759 
L 634.902212 49.172516 
L 635.115283 49.027238 
L 635.754495 47.186107 
L 636.606778 45.44173 
L 637.672132 42.656361 
L 637.885203 42.363005 
L 638.311345 40.866392 
L 638.524416 40.51931 
L 639.163628 38.945855 
L 639.376699 38.678307 
L 639.80284 37.904806 
L 640.228982 37.045437 
L 640.868194 35.660999 
L 641.081265 35.429056 
L 641.294336 34.903751 
L 641.507407 34.844795 
L 642.146619 33.066409 
L 642.35969 33.047807 
L 642.785832 33.688737 
L 642.998902 56.476633 
L 643.211973 58.239405 
L 643.425044 58.304179 
L 643.638115 59.041775 
L 644.703469 60.258168 
L 644.91654 60.270557 
L 645.555752 60.821692 
L 645.981894 61.389802 
L 646.834177 62.66644 
L 647.260318 62.872 
L 648.751814 64.162865 
L 650.030239 65.081256 
L 650.45638 65.660007 
L 650.669451 65.645046 
L 651.734805 66.414273 
L 652.587088 67.059223 
L 653.01323 67.296425 
L 653.865513 67.765984 
L 654.078584 67.78773 
L 655.996221 69.038264 
L 657.061575 69.490128 
L 657.700788 69.855693 
L 657.913858 69.734721 
L 658.766142 70.145606 
L 658.979212 70.050146 
L 659.618425 70.443396 
L 660.470708 70.310294 
L 660.683779 70.101453 
L 660.89685 70.213771 
L 661.322991 70.055049 
L 661.536062 70.216224 
L 661.962204 70.116403 
L 662.175274 70.034663 
L 662.388345 70.139428 
L 662.814487 69.869176 
L 663.240628 69.920615 
L 663.879841 69.464844 
L 664.092912 69.663296 
L 664.519053 69.613584 
L 664.732124 69.485037 
L 665.158266 69.681421 
L 665.584407 69.454171 
L 666.010549 69.555185 
L 667.288974 69.093701 
L 667.928186 68.803711 
L 668.354328 68.73181 
L 668.780469 68.431734 
L 668.99354 68.451582 
L 669.206611 68.269369 
L 669.419682 67.94066 
L 670.058894 67.707363 
L 670.485036 67.263955 
L 670.698106 66.916837 
L 670.911177 66.962835 
L 671.124248 66.734767 
L 671.337319 66.858849 
L 671.76346 66.422557 
L 671.976531 66.456057 
L 672.189602 66.73385 
L 672.402673 66.641248 
L 672.615744 66.29699 
L 673.254956 66.574797 
L 673.468027 66.400642 
L 673.681098 66.603364 
L 673.894168 28.44292 
L 674.107239 28.384192 
L 674.32031 28.569119 
L 674.533381 28.446086 
L 674.746452 28.656034 
L 675.172593 28.170909 
L 675.385664 28.384696 
L 675.598735 28.257955 
L 676.024876 28.718255 
L 677.09023 29.562194 
L 677.303301 29.306363 
L 677.516372 29.402935 
L 677.729443 29.68681 
L 677.942514 29.68401 
L 678.155584 30.284868 
L 678.581726 30.537445 
L 680.073222 32.962036 
L 680.286292 33.16277 
L 680.925505 34.01615 
L 682.20393 35.587141 
L 682.630071 36.438496 
L 682.843142 36.754566 
L 683.056213 36.639122 
L 684.547708 38.981669 
L 685.399992 40.19688 
L 685.613062 40.274472 
L 686.039204 40.633764 
L 686.465346 41.638657 
L 686.678416 42.105572 
L 686.891487 42.207212 
L 687.74377 43.351899 
L 687.956841 43.805615 
L 688.169912 43.910392 
L 689.235266 45.874668 
L 689.874478 46.427412 
L 691.365974 48.05484 
L 691.792116 49.029599 
L 692.431328 49.582928 
L 692.85747 50.058696 
L 693.07054 50.146577 
L 693.496682 50.794962 
L 693.922824 51.218123 
L 694.562036 52.105423 
L 694.775107 52.192042 
L 694.988178 52.061519 
L 695.201248 52.414056 
L 695.414319 52.547849 
L 695.62739 52.86744 
L 695.840461 52.878857 
L 696.266602 53.313653 
L 696.479673 53.278636 
L 697.118886 53.711926 
L 697.971169 54.604213 
L 698.18424 55.009585 
L 698.823452 55.357951 
L 699.462664 56.075522 
L 699.675735 56.00071 
L 699.888806 56.091261 
L 700.101877 56.328234 
L 700.528018 56.236316 
L 700.95416 56.742946 
L 701.167231 56.6679 
L 702.019514 57.285224 
L 702.871797 57.573751 
L 703.297939 58.032453 
L 703.51101 57.99123 
L 703.72408 57.830183 
L 703.937151 57.887296 
L 704.150222 57.795811 
L 704.363293 58.310429 
L 704.576364 58.155418 
L 704.576364 58.155418 
" clip-path="url(#p2fef7af14a)" style="fill: none; stroke: #ffa500; stroke-width: 1.5; stroke-linecap: square"/>
   </g>
   <g id="patch_23">
    <path d="M 607.48 85.52 
L 607.48 25.44 
" style="fill: none; stroke: #000000; stroke-width: 0.8; stroke-linejoin: miter; stroke-linecap: square"/>
   </g>
   <g id="patch_24">
    <path d="M 709.2 85.52 
L 709.2 25.44 
" style="fill: none; stroke: #000000; stroke-width: 0.8; stroke-linejoin: miter; stroke-linecap: square"/>
   </g>
   <g id="patch_25">
    <path d="M 607.48 85.52 
L 709.2 85.52 
" style="fill: none; stroke: #000000; stroke-width: 0.8; stroke-linejoin: miter; stroke-linecap: square"/>
   </g>
   <g id="patch_26">
    <path d="M 607.48 25.44 
L 709.2 25.44 
" style="fill: none; stroke: #000000; stroke-width: 0.8; stroke-linejoin: miter; stroke-linecap: square"/>
   </g>
   <g id="text_32">
    <text style="font: 12px 'DejaVu Sans', 'Bitstream Vera Sans', 'Computer Modern Sans Serif', 'Lucida Grande', 'Verdana', 'Geneva', 'Lucid', 'Arial', 'Helvetica', 'Avant Garde', sans-serif; text-anchor: middle" x="658.34" y="19.44" transform="rotate(-0 658.34 19.44)">Training 5</text>
   </g>
  </g>
  <g id="axes_6">
   <g id="patch_27">
    <path d="M 40.12 188.12 
L 141.84 188.12 
L 141.84 128.04 
L 40.12 128.04 
z
" style="fill: #ffffff"/>
   </g>
   <g id="matplotlib.axis_11">
    <g id="xtick_16">
     <g id="line2d_38">
      <g>
       <use xlink:href="#m67da57884d" x="44.743636" y="188.12" style="stroke: #000000; stroke-width: 0.8"/>
      </g>
     </g>
     <g id="text_33">
      <text style="font: 10px 'DejaVu Sans', 'Bitstream Vera Sans', 'Computer Modern Sans Serif', 'Lucida Grande', 'Verdana', 'Geneva', 'Lucid', 'Arial', 'Helvetica', 'Avant Garde', sans-serif; text-anchor: middle" x="44.743636" y="202.718437" transform="rotate(-0 44.743636 202.718437)">0</text>
     </g>
    </g>
    <g id="xtick_17">
     <g id="line2d_39">
      <g>
       <use xlink:href="#m67da57884d" x="87.357796" y="188.12" style="stroke: #000000; stroke-width: 0.8"/>
      </g>
     </g>
     <g id="text_34">
      <text style="font: 10px 'DejaVu Sans', 'Bitstream Vera Sans', 'Computer Modern Sans Serif', 'Lucida Grande', 'Verdana', 'Geneva', 'Lucid', 'Arial', 'Helvetica', 'Avant Garde', sans-serif; text-anchor: middle" x="87.357796" y="202.718437" transform="rotate(-0 87.357796 202.718437)">200</text>
     </g>
    </g>
    <g id="xtick_18">
     <g id="line2d_40">
      <g>
       <use xlink:href="#m67da57884d" x="129.971956" y="188.12" style="stroke: #000000; stroke-width: 0.8"/>
      </g>
     </g>
     <g id="text_35">
      <text style="font: 10px 'DejaVu Sans', 'Bitstream Vera Sans', 'Computer Modern Sans Serif', 'Lucida Grande', 'Verdana', 'Geneva', 'Lucid', 'Arial', 'Helvetica', 'Avant Garde', sans-serif; text-anchor: middle" x="129.971956" y="202.718437" transform="rotate(-0 129.971956 202.718437)">400</text>
     </g>
    </g>
   </g>
   <g id="matplotlib.axis_12">
    <g id="ytick_13">
     <g id="line2d_41">
      <g>
       <use xlink:href="#mbb28cd6d52" x="40.12" y="187.235014" style="stroke: #000000; stroke-width: 0.8"/>
      </g>
     </g>
     <g id="text_36">
      <text style="font: 10px 'DejaVu Sans', 'Bitstream Vera Sans', 'Computer Modern Sans Serif', 'Lucida Grande', 'Verdana', 'Geneva', 'Lucid', 'Arial', 'Helvetica', 'Avant Garde', sans-serif; text-anchor: end" x="33.12" y="191.034233" transform="rotate(-0 33.12 191.034233)">0.00</text>
     </g>
    </g>
    <g id="ytick_14">
     <g id="line2d_42">
      <g>
       <use xlink:href="#mbb28cd6d52" x="40.12" y="165.631568" style="stroke: #000000; stroke-width: 0.8"/>
      </g>
     </g>
     <g id="text_37">
      <text style="font: 10px 'DejaVu Sans', 'Bitstream Vera Sans', 'Computer Modern Sans Serif', 'Lucida Grande', 'Verdana', 'Geneva', 'Lucid', 'Arial', 'Helvetica', 'Avant Garde', sans-serif; text-anchor: end" x="33.12" y="169.430787" transform="rotate(-0 33.12 169.430787)">0.25</text>
     </g>
    </g>
    <g id="ytick_15">
     <g id="line2d_43">
      <g>
       <use xlink:href="#mbb28cd6d52" x="40.12" y="144.028123" style="stroke: #000000; stroke-width: 0.8"/>
      </g>
     </g>
     <g id="text_38">
      <text style="font: 10px 'DejaVu Sans', 'Bitstream Vera Sans', 'Computer Modern Sans Serif', 'Lucida Grande', 'Verdana', 'Geneva', 'Lucid', 'Arial', 'Helvetica', 'Avant Garde', sans-serif; text-anchor: end" x="33.12" y="147.827342" transform="rotate(-0 33.12 147.827342)">0.50</text>
     </g>
    </g>
   </g>
   <g id="line2d_44">
    <path d="M 44.743636 184.123977 
L 49.218123 183.240013 
L 52.840327 182.310037 
L 56.036389 181.274727 
L 59.01938 180.07703 
L 61.7893 178.719984 
L 64.34615 177.220075 
L 66.903 175.448974 
L 69.246778 173.562854 
L 71.590557 171.409807 
L 74.147407 168.750974 
L 75.425832 167.302931 
L 75.638902 130.770909 
L 76.917327 141.490762 
L 78.195752 150.180862 
L 79.474177 157.238669 
L 80.752602 162.881029 
L 82.031026 167.439457 
L 83.309451 171.174306 
L 84.587876 174.166395 
L 85.866301 176.568456 
L 87.144726 178.52808 
L 88.42315 180.092818 
L 89.914646 181.520144 
L 91.406142 182.630946 
L 92.897637 183.468821 
L 94.602204 184.176944 
L 96.519841 184.729788 
L 98.86362 185.139007 
L 101.420469 185.348955 
L 104.616531 185.372449 
L 106.321098 185.305482 
L 106.534168 140.345332 
L 108.664876 144.642005 
L 110.795584 148.460477 
L 112.926292 151.814964 
L 115.057 154.732284 
L 117.187708 157.245504 
L 119.318416 159.391692 
L 121.449124 161.208637 
L 123.579832 162.733532 
L 125.71054 164.001628 
L 128.054319 165.138851 
L 130.611169 166.116426 
L 133.381089 166.916441 
L 136.36408 167.531859 
L 137.216364 167.668039 
L 137.216364 167.668039 
" clip-path="url(#p6b4d38fe0b)" style="fill: none; stroke: #0000ff; stroke-width: 1.5; stroke-linecap: square"/>
   </g>
   <g id="line2d_45">
    <path d="M 44.743636 184.158534 
L 45.382849 183.976492 
L 47.726628 183.537705 
L 48.578911 183.185073 
L 49.005052 183.061479 
L 49.644265 182.980357 
L 50.709619 182.650136 
L 52.840327 182.060595 
L 53.69261 181.718287 
L 54.118752 181.731093 
L 55.397176 181.051252 
L 56.036389 180.661395 
L 57.314814 180.047107 
L 57.527884 180.08652 
L 57.954026 179.925911 
L 58.380168 179.954437 
L 59.01938 179.559655 
L 59.871663 178.959309 
L 60.510876 178.645073 
L 61.57623 177.971066 
L 61.7893 177.895267 
L 62.002371 177.938941 
L 62.641584 177.608927 
L 63.280796 177.078428 
L 63.706938 176.888448 
L 64.34615 176.20311 
L 66.050716 174.740199 
L 66.903 174.125539 
L 67.11607 173.629087 
L 67.329141 173.44099 
L 67.542212 173.434303 
L 67.755283 173.275614 
L 67.968354 172.84678 
L 69.246778 171.759 
L 69.885991 171.177098 
L 70.099062 171.014971 
L 70.312132 170.581906 
L 70.951345 170.33584 
L 71.377486 169.754504 
L 71.803628 169.389297 
L 72.016699 169.180737 
L 72.44284 168.628754 
L 72.868982 168.237965 
L 73.508194 167.136924 
L 73.721265 167.01022 
L 73.934336 166.750805 
L 74.360478 165.688849 
L 74.573548 165.929668 
L 74.99969 165.092253 
L 75.212761 165.66659 
L 75.425832 164.18811 
L 75.638902 132.483741 
L 77.130398 143.746052 
L 78.408823 151.716775 
L 79.900318 159.455339 
L 80.965672 163.728563 
L 83.522522 171.716648 
L 83.948664 172.579941 
L 84.374805 173.579296 
L 85.65323 175.960312 
L 87.357796 178.511725 
L 88.21008 179.450117 
L 89.488504 180.828713 
L 90.553858 181.6887 
L 90.766929 181.917047 
L 91.193071 182.156706 
L 91.832283 182.657553 
L 92.258425 182.868839 
L 93.962991 183.658338 
L 94.176062 183.80476 
L 94.815274 183.883515 
L 96.945982 184.395897 
L 97.585195 184.424288 
L 98.224407 184.832861 
L 98.86362 184.719292 
L 99.289761 184.460372 
L 100.142044 184.622837 
L 102.485823 184.763367 
L 102.911965 184.674941 
L 103.338106 184.711966 
L 103.977319 184.502457 
L 104.19039 184.574761 
L 104.616531 184.326203 
L 104.829602 184.457597 
L 105.255744 184.384447 
L 105.894956 184.676036 
L 106.321098 184.784903 
L 106.534168 139.353907 
L 107.173381 142.193452 
L 107.599522 142.382908 
L 108.238735 144.296295 
L 109.943301 147.146821 
L 110.156372 147.284856 
L 110.582514 147.847429 
L 111.647868 149.337411 
L 112.074009 150.671504 
L 112.28708 151.019128 
L 112.713222 151.10936 
L 112.926292 151.306645 
L 113.778576 152.738156 
L 113.991646 152.897834 
L 114.417788 153.627037 
L 114.84393 154.09241 
L 115.909284 155.751582 
L 116.335425 156.071817 
L 116.548496 156.155966 
L 118.039992 157.849213 
L 118.253062 157.797549 
L 118.466133 158.284598 
L 119.105346 158.781001 
L 119.531487 159.268589 
L 120.596841 159.999458 
L 121.022983 160.086555 
L 121.662195 160.91856 
L 121.875266 160.791377 
L 122.088337 161.276433 
L 122.514478 161.630026 
L 122.727549 161.411151 
L 122.94062 161.66391 
L 123.153691 161.548638 
L 123.366762 161.562954 
L 123.792903 162.169156 
L 124.005974 162.123364 
L 124.432116 162.485701 
L 124.645186 162.776831 
L 124.858257 162.832415 
L 125.071328 163.090084 
L 125.284399 163.046348 
L 125.49747 163.285325 
L 125.71054 162.971516 
L 125.923611 163.561316 
L 126.349753 163.581084 
L 126.562824 163.39283 
L 127.628178 164.437297 
L 128.054319 164.65884 
L 128.26739 164.574065 
L 128.693532 165.054836 
L 129.545815 165.06277 
L 129.971956 165.600008 
L 130.398098 165.504736 
L 130.611169 165.523142 
L 131.250381 166.041502 
L 131.463452 165.857672 
L 131.676523 166.012452 
L 131.889594 165.898934 
L 132.315735 166.004359 
L 132.741877 166.019918 
L 132.954948 165.900281 
L 133.168018 166.020709 
L 133.381089 166.335077 
L 133.59416 166.38315 
L 134.020302 166.251002 
L 134.446443 166.236681 
L 134.659514 166.5589 
L 134.872585 166.546743 
L 135.085656 166.950303 
L 135.511797 166.468161 
L 136.15101 166.636263 
L 136.36408 166.921557 
L 136.577151 166.562545 
L 136.790222 166.75033 
L 137.216364 167.900185 
L 137.216364 167.900185 
" clip-path="url(#p6b4d38fe0b)" style="fill: none; stroke: #ffa500; stroke-width: 1.5; stroke-linecap: square"/>
   </g>
   <g id="patch_28">
    <path d="M 40.12 188.12 
L 40.12 128.04 
" style="fill: none; stroke: #000000; stroke-width: 0.8; stroke-linejoin: miter; stroke-linecap: square"/>
   </g>
   <g id="patch_29">
    <path d="M 141.84 188.12 
L 141.84 128.04 
" style="fill: none; stroke: #000000; stroke-width: 0.8; stroke-linejoin: miter; stroke-linecap: square"/>
   </g>
   <g id="patch_30">
    <path d="M 40.12 188.12 
L 141.84 188.12 
" style="fill: none; stroke: #000000; stroke-width: 0.8; stroke-linejoin: miter; stroke-linecap: square"/>
   </g>
   <g id="patch_31">
    <path d="M 40.12 128.04 
L 141.84 128.04 
" style="fill: none; stroke: #000000; stroke-width: 0.8; stroke-linejoin: miter; stroke-linecap: square"/>
   </g>
   <g id="text_39">
    <text style="font: 12px 'DejaVu Sans', 'Bitstream Vera Sans', 'Computer Modern Sans Serif', 'Lucida Grande', 'Verdana', 'Geneva', 'Lucid', 'Arial', 'Helvetica', 'Avant Garde', sans-serif; text-anchor: middle" x="90.98" y="122.04" transform="rotate(-0 90.98 122.04)">Testing 1</text>
   </g>
  </g>
  <g id="axes_7">
   <g id="patch_32">
    <path d="M 181.96 188.12 
L 283.68 188.12 
L 283.68 128.04 
L 181.96 128.04 
z
" style="fill: #ffffff"/>
   </g>
   <g id="matplotlib.axis_13">
    <g id="xtick_19">
     <g id="line2d_46">
      <g>
       <use xlink:href="#m67da57884d" x="186.583636" y="188.12" style="stroke: #000000; stroke-width: 0.8"/>
      </g>
     </g>
     <g id="text_40">
      <text style="font: 10px 'DejaVu Sans', 'Bitstream Vera Sans', 'Computer Modern Sans Serif', 'Lucida Grande', 'Verdana', 'Geneva', 'Lucid', 'Arial', 'Helvetica', 'Avant Garde', sans-serif; text-anchor: middle" x="186.583636" y="202.718437" transform="rotate(-0 186.583636 202.718437)">0</text>
     </g>
    </g>
    <g id="xtick_20">
     <g id="line2d_47">
      <g>
       <use xlink:href="#m67da57884d" x="229.197796" y="188.12" style="stroke: #000000; stroke-width: 0.8"/>
      </g>
     </g>
     <g id="text_41">
      <text style="font: 10px 'DejaVu Sans', 'Bitstream Vera Sans', 'Computer Modern Sans Serif', 'Lucida Grande', 'Verdana', 'Geneva', 'Lucid', 'Arial', 'Helvetica', 'Avant Garde', sans-serif; text-anchor: middle" x="229.197796" y="202.718437" transform="rotate(-0 229.197796 202.718437)">200</text>
     </g>
    </g>
    <g id="xtick_21">
     <g id="line2d_48">
      <g>
       <use xlink:href="#m67da57884d" x="271.811956" y="188.12" style="stroke: #000000; stroke-width: 0.8"/>
      </g>
     </g>
     <g id="text_42">
      <text style="font: 10px 'DejaVu Sans', 'Bitstream Vera Sans', 'Computer Modern Sans Serif', 'Lucida Grande', 'Verdana', 'Geneva', 'Lucid', 'Arial', 'Helvetica', 'Avant Garde', sans-serif; text-anchor: middle" x="271.811956" y="202.718437" transform="rotate(-0 271.811956 202.718437)">400</text>
     </g>
    </g>
   </g>
   <g id="matplotlib.axis_14">
    <g id="ytick_16">
     <g id="line2d_49">
      <g>
       <use xlink:href="#mbb28cd6d52" x="181.96" y="186.953315" style="stroke: #000000; stroke-width: 0.8"/>
      </g>
     </g>
     <g id="text_43">
      <text style="font: 10px 'DejaVu Sans', 'Bitstream Vera Sans', 'Computer Modern Sans Serif', 'Lucida Grande', 'Verdana', 'Geneva', 'Lucid', 'Arial', 'Helvetica', 'Avant Garde', sans-serif; text-anchor: end" x="174.96" y="190.752534" transform="rotate(-0 174.96 190.752534)">0.0</text>
     </g>
    </g>
    <g id="ytick_17">
     <g id="line2d_50">
      <g>
       <use xlink:href="#mbb28cd6d52" x="181.96" y="154.485879" style="stroke: #000000; stroke-width: 0.8"/>
      </g>
     </g>
     <g id="text_44">
      <text style="font: 10px 'DejaVu Sans', 'Bitstream Vera Sans', 'Computer Modern Sans Serif', 'Lucida Grande', 'Verdana', 'Geneva', 'Lucid', 'Arial', 'Helvetica', 'Avant Garde', sans-serif; text-anchor: end" x="174.96" y="158.285097" transform="rotate(-0 174.96 158.285097)">0.5</text>
     </g>
    </g>
   </g>
   <g id="line2d_51">
    <path d="M 186.583636 184.821457 
L 190.631982 184.05674 
L 193.828044 183.23974 
L 196.597964 182.316505 
L 199.154814 181.231374 
L 201.498592 179.991973 
L 203.6293 178.623936 
L 205.760008 176.994984 
L 207.890716 175.083203 
L 210.021424 172.881124 
L 212.365203 170.138519 
L 215.135124 166.528503 
L 217.265832 163.551763 
L 217.478902 155.268725 
L 218.757327 160.401005 
L 220.035752 164.708686 
L 221.314177 168.331894 
L 222.592602 171.322353 
L 224.084097 174.203006 
L 225.575593 176.570939 
L 227.067088 178.463578 
L 228.558584 180.00793 
L 230.05008 181.253401 
L 231.754646 182.364989 
L 233.459212 183.233513 
L 235.37685 183.952159 
L 237.507558 184.518665 
L 239.851336 184.907413 
L 242.621257 185.140628 
L 246.03039 185.180304 
L 248.161098 185.108717 
L 248.374168 131.149525 
L 252.848655 140.755645 
L 255.405505 145.735161 
L 257.749284 149.835046 
L 259.879992 153.147971 
L 262.0107 156.067295 
L 264.141408 158.610156 
L 266.272116 160.802313 
L 268.402824 162.674762 
L 270.533532 164.259835 
L 272.87731 165.710281 
L 275.221089 166.893116 
L 277.777939 167.92265 
L 279.056364 168.348725 
L 279.056364 168.348725 
" clip-path="url(#pbcc64c7758)" style="fill: none; stroke: #0000ff; stroke-width: 1.5; stroke-linecap: square"/>
   </g>
   <g id="line2d_52">
    <path d="M 186.583636 184.802495 
L 193.614973 183.117817 
L 194.893398 182.619751 
L 195.53261 182.273307 
L 198.30253 181.47725 
L 201.498592 179.778954 
L 202.563946 179.048806 
L 202.777017 179.032701 
L 203.842371 178.313022 
L 204.268513 177.828482 
L 204.694654 177.478927 
L 204.907725 177.149854 
L 205.333867 176.860048 
L 206.399221 175.794929 
L 206.825362 175.462769 
L 207.677646 174.629971 
L 207.890716 174.546934 
L 209.169141 173.140414 
L 209.595283 172.945597 
L 209.808354 172.590999 
L 210.234495 172.364408 
L 210.660637 171.712464 
L 211.086778 171.058366 
L 211.51292 170.475503 
L 211.939062 170.299722 
L 212.365203 169.846937 
L 212.791345 169.342054 
L 213.217486 168.476375 
L 215.135124 166.198699 
L 215.348194 165.724835 
L 215.987407 165.213402 
L 216.200478 164.726195 
L 216.413548 164.581031 
L 217.052761 163.191566 
L 217.265832 163.75425 
L 217.478902 154.840597 
L 218.118115 158.164194 
L 218.544256 159.804205 
L 219.183469 161.947011 
L 220.035752 164.916719 
L 221.527248 168.936301 
L 222.379531 170.905325 
L 225.575593 176.467511 
L 226.214805 177.308575 
L 227.067088 178.37316 
L 227.706301 179.090259 
L 228.558584 179.837855 
L 229.410867 180.620365 
L 230.26315 181.321957 
L 232.180788 182.470275 
L 232.82 182.756341 
L 233.459212 183.109883 
L 233.885354 183.256775 
L 234.737637 183.627418 
L 235.163779 183.722843 
L 237.294487 184.557592 
L 238.359841 184.49694 
L 240.490549 184.863245 
L 241.129761 184.707075 
L 241.555903 184.826638 
L 241.982044 184.833687 
L 242.834328 185.045759 
L 243.47354 185.014013 
L 243.686611 185.126664 
L 244.112752 185.123495 
L 244.965036 185.192905 
L 245.391177 185.127361 
L 245.604248 185.227627 
L 246.24346 185.134215 
L 246.669602 185.389091 
L 246.882673 185.319955 
L 247.095744 185.097282 
L 247.308814 185.09372 
L 247.521885 184.865167 
L 247.734956 184.842456 
L 247.948027 184.983245 
L 248.161098 184.921861 
L 248.374168 130.770909 
L 248.80031 131.434814 
L 249.652593 133.890622 
L 249.865664 134.40773 
L 250.078735 134.484891 
L 250.504876 135.415796 
L 251.144089 136.91659 
L 252.209443 139.371443 
L 252.422514 139.626291 
L 253.274797 141.309583 
L 253.487868 141.647645 
L 253.914009 142.572741 
L 256.044717 146.711621 
L 257.962354 150.168715 
L 258.814638 151.517951 
L 261.158416 154.952756 
L 261.584558 155.529036 
L 264.354478 158.805111 
L 264.567549 158.898556 
L 264.993691 159.304906 
L 267.33747 161.731373 
L 267.55054 161.735802 
L 267.763611 162.183831 
L 267.976682 162.284152 
L 268.615894 162.978449 
L 268.828965 163.014699 
L 269.255107 163.403893 
L 269.681248 163.617245 
L 272.87731 165.71885 
L 273.090381 165.851073 
L 273.303452 165.850423 
L 273.942664 166.271079 
L 274.368806 166.46383 
L 274.794948 166.652279 
L 275.221089 166.841198 
L 276.073372 167.273209 
L 276.712585 167.422825 
L 276.925656 167.661646 
L 277.351797 167.593486 
L 277.564868 167.829541 
L 277.99101 167.83267 
L 278.20408 168.000635 
L 278.630222 167.955463 
L 279.056364 168.462658 
L 279.056364 168.462658 
" clip-path="url(#pbcc64c7758)" style="fill: none; stroke: #ffa500; stroke-width: 1.5; stroke-linecap: square"/>
   </g>
   <g id="patch_33">
    <path d="M 181.96 188.12 
L 181.96 128.04 
" style="fill: none; stroke: #000000; stroke-width: 0.8; stroke-linejoin: miter; stroke-linecap: square"/>
   </g>
   <g id="patch_34">
    <path d="M 283.68 188.12 
L 283.68 128.04 
" style="fill: none; stroke: #000000; stroke-width: 0.8; stroke-linejoin: miter; stroke-linecap: square"/>
   </g>
   <g id="patch_35">
    <path d="M 181.96 188.12 
L 283.68 188.12 
" style="fill: none; stroke: #000000; stroke-width: 0.8; stroke-linejoin: miter; stroke-linecap: square"/>
   </g>
   <g id="patch_36">
    <path d="M 181.96 128.04 
L 283.68 128.04 
" style="fill: none; stroke: #000000; stroke-width: 0.8; stroke-linejoin: miter; stroke-linecap: square"/>
   </g>
   <g id="text_45">
    <text style="font: 12px 'DejaVu Sans', 'Bitstream Vera Sans', 'Computer Modern Sans Serif', 'Lucida Grande', 'Verdana', 'Geneva', 'Lucid', 'Arial', 'Helvetica', 'Avant Garde', sans-serif; text-anchor: middle" x="232.82" y="122.04" transform="rotate(-0 232.82 122.04)">Testing 2</text>
   </g>
  </g>
  <g id="axes_8">
   <g id="patch_37">
    <path d="M 323.8 188.12 
L 425.52 188.12 
L 425.52 128.04 
L 323.8 128.04 
z
" style="fill: #ffffff"/>
   </g>
   <g id="matplotlib.axis_15">
    <g id="xtick_22">
     <g id="line2d_53">
      <g>
       <use xlink:href="#m67da57884d" x="328.423636" y="188.12" style="stroke: #000000; stroke-width: 0.8"/>
      </g>
     </g>
     <g id="text_46">
      <text style="font: 10px 'DejaVu Sans', 'Bitstream Vera Sans', 'Computer Modern Sans Serif', 'Lucida Grande', 'Verdana', 'Geneva', 'Lucid', 'Arial', 'Helvetica', 'Avant Garde', sans-serif; text-anchor: middle" x="328.423636" y="202.718437" transform="rotate(-0 328.423636 202.718437)">0</text>
     </g>
    </g>
    <g id="xtick_23">
     <g id="line2d_54">
      <g>
       <use xlink:href="#m67da57884d" x="371.037796" y="188.12" style="stroke: #000000; stroke-width: 0.8"/>
      </g>
     </g>
     <g id="text_47">
      <text style="font: 10px 'DejaVu Sans', 'Bitstream Vera Sans', 'Computer Modern Sans Serif', 'Lucida Grande', 'Verdana', 'Geneva', 'Lucid', 'Arial', 'Helvetica', 'Avant Garde', sans-serif; text-anchor: middle" x="371.037796" y="202.718437" transform="rotate(-0 371.037796 202.718437)">200</text>
     </g>
    </g>
    <g id="xtick_24">
     <g id="line2d_55">
      <g>
       <use xlink:href="#m67da57884d" x="413.651956" y="188.12" style="stroke: #000000; stroke-width: 0.8"/>
      </g>
     </g>
     <g id="text_48">
      <text style="font: 10px 'DejaVu Sans', 'Bitstream Vera Sans', 'Computer Modern Sans Serif', 'Lucida Grande', 'Verdana', 'Geneva', 'Lucid', 'Arial', 'Helvetica', 'Avant Garde', sans-serif; text-anchor: middle" x="413.651956" y="202.718437" transform="rotate(-0 413.651956 202.718437)">400</text>
     </g>
    </g>
   </g>
   <g id="matplotlib.axis_16">
    <g id="ytick_18">
     <g id="line2d_56">
      <g>
       <use xlink:href="#mbb28cd6d52" x="323.8" y="187.122519" style="stroke: #000000; stroke-width: 0.8"/>
      </g>
     </g>
     <g id="text_49">
      <text style="font: 10px 'DejaVu Sans', 'Bitstream Vera Sans', 'Computer Modern Sans Serif', 'Lucida Grande', 'Verdana', 'Geneva', 'Lucid', 'Arial', 'Helvetica', 'Avant Garde', sans-serif; text-anchor: end" x="316.8" y="190.921737" transform="rotate(-0 316.8 190.921737)">0.0</text>
     </g>
    </g>
    <g id="ytick_19">
     <g id="line2d_57">
      <g>
       <use xlink:href="#mbb28cd6d52" x="323.8" y="150.153402" style="stroke: #000000; stroke-width: 0.8"/>
      </g>
     </g>
     <g id="text_50">
      <text style="font: 10px 'DejaVu Sans', 'Bitstream Vera Sans', 'Computer Modern Sans Serif', 'Lucida Grande', 'Verdana', 'Geneva', 'Lucid', 'Arial', 'Helvetica', 'Avant Garde', sans-serif; text-anchor: end" x="316.8" y="153.952621" transform="rotate(-0 316.8 153.952621)">0.5</text>
     </g>
    </g>
   </g>
   <g id="line2d_58">
    <path d="M 328.423636 185.326375 
L 332.471982 184.562082 
L 335.668044 183.749985 
L 338.437964 182.832278 
L 340.994814 181.746376 
L 343.338592 180.491422 
L 345.4693 179.08536 
L 347.386938 177.566464 
L 349.304575 175.777646 
L 351.222212 173.698577 
L 353.35292 171.040214 
L 355.696699 167.713894 
L 358.253548 163.680507 
L 359.105832 162.263193 
L 359.318902 160.541645 
L 360.597327 164.643375 
L 362.088823 168.635896 
L 363.367248 171.484928 
L 364.645672 173.844808 
L 366.137168 176.144993 
L 367.628664 178.03635 
L 369.120159 179.549634 
L 370.824726 180.945311 
L 372.316221 181.89934 
L 374.233858 182.832835 
L 376.151496 183.502151 
L 378.282204 183.982354 
L 380.412912 184.242823 
L 382.969761 184.311385 
L 385.526611 184.163653 
L 388.722673 183.749173 
L 390.001098 183.527922 
L 390.214168 130.770909 
L 391.705664 132.53023 
L 393.623301 135.174948 
L 396.393222 139.45744 
L 401.933062 148.131856 
L 404.489912 151.704412 
L 406.833691 154.618428 
L 409.17747 157.166622 
L 411.308178 159.170668 
L 413.438886 160.893122 
L 415.782664 162.488562 
L 418.126443 163.802259 
L 420.470222 164.867794 
L 420.896364 165.037435 
L 420.896364 165.037435 
" clip-path="url(#p21b654df3c)" style="fill: none; stroke: #0000ff; stroke-width: 1.5; stroke-linecap: square"/>
   </g>
   <g id="line2d_59">
    <path d="M 328.423636 185.389091 
L 329.27592 185.282195 
L 330.554344 184.944322 
L 331.193557 184.665475 
L 331.832769 184.700566 
L 332.471982 184.665935 
L 332.898123 184.250808 
L 333.750406 183.930004 
L 335.881114 183.623905 
L 336.094185 183.656235 
L 337.159539 183.210409 
L 337.585681 183.313741 
L 339.077176 182.761953 
L 339.503318 182.554239 
L 339.92946 182.119598 
L 340.781743 181.892509 
L 341.207884 181.504774 
L 342.486309 180.338036 
L 343.551663 179.950434 
L 345.4693 178.458145 
L 345.682371 178.507783 
L 346.534654 177.897711 
L 346.747725 177.552558 
L 347.386938 177.172828 
L 347.600008 176.885139 
L 348.239221 176.539004 
L 349.091504 175.34686 
L 349.517646 175.379999 
L 349.730716 175.16182 
L 350.369929 174.089166 
L 350.583 174.046838 
L 351.222212 173.547372 
L 352.713708 170.880504 
L 355.270557 167.145194 
L 355.696699 166.029956 
L 356.762053 164.269057 
L 357.401265 162.777833 
L 357.614336 162.705063 
L 357.827407 162.852521 
L 358.040478 162.309395 
L 358.466619 160.13471 
L 358.67969 160.149463 
L 359.105832 162.302264 
L 359.318902 160.415797 
L 359.531973 162.016433 
L 360.810398 165.718099 
L 361.44961 167.661587 
L 362.088823 169.110843 
L 362.514964 170.049512 
L 363.154177 171.231435 
L 363.793389 172.626959 
L 365.284885 174.530756 
L 365.924097 175.522101 
L 367.628664 177.802397 
L 369.120159 179.191505 
L 369.759372 179.724354 
L 370.185513 180.240612 
L 371.250867 180.890811 
L 371.89008 181.327353 
L 374.020788 182.403255 
L 375.938425 182.946773 
L 377.42992 183.466602 
L 378.069133 183.520214 
L 379.134487 183.835501 
L 380.839053 184.091064 
L 381.904407 184.218572 
L 382.117478 184.173042 
L 382.54362 184.28105 
L 382.969761 184.160073 
L 383.395903 184.232673 
L 384.674328 184.138276 
L 385.100469 183.909629 
L 385.526611 184.139981 
L 386.805036 183.703677 
L 387.657319 183.850949 
L 388.08346 183.759573 
L 388.509602 183.8528 
L 388.935744 183.436734 
L 389.148814 183.677387 
L 389.574956 183.472783 
L 389.788027 183.952522 
L 390.001098 183.639115 
L 390.214168 131.465259 
L 390.427239 132.049693 
L 390.64031 132.149011 
L 391.066452 132.751601 
L 391.279522 132.445641 
L 391.492593 132.582696 
L 391.705664 133.145016 
L 392.131806 133.319156 
L 392.344876 133.467449 
L 393.41023 134.978362 
L 393.836372 135.32303 
L 394.262514 135.65846 
L 394.901726 136.8541 
L 395.327868 137.345655 
L 395.754009 138.176669 
L 397.032434 139.82617 
L 397.458576 140.635192 
L 397.671646 140.716159 
L 399.376213 143.282188 
L 399.802354 144.029036 
L 400.228496 144.604708 
L 400.867708 145.525775 
L 401.719992 146.730261 
L 402.359204 147.375794 
L 404.916054 151.427424 
L 405.129124 151.660016 
L 405.555266 152.335795 
L 405.768337 152.708037 
L 405.981408 152.810422 
L 406.194478 153.167304 
L 406.407549 153.299167 
L 406.833691 153.88257 
L 407.046762 154.039525 
L 407.472903 154.600751 
L 407.685974 154.775875 
L 408.325186 155.559415 
L 408.538257 155.682667 
L 409.816682 157.178215 
L 410.029753 157.249058 
L 411.308178 158.487463 
L 412.160461 159.24986 
L 412.799673 159.802572 
L 413.225815 159.858645 
L 413.651956 160.225833 
L 414.50424 161.15667 
L 414.71731 161.232393 
L 415.782664 162.259597 
L 416.208806 162.351295 
L 417.061089 163.193218 
L 417.913372 163.378121 
L 418.126443 163.263927 
L 418.339514 163.471011 
L 418.552585 163.484827 
L 418.765656 163.679793 
L 418.978726 163.553334 
L 419.191797 163.619282 
L 419.617939 163.996784 
L 419.83101 163.867243 
L 420.257151 164.203442 
L 420.896364 164.888344 
L 420.896364 164.888344 
" clip-path="url(#p21b654df3c)" style="fill: none; stroke: #ffa500; stroke-width: 1.5; stroke-linecap: square"/>
   </g>
   <g id="patch_38">
    <path d="M 323.8 188.12 
L 323.8 128.04 
" style="fill: none; stroke: #000000; stroke-width: 0.8; stroke-linejoin: miter; stroke-linecap: square"/>
   </g>
   <g id="patch_39">
    <path d="M 425.52 188.12 
L 425.52 128.04 
" style="fill: none; stroke: #000000; stroke-width: 0.8; stroke-linejoin: miter; stroke-linecap: square"/>
   </g>
   <g id="patch_40">
    <path d="M 323.8 188.12 
L 425.52 188.12 
" style="fill: none; stroke: #000000; stroke-width: 0.8; stroke-linejoin: miter; stroke-linecap: square"/>
   </g>
   <g id="patch_41">
    <path d="M 323.8 128.04 
L 425.52 128.04 
" style="fill: none; stroke: #000000; stroke-width: 0.8; stroke-linejoin: miter; stroke-linecap: square"/>
   </g>
   <g id="text_51">
    <text style="font: 12px 'DejaVu Sans', 'Bitstream Vera Sans', 'Computer Modern Sans Serif', 'Lucida Grande', 'Verdana', 'Geneva', 'Lucid', 'Arial', 'Helvetica', 'Avant Garde', sans-serif; text-anchor: middle" x="374.66" y="122.04" transform="rotate(-0 374.66 122.04)">Testing 3</text>
   </g>
  </g>
  <g id="axes_9">
   <g id="patch_42">
    <path d="M 465.64 188.12 
L 567.36 188.12 
L 567.36 128.04 
L 465.64 128.04 
z
" style="fill: #ffffff"/>
   </g>
   <g id="matplotlib.axis_17">
    <g id="xtick_25">
     <g id="line2d_60">
      <g>
       <use xlink:href="#m67da57884d" x="470.263636" y="188.12" style="stroke: #000000; stroke-width: 0.8"/>
      </g>
     </g>
     <g id="text_52">
      <text style="font: 10px 'DejaVu Sans', 'Bitstream Vera Sans', 'Computer Modern Sans Serif', 'Lucida Grande', 'Verdana', 'Geneva', 'Lucid', 'Arial', 'Helvetica', 'Avant Garde', sans-serif; text-anchor: middle" x="470.263636" y="202.718437" transform="rotate(-0 470.263636 202.718437)">0</text>
     </g>
    </g>
    <g id="xtick_26">
     <g id="line2d_61">
      <g>
       <use xlink:href="#m67da57884d" x="512.877796" y="188.12" style="stroke: #000000; stroke-width: 0.8"/>
      </g>
     </g>
     <g id="text_53">
      <text style="font: 10px 'DejaVu Sans', 'Bitstream Vera Sans', 'Computer Modern Sans Serif', 'Lucida Grande', 'Verdana', 'Geneva', 'Lucid', 'Arial', 'Helvetica', 'Avant Garde', sans-serif; text-anchor: middle" x="512.877796" y="202.718437" transform="rotate(-0 512.877796 202.718437)">200</text>
     </g>
    </g>
    <g id="xtick_27">
     <g id="line2d_62">
      <g>
       <use xlink:href="#m67da57884d" x="555.491956" y="188.12" style="stroke: #000000; stroke-width: 0.8"/>
      </g>
     </g>
     <g id="text_54">
      <text style="font: 10px 'DejaVu Sans', 'Bitstream Vera Sans', 'Computer Modern Sans Serif', 'Lucida Grande', 'Verdana', 'Geneva', 'Lucid', 'Arial', 'Helvetica', 'Avant Garde', sans-serif; text-anchor: middle" x="555.491956" y="202.718437" transform="rotate(-0 555.491956 202.718437)">400</text>
     </g>
    </g>
   </g>
   <g id="matplotlib.axis_18">
    <g id="ytick_20">
     <g id="line2d_63">
      <g>
       <use xlink:href="#mbb28cd6d52" x="465.64" y="187.861922" style="stroke: #000000; stroke-width: 0.8"/>
      </g>
     </g>
     <g id="text_55">
      <text style="font: 10px 'DejaVu Sans', 'Bitstream Vera Sans', 'Computer Modern Sans Serif', 'Lucida Grande', 'Verdana', 'Geneva', 'Lucid', 'Arial', 'Helvetica', 'Avant Garde', sans-serif; text-anchor: end" x="458.64" y="191.661141" transform="rotate(-0 458.64 191.661141)">0.00</text>
     </g>
    </g>
    <g id="ytick_21">
     <g id="line2d_64">
      <g>
       <use xlink:href="#mbb28cd6d52" x="465.64" y="166.320753" style="stroke: #000000; stroke-width: 0.8"/>
      </g>
     </g>
     <g id="text_56">
      <text style="font: 10px 'DejaVu Sans', 'Bitstream Vera Sans', 'Computer Modern Sans Serif', 'Lucida Grande', 'Verdana', 'Geneva', 'Lucid', 'Arial', 'Helvetica', 'Avant Garde', sans-serif; text-anchor: end" x="458.64" y="170.119972" transform="rotate(-0 458.64 170.119972)">0.25</text>
     </g>
    </g>
    <g id="ytick_22">
     <g id="line2d_65">
      <g>
       <use xlink:href="#mbb28cd6d52" x="465.64" y="144.779584" style="stroke: #000000; stroke-width: 0.8"/>
      </g>
     </g>
     <g id="text_57">
      <text style="font: 10px 'DejaVu Sans', 'Bitstream Vera Sans', 'Computer Modern Sans Serif', 'Lucida Grande', 'Verdana', 'Geneva', 'Lucid', 'Arial', 'Helvetica', 'Avant Garde', sans-serif; text-anchor: end" x="458.64" y="148.578803" transform="rotate(-0 458.64 148.578803)">0.50</text>
     </g>
    </g>
   </g>
   <g id="line2d_66">
    <path d="M 470.263636 185.389091 
L 473.246628 184.543217 
L 475.803477 183.586947 
L 477.934185 182.561698 
L 479.851822 181.404938 
L 481.76946 179.968919 
L 483.474026 178.40836 
L 485.178592 176.535352 
L 486.883159 174.311207 
L 488.587725 171.709823 
L 490.505362 168.325834 
L 492.63607 164.038217 
L 495.19292 158.312813 
L 499.454336 148.077694 
L 500.945832 144.48277 
L 501.158902 132.047806 
L 502.650398 140.410972 
L 504.141894 147.515923 
L 505.420318 152.710122 
L 506.698743 157.101344 
L 508.40331 162.10033 
L 509.681734 165.230047 
L 511.17323 168.24592 
L 512.664726 170.761728 
L 513.94315 172.503284 
L 515.221575 173.895698 
L 516.5 175.02061 
L 517.778425 175.860326 
L 519.05685 176.427436 
L 520.548345 176.816387 
L 521.82677 176.915671 
L 523.318266 176.77478 
L 525.022832 176.35339 
L 526.727398 175.67744 
L 528.858106 174.563949 
L 531.628027 172.835274 
L 531.841098 172.693719 
L 532.054168 145.689679 
L 533.545664 146.447288 
L 535.25023 147.587159 
L 537.594009 149.441769 
L 544.412275 154.983398 
L 546.969124 156.72171 
L 549.525974 158.193244 
L 552.082824 159.396958 
L 554.639673 160.34864 
L 557.196523 161.07297 
L 559.966443 161.633238 
L 562.736364 161.994861 
L 562.736364 161.994861 
" clip-path="url(#p29f255b445)" style="fill: none; stroke: #0000ff; stroke-width: 1.5; stroke-linecap: square"/>
   </g>
   <g id="line2d_67">
    <path d="M 470.263636 185.296916 
L 472.181274 184.807881 
L 472.820486 184.799444 
L 473.459698 184.481245 
L 473.88584 184.06329 
L 474.311982 183.994703 
L 474.738123 184.000797 
L 476.44269 182.840521 
L 477.294973 182.42608 
L 477.934185 182.0369 
L 478.999539 181.507804 
L 479.425681 181.332946 
L 479.851822 180.951912 
L 480.277964 180.524921 
L 480.491035 180.438301 
L 480.917176 180.108553 
L 481.76946 179.722095 
L 481.98253 179.604094 
L 482.834814 178.289092 
L 483.047884 178.244304 
L 483.687097 177.48658 
L 484.113238 176.745516 
L 484.752451 176.055314 
L 484.965522 175.969888 
L 485.391663 175.468253 
L 486.457017 173.978162 
L 486.883159 172.931637 
L 488.161584 170.771699 
L 488.374654 170.572616 
L 488.800796 169.663478 
L 489.226938 169.01113 
L 489.653079 168.339659 
L 490.079221 167.621959 
L 490.505362 166.491235 
L 491.570716 164.765862 
L 491.996858 163.475879 
L 492.423 163.167011 
L 492.849141 162.017931 
L 493.275283 161.542463 
L 493.701424 160.356426 
L 495.832132 155.352445 
L 496.045203 155.224622 
L 496.471345 154.489784 
L 497.110557 152.775948 
L 498.388982 149.724986 
L 498.815124 149.024173 
L 499.454336 147.164194 
L 499.880478 146.121249 
L 500.093548 146.320251 
L 500.306619 145.191065 
L 500.945832 143.688254 
L 501.158902 130.770909 
L 501.585044 133.047015 
L 502.437327 138.575833 
L 504.354964 147.649136 
L 505.420318 152.141145 
L 508.61638 162.376599 
L 509.468664 164.470889 
L 510.107876 165.64584 
L 511.599372 168.506895 
L 512.877796 170.598055 
L 513.517009 171.198629 
L 516.926142 174.867948 
L 517.352283 174.96873 
L 518.204566 175.444499 
L 518.843779 175.471256 
L 519.05685 175.416566 
L 519.696062 175.673052 
L 520.122204 175.722937 
L 520.761416 175.925625 
L 520.974487 175.766629 
L 521.187558 175.758415 
L 521.400628 175.898857 
L 522.892124 175.49298 
L 523.531336 175.683612 
L 524.170549 175.634878 
L 524.38362 175.554355 
L 524.809761 175.26243 
L 525.235903 175.121691 
L 525.662044 174.946561 
L 525.875115 175.0525 
L 526.514328 174.496239 
L 526.940469 174.483725 
L 527.15354 174.533423 
L 527.366611 174.430627 
L 527.579682 174.184297 
L 527.792752 174.121218 
L 528.218894 173.725322 
L 528.645036 173.629829 
L 529.284248 173.058877 
L 529.497319 173.135772 
L 530.136531 172.721522 
L 530.349602 172.7541 
L 530.562673 172.582055 
L 531.201885 171.13194 
L 531.414956 170.906693 
L 531.628027 170.848068 
L 531.841098 171.223392 
L 532.054168 143.999022 
L 532.267239 144.085247 
L 532.48031 144.429362 
L 532.693381 144.440836 
L 533.332593 144.882521 
L 533.545664 145.26015 
L 534.184876 145.559255 
L 534.397947 145.832557 
L 534.824089 146.6995 
L 535.463301 147.154688 
L 535.676372 147.219376 
L 536.102514 147.577702 
L 536.315584 147.489872 
L 536.741726 147.888195 
L 537.380938 149.076309 
L 537.594009 149.234351 
L 537.80708 149.164386 
L 538.020151 148.868484 
L 538.446292 148.996861 
L 540.36393 150.834676 
L 541.216213 151.228768 
L 541.642354 151.666452 
L 542.068496 152.127882 
L 543.13385 153.129456 
L 543.346921 153.277971 
L 543.559992 153.584084 
L 543.773062 153.586356 
L 544.199204 154.168249 
L 544.412275 154.413019 
L 544.625346 154.396872 
L 545.477629 155.186959 
L 545.6907 155.200956 
L 545.90377 155.493818 
L 546.329912 155.536045 
L 546.969124 155.927623 
L 547.182195 156.454634 
L 547.395266 156.373139 
L 547.608337 156.816283 
L 548.034478 156.867325 
L 548.247549 156.797714 
L 548.46062 157.257501 
L 548.886762 157.227243 
L 549.312903 157.683707 
L 549.525974 157.616091 
L 549.952116 157.738809 
L 550.165186 157.967219 
L 550.378257 158.014974 
L 550.591328 158.32726 
L 550.804399 158.373709 
L 551.01747 158.593355 
L 551.23054 158.408232 
L 551.443611 158.869556 
L 551.869753 158.704352 
L 552.082824 158.774371 
L 552.295894 159.1295 
L 552.508965 159.103688 
L 552.722036 159.419276 
L 552.935107 159.44656 
L 553.148178 159.333978 
L 553.361248 159.579185 
L 553.574319 159.600873 
L 553.78739 159.366421 
L 554.000461 159.315853 
L 554.213532 159.452682 
L 554.426602 159.30912 
L 554.852744 159.760553 
L 555.278886 160.028794 
L 555.705027 160.287675 
L 555.918098 160.355956 
L 556.55731 160.297177 
L 556.770381 160.607339 
L 556.983452 160.680699 
L 557.196523 160.919784 
L 557.409594 160.865175 
L 557.622664 160.94214 
L 557.835735 160.884193 
L 558.048806 160.96444 
L 558.474948 160.915621 
L 558.901089 161.384968 
L 559.11416 161.290222 
L 559.327231 161.012652 
L 559.540302 161.076637 
L 559.753372 161.434662 
L 559.966443 161.301311 
L 560.179514 161.409083 
L 560.392585 161.300011 
L 560.605656 161.498138 
L 561.031797 161.388463 
L 561.244868 161.436442 
L 561.457939 161.740895 
L 561.88408 160.891745 
L 562.097151 160.893257 
L 562.523293 161.535473 
L 562.736364 162.244149 
L 562.736364 162.244149 
" clip-path="url(#p29f255b445)" style="fill: none; stroke: #ffa500; stroke-width: 1.5; stroke-linecap: square"/>
   </g>
   <g id="patch_43">
    <path d="M 465.64 188.12 
L 465.64 128.04 
" style="fill: none; stroke: #000000; stroke-width: 0.8; stroke-linejoin: miter; stroke-linecap: square"/>
   </g>
   <g id="patch_44">
    <path d="M 567.36 188.12 
L 567.36 128.04 
" style="fill: none; stroke: #000000; stroke-width: 0.8; stroke-linejoin: miter; stroke-linecap: square"/>
   </g>
   <g id="patch_45">
    <path d="M 465.64 188.12 
L 567.36 188.12 
" style="fill: none; stroke: #000000; stroke-width: 0.8; stroke-linejoin: miter; stroke-linecap: square"/>
   </g>
   <g id="patch_46">
    <path d="M 465.64 128.04 
L 567.36 128.04 
" style="fill: none; stroke: #000000; stroke-width: 0.8; stroke-linejoin: miter; stroke-linecap: square"/>
   </g>
   <g id="text_58">
    <text style="font: 12px 'DejaVu Sans', 'Bitstream Vera Sans', 'Computer Modern Sans Serif', 'Lucida Grande', 'Verdana', 'Geneva', 'Lucid', 'Arial', 'Helvetica', 'Avant Garde', sans-serif; text-anchor: middle" x="516.5" y="122.04" transform="rotate(-0 516.5 122.04)">Testing 4</text>
   </g>
  </g>
  <g id="axes_10">
   <g id="patch_47">
    <path d="M 607.48 188.12 
L 709.2 188.12 
L 709.2 128.04 
L 607.48 128.04 
z
" style="fill: #ffffff"/>
   </g>
   <g id="matplotlib.axis_19">
    <g id="xtick_28">
     <g id="line2d_68">
      <g>
       <use xlink:href="#m67da57884d" x="612.103636" y="188.12" style="stroke: #000000; stroke-width: 0.8"/>
      </g>
     </g>
     <g id="text_59">
      <text style="font: 10px 'DejaVu Sans', 'Bitstream Vera Sans', 'Computer Modern Sans Serif', 'Lucida Grande', 'Verdana', 'Geneva', 'Lucid', 'Arial', 'Helvetica', 'Avant Garde', sans-serif; text-anchor: middle" x="612.103636" y="202.718437" transform="rotate(-0 612.103636 202.718437)">0</text>
     </g>
    </g>
    <g id="xtick_29">
     <g id="line2d_69">
      <g>
       <use xlink:href="#m67da57884d" x="654.717796" y="188.12" style="stroke: #000000; stroke-width: 0.8"/>
      </g>
     </g>
     <g id="text_60">
      <text style="font: 10px 'DejaVu Sans', 'Bitstream Vera Sans', 'Computer Modern Sans Serif', 'Lucida Grande', 'Verdana', 'Geneva', 'Lucid', 'Arial', 'Helvetica', 'Avant Garde', sans-serif; text-anchor: middle" x="654.717796" y="202.718437" transform="rotate(-0 654.717796 202.718437)">200</text>
     </g>
    </g>
    <g id="xtick_30">
     <g id="line2d_70">
      <g>
       <use xlink:href="#m67da57884d" x="697.331956" y="188.12" style="stroke: #000000; stroke-width: 0.8"/>
      </g>
     </g>
     <g id="text_61">
      <text style="font: 10px 'DejaVu Sans', 'Bitstream Vera Sans', 'Computer Modern Sans Serif', 'Lucida Grande', 'Verdana', 'Geneva', 'Lucid', 'Arial', 'Helvetica', 'Avant Garde', sans-serif; text-anchor: middle" x="697.331956" y="202.718437" transform="rotate(-0 697.331956 202.718437)">400</text>
     </g>
    </g>
   </g>
   <g id="matplotlib.axis_20">
    <g id="ytick_23">
     <g id="line2d_71">
      <g>
       <use xlink:href="#mbb28cd6d52" x="607.48" y="187.232176" style="stroke: #000000; stroke-width: 0.8"/>
      </g>
     </g>
     <g id="text_62">
      <text style="font: 10px 'DejaVu Sans', 'Bitstream Vera Sans', 'Computer Modern Sans Serif', 'Lucida Grande', 'Verdana', 'Geneva', 'Lucid', 'Arial', 'Helvetica', 'Avant Garde', sans-serif; text-anchor: end" x="600.48" y="191.031394" transform="rotate(-0 600.48 191.031394)">0.0</text>
     </g>
    </g>
    <g id="ytick_24">
     <g id="line2d_72">
      <g>
       <use xlink:href="#mbb28cd6d52" x="607.48" y="149.88108" style="stroke: #000000; stroke-width: 0.8"/>
      </g>
     </g>
     <g id="text_63">
      <text style="font: 10px 'DejaVu Sans', 'Bitstream Vera Sans', 'Computer Modern Sans Serif', 'Lucida Grande', 'Verdana', 'Geneva', 'Lucid', 'Arial', 'Helvetica', 'Avant Garde', sans-serif; text-anchor: end" x="600.48" y="153.680298" transform="rotate(-0 600.48 153.680298)">0.5</text>
     </g>
    </g>
   </g>
   <g id="line2d_73">
    <path d="M 612.103636 185.389091 
L 615.299698 184.645267 
L 618.069619 183.776255 
L 620.413398 182.806085 
L 622.544106 181.668787 
L 624.461743 180.376957 
L 626.166309 178.967087 
L 627.870876 177.268819 
L 629.575442 175.246581 
L 631.280008 172.878053 
L 633.197646 169.797529 
L 635.328354 165.904057 
L 637.885203 160.733957 
L 642.785832 150.218555 
L 642.998902 160.799301 
L 644.490398 164.569222 
L 645.981894 167.776109 
L 647.473389 170.470547 
L 648.964885 172.681084 
L 650.669451 174.804589 
L 652.160947 176.281255 
L 653.865513 177.607579 
L 655.357009 178.49048 
L 656.848504 179.103508 
L 658.34 179.499138 
L 659.831496 179.667815 
L 661.322991 179.614827 
L 663.027558 179.324291 
L 664.732124 178.782295 
L 666.649761 177.924095 
L 668.780469 176.718597 
L 671.76346 174.723791 
L 673.681098 173.345834 
L 673.894168 131.805096 
L 674.959522 132.249016 
L 676.024876 132.958733 
L 677.303301 134.112735 
L 678.794797 135.786854 
L 680.925505 138.580832 
L 689.022195 149.629294 
L 691.365974 152.295169 
L 693.709753 154.616673 
L 695.840461 156.429947 
L 697.971169 157.974898 
L 700.314948 159.388843 
L 702.658726 160.534498 
L 704.576364 161.295015 
L 704.576364 161.295015 
" clip-path="url(#pa22aa5eddc)" style="fill: none; stroke: #0000ff; stroke-width: 1.5; stroke-linecap: square"/>
   </g>
   <g id="line2d_74">
    <path d="M 612.103636 185.368401 
L 614.447415 184.798503 
L 615.72584 184.265597 
L 616.151982 184.392844 
L 616.578123 184.166597 
L 617.430406 183.504593 
L 618.069619 183.436128 
L 620.626468 182.486105 
L 621.05261 182.237141 
L 622.970247 181.517992 
L 623.396389 181.025882 
L 623.82253 180.614098 
L 624.461743 180.365043 
L 626.166309 178.564163 
L 628.723159 175.94537 
L 629.788513 173.836744 
L 630.214654 173.63888 
L 631.919221 171.089753 
L 632.558433 170.02345 
L 633.197646 169.118082 
L 633.623787 168.368975 
L 633.836858 167.97181 
L 634.263 167.748459 
L 637.03292 161.84575 
L 638.311345 159.474039 
L 638.737486 158.357712 
L 639.163628 157.573485 
L 640.442053 154.509325 
L 640.868194 153.530636 
L 641.294336 152.420605 
L 641.507407 152.431552 
L 642.146619 150.13545 
L 642.35969 150.192933 
L 642.785832 152.2622 
L 642.998902 159.061581 
L 643.211973 160.960886 
L 643.425044 161.128675 
L 644.064256 162.847494 
L 644.91654 164.764486 
L 645.555752 166.068389 
L 647.68646 170.275554 
L 648.751814 171.663913 
L 649.817168 172.987758 
L 650.030239 173.152905 
L 650.45638 173.688787 
L 650.669451 173.834613 
L 651.734805 175.247793 
L 652.160947 175.467888 
L 654.078584 177.113546 
L 654.717796 177.619155 
L 655.57008 178.191759 
L 655.996221 178.368929 
L 656.422363 178.334849 
L 656.848504 178.453258 
L 657.913858 178.843056 
L 658.766142 179.048445 
L 659.192283 178.716736 
L 659.405354 178.739787 
L 659.831496 178.926901 
L 660.470708 179.111835 
L 662.175274 178.613072 
L 662.601416 178.558682 
L 663.027558 178.48128 
L 663.240628 178.49033 
L 663.66677 178.265219 
L 664.945195 178.188438 
L 665.371336 177.947813 
L 666.010549 177.713693 
L 666.862832 177.408667 
L 667.502044 177.022012 
L 667.715115 177.038111 
L 668.354328 176.699453 
L 668.780469 176.253292 
L 669.206611 176.262363 
L 670.271965 175.338225 
L 670.911177 175.02449 
L 671.76346 174.100715 
L 672.189602 174.103792 
L 672.615744 173.64907 
L 672.828814 173.881213 
L 673.041885 173.929618 
L 673.468027 173.672894 
L 673.681098 173.79459 
L 673.894168 130.770909 
L 674.533381 132.533661 
L 674.746452 132.788221 
L 674.959522 132.314113 
L 675.172593 132.204133 
L 675.385664 132.674956 
L 675.811806 132.938687 
L 676.024876 132.957602 
L 677.09023 134.018598 
L 677.303301 133.87868 
L 677.942514 134.418183 
L 678.368655 135.387616 
L 679.007868 135.789352 
L 679.220938 136.301222 
L 679.860151 136.951293 
L 680.286292 137.597311 
L 680.925505 138.423891 
L 681.564717 139.140319 
L 682.630071 140.536377 
L 683.269284 141.560599 
L 686.252275 145.766915 
L 687.74377 147.942806 
L 689.448337 150.3341 
L 689.661408 150.421391 
L 690.513691 151.37912 
L 690.726762 151.538955 
L 691.152903 152.102986 
L 691.365974 152.290336 
L 691.792116 152.813251 
L 692.85747 153.908276 
L 693.07054 153.96351 
L 693.283611 154.518413 
L 693.709753 154.720272 
L 694.135894 155.255708 
L 694.348965 155.229529 
L 694.775107 155.808524 
L 694.988178 155.86739 
L 695.414319 156.306726 
L 695.62739 156.369434 
L 695.840461 156.313678 
L 696.053532 156.439208 
L 696.266602 156.422567 
L 697.118886 157.204066 
L 697.545027 157.77472 
L 698.823452 158.664075 
L 699.036523 159.022305 
L 700.528018 159.653906 
L 700.741089 159.946887 
L 700.95416 160.027065 
L 701.167231 159.892427 
L 701.380302 160.060461 
L 701.593372 160.418319 
L 701.806443 160.450168 
L 702.019514 160.672101 
L 702.232585 160.557151 
L 702.445656 160.607162 
L 702.658726 160.470563 
L 703.297939 160.893395 
L 703.72408 160.404832 
L 703.937151 160.478333 
L 704.150222 160.840759 
L 704.576364 161.881431 
L 704.576364 161.881431 
" clip-path="url(#pa22aa5eddc)" style="fill: none; stroke: #ffa500; stroke-width: 1.5; stroke-linecap: square"/>
   </g>
   <g id="patch_48">
    <path d="M 607.48 188.12 
L 607.48 128.04 
" style="fill: none; stroke: #000000; stroke-width: 0.8; stroke-linejoin: miter; stroke-linecap: square"/>
   </g>
   <g id="patch_49">
    <path d="M 709.2 188.12 
L 709.2 128.04 
" style="fill: none; stroke: #000000; stroke-width: 0.8; stroke-linejoin: miter; stroke-linecap: square"/>
   </g>
   <g id="patch_50">
    <path d="M 607.48 188.12 
L 709.2 188.12 
" style="fill: none; stroke: #000000; stroke-width: 0.8; stroke-linejoin: miter; stroke-linecap: square"/>
   </g>
   <g id="patch_51">
    <path d="M 607.48 128.04 
L 709.2 128.04 
" style="fill: none; stroke: #000000; stroke-width: 0.8; stroke-linejoin: miter; stroke-linecap: square"/>
   </g>
   <g id="text_64">
    <text style="font: 12px 'DejaVu Sans', 'Bitstream Vera Sans', 'Computer Modern Sans Serif', 'Lucida Grande', 'Verdana', 'Geneva', 'Lucid', 'Arial', 'Helvetica', 'Avant Garde', sans-serif; text-anchor: middle" x="658.34" y="122.04" transform="rotate(-0 658.34 122.04)">Testing 5</text>
   </g>
  </g>
 </g>
 <defs>
  <clipPath id="p04e513b2e4">
   <rect x="40.12" y="25.44" width="101.72" height="60.08"/>
  </clipPath>
  <clipPath id="pee028380c4">
   <rect x="181.96" y="25.44" width="101.72" height="60.08"/>
  </clipPath>
  <clipPath id="p76fdfe5a99">
   <rect x="323.8" y="25.44" width="101.72" height="60.08"/>
  </clipPath>
  <clipPath id="p4f45ef65c0">
   <rect x="465.64" y="25.44" width="101.72" height="60.08"/>
  </clipPath>
  <clipPath id="p2fef7af14a">
   <rect x="607.48" y="25.44" width="101.72" height="60.08"/>
  </clipPath>
  <clipPath id="p6b4d38fe0b">
   <rect x="40.12" y="128.04" width="101.72" height="60.08"/>
  </clipPath>
  <clipPath id="pbcc64c7758">
   <rect x="181.96" y="128.04" width="101.72" height="60.08"/>
  </clipPath>
  <clipPath id="p21b654df3c">
   <rect x="323.8" y="128.04" width="101.72" height="60.08"/>
  </clipPath>
  <clipPath id="p29f255b445">
   <rect x="465.64" y="128.04" width="101.72" height="60.08"/>
  </clipPath>
  <clipPath id="pa22aa5eddc">
   <rect x="607.48" y="128.04" width="101.72" height="60.08"/>
  </clipPath>
 </defs>
</svg>
