<?xml version="1.0" encoding="utf-8" standalone="no"?>
<!DOCTYPE svg PUBLIC "-//W3C//DTD SVG 1.1//EN"
  "http://www.w3.org/Graphics/SVG/1.1/DTD/svg11.dtd">
<svg xmlns:xlink="http://www.w3.org/1999/xlink" width="720pt" height="216pt" viewBox="0 0 720 216" xmlns="http://www.w3.org/2000/svg" version="1.1">
 <metadata>
  <rdf:RDF xmlns:dc="http://purl.org/dc/elements/1.1/" xmlns:cc="http://creativecommons.org/ns#" xmlns:rdf="http://www.w3.org/1999/02/22-rdf-syntax-ns#">
   <cc:Work>
    <dc:type rdf:resource="http://purl.org/dc/dcmitype/StillImage"/>
    <dc:date>2025-03-13T04:51:54.008310</dc:date>
    <dc:format>image/svg+xml</dc:format>
    <dc:creator>
     <cc:Agent>
      <dc:title>Matplotlib v3.8.4, https://matplotlib.org/</dc:title>
     </cc:Agent>
    </dc:creator>
   </cc:Work>
  </rdf:RDF>
 </metadata>
 <defs>
  <style type="text/css">*{stroke-linejoin: round; stroke-linecap: butt}</style>
 </defs>
 <g id="figure_1">
  <g id="patch_1">
   <path d="M 0 216 
L 720 216 
L 720 0 
L 0 0 
z
" style="fill: #ffffff"/>
  </g>
  <g id="axes_1">
   <g id="patch_2">
    <path d="M 40.12 85.52 
L 141.84 85.52 
L 141.84 25.44 
L 40.12 25.44 
z
" style="fill: #ffffff"/>
   </g>
   <g id="matplotlib.axis_1">
    <g id="xtick_1">
     <g id="line2d_1">
      <defs>
       <path id="m3e832032f2" d="M 0 0 
L 0 3.5 
" style="stroke: #000000; stroke-width: 0.8"/>
      </defs>
      <g>
       <use xlink:href="#m3e832032f2" x="44.743636" y="85.52" style="stroke: #000000; stroke-width: 0.8"/>
      </g>
     </g>
     <g id="text_1">
      <text style="font: 10px 'DejaVu Sans', 'Bitstream Vera Sans', 'Computer Modern Sans Serif', 'Lucida Grande', 'Verdana', 'Geneva', 'Lucid', 'Arial', 'Helvetica', 'Avant Garde', sans-serif; text-anchor: middle" x="44.743636" y="100.118438" transform="rotate(-0 44.743636 100.118438)">0</text>
     </g>
    </g>
    <g id="xtick_2">
     <g id="line2d_2">
      <g>
       <use xlink:href="#m3e832032f2" x="98.663594" y="85.52" style="stroke: #000000; stroke-width: 0.8"/>
      </g>
     </g>
     <g id="text_2">
      <text style="font: 10px 'DejaVu Sans', 'Bitstream Vera Sans', 'Computer Modern Sans Serif', 'Lucida Grande', 'Verdana', 'Geneva', 'Lucid', 'Arial', 'Helvetica', 'Avant Garde', sans-serif; text-anchor: middle" x="98.663594" y="100.118438" transform="rotate(-0 98.663594 100.118438)">200</text>
     </g>
    </g>
   </g>
   <g id="matplotlib.axis_2">
    <g id="ytick_1">
     <g id="line2d_3">
      <defs>
       <path id="m6ac0671530" d="M 0 0 
L -3.5 0 
" style="stroke: #000000; stroke-width: 0.8"/>
      </defs>
      <g>
       <use xlink:href="#m6ac0671530" x="40.12" y="84.983689" style="stroke: #000000; stroke-width: 0.8"/>
      </g>
     </g>
     <g id="text_3">
      <text style="font: 10px 'DejaVu Sans', 'Bitstream Vera Sans', 'Computer Modern Sans Serif', 'Lucida Grande', 'Verdana', 'Geneva', 'Lucid', 'Arial', 'Helvetica', 'Avant Garde', sans-serif; text-anchor: end" x="33.12" y="88.782908" transform="rotate(-0 33.12 88.782908)">0.00</text>
     </g>
    </g>
    <g id="ytick_2">
     <g id="line2d_4">
      <g>
       <use xlink:href="#m6ac0671530" x="40.12" y="60.952496" style="stroke: #000000; stroke-width: 0.8"/>
      </g>
     </g>
     <g id="text_4">
      <text style="font: 10px 'DejaVu Sans', 'Bitstream Vera Sans', 'Computer Modern Sans Serif', 'Lucida Grande', 'Verdana', 'Geneva', 'Lucid', 'Arial', 'Helvetica', 'Avant Garde', sans-serif; text-anchor: end" x="33.12" y="64.751714" transform="rotate(-0 33.12 64.751714)">0.25</text>
     </g>
    </g>
    <g id="ytick_3">
     <g id="line2d_5">
      <g>
       <use xlink:href="#m6ac0671530" x="40.12" y="36.921302" style="stroke: #000000; stroke-width: 0.8"/>
      </g>
     </g>
     <g id="text_5">
      <text style="font: 10px 'DejaVu Sans', 'Bitstream Vera Sans', 'Computer Modern Sans Serif', 'Lucida Grande', 'Verdana', 'Geneva', 'Lucid', 'Arial', 'Helvetica', 'Avant Garde', sans-serif; text-anchor: end" x="33.12" y="40.720521" transform="rotate(-0 33.12 40.720521)">0.50</text>
     </g>
    </g>
   </g>
   <g id="line2d_6">
    <path d="M 44.743636 69.729726 
L 53.640429 67.049559 
L 67.659618 62.567403 
L 67.929218 80.008434 
L 78.71321 80.418178 
L 90.5756 80.641046 
L 90.8452 80.643683 
L 91.1148 67.875058 
L 93.271598 67.786861 
L 95.697996 67.454842 
L 98.124394 66.901574 
L 101.359592 65.907981 
L 107.290787 63.822207 
L 114.030782 61.249682 
L 114.300382 77.227082 
L 118.344378 67.571225 
L 122.388375 58.461122 
L 126.701972 49.311564 
L 131.015569 40.70831 
L 135.329165 32.622139 
L 137.216364 29.233785 
L 137.216364 29.233785 
" clip-path="url(#p1ac896a8dc)" style="fill: none; stroke: #0000ff; stroke-width: 1.5; stroke-linecap: square"/>
   </g>
   <g id="line2d_7">
    <path d="M 44.743636 69.67018 
L 45.013236 69.422779 
L 46.630835 69.057419 
L 47.709234 68.766376 
L 49.596433 68.055745 
L 49.866032 68.04984 
L 50.674832 67.672569 
L 52.022831 67.191775 
L 52.83163 66.894229 
L 53.37083 66.659211 
L 54.179629 66.470045 
L 54.449229 66.385452 
L 54.988428 66.057396 
L 56.066827 65.701829 
L 56.336427 65.49174 
L 56.875627 65.344454 
L 57.414826 65.121903 
L 57.954026 65.089109 
L 58.762825 64.608231 
L 60.380424 64.22825 
L 61.189223 63.780404 
L 62.806822 63.408138 
L 63.076422 63.344917 
L 63.615622 62.944088 
L 63.885221 62.94518 
L 64.424421 62.702141 
L 65.50282 62.570646 
L 65.77242 62.251132 
L 66.04202 62.23883 
L 66.581219 61.949483 
L 66.850819 61.939464 
L 67.120419 62.150217 
L 67.390019 61.638583 
L 67.659618 60.469048 
L 67.929218 79.860585 
L 68.468418 79.784038 
L 76.286812 80.119964 
L 76.826011 80.11141 
L 77.095611 80.177599 
L 77.63481 80.151199 
L 78.44361 80.144129 
L 78.71321 80.133616 
L 78.982809 80.324352 
L 79.252409 80.276666 
L 80.061209 80.369614 
L 80.600408 80.337935 
L 83.026806 80.5912 
L 83.566006 80.456598 
L 83.835606 80.564751 
L 84.105205 80.495705 
L 84.374805 80.577033 
L 85.183605 80.404193 
L 85.453204 80.504999 
L 85.722804 80.35972 
L 85.992404 80.402552 
L 86.262004 80.263452 
L 86.531603 80.32978 
L 86.801203 80.547576 
L 87.340403 80.526973 
L 87.610003 80.34143 
L 88.418802 80.455502 
L 88.688402 80.390543 
L 88.958002 80.652531 
L 89.227601 80.585933 
L 89.766801 80.1728 
L 90.036401 79.974105 
L 90.306001 79.48749 
L 90.5756 80.650268 
L 90.8452 82.789091 
L 91.1148 66.475451 
L 91.3844 66.863719 
L 91.923599 67.179097 
L 92.462799 67.16132 
L 93.271598 67.594811 
L 93.810798 67.604857 
L 95.158797 67.679851 
L 95.428397 67.459974 
L 95.697996 67.727343 
L 95.967596 67.381624 
L 96.506796 67.575779 
L 96.776395 67.258125 
L 97.585195 67.266592 
L 98.663594 66.980685 
L 99.202794 66.467481 
L 99.741993 66.486052 
L 100.011593 66.182414 
L 100.281193 66.437421 
L 100.550792 66.304399 
L 100.820392 66.359781 
L 101.359592 66.069852 
L 101.629192 66.032668 
L 101.898791 65.808909 
L 102.168391 65.865185 
L 102.437991 65.796776 
L 103.24679 65.27828 
L 104.05559 65.22293 
L 104.32519 64.949304 
L 104.594789 64.920688 
L 104.864389 64.68104 
L 105.133989 64.623063 
L 105.403589 64.398957 
L 105.673188 64.368922 
L 105.942788 64.132505 
L 106.481988 64.036771 
L 107.560387 63.516731 
L 108.369186 63.252594 
L 109.447585 62.42406 
L 109.717185 62.481793 
L 109.986785 62.691412 
L 110.256385 62.708548 
L 110.525985 62.889677 
L 110.795584 62.604158 
L 111.065184 62.109251 
L 111.334784 62.070656 
L 111.873984 61.614291 
L 112.413183 61.770679 
L 112.682783 62.286782 
L 112.952383 62.208122 
L 113.221983 62.496199 
L 113.491582 61.844457 
L 113.761182 61.917541 
L 114.030782 61.516192 
L 114.300382 77.323625 
L 121.849176 59.305149 
L 122.118776 58.82358 
L 122.388375 58.050126 
L 122.927575 57.14583 
L 123.197175 56.611415 
L 123.466774 55.804902 
L 124.005974 54.830534 
L 124.545174 53.33495 
L 124.814773 53.012867 
L 125.353973 51.853406 
L 129.937169 42.089167 
L 130.745969 40.489667 
L 131.554768 39.008152 
L 131.824368 38.666437 
L 132.363567 37.581425 
L 133.441967 35.026946 
L 135.329165 31.776627 
L 135.598765 31.531973 
L 135.868365 30.736623 
L 136.137964 30.346606 
L 136.946764 28.494384 
L 137.216364 28.170909 
L 137.216364 28.170909 
" clip-path="url(#p1ac896a8dc)" style="fill: none; stroke: #ffa500; stroke-width: 1.5; stroke-linecap: square"/>
   </g>
   <g id="patch_3">
    <path d="M 40.12 85.52 
L 40.12 25.44 
" style="fill: none; stroke: #000000; stroke-width: 0.8; stroke-linejoin: miter; stroke-linecap: square"/>
   </g>
   <g id="patch_4">
    <path d="M 141.84 85.52 
L 141.84 25.44 
" style="fill: none; stroke: #000000; stroke-width: 0.8; stroke-linejoin: miter; stroke-linecap: square"/>
   </g>
   <g id="patch_5">
    <path d="M 40.12 85.52 
L 141.84 85.52 
" style="fill: none; stroke: #000000; stroke-width: 0.8; stroke-linejoin: miter; stroke-linecap: square"/>
   </g>
   <g id="patch_6">
    <path d="M 40.12 25.44 
L 141.84 25.44 
" style="fill: none; stroke: #000000; stroke-width: 0.8; stroke-linejoin: miter; stroke-linecap: square"/>
   </g>
   <g id="text_6">
    <text style="font: 12px 'DejaVu Sans', 'Bitstream Vera Sans', 'Computer Modern Sans Serif', 'Lucida Grande', 'Verdana', 'Geneva', 'Lucid', 'Arial', 'Helvetica', 'Avant Garde', sans-serif; text-anchor: middle" x="90.98" y="19.44" transform="rotate(-0 90.98 19.44)">Training 1</text>
   </g>
  </g>
  <g id="axes_2">
   <g id="patch_7">
    <path d="M 181.96 85.52 
L 283.68 85.52 
L 283.68 25.44 
L 181.96 25.44 
z
" style="fill: #ffffff"/>
   </g>
   <g id="matplotlib.axis_3">
    <g id="xtick_3">
     <g id="line2d_8">
      <g>
       <use xlink:href="#m3e832032f2" x="186.583636" y="85.52" style="stroke: #000000; stroke-width: 0.8"/>
      </g>
     </g>
     <g id="text_7">
      <text style="font: 10px 'DejaVu Sans', 'Bitstream Vera Sans', 'Computer Modern Sans Serif', 'Lucida Grande', 'Verdana', 'Geneva', 'Lucid', 'Arial', 'Helvetica', 'Avant Garde', sans-serif; text-anchor: middle" x="186.583636" y="100.118438" transform="rotate(-0 186.583636 100.118438)">0</text>
     </g>
    </g>
    <g id="xtick_4">
     <g id="line2d_9">
      <g>
       <use xlink:href="#m3e832032f2" x="240.503594" y="85.52" style="stroke: #000000; stroke-width: 0.8"/>
      </g>
     </g>
     <g id="text_8">
      <text style="font: 10px 'DejaVu Sans', 'Bitstream Vera Sans', 'Computer Modern Sans Serif', 'Lucida Grande', 'Verdana', 'Geneva', 'Lucid', 'Arial', 'Helvetica', 'Avant Garde', sans-serif; text-anchor: middle" x="240.503594" y="100.118438" transform="rotate(-0 240.503594 100.118438)">200</text>
     </g>
    </g>
   </g>
   <g id="matplotlib.axis_4">
    <g id="ytick_4">
     <g id="line2d_10">
      <g>
       <use xlink:href="#m6ac0671530" x="181.96" y="62.179125" style="stroke: #000000; stroke-width: 0.8"/>
      </g>
     </g>
     <g id="text_9">
      <text style="font: 10px 'DejaVu Sans', 'Bitstream Vera Sans', 'Computer Modern Sans Serif', 'Lucida Grande', 'Verdana', 'Geneva', 'Lucid', 'Arial', 'Helvetica', 'Avant Garde', sans-serif; text-anchor: end" x="174.96" y="65.978344" transform="rotate(-0 174.96 65.978344)">0.25</text>
     </g>
    </g>
    <g id="ytick_5">
     <g id="line2d_11">
      <g>
       <use xlink:href="#m6ac0671530" x="181.96" y="37.69352" style="stroke: #000000; stroke-width: 0.8"/>
      </g>
     </g>
     <g id="text_10">
      <text style="font: 10px 'DejaVu Sans', 'Bitstream Vera Sans', 'Computer Modern Sans Serif', 'Lucida Grande', 'Verdana', 'Geneva', 'Lucid', 'Arial', 'Helvetica', 'Avant Garde', sans-serif; text-anchor: end" x="174.96" y="41.492738" transform="rotate(-0 174.96 41.492738)">0.50</text>
     </g>
    </g>
   </g>
   <g id="line2d_12">
    <path d="M 186.583636 72.456473 
L 187.931635 67.783617 
L 191.975632 53.34635 
L 193.323631 49.653194 
L 194.67163 46.613854 
L 196.019629 44.098076 
L 197.637228 41.595451 
L 200.602825 37.613401 
L 203.029223 34.765057 
L 205.455622 32.237595 
L 208.421219 29.469229 
L 209.499618 28.532072 
L 209.769218 82.721706 
L 210.847617 81.161702 
L 211.926016 79.08774 
L 213.274015 75.785617 
L 216.778813 66.580701 
L 218.396411 63.139357 
L 220.01401 60.234044 
L 222.710008 56.022043 
L 225.406006 52.00882 
L 228.102004 48.395201 
L 231.067601 44.794998 
L 232.6852 42.972138 
L 232.9548 60.972129 
L 234.033199 53.656452 
L 234.841998 49.480803 
L 235.650798 46.633484 
L 236.459597 44.838721 
L 236.998797 44.092781 
L 237.537996 43.628949 
L 238.077196 43.387698 
L 238.885995 43.325977 
L 239.694795 43.498818 
L 241.042794 44.078435 
L 244.817191 45.880501 
L 246.704389 46.486583 
L 248.321988 46.798495 
L 249.939587 46.900141 
L 251.826785 46.78398 
L 254.253183 46.378467 
L 255.870782 45.977525 
L 256.140382 76.835733 
L 259.914779 73.441558 
L 264.497975 69.012657 
L 270.159571 63.225987 
L 278.247564 54.622755 
L 279.056364 53.75068 
L 279.056364 53.75068 
" clip-path="url(#pc6ae7145c7)" style="fill: none; stroke: #0000ff; stroke-width: 1.5; stroke-linecap: square"/>
   </g>
   <g id="line2d_13">
    <path d="M 186.583636 72.651964 
L 187.662036 68.793919 
L 191.975632 52.901873 
L 193.323631 49.209195 
L 194.13243 47.417576 
L 195.750029 44.182853 
L 197.367628 41.750407 
L 200.872425 36.663903 
L 201.950824 35.419495 
L 204.377222 32.622856 
L 208.690819 28.500046 
L 208.960419 28.569656 
L 209.230019 28.170909 
L 209.499618 28.626113 
L 209.769218 82.789091 
L 210.578017 81.679906 
L 211.656417 79.638256 
L 212.465216 77.795613 
L 213.543615 74.955787 
L 215.970013 68.131831 
L 220.28361 59.223902 
L 221.092409 58.12204 
L 221.631609 57.107902 
L 221.901209 56.785412 
L 222.710008 55.32621 
L 224.597206 52.519335 
L 225.675606 50.939984 
L 226.484405 49.808874 
L 227.023605 49.115408 
L 227.562804 48.085934 
L 228.102004 47.505494 
L 228.641203 46.960956 
L 229.180403 46.133182 
L 229.719602 45.683635 
L 230.258802 44.913778 
L 230.798002 44.465567 
L 231.067601 44.306285 
L 231.606801 42.946542 
L 231.876401 42.831528 
L 232.4156 42.195573 
L 232.6852 42.794493 
L 232.9548 60.683294 
L 234.572399 50.198455 
L 235.381198 46.8873 
L 236.189997 44.69551 
L 237.268397 43.301134 
L 237.807596 42.605388 
L 238.885995 42.332324 
L 239.964394 42.581158 
L 240.773194 43.13417 
L 241.042794 43.103962 
L 242.390792 43.586262 
L 242.660392 43.859318 
L 243.199592 43.935317 
L 243.738791 44.15651 
L 244.008391 44.380533 
L 244.277991 44.349783 
L 244.817191 44.631574 
L 245.08679 44.647199 
L 245.35639 44.789158 
L 245.62599 44.706316 
L 246.434789 45.103641 
L 246.704389 44.977235 
L 246.973989 45.115174 
L 247.243589 45.11032 
L 247.782788 45.381338 
L 248.052388 45.263866 
L 248.321988 45.273364 
L 248.591588 45.522721 
L 251.017986 45.258638 
L 251.287585 45.039402 
L 252.096385 45.0284 
L 252.905184 44.747219 
L 253.174784 44.910138 
L 253.983583 44.704065 
L 254.253183 44.407419 
L 254.522783 44.605371 
L 254.792383 43.997166 
L 255.061983 44.232206 
L 255.331582 43.922109 
L 255.870782 43.635411 
L 256.140382 76.351871 
L 257.218781 75.430338 
L 257.75798 74.883137 
L 258.02758 74.761303 
L 258.56678 74.12674 
L 259.105979 73.695051 
L 260.184378 72.727964 
L 261.801977 71.292884 
L 262.341177 70.696091 
L 262.610777 70.551304 
L 263.419576 69.710409 
L 263.689176 69.653743 
L 265.037175 68.399936 
L 265.845974 67.742876 
L 267.193973 66.211167 
L 269.350771 64.140113 
L 269.620371 63.754303 
L 269.889971 63.690643 
L 271.50757 62.198892 
L 272.855569 60.595374 
L 273.394768 60.036475 
L 273.664368 60.076794 
L 274.203567 59.512986 
L 274.473167 59.041596 
L 274.742767 58.881374 
L 275.012367 58.563312 
L 275.281967 58.504306 
L 276.090766 57.638639 
L 276.360366 56.949743 
L 277.169165 56.193996 
L 277.708365 55.930386 
L 277.977964 55.481615 
L 278.247564 55.372507 
L 279.056364 54.11269 
L 279.056364 54.11269 
" clip-path="url(#pc6ae7145c7)" style="fill: none; stroke: #ffa500; stroke-width: 1.5; stroke-linecap: square"/>
   </g>
   <g id="patch_8">
    <path d="M 181.96 85.52 
L 181.96 25.44 
" style="fill: none; stroke: #000000; stroke-width: 0.8; stroke-linejoin: miter; stroke-linecap: square"/>
   </g>
   <g id="patch_9">
    <path d="M 283.68 85.52 
L 283.68 25.44 
" style="fill: none; stroke: #000000; stroke-width: 0.8; stroke-linejoin: miter; stroke-linecap: square"/>
   </g>
   <g id="patch_10">
    <path d="M 181.96 85.52 
L 283.68 85.52 
" style="fill: none; stroke: #000000; stroke-width: 0.8; stroke-linejoin: miter; stroke-linecap: square"/>
   </g>
   <g id="patch_11">
    <path d="M 181.96 25.44 
L 283.68 25.44 
" style="fill: none; stroke: #000000; stroke-width: 0.8; stroke-linejoin: miter; stroke-linecap: square"/>
   </g>
   <g id="text_11">
    <text style="font: 12px 'DejaVu Sans', 'Bitstream Vera Sans', 'Computer Modern Sans Serif', 'Lucida Grande', 'Verdana', 'Geneva', 'Lucid', 'Arial', 'Helvetica', 'Avant Garde', sans-serif; text-anchor: middle" x="232.82" y="19.44" transform="rotate(-0 232.82 19.44)">Training 2</text>
   </g>
  </g>
  <g id="axes_3">
   <g id="patch_12">
    <path d="M 323.8 85.52 
L 425.52 85.52 
L 425.52 25.44 
L 323.8 25.44 
z
" style="fill: #ffffff"/>
   </g>
   <g id="matplotlib.axis_5">
    <g id="xtick_5">
     <g id="line2d_14">
      <g>
       <use xlink:href="#m3e832032f2" x="328.423636" y="85.52" style="stroke: #000000; stroke-width: 0.8"/>
      </g>
     </g>
     <g id="text_12">
      <text style="font: 10px 'DejaVu Sans', 'Bitstream Vera Sans', 'Computer Modern Sans Serif', 'Lucida Grande', 'Verdana', 'Geneva', 'Lucid', 'Arial', 'Helvetica', 'Avant Garde', sans-serif; text-anchor: middle" x="328.423636" y="100.118438" transform="rotate(-0 328.423636 100.118438)">0</text>
     </g>
    </g>
    <g id="xtick_6">
     <g id="line2d_15">
      <g>
       <use xlink:href="#m3e832032f2" x="382.343594" y="85.52" style="stroke: #000000; stroke-width: 0.8"/>
      </g>
     </g>
     <g id="text_13">
      <text style="font: 10px 'DejaVu Sans', 'Bitstream Vera Sans', 'Computer Modern Sans Serif', 'Lucida Grande', 'Verdana', 'Geneva', 'Lucid', 'Arial', 'Helvetica', 'Avant Garde', sans-serif; text-anchor: middle" x="382.343594" y="100.118438" transform="rotate(-0 382.343594 100.118438)">200</text>
     </g>
    </g>
   </g>
   <g id="matplotlib.axis_6">
    <g id="ytick_6">
     <g id="line2d_16">
      <g>
       <use xlink:href="#m6ac0671530" x="323.8" y="64.781059" style="stroke: #000000; stroke-width: 0.8"/>
      </g>
     </g>
     <g id="text_14">
      <text style="font: 10px 'DejaVu Sans', 'Bitstream Vera Sans', 'Computer Modern Sans Serif', 'Lucida Grande', 'Verdana', 'Geneva', 'Lucid', 'Arial', 'Helvetica', 'Avant Garde', sans-serif; text-anchor: end" x="316.8" y="68.580278" transform="rotate(-0 316.8 68.580278)">0.25</text>
     </g>
    </g>
    <g id="ytick_7">
     <g id="line2d_17">
      <g>
       <use xlink:href="#m6ac0671530" x="323.8" y="42.262332" style="stroke: #000000; stroke-width: 0.8"/>
      </g>
     </g>
     <g id="text_15">
      <text style="font: 10px 'DejaVu Sans', 'Bitstream Vera Sans', 'Computer Modern Sans Serif', 'Lucida Grande', 'Verdana', 'Geneva', 'Lucid', 'Arial', 'Helvetica', 'Avant Garde', sans-serif; text-anchor: end" x="316.8" y="46.061551" transform="rotate(-0 316.8 46.061551)">0.50</text>
     </g>
    </g>
   </g>
   <g id="line2d_18">
    <path d="M 328.423636 72.070542 
L 335.97243 69.098196 
L 351.339618 62.74861 
L 351.609218 82.789091 
L 362.662809 82.41685 
L 374.5252 81.805329 
L 374.7948 55.741393 
L 376.142799 57.56644 
L 377.490798 59.053621 
L 378.838797 60.246375 
L 380.186796 61.15767 
L 381.534795 61.811442 
L 383.152393 62.312906 
L 385.039592 62.637522 
L 386.92679 62.726858 
L 388.813989 62.597239 
L 391.240387 62.186493 
L 394.475584 61.381453 
L 397.710782 60.372696 
L 397.980382 76.299164 
L 402.293978 66.148201 
L 406.607575 56.543418 
L 411.190771 46.904649 
L 415.773968 37.812768 
L 420.357164 29.241518 
L 420.896364 28.264768 
L 420.896364 28.264768 
" clip-path="url(#p432ac7fe5a)" style="fill: none; stroke: #0000ff; stroke-width: 1.5; stroke-linecap: square"/>
   </g>
   <g id="line2d_19">
    <path d="M 328.423636 72.091253 
L 328.962836 71.852906 
L 330.041235 71.543261 
L 332.737233 70.573175 
L 333.546032 70.2229 
L 334.354832 69.841213 
L 335.163631 69.596506 
L 335.97243 69.274726 
L 338.129229 68.408518 
L 338.668428 68.149356 
L 339.477228 67.923544 
L 340.016427 67.55252 
L 340.286027 67.517211 
L 340.825227 67.188363 
L 342.173226 66.693642 
L 342.712425 66.363764 
L 342.982025 66.393277 
L 343.251625 66.291744 
L 343.521224 66.060919 
L 344.330024 65.840596 
L 345.138823 65.278072 
L 345.678023 65.080235 
L 345.947623 64.924658 
L 346.217222 64.994121 
L 347.026022 64.518346 
L 348.64362 64.053656 
L 349.991619 63.303559 
L 350.530819 63.144441 
L 350.800419 62.920935 
L 351.070019 62.453243 
L 351.339618 62.218022 
L 351.609218 82.649825 
L 352.418017 82.522408 
L 354.305216 82.485303 
L 354.844416 82.393026 
L 357.270814 82.331681 
L 357.810013 82.254544 
L 358.888412 82.184009 
L 364.010808 81.74776 
L 364.550008 81.759238 
L 364.819608 81.575364 
L 365.358807 81.65912 
L 365.628407 81.522371 
L 366.706806 81.641511 
L 367.246006 81.460617 
L 368.054805 81.619416 
L 368.863605 81.163677 
L 369.133204 81.330618 
L 369.672404 81.260336 
L 370.211603 81.013627 
L 371.290003 81.382482 
L 371.829202 81.25615 
L 372.368402 81.009423 
L 372.638002 81.119951 
L 372.907601 81.07406 
L 373.177201 80.734423 
L 373.446801 80.626177 
L 373.716401 80.740914 
L 373.986001 81.488494 
L 374.2556 81.668202 
L 374.5252 79.000536 
L 374.7948 56.704692 
L 375.0644 56.617901 
L 375.603599 56.860097 
L 375.873199 57.56462 
L 376.142799 57.875822 
L 376.412399 58.407889 
L 376.951598 58.76969 
L 377.221198 58.833097 
L 378.299597 60.087152 
L 378.838797 60.426084 
L 379.647596 60.974094 
L 380.186796 61.018702 
L 380.995595 61.229581 
L 381.804394 61.722117 
L 382.073994 61.712955 
L 383.152393 62.219144 
L 383.421993 62.215348 
L 383.691593 61.999581 
L 383.961193 62.103874 
L 384.230792 62.018423 
L 384.769992 62.138211 
L 385.309192 61.965751 
L 385.848391 62.154414 
L 386.387591 62.067014 
L 386.657191 62.132737 
L 387.19639 61.994139 
L 387.46599 62.038953 
L 388.00519 61.802698 
L 388.274789 61.654973 
L 388.544389 61.653443 
L 388.813989 61.529503 
L 389.083589 61.700665 
L 389.353188 61.598855 
L 389.622788 61.62759 
L 389.892388 61.420871 
L 390.161988 61.537446 
L 390.970787 61.08857 
L 391.240387 61.229243 
L 391.779587 61.113465 
L 392.049186 60.855348 
L 392.857986 60.859182 
L 393.127585 60.562035 
L 393.666785 60.740371 
L 393.936385 60.451063 
L 394.745184 60.247561 
L 395.014784 60.391622 
L 396.093183 59.697141 
L 396.362783 59.702885 
L 396.632383 59.558988 
L 397.171582 58.833765 
L 397.441182 59.006197 
L 397.710782 58.984225 
L 397.980382 75.896346 
L 399.058781 73.475215 
L 402.563578 65.273899 
L 404.181177 61.522977 
L 404.989976 59.757487 
L 406.068375 57.32101 
L 408.764373 51.558553 
L 409.033973 51.184868 
L 411.460371 45.974735 
L 413.07797 42.732611 
L 414.965168 38.990202 
L 415.504368 38.049053 
L 417.121967 34.788025 
L 417.391566 34.564878 
L 417.661166 33.706432 
L 417.930766 33.334658 
L 418.200366 33.182815 
L 418.739565 31.812429 
L 419.548365 30.588506 
L 420.357164 28.804572 
L 420.626764 28.586777 
L 420.896364 28.170909 
L 420.896364 28.170909 
" clip-path="url(#p432ac7fe5a)" style="fill: none; stroke: #ffa500; stroke-width: 1.5; stroke-linecap: square"/>
   </g>
   <g id="patch_13">
    <path d="M 323.8 85.52 
L 323.8 25.44 
" style="fill: none; stroke: #000000; stroke-width: 0.8; stroke-linejoin: miter; stroke-linecap: square"/>
   </g>
   <g id="patch_14">
    <path d="M 425.52 85.52 
L 425.52 25.44 
" style="fill: none; stroke: #000000; stroke-width: 0.8; stroke-linejoin: miter; stroke-linecap: square"/>
   </g>
   <g id="patch_15">
    <path d="M 323.8 85.52 
L 425.52 85.52 
" style="fill: none; stroke: #000000; stroke-width: 0.8; stroke-linejoin: miter; stroke-linecap: square"/>
   </g>
   <g id="patch_16">
    <path d="M 323.8 25.44 
L 425.52 25.44 
" style="fill: none; stroke: #000000; stroke-width: 0.8; stroke-linejoin: miter; stroke-linecap: square"/>
   </g>
   <g id="text_16">
    <text style="font: 12px 'DejaVu Sans', 'Bitstream Vera Sans', 'Computer Modern Sans Serif', 'Lucida Grande', 'Verdana', 'Geneva', 'Lucid', 'Arial', 'Helvetica', 'Avant Garde', sans-serif; text-anchor: middle" x="374.66" y="19.44" transform="rotate(-0 374.66 19.44)">Training 3</text>
   </g>
  </g>
  <g id="axes_4">
   <g id="patch_17">
    <path d="M 465.64 85.52 
L 567.36 85.52 
L 567.36 25.44 
L 465.64 25.44 
z
" style="fill: #ffffff"/>
   </g>
   <g id="matplotlib.axis_7">
    <g id="xtick_7">
     <g id="line2d_20">
      <g>
       <use xlink:href="#m3e832032f2" x="470.263636" y="85.52" style="stroke: #000000; stroke-width: 0.8"/>
      </g>
     </g>
     <g id="text_17">
      <text style="font: 10px 'DejaVu Sans', 'Bitstream Vera Sans', 'Computer Modern Sans Serif', 'Lucida Grande', 'Verdana', 'Geneva', 'Lucid', 'Arial', 'Helvetica', 'Avant Garde', sans-serif; text-anchor: middle" x="470.263636" y="100.118438" transform="rotate(-0 470.263636 100.118438)">0</text>
     </g>
    </g>
    <g id="xtick_8">
     <g id="line2d_21">
      <g>
       <use xlink:href="#m3e832032f2" x="524.183594" y="85.52" style="stroke: #000000; stroke-width: 0.8"/>
      </g>
     </g>
     <g id="text_18">
      <text style="font: 10px 'DejaVu Sans', 'Bitstream Vera Sans', 'Computer Modern Sans Serif', 'Lucida Grande', 'Verdana', 'Geneva', 'Lucid', 'Arial', 'Helvetica', 'Avant Garde', sans-serif; text-anchor: middle" x="524.183594" y="100.118438" transform="rotate(-0 524.183594 100.118438)">200</text>
     </g>
    </g>
   </g>
   <g id="matplotlib.axis_8">
    <g id="ytick_8">
     <g id="line2d_22">
      <g>
       <use xlink:href="#m6ac0671530" x="465.64" y="68.344729" style="stroke: #000000; stroke-width: 0.8"/>
      </g>
     </g>
     <g id="text_19">
      <text style="font: 10px 'DejaVu Sans', 'Bitstream Vera Sans', 'Computer Modern Sans Serif', 'Lucida Grande', 'Verdana', 'Geneva', 'Lucid', 'Arial', 'Helvetica', 'Avant Garde', sans-serif; text-anchor: end" x="458.64" y="72.143947" transform="rotate(-0 458.64 72.143947)">0.25</text>
     </g>
    </g>
    <g id="ytick_9">
     <g id="line2d_23">
      <g>
       <use xlink:href="#m6ac0671530" x="465.64" y="50.584959" style="stroke: #000000; stroke-width: 0.8"/>
      </g>
     </g>
     <g id="text_20">
      <text style="font: 10px 'DejaVu Sans', 'Bitstream Vera Sans', 'Computer Modern Sans Serif', 'Lucida Grande', 'Verdana', 'Geneva', 'Lucid', 'Arial', 'Helvetica', 'Avant Garde', sans-serif; text-anchor: end" x="458.64" y="54.384178" transform="rotate(-0 458.64 54.384178)">0.50</text>
     </g>
    </g>
    <g id="ytick_10">
     <g id="line2d_24">
      <g>
       <use xlink:href="#m6ac0671530" x="465.64" y="32.82519" style="stroke: #000000; stroke-width: 0.8"/>
      </g>
     </g>
     <g id="text_21">
      <text style="font: 10px 'DejaVu Sans', 'Bitstream Vera Sans', 'Computer Modern Sans Serif', 'Lucida Grande', 'Verdana', 'Geneva', 'Lucid', 'Arial', 'Helvetica', 'Avant Garde', sans-serif; text-anchor: end" x="458.64" y="36.624408" transform="rotate(-0 458.64 36.624408)">0.75</text>
     </g>
    </g>
   </g>
   <g id="line2d_25">
    <path d="M 470.263636 76.582581 
L 471.611635 72.796514 
L 475.386032 61.759124 
L 476.464431 59.348806 
L 477.81243 56.866398 
L 479.160429 54.862575 
L 480.778028 52.892145 
L 483.743626 49.723169 
L 486.170024 47.507898 
L 488.866022 45.341507 
L 492.101219 43.038887 
L 493.179618 42.327396 
L 493.449218 82.774524 
L 494.527617 81.487022 
L 495.606016 79.750835 
L 496.954015 77.014557 
L 499.110814 72.521883 
L 500.458813 70.318041 
L 501.806812 68.525595 
L 503.15481 67.081552 
L 506.929208 63.610224 
L 509.625205 61.450023 
L 512.590803 59.355687 
L 516.0956 57.17035 
L 516.3652 57.013157 
L 516.6348 66.1855 
L 518.252399 54.294337 
L 519.061198 49.9193 
L 519.869997 46.660258 
L 520.678797 44.26451 
L 521.487596 42.520521 
L 522.296395 41.233217 
L 523.374795 39.962571 
L 524.453194 39.028815 
L 526.070792 37.957662 
L 529.03639 36.332833 
L 532.810787 34.224676 
L 536.854784 31.665854 
L 539.550782 29.852448 
L 539.820382 80.012696 
L 544.403578 77.357848 
L 550.065174 73.819312 
L 558.153167 68.475007 
L 562.736364 65.374732 
L 562.736364 65.374732 
" clip-path="url(#pcb177ef2ed)" style="fill: none; stroke: #0000ff; stroke-width: 1.5; stroke-linecap: square"/>
   </g>
   <g id="line2d_26">
    <path d="M 470.263636 76.752426 
L 471.072436 74.521475 
L 475.655632 60.706904 
L 477.542831 56.825063 
L 479.699629 53.526145 
L 480.238829 52.89447 
L 481.317228 51.600015 
L 484.013226 48.780923 
L 490.75322 43.375206 
L 491.02282 43.32334 
L 491.56202 42.860972 
L 492.370819 41.930464 
L 493.179618 41.710664 
L 493.449218 82.789091 
L 494.258017 81.835056 
L 495.066817 80.604462 
L 496.684416 77.30462 
L 499.110814 72.143053 
L 501.267612 68.810428 
L 501.806812 68.124668 
L 502.615611 67.186743 
L 503.15481 66.645825 
L 505.311609 64.642983 
L 505.581209 64.544866 
L 506.390008 63.705624 
L 506.929208 63.382867 
L 507.468407 62.836239 
L 507.738007 62.711132 
L 508.277206 62.199053 
L 508.816406 61.863463 
L 509.894805 61.0454 
L 510.434005 60.925049 
L 511.242804 60.082165 
L 511.512404 59.99477 
L 512.051603 59.666202 
L 512.321203 59.522229 
L 512.590803 59.224717 
L 513.669202 58.753003 
L 515.017201 57.795709 
L 515.286801 57.276886 
L 515.556401 57.29612 
L 516.0956 56.816647 
L 516.3652 57.317348 
L 516.6348 66.218942 
L 519.061198 49.707299 
L 519.869997 46.412635 
L 520.409197 44.840933 
L 520.948397 43.294289 
L 521.757196 41.649462 
L 522.296395 40.811392 
L 522.565995 40.137649 
L 522.835595 40.040951 
L 523.374795 39.250623 
L 523.644394 39.237759 
L 524.183594 38.681504 
L 524.453194 38.380567 
L 524.722794 38.316439 
L 525.261993 37.666057 
L 525.531593 37.649611 
L 526.609992 36.563994 
L 526.879592 36.598613 
L 527.149192 36.476357 
L 527.957991 35.850021 
L 528.227591 35.797999 
L 528.76679 35.335915 
L 529.03639 35.41482 
L 529.30599 35.106083 
L 529.57559 35.025929 
L 529.84519 34.727879 
L 530.114789 34.842137 
L 530.384389 34.378824 
L 530.653989 34.409679 
L 530.923589 34.095556 
L 531.193188 34.008851 
L 531.462788 33.80133 
L 531.732388 33.239482 
L 532.271588 33.417198 
L 532.541187 33.084017 
L 532.810787 33.0341 
L 533.080387 32.72955 
L 533.349987 32.660947 
L 533.889186 32.137711 
L 534.158786 32.150528 
L 534.697986 31.573251 
L 536.045985 30.909793 
L 536.854784 30.194724 
L 537.393984 29.778873 
L 537.663583 29.820106 
L 538.472383 28.643304 
L 538.741983 28.475928 
L 539.011582 28.614363 
L 539.281182 28.170909 
L 539.550782 28.4567 
L 539.820382 79.664427 
L 540.629181 79.147214 
L 542.24678 78.361705 
L 543.325179 77.738143 
L 543.594779 77.674068 
L 544.133978 77.184976 
L 544.673178 76.895881 
L 545.212377 76.548096 
L 546.021177 76.22684 
L 546.290777 75.963393 
L 546.560376 75.977004 
L 547.369176 75.367007 
L 547.908375 75.187441 
L 549.256374 74.183257 
L 549.525974 73.864774 
L 549.795574 74.120861 
L 550.065174 73.696495 
L 550.334773 73.516826 
L 550.604373 73.55079 
L 550.873973 73.266399 
L 551.413173 73.09384 
L 552.221972 72.53667 
L 552.761171 72.249872 
L 553.569971 71.631558 
L 553.839571 71.644678 
L 554.10917 71.362469 
L 554.37877 71.315346 
L 554.91797 70.922364 
L 555.18757 70.888505 
L 555.457169 70.529614 
L 555.726769 70.563776 
L 555.996369 70.405076 
L 556.265969 70.108144 
L 556.805168 69.945634 
L 557.344368 69.435565 
L 557.613968 69.406084 
L 558.153167 69.05526 
L 558.422767 69.246976 
L 558.961967 68.813606 
L 559.770766 68.202517 
L 560.309966 67.998523 
L 561.118765 67.324842 
L 561.388365 67.325022 
L 561.657964 66.996333 
L 561.927564 67.01959 
L 562.197164 66.77229 
L 562.466764 66.723075 
L 562.736364 66.440148 
L 562.736364 66.440148 
" clip-path="url(#pcb177ef2ed)" style="fill: none; stroke: #ffa500; stroke-width: 1.5; stroke-linecap: square"/>
   </g>
   <g id="patch_18">
    <path d="M 465.64 85.52 
L 465.64 25.44 
" style="fill: none; stroke: #000000; stroke-width: 0.8; stroke-linejoin: miter; stroke-linecap: square"/>
   </g>
   <g id="patch_19">
    <path d="M 567.36 85.52 
L 567.36 25.44 
" style="fill: none; stroke: #000000; stroke-width: 0.8; stroke-linejoin: miter; stroke-linecap: square"/>
   </g>
   <g id="patch_20">
    <path d="M 465.64 85.52 
L 567.36 85.52 
" style="fill: none; stroke: #000000; stroke-width: 0.8; stroke-linejoin: miter; stroke-linecap: square"/>
   </g>
   <g id="patch_21">
    <path d="M 465.64 25.44 
L 567.36 25.44 
" style="fill: none; stroke: #000000; stroke-width: 0.8; stroke-linejoin: miter; stroke-linecap: square"/>
   </g>
   <g id="text_22">
    <text style="font: 12px 'DejaVu Sans', 'Bitstream Vera Sans', 'Computer Modern Sans Serif', 'Lucida Grande', 'Verdana', 'Geneva', 'Lucid', 'Arial', 'Helvetica', 'Avant Garde', sans-serif; text-anchor: middle" x="516.5" y="19.44" transform="rotate(-0 516.5 19.44)">Training 4</text>
   </g>
  </g>
  <g id="axes_5">
   <g id="patch_22">
    <path d="M 607.48 85.52 
L 709.2 85.52 
L 709.2 25.44 
L 607.48 25.44 
z
" style="fill: #ffffff"/>
   </g>
   <g id="matplotlib.axis_9">
    <g id="xtick_9">
     <g id="line2d_27">
      <g>
       <use xlink:href="#m3e832032f2" x="612.103636" y="85.52" style="stroke: #000000; stroke-width: 0.8"/>
      </g>
     </g>
     <g id="text_23">
      <text style="font: 10px 'DejaVu Sans', 'Bitstream Vera Sans', 'Computer Modern Sans Serif', 'Lucida Grande', 'Verdana', 'Geneva', 'Lucid', 'Arial', 'Helvetica', 'Avant Garde', sans-serif; text-anchor: middle" x="612.103636" y="100.118438" transform="rotate(-0 612.103636 100.118438)">0</text>
     </g>
    </g>
    <g id="xtick_10">
     <g id="line2d_28">
      <g>
       <use xlink:href="#m3e832032f2" x="666.023594" y="85.52" style="stroke: #000000; stroke-width: 0.8"/>
      </g>
     </g>
     <g id="text_24">
      <text style="font: 10px 'DejaVu Sans', 'Bitstream Vera Sans', 'Computer Modern Sans Serif', 'Lucida Grande', 'Verdana', 'Geneva', 'Lucid', 'Arial', 'Helvetica', 'Avant Garde', sans-serif; text-anchor: middle" x="666.023594" y="100.118438" transform="rotate(-0 666.023594 100.118438)">200</text>
     </g>
    </g>
   </g>
   <g id="matplotlib.axis_10">
    <g id="ytick_11">
     <g id="line2d_29">
      <g>
       <use xlink:href="#m6ac0671530" x="607.48" y="63.712823" style="stroke: #000000; stroke-width: 0.8"/>
      </g>
     </g>
     <g id="text_25">
      <text style="font: 10px 'DejaVu Sans', 'Bitstream Vera Sans', 'Computer Modern Sans Serif', 'Lucida Grande', 'Verdana', 'Geneva', 'Lucid', 'Arial', 'Helvetica', 'Avant Garde', sans-serif; text-anchor: end" x="600.48" y="67.512042" transform="rotate(-0 600.48 67.512042)">0.2</text>
     </g>
    </g>
    <g id="ytick_12">
     <g id="line2d_30">
      <g>
       <use xlink:href="#m6ac0671530" x="607.48" y="38.066585" style="stroke: #000000; stroke-width: 0.8"/>
      </g>
     </g>
     <g id="text_26">
      <text style="font: 10px 'DejaVu Sans', 'Bitstream Vera Sans', 'Computer Modern Sans Serif', 'Lucida Grande', 'Verdana', 'Geneva', 'Lucid', 'Arial', 'Helvetica', 'Avant Garde', sans-serif; text-anchor: end" x="600.48" y="41.865804" transform="rotate(-0 600.48 41.865804)">0.4</text>
     </g>
    </g>
   </g>
   <g id="line2d_31">
    <path d="M 612.103636 71.232041 
L 615.608434 68.343555 
L 620.73083 63.782479 
L 635.019618 50.668903 
L 635.289218 82.716052 
L 637.715616 79.232755 
L 640.142014 75.341917 
L 642.568412 70.998517 
L 644.99481 66.178794 
L 647.421209 60.859171 
L 650.386806 53.670034 
L 653.352404 45.813466 
L 657.666001 33.649063 
L 658.2052 32.10646 
L 658.4748 67.909906 
L 660.631598 67.019174 
L 663.327596 65.632813 
L 666.023594 63.96709 
L 673.033188 59.18438 
L 681.390782 53.446333 
L 681.660382 71.849172 
L 688.939576 57.343947 
L 695.409971 44.925906 
L 701.610766 33.481352 
L 704.576364 28.170909 
L 704.576364 28.170909 
" clip-path="url(#p6ad9ee342a)" style="fill: none; stroke: #0000ff; stroke-width: 1.5; stroke-linecap: square"/>
   </g>
   <g id="line2d_32">
    <path d="M 612.103636 71.377234 
L 612.373236 71.388028 
L 612.912436 70.78211 
L 613.182036 70.637327 
L 613.721235 70.106522 
L 614.530034 69.408941 
L 618.034832 65.889492 
L 618.304431 65.722059 
L 618.843631 65.100808 
L 619.113231 64.933589 
L 620.46123 63.504239 
L 621.270029 62.785127 
L 622.348428 61.815296 
L 622.887628 60.822719 
L 624.505227 59.566926 
L 626.662025 57.425097 
L 627.740424 56.182177 
L 628.279624 55.824996 
L 628.818823 55.227552 
L 629.897222 54.288661 
L 630.706022 53.382142 
L 632.86282 51.76759 
L 633.13242 51.470947 
L 633.40202 50.949236 
L 633.671619 50.758622 
L 633.941219 50.416823 
L 634.210819 50.304144 
L 634.750019 49.216321 
L 635.019618 49.712432 
L 635.289218 82.789091 
L 636.098017 81.688969 
L 639.333215 76.793447 
L 640.411614 74.807014 
L 640.681214 74.491296 
L 641.220413 73.410266 
L 642.298813 71.408518 
L 646.07321 63.426582 
L 648.499608 57.366198 
L 648.769208 56.50564 
L 649.038807 56.094131 
L 650.656406 52.012435 
L 652.274005 47.196777 
L 652.543605 46.798059 
L 653.082804 45.241649 
L 654.700403 40.513474 
L 655.509202 38.160511 
L 656.857201 34.135887 
L 657.126801 33.495584 
L 657.666001 31.804474 
L 657.9356 31.618615 
L 658.2052 31.998462 
L 658.4748 67.724565 
L 658.7444 68.081293 
L 659.013999 67.417518 
L 659.283599 67.370323 
L 659.553199 67.125508 
L 659.822799 67.189804 
L 660.092399 66.473368 
L 660.361998 66.281935 
L 660.901198 66.453413 
L 661.170798 66.294326 
L 661.709997 65.578772 
L 661.979597 65.710139 
L 662.249197 65.435931 
L 662.788397 65.129929 
L 663.597196 64.840222 
L 663.866796 64.612551 
L 664.136395 64.688927 
L 664.675595 64.030116 
L 665.484394 63.758273 
L 666.023594 63.24409 
L 666.293194 63.011071 
L 666.562794 62.955478 
L 666.832393 62.572826 
L 667.371593 62.489548 
L 667.641193 61.99626 
L 668.719592 61.448577 
L 670.067591 60.29753 
L 670.337191 60.273886 
L 670.60679 60.08516 
L 670.87639 59.712175 
L 671.14599 59.84119 
L 671.41559 59.423689 
L 671.68519 59.463753 
L 671.954789 59.045415 
L 673.841988 58.144266 
L 674.111588 57.538846 
L 674.381187 57.953936 
L 674.650787 57.521171 
L 675.459587 56.996221 
L 675.729186 56.982085 
L 675.998786 56.586849 
L 676.268386 56.538544 
L 676.807585 55.863571 
L 677.616385 55.389928 
L 678.155584 54.856285 
L 678.425184 54.824677 
L 678.694784 54.579755 
L 678.964384 54.593547 
L 679.773183 53.851544 
L 680.042783 53.208906 
L 680.312383 53.529736 
L 680.581983 53.37174 
L 680.851582 53.984791 
L 681.390782 52.907279 
L 681.660382 71.448121 
L 682.199581 70.082855 
L 682.738781 69.07541 
L 683.27798 68.051102 
L 683.81718 66.830684 
L 684.895579 64.799434 
L 685.704378 63.23956 
L 686.243578 62.271458 
L 686.782778 61.583951 
L 687.321977 60.33926 
L 687.861177 59.284631 
L 688.400376 57.950429 
L 688.939576 56.972848 
L 689.478776 55.839339 
L 689.748375 55.654878 
L 690.826774 53.36206 
L 691.365974 52.385652 
L 691.635574 52.078717 
L 692.174773 50.774528 
L 692.444373 50.613043 
L 692.983573 49.357873 
L 694.061972 47.699755 
L 694.601171 46.392906 
L 694.870771 46.010422 
L 695.140371 45.945505 
L 695.409971 44.945231 
L 695.679571 44.600276 
L 696.75797 42.309571 
L 697.02757 42.036663 
L 697.566769 40.814673 
L 697.836369 40.326614 
L 698.375569 39.825371 
L 699.184368 38.025109 
L 699.453968 37.743202 
L 700.262767 36.374084 
L 700.532367 36.030397 
L 701.071566 34.733148 
L 701.341166 34.306999 
L 702.149966 32.371907 
L 703.228365 30.523837 
L 703.497964 29.389992 
L 704.037164 28.849776 
L 704.576364 29.041539 
L 704.576364 29.041539 
" clip-path="url(#p6ad9ee342a)" style="fill: none; stroke: #ffa500; stroke-width: 1.5; stroke-linecap: square"/>
   </g>
   <g id="patch_23">
    <path d="M 607.48 85.52 
L 607.48 25.44 
" style="fill: none; stroke: #000000; stroke-width: 0.8; stroke-linejoin: miter; stroke-linecap: square"/>
   </g>
   <g id="patch_24">
    <path d="M 709.2 85.52 
L 709.2 25.44 
" style="fill: none; stroke: #000000; stroke-width: 0.8; stroke-linejoin: miter; stroke-linecap: square"/>
   </g>
   <g id="patch_25">
    <path d="M 607.48 85.52 
L 709.2 85.52 
" style="fill: none; stroke: #000000; stroke-width: 0.8; stroke-linejoin: miter; stroke-linecap: square"/>
   </g>
   <g id="patch_26">
    <path d="M 607.48 25.44 
L 709.2 25.44 
" style="fill: none; stroke: #000000; stroke-width: 0.8; stroke-linejoin: miter; stroke-linecap: square"/>
   </g>
   <g id="text_27">
    <text style="font: 12px 'DejaVu Sans', 'Bitstream Vera Sans', 'Computer Modern Sans Serif', 'Lucida Grande', 'Verdana', 'Geneva', 'Lucid', 'Arial', 'Helvetica', 'Avant Garde', sans-serif; text-anchor: middle" x="658.34" y="19.44" transform="rotate(-0 658.34 19.44)">Training 5</text>
   </g>
  </g>
  <g id="axes_6">
   <g id="patch_27">
    <path d="M 40.12 188.12 
L 141.84 188.12 
L 141.84 128.04 
L 40.12 128.04 
z
" style="fill: #ffffff"/>
   </g>
   <g id="matplotlib.axis_11">
    <g id="xtick_11">
     <g id="line2d_33">
      <g>
       <use xlink:href="#m3e832032f2" x="44.743636" y="188.12" style="stroke: #000000; stroke-width: 0.8"/>
      </g>
     </g>
     <g id="text_28">
      <text style="font: 10px 'DejaVu Sans', 'Bitstream Vera Sans', 'Computer Modern Sans Serif', 'Lucida Grande', 'Verdana', 'Geneva', 'Lucid', 'Arial', 'Helvetica', 'Avant Garde', sans-serif; text-anchor: middle" x="44.743636" y="202.718437" transform="rotate(-0 44.743636 202.718437)">0</text>
     </g>
    </g>
    <g id="xtick_12">
     <g id="line2d_34">
      <g>
       <use xlink:href="#m3e832032f2" x="98.663594" y="188.12" style="stroke: #000000; stroke-width: 0.8"/>
      </g>
     </g>
     <g id="text_29">
      <text style="font: 10px 'DejaVu Sans', 'Bitstream Vera Sans', 'Computer Modern Sans Serif', 'Lucida Grande', 'Verdana', 'Geneva', 'Lucid', 'Arial', 'Helvetica', 'Avant Garde', sans-serif; text-anchor: middle" x="98.663594" y="202.718437" transform="rotate(-0 98.663594 202.718437)">200</text>
     </g>
    </g>
   </g>
   <g id="matplotlib.axis_12">
    <g id="ytick_13">
     <g id="line2d_35">
      <g>
       <use xlink:href="#m6ac0671530" x="40.12" y="165.894435" style="stroke: #000000; stroke-width: 0.8"/>
      </g>
     </g>
     <g id="text_30">
      <text style="font: 10px 'DejaVu Sans', 'Bitstream Vera Sans', 'Computer Modern Sans Serif', 'Lucida Grande', 'Verdana', 'Geneva', 'Lucid', 'Arial', 'Helvetica', 'Avant Garde', sans-serif; text-anchor: end" x="33.12" y="169.693654" transform="rotate(-0 33.12 169.693654)">0.25</text>
     </g>
    </g>
    <g id="ytick_14">
     <g id="line2d_36">
      <g>
       <use xlink:href="#m6ac0671530" x="40.12" y="141.372393" style="stroke: #000000; stroke-width: 0.8"/>
      </g>
     </g>
     <g id="text_31">
      <text style="font: 10px 'DejaVu Sans', 'Bitstream Vera Sans', 'Computer Modern Sans Serif', 'Lucida Grande', 'Verdana', 'Geneva', 'Lucid', 'Arial', 'Helvetica', 'Avant Garde', sans-serif; text-anchor: end" x="33.12" y="145.171611" transform="rotate(-0 33.12 145.171611)">0.50</text>
     </g>
    </g>
   </g>
   <g id="line2d_37">
    <path d="M 44.743636 174.612148 
L 47.170034 170.794035 
L 55.258028 157.773279 
L 57.414826 154.960566 
L 59.571625 152.541064 
L 61.998023 150.182988 
L 64.694021 147.904237 
L 67.659618 145.697565 
L 67.929218 185.389091 
L 71.434015 184.125214 
L 76.826011 182.113078 
L 78.71321 181.689593 
L 80.600408 181.479512 
L 82.757206 181.455808 
L 85.722804 181.665616 
L 90.036401 182.220097 
L 90.8452 182.339863 
L 91.1148 161.03925 
L 91.923599 160.285054 
L 92.732399 159.820259 
L 93.541198 159.656358 
L 94.349997 159.755061 
L 95.428397 160.185362 
L 96.776395 161.021106 
L 99.472393 163.044302 
L 102.168391 164.995093 
L 104.05559 166.046986 
L 105.942788 166.798003 
L 107.829987 167.312343 
L 109.717185 167.613063 
L 111.873984 167.717956 
L 114.030782 167.631671 
L 114.300382 182.264567 
L 119.692377 170.641128 
L 126.971572 154.393013 
L 137.216364 131.219448 
L 137.216364 131.219448 
" clip-path="url(#pdf0885de5c)" style="fill: none; stroke: #0000ff; stroke-width: 1.5; stroke-linecap: square"/>
   </g>
   <g id="line2d_38">
    <path d="M 44.743636 174.765628 
L 45.282836 173.792751 
L 46.361235 172.079509 
L 47.439634 170.226592 
L 48.787633 167.949142 
L 49.866032 166.129094 
L 51.214031 163.95637 
L 52.29243 162.047294 
L 53.910029 159.396831 
L 54.988428 157.74276 
L 55.527628 156.946184 
L 57.145227 154.877502 
L 57.954026 153.968805 
L 58.223626 153.645151 
L 58.493226 153.549236 
L 59.302025 152.421406 
L 60.919624 150.842869 
L 61.189223 150.65224 
L 61.998023 149.611556 
L 62.267623 149.250013 
L 63.346022 148.828839 
L 64.424421 147.619354 
L 64.694021 147.46137 
L 64.96362 147.1666 
L 65.50282 146.952221 
L 66.04202 146.606961 
L 66.311619 145.927029 
L 66.850819 145.894329 
L 67.120419 145.764639 
L 67.659618 144.439341 
L 67.929218 185.159617 
L 68.738017 184.884802 
L 69.816417 184.487416 
L 71.164416 183.905276 
L 71.973215 183.663208 
L 73.860413 182.813632 
L 74.399613 182.612652 
L 75.208412 182.173008 
L 76.017212 181.819417 
L 77.90441 181.280738 
L 78.71321 181.147859 
L 79.252409 180.80795 
L 79.522009 180.950006 
L 80.061209 180.79877 
L 80.330808 180.873012 
L 81.948407 180.49031 
L 82.487607 180.748852 
L 83.026806 180.506068 
L 83.296406 180.547055 
L 83.566006 180.367383 
L 83.835606 180.484479 
L 84.105205 180.386197 
L 84.374805 180.506596 
L 84.644405 180.448734 
L 84.914005 180.629284 
L 85.722804 180.437966 
L 85.992404 180.558297 
L 86.262004 180.482655 
L 87.070803 180.703629 
L 87.610003 180.645607 
L 88.149202 181.02533 
L 89.497201 181.266002 
L 90.036401 181.135704 
L 90.306001 180.84896 
L 90.5756 180.797822 
L 90.8452 180.2195 
L 91.1148 161.030302 
L 91.923599 159.717547 
L 92.193199 159.832925 
L 92.462799 159.567847 
L 92.732399 159.487329 
L 93.001998 159.054579 
L 93.271598 159.199035 
L 93.541198 158.975008 
L 94.619597 158.884767 
L 95.158797 158.982825 
L 96.776395 160.175885 
L 97.585195 161.002689 
L 98.393994 161.608744 
L 98.933194 162.177207 
L 99.202794 162.28651 
L 100.550792 163.482966 
L 100.820392 163.614238 
L 101.359592 164.039551 
L 101.629192 164.120949 
L 102.977191 165.527193 
L 103.51639 165.618995 
L 105.133989 166.367624 
L 105.403589 166.570723 
L 105.673188 166.595755 
L 105.942788 166.795029 
L 106.212388 166.807348 
L 107.829987 167.84507 
L 108.099587 167.911014 
L 108.369186 167.821299 
L 108.638786 168.048476 
L 108.908386 168.095856 
L 109.177986 168.012542 
L 110.795584 168.276769 
L 111.065184 168.276539 
L 111.334784 168.4112 
L 111.873984 168.24644 
L 112.952383 168.261391 
L 113.221983 168.305627 
L 113.761182 167.751894 
L 114.030782 167.914738 
L 114.300382 181.898014 
L 125.893173 156.405578 
L 126.971572 153.813083 
L 128.319571 150.919446 
L 128.85877 149.700168 
L 131.554768 143.625635 
L 132.902767 140.47735 
L 133.441967 138.990051 
L 133.711566 138.745503 
L 133.981166 137.935288 
L 134.250766 137.652252 
L 134.520366 137.091244 
L 135.059565 135.577261 
L 135.868365 133.778354 
L 136.677164 131.925232 
L 137.216364 130.770909 
L 137.216364 130.770909 
" clip-path="url(#pdf0885de5c)" style="fill: none; stroke: #ffa500; stroke-width: 1.5; stroke-linecap: square"/>
   </g>
   <g id="patch_28">
    <path d="M 40.12 188.12 
L 40.12 128.04 
" style="fill: none; stroke: #000000; stroke-width: 0.8; stroke-linejoin: miter; stroke-linecap: square"/>
   </g>
   <g id="patch_29">
    <path d="M 141.84 188.12 
L 141.84 128.04 
" style="fill: none; stroke: #000000; stroke-width: 0.8; stroke-linejoin: miter; stroke-linecap: square"/>
   </g>
   <g id="patch_30">
    <path d="M 40.12 188.12 
L 141.84 188.12 
" style="fill: none; stroke: #000000; stroke-width: 0.8; stroke-linejoin: miter; stroke-linecap: square"/>
   </g>
   <g id="patch_31">
    <path d="M 40.12 128.04 
L 141.84 128.04 
" style="fill: none; stroke: #000000; stroke-width: 0.8; stroke-linejoin: miter; stroke-linecap: square"/>
   </g>
   <g id="text_32">
    <text style="font: 12px 'DejaVu Sans', 'Bitstream Vera Sans', 'Computer Modern Sans Serif', 'Lucida Grande', 'Verdana', 'Geneva', 'Lucid', 'Arial', 'Helvetica', 'Avant Garde', sans-serif; text-anchor: middle" x="90.98" y="122.04" transform="rotate(-0 90.98 122.04)">Testing 1</text>
   </g>
  </g>
  <g id="axes_7">
   <g id="patch_32">
    <path d="M 181.96 188.12 
L 283.68 188.12 
L 283.68 128.04 
L 181.96 128.04 
z
" style="fill: #ffffff"/>
   </g>
   <g id="matplotlib.axis_13">
    <g id="xtick_13">
     <g id="line2d_39">
      <g>
       <use xlink:href="#m3e832032f2" x="186.583636" y="188.12" style="stroke: #000000; stroke-width: 0.8"/>
      </g>
     </g>
     <g id="text_33">
      <text style="font: 10px 'DejaVu Sans', 'Bitstream Vera Sans', 'Computer Modern Sans Serif', 'Lucida Grande', 'Verdana', 'Geneva', 'Lucid', 'Arial', 'Helvetica', 'Avant Garde', sans-serif; text-anchor: middle" x="186.583636" y="202.718437" transform="rotate(-0 186.583636 202.718437)">0</text>
     </g>
    </g>
    <g id="xtick_14">
     <g id="line2d_40">
      <g>
       <use xlink:href="#m3e832032f2" x="240.503594" y="188.12" style="stroke: #000000; stroke-width: 0.8"/>
      </g>
     </g>
     <g id="text_34">
      <text style="font: 10px 'DejaVu Sans', 'Bitstream Vera Sans', 'Computer Modern Sans Serif', 'Lucida Grande', 'Verdana', 'Geneva', 'Lucid', 'Arial', 'Helvetica', 'Avant Garde', sans-serif; text-anchor: middle" x="240.503594" y="202.718437" transform="rotate(-0 240.503594 202.718437)">200</text>
     </g>
    </g>
   </g>
   <g id="matplotlib.axis_14">
    <g id="ytick_15">
     <g id="line2d_41">
      <g>
       <use xlink:href="#m6ac0671530" x="181.96" y="168.4469" style="stroke: #000000; stroke-width: 0.8"/>
      </g>
     </g>
     <g id="text_35">
      <text style="font: 10px 'DejaVu Sans', 'Bitstream Vera Sans', 'Computer Modern Sans Serif', 'Lucida Grande', 'Verdana', 'Geneva', 'Lucid', 'Arial', 'Helvetica', 'Avant Garde', sans-serif; text-anchor: end" x="174.96" y="172.246119" transform="rotate(-0 174.96 172.246119)">0.25</text>
     </g>
    </g>
    <g id="ytick_16">
     <g id="line2d_42">
      <g>
       <use xlink:href="#m6ac0671530" x="181.96" y="147.793" style="stroke: #000000; stroke-width: 0.8"/>
      </g>
     </g>
     <g id="text_36">
      <text style="font: 10px 'DejaVu Sans', 'Bitstream Vera Sans', 'Computer Modern Sans Serif', 'Lucida Grande', 'Verdana', 'Geneva', 'Lucid', 'Arial', 'Helvetica', 'Avant Garde', sans-serif; text-anchor: end" x="174.96" y="151.592219" transform="rotate(-0 174.96 151.592219)">0.50</text>
     </g>
    </g>
   </g>
   <g id="line2d_43">
    <path d="M 186.583636 176.627449 
L 188.470835 172.73091 
L 193.862831 161.284783 
L 195.21083 159.00318 
L 196.828428 156.677054 
L 198.715627 154.393161 
L 200.602825 152.436447 
L 203.298823 149.987131 
L 205.994821 147.856186 
L 209.230019 145.597887 
L 209.499618 145.421347 
L 209.769218 185.389091 
L 210.847617 183.888168 
L 211.926016 182.003034 
L 213.004416 179.688337 
L 214.352415 176.188853 
L 215.970013 171.291604 
L 218.935611 162.128799 
L 221.092409 156.189042 
L 223.518807 150.178355 
L 226.484405 143.447826 
L 229.180403 137.871017 
L 232.146001 132.25931 
L 232.6852 131.292168 
L 232.9548 165.856252 
L 234.033199 162.743801 
L 234.841998 161.099456 
L 235.381198 160.375189 
L 235.920398 159.90948 
L 236.459597 159.660583 
L 236.998797 159.59122 
L 237.807596 159.75312 
L 238.616395 160.149339 
L 239.964394 161.128329 
L 245.35639 165.465307 
L 247.243589 166.497954 
L 249.130787 167.277735 
L 251.017986 167.80919 
L 252.905184 168.109159 
L 255.331582 168.241292 
L 255.870782 168.243107 
L 256.140382 176.500139 
L 269.889971 170.696093 
L 279.056364 166.988779 
L 279.056364 166.988779 
" clip-path="url(#pfd997de09f)" style="fill: none; stroke: #0000ff; stroke-width: 1.5; stroke-linecap: square"/>
   </g>
   <g id="line2d_44">
    <path d="M 186.583636 176.34839 
L 187.122836 175.243327 
L 191.975632 164.581264 
L 193.862831 160.783167 
L 196.019629 157.300674 
L 197.367628 155.643599 
L 201.950824 150.652238 
L 202.759624 149.954173 
L 203.568423 148.963857 
L 204.107623 148.56388 
L 206.264421 146.990043 
L 206.80362 146.653178 
L 207.34282 146.081736 
L 208.690819 145.300889 
L 209.230019 145.312703 
L 209.499618 144.938413 
L 209.769218 185.302099 
L 211.117217 183.358368 
L 212.195616 181.393034 
L 213.274015 178.887873 
L 216.239613 170.245305 
L 218.935611 161.789521 
L 220.01401 158.743664 
L 220.822809 156.560302 
L 221.901209 153.628112 
L 222.710008 151.78991 
L 225.945205 144.359747 
L 226.754005 142.593233 
L 228.910803 138.091935 
L 229.450003 137.137758 
L 230.258802 135.432842 
L 231.606801 133.047627 
L 232.4156 131.621518 
L 232.6852 130.770909 
L 232.9548 165.562455 
L 234.033199 162.58003 
L 235.111598 160.530882 
L 235.920398 160.066868 
L 236.459597 159.663673 
L 236.998797 159.485419 
L 237.537996 159.503641 
L 238.077196 160.19415 
L 238.346796 160.313699 
L 238.616395 160.176275 
L 238.885995 160.210615 
L 239.425195 160.694055 
L 239.694795 160.777911 
L 240.503594 161.514799 
L 241.042794 162.074319 
L 241.851593 162.682299 
L 242.390792 163.361903 
L 243.738791 164.317301 
L 245.08679 165.152372 
L 245.35639 165.011139 
L 245.62599 165.362609 
L 245.89559 165.304135 
L 246.16519 165.526587 
L 246.434789 165.583366 
L 246.973989 166.014319 
L 247.243589 166.170588 
L 247.513188 166.176965 
L 248.052388 166.54992 
L 248.321988 166.632805 
L 248.591588 166.422155 
L 248.861187 166.769021 
L 249.669987 166.970475 
L 249.939587 166.880976 
L 250.209186 166.96596 
L 250.478786 167.266003 
L 250.748386 167.253677 
L 251.287585 167.50568 
L 251.557185 167.545633 
L 252.096385 167.820338 
L 252.905184 167.802719 
L 253.174784 167.582754 
L 253.983583 167.450828 
L 254.253183 167.7492 
L 254.522783 167.495132 
L 254.792383 167.455191 
L 255.061983 167.300414 
L 255.331582 167.634211 
L 255.870782 167.584798 
L 256.140382 176.197017 
L 257.218781 175.571631 
L 257.75798 175.449164 
L 258.02758 175.398105 
L 258.56678 175.161595 
L 259.914779 174.778134 
L 260.184378 174.740144 
L 260.723578 174.489272 
L 261.532377 174.323223 
L 261.801977 174.131881 
L 262.610777 173.982188 
L 262.880376 173.841948 
L 263.149976 173.838924 
L 263.689176 173.437135 
L 263.958776 173.321465 
L 264.228375 173.369471 
L 265.306774 172.811753 
L 265.576374 172.903884 
L 265.845974 172.647914 
L 266.115574 172.780159 
L 266.654773 172.437301 
L 267.193973 172.253248 
L 267.733173 171.98043 
L 268.002772 171.926727 
L 268.541972 171.66598 
L 269.350771 171.346449 
L 269.620371 171.346356 
L 269.889971 171.144933 
L 270.159571 171.315625 
L 270.42917 171.118417 
L 271.50757 170.874091 
L 271.777169 170.646469 
L 272.855569 170.478004 
L 273.125168 170.245729 
L 273.664368 170.238512 
L 273.933968 169.819566 
L 274.203567 169.708178 
L 274.473167 169.452093 
L 274.742767 169.524197 
L 275.012367 169.236248 
L 275.281967 169.25932 
L 275.551566 169.063834 
L 275.821166 169.045885 
L 276.090766 169.187996 
L 277.169165 168.499968 
L 277.438765 168.440883 
L 277.708365 168.680802 
L 277.977964 168.39927 
L 278.247564 168.599002 
L 278.786764 168.654031 
L 279.056364 168.423173 
L 279.056364 168.423173 
" clip-path="url(#pfd997de09f)" style="fill: none; stroke: #ffa500; stroke-width: 1.5; stroke-linecap: square"/>
   </g>
   <g id="patch_33">
    <path d="M 181.96 188.12 
L 181.96 128.04 
" style="fill: none; stroke: #000000; stroke-width: 0.8; stroke-linejoin: miter; stroke-linecap: square"/>
   </g>
   <g id="patch_34">
    <path d="M 283.68 188.12 
L 283.68 128.04 
" style="fill: none; stroke: #000000; stroke-width: 0.8; stroke-linejoin: miter; stroke-linecap: square"/>
   </g>
   <g id="patch_35">
    <path d="M 181.96 188.12 
L 283.68 188.12 
" style="fill: none; stroke: #000000; stroke-width: 0.8; stroke-linejoin: miter; stroke-linecap: square"/>
   </g>
   <g id="patch_36">
    <path d="M 181.96 128.04 
L 283.68 128.04 
" style="fill: none; stroke: #000000; stroke-width: 0.8; stroke-linejoin: miter; stroke-linecap: square"/>
   </g>
   <g id="text_37">
    <text style="font: 12px 'DejaVu Sans', 'Bitstream Vera Sans', 'Computer Modern Sans Serif', 'Lucida Grande', 'Verdana', 'Geneva', 'Lucid', 'Arial', 'Helvetica', 'Avant Garde', sans-serif; text-anchor: middle" x="232.82" y="122.04" transform="rotate(-0 232.82 122.04)">Testing 2</text>
   </g>
  </g>
  <g id="axes_8">
   <g id="patch_37">
    <path d="M 323.8 188.12 
L 425.52 188.12 
L 425.52 128.04 
L 323.8 128.04 
z
" style="fill: #ffffff"/>
   </g>
   <g id="matplotlib.axis_15">
    <g id="xtick_15">
     <g id="line2d_45">
      <g>
       <use xlink:href="#m3e832032f2" x="328.423636" y="188.12" style="stroke: #000000; stroke-width: 0.8"/>
      </g>
     </g>
     <g id="text_38">
      <text style="font: 10px 'DejaVu Sans', 'Bitstream Vera Sans', 'Computer Modern Sans Serif', 'Lucida Grande', 'Verdana', 'Geneva', 'Lucid', 'Arial', 'Helvetica', 'Avant Garde', sans-serif; text-anchor: middle" x="328.423636" y="202.718437" transform="rotate(-0 328.423636 202.718437)">0</text>
     </g>
    </g>
    <g id="xtick_16">
     <g id="line2d_46">
      <g>
       <use xlink:href="#m3e832032f2" x="382.343594" y="188.12" style="stroke: #000000; stroke-width: 0.8"/>
      </g>
     </g>
     <g id="text_39">
      <text style="font: 10px 'DejaVu Sans', 'Bitstream Vera Sans', 'Computer Modern Sans Serif', 'Lucida Grande', 'Verdana', 'Geneva', 'Lucid', 'Arial', 'Helvetica', 'Avant Garde', sans-serif; text-anchor: middle" x="382.343594" y="202.718437" transform="rotate(-0 382.343594 202.718437)">200</text>
     </g>
    </g>
   </g>
   <g id="matplotlib.axis_16">
    <g id="ytick_17">
     <g id="line2d_47">
      <g>
       <use xlink:href="#m6ac0671530" x="323.8" y="168.743119" style="stroke: #000000; stroke-width: 0.8"/>
      </g>
     </g>
     <g id="text_40">
      <text style="font: 10px 'DejaVu Sans', 'Bitstream Vera Sans', 'Computer Modern Sans Serif', 'Lucida Grande', 'Verdana', 'Geneva', 'Lucid', 'Arial', 'Helvetica', 'Avant Garde', sans-serif; text-anchor: end" x="316.8" y="172.542338" transform="rotate(-0 316.8 172.542338)">0.25</text>
     </g>
    </g>
    <g id="ytick_18">
     <g id="line2d_48">
      <g>
       <use xlink:href="#m6ac0671530" x="323.8" y="148.068009" style="stroke: #000000; stroke-width: 0.8"/>
      </g>
     </g>
     <g id="text_41">
      <text style="font: 10px 'DejaVu Sans', 'Bitstream Vera Sans', 'Computer Modern Sans Serif', 'Lucida Grande', 'Verdana', 'Geneva', 'Lucid', 'Arial', 'Helvetica', 'Avant Garde', sans-serif; text-anchor: end" x="316.8" y="151.867227" transform="rotate(-0 316.8 151.867227)">0.50</text>
     </g>
    </g>
   </g>
   <g id="line2d_49">
    <path d="M 328.423636 176.300931 
L 330.310835 171.987006 
L 334.354832 162.571203 
L 335.97243 159.45314 
L 337.590029 156.891752 
L 339.207628 154.736621 
L 341.094826 152.610231 
L 343.521224 150.247914 
L 346.217222 147.928479 
L 349.18282 145.691919 
L 351.339618 144.216289 
L 351.609218 185.389091 
L 352.687617 183.738094 
L 353.766016 181.635864 
L 354.844416 179.040673 
L 356.192415 175.204873 
L 361.85401 158.158052 
L 364.010808 152.731587 
L 366.976406 145.96417 
L 369.672404 140.264662 
L 372.368402 135.046334 
L 374.5252 131.168672 
L 374.7948 176.149256 
L 375.873199 173.816336 
L 376.681998 172.452667 
L 377.490798 171.46037 
L 378.299597 170.771148 
L 379.108397 170.314157 
L 380.186796 169.969623 
L 381.534795 169.813847 
L 383.691593 169.856481 
L 387.73559 169.976188 
L 390.970787 169.811775 
L 394.205985 169.422894 
L 397.710782 168.792213 
L 397.980382 179.468517 
L 413.07797 174.326274 
L 420.896364 171.774017 
L 420.896364 171.774017 
" clip-path="url(#p62b29f4809)" style="fill: none; stroke: #0000ff; stroke-width: 1.5; stroke-linecap: square"/>
   </g>
   <g id="line2d_50">
    <path d="M 328.423636 176.515875 
L 330.850034 170.8073 
L 332.467633 166.807504 
L 334.624431 162.029199 
L 337.590029 156.770212 
L 338.938028 154.997765 
L 339.746827 154.051267 
L 340.825227 152.649067 
L 341.364426 152.017733 
L 342.712425 150.763845 
L 343.251625 150.181982 
L 343.790824 149.656505 
L 346.486822 147.170999 
L 347.295622 146.546916 
L 347.565221 146.508413 
L 348.104421 146.033472 
L 348.374021 145.983903 
L 348.64362 145.798875 
L 349.18282 145.068353 
L 350.800419 144.165921 
L 351.070019 144.180684 
L 351.339618 143.991733 
L 351.609218 185.338709 
L 352.687617 183.75954 
L 354.035616 181.013983 
L 355.383615 177.446914 
L 356.462014 174.144824 
L 361.31481 158.813666 
L 362.662809 155.336602 
L 364.010808 151.905825 
L 365.089208 149.422318 
L 366.706806 145.496781 
L 366.976406 144.93189 
L 367.246006 144.031227 
L 368.054805 142.508744 
L 368.863605 140.693459 
L 369.942004 138.522562 
L 370.481203 137.29789 
L 371.829202 134.888236 
L 372.638002 133.30843 
L 373.446801 131.838568 
L 373.986001 131.169002 
L 374.2556 131.28314 
L 374.5252 130.770909 
L 374.7948 175.034623 
L 375.0644 175.079345 
L 376.681998 171.436086 
L 377.490798 170.181518 
L 378.299597 169.518118 
L 380.186796 168.65761 
L 380.456395 168.577053 
L 380.995595 168.868592 
L 381.265195 168.869635 
L 381.534795 168.704471 
L 381.804394 168.68622 
L 382.073994 168.48623 
L 382.613194 168.55228 
L 383.152393 168.742932 
L 383.421993 168.996622 
L 384.500392 168.951597 
L 385.578791 168.670799 
L 386.387591 168.825539 
L 386.657191 169.107912 
L 386.92679 169.082262 
L 387.19639 168.928495 
L 387.46599 169.04918 
L 387.73559 168.841586 
L 388.00519 168.929035 
L 388.544389 168.829809 
L 388.813989 168.900678 
L 389.083589 168.72618 
L 389.353188 168.953168 
L 389.622788 168.866868 
L 390.161988 168.907997 
L 390.431588 168.830479 
L 390.701187 169.033936 
L 390.970787 168.999945 
L 391.240387 168.756579 
L 391.779587 168.953603 
L 392.049186 168.982218 
L 392.318786 169.184841 
L 392.588386 169.12654 
L 393.127585 169.175074 
L 393.666785 168.645033 
L 394.475584 168.187828 
L 394.745184 168.135074 
L 395.553984 168.355117 
L 395.823583 168.238255 
L 396.093183 168.316959 
L 396.901983 167.435188 
L 397.171582 167.719011 
L 397.441182 167.56162 
L 397.710782 167.704263 
L 397.980382 179.210047 
L 398.519581 179.170215 
L 402.293978 177.947244 
L 402.833178 177.842852 
L 405.798776 176.885746 
L 406.068375 176.971876 
L 407.685974 176.355802 
L 408.764373 176.053473 
L 409.303573 175.788916 
L 409.842772 175.835304 
L 410.381972 175.441419 
L 411.729971 175.033437 
L 411.999571 175.218592 
L 413.07797 174.600492 
L 413.34757 174.688507 
L 413.617169 174.421105 
L 414.156369 174.297187 
L 414.695569 174.287224 
L 414.965168 174.034369 
L 415.504368 174.018082 
L 415.773968 173.711594 
L 416.043567 173.711066 
L 416.313167 173.504901 
L 416.582767 173.483092 
L 416.852367 173.242484 
L 417.121967 173.267505 
L 417.661166 172.891307 
L 418.469966 172.599613 
L 419.009165 172.750872 
L 420.087564 172.354342 
L 420.626764 172.195381 
L 420.896364 172.237983 
L 420.896364 172.237983 
" clip-path="url(#p62b29f4809)" style="fill: none; stroke: #ffa500; stroke-width: 1.5; stroke-linecap: square"/>
   </g>
   <g id="patch_38">
    <path d="M 323.8 188.12 
L 323.8 128.04 
" style="fill: none; stroke: #000000; stroke-width: 0.8; stroke-linejoin: miter; stroke-linecap: square"/>
   </g>
   <g id="patch_39">
    <path d="M 425.52 188.12 
L 425.52 128.04 
" style="fill: none; stroke: #000000; stroke-width: 0.8; stroke-linejoin: miter; stroke-linecap: square"/>
   </g>
   <g id="patch_40">
    <path d="M 323.8 188.12 
L 425.52 188.12 
" style="fill: none; stroke: #000000; stroke-width: 0.8; stroke-linejoin: miter; stroke-linecap: square"/>
   </g>
   <g id="patch_41">
    <path d="M 323.8 128.04 
L 425.52 128.04 
" style="fill: none; stroke: #000000; stroke-width: 0.8; stroke-linejoin: miter; stroke-linecap: square"/>
   </g>
   <g id="text_42">
    <text style="font: 12px 'DejaVu Sans', 'Bitstream Vera Sans', 'Computer Modern Sans Serif', 'Lucida Grande', 'Verdana', 'Geneva', 'Lucid', 'Arial', 'Helvetica', 'Avant Garde', sans-serif; text-anchor: middle" x="374.66" y="122.04" transform="rotate(-0 374.66 122.04)">Testing 3</text>
   </g>
  </g>
  <g id="axes_9">
   <g id="patch_42">
    <path d="M 465.64 188.12 
L 567.36 188.12 
L 567.36 128.04 
L 465.64 128.04 
z
" style="fill: #ffffff"/>
   </g>
   <g id="matplotlib.axis_17">
    <g id="xtick_17">
     <g id="line2d_51">
      <g>
       <use xlink:href="#m3e832032f2" x="470.263636" y="188.12" style="stroke: #000000; stroke-width: 0.8"/>
      </g>
     </g>
     <g id="text_43">
      <text style="font: 10px 'DejaVu Sans', 'Bitstream Vera Sans', 'Computer Modern Sans Serif', 'Lucida Grande', 'Verdana', 'Geneva', 'Lucid', 'Arial', 'Helvetica', 'Avant Garde', sans-serif; text-anchor: middle" x="470.263636" y="202.718437" transform="rotate(-0 470.263636 202.718437)">0</text>
     </g>
    </g>
    <g id="xtick_18">
     <g id="line2d_52">
      <g>
       <use xlink:href="#m3e832032f2" x="524.183594" y="188.12" style="stroke: #000000; stroke-width: 0.8"/>
      </g>
     </g>
     <g id="text_44">
      <text style="font: 10px 'DejaVu Sans', 'Bitstream Vera Sans', 'Computer Modern Sans Serif', 'Lucida Grande', 'Verdana', 'Geneva', 'Lucid', 'Arial', 'Helvetica', 'Avant Garde', sans-serif; text-anchor: middle" x="524.183594" y="202.718437" transform="rotate(-0 524.183594 202.718437)">200</text>
     </g>
    </g>
   </g>
   <g id="matplotlib.axis_18">
    <g id="ytick_19">
     <g id="line2d_53">
      <g>
       <use xlink:href="#m6ac0671530" x="465.64" y="167.567383" style="stroke: #000000; stroke-width: 0.8"/>
      </g>
     </g>
     <g id="text_45">
      <text style="font: 10px 'DejaVu Sans', 'Bitstream Vera Sans', 'Computer Modern Sans Serif', 'Lucida Grande', 'Verdana', 'Geneva', 'Lucid', 'Arial', 'Helvetica', 'Avant Garde', sans-serif; text-anchor: end" x="458.64" y="171.366601" transform="rotate(-0 458.64 171.366601)">0.25</text>
     </g>
    </g>
    <g id="ytick_20">
     <g id="line2d_54">
      <g>
       <use xlink:href="#m6ac0671530" x="465.64" y="146.520272" style="stroke: #000000; stroke-width: 0.8"/>
      </g>
     </g>
     <g id="text_46">
      <text style="font: 10px 'DejaVu Sans', 'Bitstream Vera Sans', 'Computer Modern Sans Serif', 'Lucida Grande', 'Verdana', 'Geneva', 'Lucid', 'Arial', 'Helvetica', 'Avant Garde', sans-serif; text-anchor: end" x="458.64" y="150.319491" transform="rotate(-0 458.64 150.319491)">0.50</text>
     </g>
    </g>
   </g>
   <g id="line2d_55">
    <path d="M 470.263636 178.127331 
L 471.881235 175.626106 
L 474.577233 170.966998 
L 479.969229 161.496321 
L 481.856427 158.762819 
L 483.743626 156.429908 
L 485.630824 154.438049 
L 488.057222 152.221699 
L 490.75322 150.089004 
L 493.179618 148.382415 
L 493.449218 185.344358 
L 494.797217 183.815579 
L 496.145216 181.882992 
L 497.493215 179.46477 
L 498.841214 176.472592 
L 500.189213 172.897044 
L 502.076411 167.16773 
L 505.850808 155.568188 
L 508.007607 149.626764 
L 510.434005 143.576204 
L 512.860403 138.059245 
L 515.556401 132.459358 
L 516.3652 130.873824 
L 516.6348 175.286284 
L 520.409197 165.937775 
L 522.026796 162.775949 
L 523.644394 160.183521 
L 525.261993 158.036631 
L 527.418791 155.58408 
L 530.114789 152.912927 
L 533.349987 150.038676 
L 537.393984 146.787214 
L 539.550782 145.160609 
L 539.820382 180.450737 
L 546.829976 177.134736 
L 557.074768 172.025073 
L 562.736364 169.153982 
L 562.736364 169.153982 
" clip-path="url(#pcdc2a62b4e)" style="fill: none; stroke: #0000ff; stroke-width: 1.5; stroke-linecap: square"/>
   </g>
   <g id="line2d_56">
    <path d="M 470.263636 178.008342 
L 470.802836 177.287416 
L 471.342036 176.380327 
L 473.229234 173.15908 
L 474.307633 171.333925 
L 475.386032 169.427478 
L 476.464431 167.22761 
L 479.969229 161.385573 
L 481.317228 159.505223 
L 482.395627 158.034425 
L 482.665227 157.769351 
L 483.474026 156.620655 
L 484.013226 156.037709 
L 485.630824 154.209448 
L 486.439624 153.406183 
L 487.518023 152.157767 
L 488.326822 151.45357 
L 488.866022 151.148916 
L 489.135622 150.821024 
L 489.674821 150.451373 
L 489.944421 150.110961 
L 491.29242 149.493172 
L 491.56202 149.042887 
L 491.831619 148.880273 
L 492.101219 148.870594 
L 492.370819 148.745346 
L 492.640419 148.773282 
L 492.910019 148.384683 
L 493.179618 148.195085 
L 493.449218 185.389091 
L 494.258017 184.515463 
L 495.606016 182.701084 
L 496.684416 180.900205 
L 497.762815 178.654133 
L 499.380413 174.62483 
L 500.728412 170.662208 
L 502.615611 164.876574 
L 508.007607 148.688457 
L 508.816406 146.788202 
L 509.355606 145.539967 
L 512.860403 136.980064 
L 513.399602 135.811322 
L 515.556401 130.998948 
L 515.826001 130.770909 
L 516.0956 130.884723 
L 516.3652 130.798558 
L 516.6348 174.323837 
L 516.9044 174.649697 
L 517.443599 173.003368 
L 517.982799 171.456698 
L 518.521998 169.737223 
L 520.948397 164.0325 
L 524.183594 158.633951 
L 526.879592 155.426328 
L 527.149192 155.274588 
L 527.957991 154.160587 
L 528.227591 153.950839 
L 528.76679 153.327006 
L 529.84519 152.088245 
L 530.114789 151.975706 
L 530.384389 151.523271 
L 530.653989 151.540816 
L 532.001988 150.232896 
L 532.271588 149.702398 
L 532.810787 149.35336 
L 533.080387 148.980842 
L 533.349987 148.831476 
L 533.889186 148.1115 
L 534.158786 148.045498 
L 534.697986 147.463164 
L 535.776385 146.549392 
L 536.315584 146.412621 
L 537.124384 145.656821 
L 537.393984 145.608598 
L 538.472383 144.339877 
L 539.011582 144.020038 
L 539.281182 143.891536 
L 539.550782 143.926617 
L 539.820382 180.200674 
L 540.359581 180.073122 
L 541.168381 179.559578 
L 541.70758 179.462814 
L 543.055579 178.765247 
L 543.594779 178.594368 
L 544.133978 178.260663 
L 545.212377 178.034647 
L 545.751577 177.675595 
L 548.447575 176.554272 
L 548.986774 176.180376 
L 549.795574 175.936684 
L 550.065174 175.699779 
L 550.334773 175.636782 
L 551.143573 175.154572 
L 551.413173 175.048799 
L 551.682772 175.113064 
L 552.221972 174.825203 
L 553.300371 174.337453 
L 553.569971 174.025779 
L 553.839571 174.095575 
L 554.64837 173.65195 
L 554.91797 173.379398 
L 555.18757 173.431738 
L 555.457169 173.058577 
L 555.726769 173.075303 
L 555.996369 172.888113 
L 556.535569 172.915296 
L 558.153167 172.009901 
L 558.422767 172.067808 
L 558.692367 171.800274 
L 559.231566 171.760331 
L 559.770766 171.360256 
L 560.040366 171.328927 
L 562.197164 170.086634 
L 562.466764 170.102438 
L 562.736364 169.883722 
L 562.736364 169.883722 
" clip-path="url(#pcdc2a62b4e)" style="fill: none; stroke: #ffa500; stroke-width: 1.5; stroke-linecap: square"/>
   </g>
   <g id="patch_43">
    <path d="M 465.64 188.12 
L 465.64 128.04 
" style="fill: none; stroke: #000000; stroke-width: 0.8; stroke-linejoin: miter; stroke-linecap: square"/>
   </g>
   <g id="patch_44">
    <path d="M 567.36 188.12 
L 567.36 128.04 
" style="fill: none; stroke: #000000; stroke-width: 0.8; stroke-linejoin: miter; stroke-linecap: square"/>
   </g>
   <g id="patch_45">
    <path d="M 465.64 188.12 
L 567.36 188.12 
" style="fill: none; stroke: #000000; stroke-width: 0.8; stroke-linejoin: miter; stroke-linecap: square"/>
   </g>
   <g id="patch_46">
    <path d="M 465.64 128.04 
L 567.36 128.04 
" style="fill: none; stroke: #000000; stroke-width: 0.8; stroke-linejoin: miter; stroke-linecap: square"/>
   </g>
   <g id="text_47">
    <text style="font: 12px 'DejaVu Sans', 'Bitstream Vera Sans', 'Computer Modern Sans Serif', 'Lucida Grande', 'Verdana', 'Geneva', 'Lucid', 'Arial', 'Helvetica', 'Avant Garde', sans-serif; text-anchor: middle" x="516.5" y="122.04" transform="rotate(-0 516.5 122.04)">Testing 4</text>
   </g>
  </g>
  <g id="axes_10">
   <g id="patch_47">
    <path d="M 607.48 188.12 
L 709.2 188.12 
L 709.2 128.04 
L 607.48 128.04 
z
" style="fill: #ffffff"/>
   </g>
   <g id="matplotlib.axis_19">
    <g id="xtick_19">
     <g id="line2d_57">
      <g>
       <use xlink:href="#m3e832032f2" x="612.103636" y="188.12" style="stroke: #000000; stroke-width: 0.8"/>
      </g>
     </g>
     <g id="text_48">
      <text style="font: 10px 'DejaVu Sans', 'Bitstream Vera Sans', 'Computer Modern Sans Serif', 'Lucida Grande', 'Verdana', 'Geneva', 'Lucid', 'Arial', 'Helvetica', 'Avant Garde', sans-serif; text-anchor: middle" x="612.103636" y="202.718437" transform="rotate(-0 612.103636 202.718437)">0</text>
     </g>
    </g>
    <g id="xtick_20">
     <g id="line2d_58">
      <g>
       <use xlink:href="#m3e832032f2" x="666.023594" y="188.12" style="stroke: #000000; stroke-width: 0.8"/>
      </g>
     </g>
     <g id="text_49">
      <text style="font: 10px 'DejaVu Sans', 'Bitstream Vera Sans', 'Computer Modern Sans Serif', 'Lucida Grande', 'Verdana', 'Geneva', 'Lucid', 'Arial', 'Helvetica', 'Avant Garde', sans-serif; text-anchor: middle" x="666.023594" y="202.718437" transform="rotate(-0 666.023594 202.718437)">200</text>
     </g>
    </g>
   </g>
   <g id="matplotlib.axis_20">
    <g id="ytick_21">
     <g id="line2d_59">
      <g>
       <use xlink:href="#m6ac0671530" x="607.48" y="167.008219" style="stroke: #000000; stroke-width: 0.8"/>
      </g>
     </g>
     <g id="text_50">
      <text style="font: 10px 'DejaVu Sans', 'Bitstream Vera Sans', 'Computer Modern Sans Serif', 'Lucida Grande', 'Verdana', 'Geneva', 'Lucid', 'Arial', 'Helvetica', 'Avant Garde', sans-serif; text-anchor: end" x="600.48" y="170.807438" transform="rotate(-0 600.48 170.807438)">0.25</text>
     </g>
    </g>
    <g id="ytick_22">
     <g id="line2d_60">
      <g>
       <use xlink:href="#m6ac0671530" x="607.48" y="144.391541" style="stroke: #000000; stroke-width: 0.8"/>
      </g>
     </g>
     <g id="text_51">
      <text style="font: 10px 'DejaVu Sans', 'Bitstream Vera Sans', 'Computer Modern Sans Serif', 'Lucida Grande', 'Verdana', 'Geneva', 'Lucid', 'Arial', 'Helvetica', 'Avant Garde', sans-serif; text-anchor: end" x="600.48" y="148.19076" transform="rotate(-0 600.48 148.19076)">0.50</text>
     </g>
    </g>
   </g>
   <g id="line2d_61">
    <path d="M 612.103636 176.842325 
L 614.260435 173.956563 
L 618.034832 168.461161 
L 622.887628 161.373586 
L 625.044426 158.649156 
L 627.201224 156.281565 
L 629.358023 154.222133 
L 631.784421 152.205242 
L 634.750019 150.042794 
L 635.019618 149.85966 
L 635.289218 185.389091 
L 636.637217 183.725471 
L 637.985216 181.742737 
L 639.333215 179.403007 
L 640.681214 176.652354 
L 642.298813 172.78087 
L 644.186011 167.573129 
L 651.465205 146.4712 
L 653.891603 140.378596 
L 656.587601 134.211997 
L 658.2052 130.770909 
L 658.4748 174.473683 
L 663.057996 164.93776 
L 665.214795 161.143065 
L 667.371593 157.838767 
L 669.528391 154.955905 
L 672.224389 151.779894 
L 675.189987 148.634269 
L 678.425184 145.512992 
L 681.390782 142.892947 
L 681.660382 177.800296 
L 686.782778 171.194827 
L 693.522772 162.108766 
L 704.576364 146.792844 
L 704.576364 146.792844 
" clip-path="url(#pe93e479293)" style="fill: none; stroke: #0000ff; stroke-width: 1.5; stroke-linecap: square"/>
   </g>
   <g id="line2d_62">
    <path d="M 612.103636 176.593713 
L 612.642836 175.975446 
L 614.260435 173.826709 
L 618.843631 167.138548 
L 621.539629 163.10259 
L 622.618028 161.696449 
L 623.696427 160.163425 
L 627.470824 155.835476 
L 628.279624 155.335991 
L 629.358023 153.83277 
L 630.166822 152.91283 
L 630.706022 152.640123 
L 631.784421 151.92026 
L 632.59322 151.452022 
L 633.13242 151.055704 
L 633.40202 150.617908 
L 633.671619 150.432283 
L 634.210819 150.321292 
L 635.019618 149.288018 
L 635.289218 185.256124 
L 636.367617 183.961857 
L 637.715616 182.036449 
L 638.794015 180.163176 
L 640.681214 176.415366 
L 643.377212 169.586311 
L 650.386806 148.887032 
L 651.195606 147.059161 
L 655.239602 137.075663 
L 655.778802 136.037113 
L 657.9356 131.273331 
L 658.2052 130.996935 
L 658.4748 172.98289 
L 659.013999 171.630352 
L 660.092399 169.140017 
L 661.170798 167.295039 
L 662.249197 165.030533 
L 665.753994 159.604404 
L 666.293194 158.770077 
L 667.101993 157.869835 
L 667.910792 156.716902 
L 668.719592 155.655265 
L 669.528391 155.090358 
L 669.797991 154.714643 
L 670.067591 154.570018 
L 670.87639 153.343624 
L 671.14599 153.119703 
L 671.41559 152.71927 
L 671.954789 152.426033 
L 672.493989 151.960025 
L 672.763589 151.772421 
L 673.033188 151.148038 
L 674.111588 149.756366 
L 674.381187 149.687286 
L 674.920387 149.127656 
L 675.459587 148.488058 
L 676.268386 147.796685 
L 676.807585 146.986186 
L 677.346785 146.526805 
L 677.885985 146.434708 
L 678.155584 146.432656 
L 679.233984 145.141626 
L 679.773183 144.687899 
L 680.581983 143.841415 
L 680.851582 144.162598 
L 681.121182 143.93229 
L 681.390782 143.278767 
L 681.660382 177.241095 
L 684.625979 173.485793 
L 685.704378 172.193939 
L 690.826774 165.643862 
L 691.365974 164.876946 
L 691.635574 164.864336 
L 692.174773 163.960015 
L 692.444373 163.810022 
L 692.983573 162.980963 
L 694.061972 161.70296 
L 694.601171 160.816945 
L 694.870771 160.492624 
L 695.140371 160.407235 
L 695.409971 159.808451 
L 695.679571 159.544351 
L 696.48837 158.304072 
L 699.184368 154.791256 
L 699.453968 154.737692 
L 700.262767 153.267858 
L 700.532367 152.93754 
L 700.801967 152.420527 
L 701.071566 152.269784 
L 702.958765 149.491381 
L 703.228365 149.31386 
L 703.497964 148.660418 
L 703.767564 148.463723 
L 704.037164 147.879509 
L 704.576364 147.689697 
L 704.576364 147.689697 
" clip-path="url(#pe93e479293)" style="fill: none; stroke: #ffa500; stroke-width: 1.5; stroke-linecap: square"/>
   </g>
   <g id="patch_48">
    <path d="M 607.48 188.12 
L 607.48 128.04 
" style="fill: none; stroke: #000000; stroke-width: 0.8; stroke-linejoin: miter; stroke-linecap: square"/>
   </g>
   <g id="patch_49">
    <path d="M 709.2 188.12 
L 709.2 128.04 
" style="fill: none; stroke: #000000; stroke-width: 0.8; stroke-linejoin: miter; stroke-linecap: square"/>
   </g>
   <g id="patch_50">
    <path d="M 607.48 188.12 
L 709.2 188.12 
" style="fill: none; stroke: #000000; stroke-width: 0.8; stroke-linejoin: miter; stroke-linecap: square"/>
   </g>
   <g id="patch_51">
    <path d="M 607.48 128.04 
L 709.2 128.04 
" style="fill: none; stroke: #000000; stroke-width: 0.8; stroke-linejoin: miter; stroke-linecap: square"/>
   </g>
   <g id="text_52">
    <text style="font: 12px 'DejaVu Sans', 'Bitstream Vera Sans', 'Computer Modern Sans Serif', 'Lucida Grande', 'Verdana', 'Geneva', 'Lucid', 'Arial', 'Helvetica', 'Avant Garde', sans-serif; text-anchor: middle" x="658.34" y="122.04" transform="rotate(-0 658.34 122.04)">Testing 5</text>
   </g>
  </g>
 </g>
 <defs>
  <clipPath id="p1ac896a8dc">
   <rect x="40.12" y="25.44" width="101.72" height="60.08"/>
  </clipPath>
  <clipPath id="pc6ae7145c7">
   <rect x="181.96" y="25.44" width="101.72" height="60.08"/>
  </clipPath>
  <clipPath id="p432ac7fe5a">
   <rect x="323.8" y="25.44" width="101.72" height="60.08"/>
  </clipPath>
  <clipPath id="pcb177ef2ed">
   <rect x="465.64" y="25.44" width="101.72" height="60.08"/>
  </clipPath>
  <clipPath id="p6ad9ee342a">
   <rect x="607.48" y="25.44" width="101.72" height="60.08"/>
  </clipPath>
  <clipPath id="pdf0885de5c">
   <rect x="40.12" y="128.04" width="101.72" height="60.08"/>
  </clipPath>
  <clipPath id="pfd997de09f">
   <rect x="181.96" y="128.04" width="101.72" height="60.08"/>
  </clipPath>
  <clipPath id="p62b29f4809">
   <rect x="323.8" y="128.04" width="101.72" height="60.08"/>
  </clipPath>
  <clipPath id="pcdc2a62b4e">
   <rect x="465.64" y="128.04" width="101.72" height="60.08"/>
  </clipPath>
  <clipPath id="pe93e479293">
   <rect x="607.48" y="128.04" width="101.72" height="60.08"/>
  </clipPath>
 </defs>
</svg>
