<?xml version="1.0" encoding="utf-8" standalone="no"?>
<!DOCTYPE svg PUBLIC "-//W3C//DTD SVG 1.1//EN"
  "http://www.w3.org/Graphics/SVG/1.1/DTD/svg11.dtd">
<svg xmlns:xlink="http://www.w3.org/1999/xlink" width="288pt" height="144pt" viewBox="0 0 288 144" xmlns="http://www.w3.org/2000/svg" version="1.1">
 <metadata>
  <rdf:RDF xmlns:dc="http://purl.org/dc/elements/1.1/" xmlns:cc="http://creativecommons.org/ns#" xmlns:rdf="http://www.w3.org/1999/02/22-rdf-syntax-ns#">
   <cc:Work>
    <dc:type rdf:resource="http://purl.org/dc/dcmitype/StillImage"/>
    <dc:date>2025-03-13T13:09:43.262907</dc:date>
    <dc:format>image/svg+xml</dc:format>
    <dc:creator>
     <cc:Agent>
      <dc:title>Matplotlib v3.8.4, https://matplotlib.org/</dc:title>
     </cc:Agent>
    </dc:creator>
   </cc:Work>
  </rdf:RDF>
 </metadata>
 <defs>
  <style type="text/css">*{stroke-linejoin: round; stroke-linecap: butt}</style>
 </defs>
 <g id="figure_1">
  <g id="patch_1">
   <path d="M 0 144 
L 288 144 
L 288 0 
L 0 0 
z
" style="fill: #ffffff"/>
  </g>
  <g id="axes_1">
   <g id="patch_2">
    <path d="M 36 128.16 
L 259.2 128.16 
L 259.2 17.28 
L 36 17.28 
z
" style="fill: #ffffff"/>
   </g>
   <g id="matplotlib.axis_1">
    <g id="xtick_1">
     <g id="line2d_1">
      <defs>
       <path id="m851fd14d34" d="M 0 0 
L 0 3.5 
" style="stroke: #000000; stroke-width: 0.8"/>
      </defs>
      <g>
       <use xlink:href="#m851fd14d34" x="46.145455" y="128.16" style="stroke: #000000; stroke-width: 0.8"/>
      </g>
     </g>
     <g id="text_1">
      <text style="font: 10px 'DejaVu Sans', 'Bitstream Vera Sans', 'Computer Modern Sans Serif', 'Lucida Grande', 'Verdana', 'Geneva', 'Lucid', 'Arial', 'Helvetica', 'Avant Garde', sans-serif; text-anchor: middle" x="46.145455" y="142.758438" transform="rotate(-0 46.145455 142.758438)">0</text>
     </g>
    </g>
    <g id="xtick_2">
     <g id="line2d_2">
      <g>
       <use xlink:href="#m851fd14d34" x="96.999863" y="128.16" style="stroke: #000000; stroke-width: 0.8"/>
      </g>
     </g>
     <g id="text_2">
      <text style="font: 10px 'DejaVu Sans', 'Bitstream Vera Sans', 'Computer Modern Sans Serif', 'Lucida Grande', 'Verdana', 'Geneva', 'Lucid', 'Arial', 'Helvetica', 'Avant Garde', sans-serif; text-anchor: middle" x="96.999863" y="142.758438" transform="rotate(-0 96.999863 142.758438)">100</text>
     </g>
    </g>
    <g id="xtick_3">
     <g id="line2d_3">
      <g>
       <use xlink:href="#m851fd14d34" x="147.854272" y="128.16" style="stroke: #000000; stroke-width: 0.8"/>
      </g>
     </g>
     <g id="text_3">
      <text style="font: 10px 'DejaVu Sans', 'Bitstream Vera Sans', 'Computer Modern Sans Serif', 'Lucida Grande', 'Verdana', 'Geneva', 'Lucid', 'Arial', 'Helvetica', 'Avant Garde', sans-serif; text-anchor: middle" x="147.854272" y="142.758438" transform="rotate(-0 147.854272 142.758438)">200</text>
     </g>
    </g>
    <g id="xtick_4">
     <g id="line2d_4">
      <g>
       <use xlink:href="#m851fd14d34" x="198.708681" y="128.16" style="stroke: #000000; stroke-width: 0.8"/>
      </g>
     </g>
     <g id="text_4">
      <text style="font: 10px 'DejaVu Sans', 'Bitstream Vera Sans', 'Computer Modern Sans Serif', 'Lucida Grande', 'Verdana', 'Geneva', 'Lucid', 'Arial', 'Helvetica', 'Avant Garde', sans-serif; text-anchor: middle" x="198.708681" y="142.758438" transform="rotate(-0 198.708681 142.758438)">300</text>
     </g>
    </g>
    <g id="xtick_5">
     <g id="line2d_5">
      <g>
       <use xlink:href="#m851fd14d34" x="249.56309" y="128.16" style="stroke: #000000; stroke-width: 0.8"/>
      </g>
     </g>
     <g id="text_5">
      <text style="font: 10px 'DejaVu Sans', 'Bitstream Vera Sans', 'Computer Modern Sans Serif', 'Lucida Grande', 'Verdana', 'Geneva', 'Lucid', 'Arial', 'Helvetica', 'Avant Garde', sans-serif; text-anchor: middle" x="249.56309" y="142.758438" transform="rotate(-0 249.56309 142.758438)">400</text>
     </g>
    </g>
    <g id="text_6">
     <text style="font: 10px 'DejaVu Sans', 'Bitstream Vera Sans', 'Computer Modern Sans Serif', 'Lucida Grande', 'Verdana', 'Geneva', 'Lucid', 'Arial', 'Helvetica', 'Avant Garde', sans-serif; text-anchor: middle" x="147.6" y="156.436563" transform="rotate(-0 147.6 156.436563)">Epoch</text>
    </g>
   </g>
   <g id="matplotlib.axis_2">
    <g id="ytick_1">
     <g id="line2d_6">
      <defs>
       <path id="m1ce1947bdc" d="M 0 0 
L -3.5 0 
" style="stroke: #000000; stroke-width: 0.8"/>
      </defs>
      <g>
       <use xlink:href="#m1ce1947bdc" x="36" y="101.493774" style="stroke: #000000; stroke-width: 0.8"/>
      </g>
     </g>
     <g id="text_7">
      <!-- $\mathdefault{10^{-3}}$ -->
      <g transform="translate(5.5 105.292993)">
       <text>
        <tspan style="font: 10px 'DejaVu Sans'" x="0 6.362305" y="-0.9765625">10</tspan>
        <tspan style="font: 7px 'DejaVu Sans'" x="12.820312 18.685547" y="-4.8046875">−3</tspan>
       </text>
      </g>
     </g>
    </g>
    <g id="ytick_2">
     <g id="line2d_7">
      <g>
       <use xlink:href="#m1ce1947bdc" x="36" y="64.827732" style="stroke: #000000; stroke-width: 0.8"/>
      </g>
     </g>
     <g id="text_8">
      <!-- $\mathdefault{10^{-2}}$ -->
      <g transform="translate(5.5 68.626951)">
       <text>
        <tspan style="font: 10px 'DejaVu Sans'" x="0 6.362305" y="-0.9765625">10</tspan>
        <tspan style="font: 7px 'DejaVu Sans'" x="12.820312 18.685547" y="-4.8046875">−2</tspan>
       </text>
      </g>
     </g>
    </g>
    <g id="ytick_3">
     <g id="line2d_8">
      <g>
       <use xlink:href="#m1ce1947bdc" x="36" y="28.16169" style="stroke: #000000; stroke-width: 0.8"/>
      </g>
     </g>
     <g id="text_9">
      <!-- $\mathdefault{10^{-1}}$ -->
      <g transform="translate(5.5 31.960908)">
       <text>
        <tspan style="font: 10px 'DejaVu Sans'" x="0 6.362305" y="-0.06406250000000036">10</tspan>
        <tspan style="font: 7px 'DejaVu Sans'" x="12.820312 18.685547" y="-3.8921875000000004">−1</tspan>
       </text>
      </g>
     </g>
    </g>
    <g id="ytick_4">
     <g id="line2d_9">
      <defs>
       <path id="ma5416ab08a" d="M 0 0 
L -2 0 
" style="stroke: #000000; stroke-width: 0.6"/>
      </defs>
      <g>
       <use xlink:href="#ma5416ab08a" x="36" y="127.122238" style="stroke: #000000; stroke-width: 0.6"/>
      </g>
     </g>
    </g>
    <g id="ytick_5">
     <g id="line2d_10">
      <g>
       <use xlink:href="#ma5416ab08a" x="36" y="120.665668" style="stroke: #000000; stroke-width: 0.6"/>
      </g>
     </g>
    </g>
    <g id="ytick_6">
     <g id="line2d_11">
      <g>
       <use xlink:href="#ma5416ab08a" x="36" y="116.084659" style="stroke: #000000; stroke-width: 0.6"/>
      </g>
     </g>
    </g>
    <g id="ytick_7">
     <g id="line2d_12">
      <g>
       <use xlink:href="#ma5416ab08a" x="36" y="112.531353" style="stroke: #000000; stroke-width: 0.6"/>
      </g>
     </g>
    </g>
    <g id="ytick_8">
     <g id="line2d_13">
      <g>
       <use xlink:href="#ma5416ab08a" x="36" y="109.62809" style="stroke: #000000; stroke-width: 0.6"/>
      </g>
     </g>
    </g>
    <g id="ytick_9">
     <g id="line2d_14">
      <g>
       <use xlink:href="#ma5416ab08a" x="36" y="107.173416" style="stroke: #000000; stroke-width: 0.6"/>
      </g>
     </g>
    </g>
    <g id="ytick_10">
     <g id="line2d_15">
      <g>
       <use xlink:href="#ma5416ab08a" x="36" y="105.047081" style="stroke: #000000; stroke-width: 0.6"/>
      </g>
     </g>
    </g>
    <g id="ytick_11">
     <g id="line2d_16">
      <g>
       <use xlink:href="#ma5416ab08a" x="36" y="103.17152" style="stroke: #000000; stroke-width: 0.6"/>
      </g>
     </g>
    </g>
    <g id="ytick_12">
     <g id="line2d_17">
      <g>
       <use xlink:href="#ma5416ab08a" x="36" y="90.456195" style="stroke: #000000; stroke-width: 0.6"/>
      </g>
     </g>
    </g>
    <g id="ytick_13">
     <g id="line2d_18">
      <g>
       <use xlink:href="#ma5416ab08a" x="36" y="83.999626" style="stroke: #000000; stroke-width: 0.6"/>
      </g>
     </g>
    </g>
    <g id="ytick_14">
     <g id="line2d_19">
      <g>
       <use xlink:href="#ma5416ab08a" x="36" y="79.418617" style="stroke: #000000; stroke-width: 0.6"/>
      </g>
     </g>
    </g>
    <g id="ytick_15">
     <g id="line2d_20">
      <g>
       <use xlink:href="#ma5416ab08a" x="36" y="75.86531" style="stroke: #000000; stroke-width: 0.6"/>
      </g>
     </g>
    </g>
    <g id="ytick_16">
     <g id="line2d_21">
      <g>
       <use xlink:href="#ma5416ab08a" x="36" y="72.962047" style="stroke: #000000; stroke-width: 0.6"/>
      </g>
     </g>
    </g>
    <g id="ytick_17">
     <g id="line2d_22">
      <g>
       <use xlink:href="#ma5416ab08a" x="36" y="70.507374" style="stroke: #000000; stroke-width: 0.6"/>
      </g>
     </g>
    </g>
    <g id="ytick_18">
     <g id="line2d_23">
      <g>
       <use xlink:href="#ma5416ab08a" x="36" y="68.381038" style="stroke: #000000; stroke-width: 0.6"/>
      </g>
     </g>
    </g>
    <g id="ytick_19">
     <g id="line2d_24">
      <g>
       <use xlink:href="#ma5416ab08a" x="36" y="66.505478" style="stroke: #000000; stroke-width: 0.6"/>
      </g>
     </g>
    </g>
    <g id="ytick_20">
     <g id="line2d_25">
      <g>
       <use xlink:href="#ma5416ab08a" x="36" y="53.790153" style="stroke: #000000; stroke-width: 0.6"/>
      </g>
     </g>
    </g>
    <g id="ytick_21">
     <g id="line2d_26">
      <g>
       <use xlink:href="#ma5416ab08a" x="36" y="47.333584" style="stroke: #000000; stroke-width: 0.6"/>
      </g>
     </g>
    </g>
    <g id="ytick_22">
     <g id="line2d_27">
      <g>
       <use xlink:href="#ma5416ab08a" x="36" y="42.752575" style="stroke: #000000; stroke-width: 0.6"/>
      </g>
     </g>
    </g>
    <g id="ytick_23">
     <g id="line2d_28">
      <g>
       <use xlink:href="#ma5416ab08a" x="36" y="39.199268" style="stroke: #000000; stroke-width: 0.6"/>
      </g>
     </g>
    </g>
    <g id="ytick_24">
     <g id="line2d_29">
      <g>
       <use xlink:href="#ma5416ab08a" x="36" y="36.296005" style="stroke: #000000; stroke-width: 0.6"/>
      </g>
     </g>
    </g>
    <g id="ytick_25">
     <g id="line2d_30">
      <g>
       <use xlink:href="#ma5416ab08a" x="36" y="33.841331" style="stroke: #000000; stroke-width: 0.6"/>
      </g>
     </g>
    </g>
    <g id="ytick_26">
     <g id="line2d_31">
      <g>
       <use xlink:href="#ma5416ab08a" x="36" y="31.714996" style="stroke: #000000; stroke-width: 0.6"/>
      </g>
     </g>
    </g>
    <g id="ytick_27">
     <g id="line2d_32">
      <g>
       <use xlink:href="#ma5416ab08a" x="36" y="29.839436" style="stroke: #000000; stroke-width: 0.6"/>
      </g>
     </g>
    </g>
    <g id="text_10">
     <text style="font: 10px 'DejaVu Sans', 'Bitstream Vera Sans', 'Computer Modern Sans Serif', 'Lucida Grande', 'Verdana', 'Geneva', 'Lucid', 'Arial', 'Helvetica', 'Avant Garde', sans-serif; text-anchor: middle" x="-0.579687" y="72.72" transform="rotate(-90 -0.579687 72.72)">Loss</text>
    </g>
   </g>
   <g id="line2d_33">
    <path d="M 46.145455 22.32 
L 46.653999 55.165501 
L 47.162543 60.775454 
L 48.179631 65.490325 
L 49.196719 68.872842 
L 49.705263 70.679227 
L 50.213807 72.9344 
L 50.722351 72.956973 
L 51.230895 70.546927 
L 51.73944 76.519907 
L 53.265072 80.839856 
L 53.773616 80.67151 
L 54.28216 76.634144 
L 54.790704 82.679516 
L 55.299248 84.0318 
L 55.807792 84.081847 
L 56.316336 85.443539 
L 56.82488 85.7421 
L 57.333424 85.465971 
L 57.841969 86.405447 
L 58.350513 87.967223 
L 59.367601 88.236162 
L 59.876145 88.029285 
L 60.384689 88.703237 
L 60.893233 88.947054 
L 61.401777 90.946677 
L 61.910321 91.149599 
L 62.927409 92.630791 
L 63.435954 92.653172 
L 63.944498 93.46928 
L 64.453042 93.564374 
L 64.961586 93.269613 
L 65.47013 94.242075 
L 65.978674 93.761712 
L 66.487218 94.470725 
L 66.995762 95.503403 
L 67.504306 94.706824 
L 68.01285 95.814129 
L 68.521394 95.34218 
L 69.029938 95.387088 
L 69.538483 96.123348 
L 70.047027 95.762226 
L 70.555571 95.592205 
L 71.064115 96.915491 
L 71.572659 97.557589 
L 72.589747 98.36413 
L 73.098291 98.671185 
L 73.606835 98.647832 
L 74.115379 97.988901 
L 74.623923 97.932434 
L 75.132468 98.095523 
L 75.641012 97.44596 
L 76.149556 99.583099 
L 76.6581 99.075618 
L 77.166644 100.479322 
L 77.675188 100.077021 
L 78.183732 100.116688 
L 78.692276 100.792446 
L 79.20082 100.509281 
L 79.709364 101.323628 
L 80.217908 101.052495 
L 80.726452 101.784708 
L 81.234997 102.304462 
L 81.743541 99.78329 
L 82.252085 93.310113 
L 82.760629 100.399739 
L 83.269173 102.628421 
L 84.286261 103.438694 
L 84.794805 102.24443 
L 85.303349 102.1728 
L 85.811893 101.05933 
L 86.320437 103.693952 
L 86.828982 103.459473 
L 87.337526 103.920094 
L 88.354614 103.392827 
L 88.863158 102.514376 
L 89.371702 104.555832 
L 89.880246 104.857345 
L 90.38879 104.328263 
L 90.897334 105.008318 
L 91.405878 104.431972 
L 91.914422 102.138954 
L 92.422967 104.991619 
L 92.931511 104.166901 
L 93.440055 99.47762 
L 93.948599 105.327411 
L 94.457143 106.090696 
L 94.965687 106.075786 
L 95.474231 106.493448 
L 95.982775 104.781691 
L 96.491319 106.346057 
L 96.999863 103.253122 
L 97.508407 106.229182 
L 98.016951 106.213199 
L 98.525496 106.722199 
L 99.03404 105.048597 
L 99.542584 107.011977 
L 100.051128 108.083348 
L 100.559672 106.288955 
L 101.068216 108.019466 
L 101.57676 106.469345 
L 102.085304 103.742461 
L 102.593848 108.597164 
L 103.102392 108.384222 
L 103.610936 108.956616 
L 104.119481 108.553152 
L 104.628025 109.29728 
L 105.645113 102.833868 
L 106.153657 108.325453 
L 106.662201 107.811744 
L 107.170745 109.38204 
L 107.679289 109.976276 
L 108.187833 110.240463 
L 108.696377 109.884635 
L 109.204921 109.666199 
L 109.713465 110.386895 
L 110.22201 109.15715 
L 110.730554 109.679843 
L 111.239098 110.391328 
L 111.747642 110.427306 
L 112.76473 109.690414 
L 113.273274 110.295775 
L 113.781818 111.280255 
L 114.290362 110.291025 
L 114.798906 110.881494 
L 115.815995 110.611986 
L 116.324539 109.41573 
L 116.833083 111.135149 
L 117.341627 108.846552 
L 117.850171 111.408065 
L 118.358715 112.315719 
L 118.867259 112.079719 
L 119.375803 111.546187 
L 120.901435 112.110728 
L 121.409979 112.636264 
L 121.918524 111.643103 
L 122.427068 112.599265 
L 122.935612 112.458452 
L 123.444156 110.508463 
L 123.9527 112.596178 
L 124.461244 111.94588 
L 124.969788 112.824597 
L 125.986876 112.965471 
L 127.003964 111.039311 
L 127.512509 112.570151 
L 128.021053 113.2198 
L 128.529597 113.299407 
L 129.038141 113.804316 
L 129.546685 113.561586 
L 130.563773 113.890636 
L 131.072317 114.333008 
L 131.580861 114.243999 
L 132.089405 113.826903 
L 132.597949 114.488935 
L 133.106494 113.93594 
L 133.615038 113.858366 
L 134.123582 114.9909 
L 134.632126 114.755385 
L 135.14067 113.614862 
L 135.649214 113.901658 
L 136.157758 109.450975 
L 136.666302 114.964554 
L 137.174846 115.222216 
L 137.68339 115.696461 
L 138.191934 115.286376 
L 138.700478 115.705657 
L 139.209023 115.399237 
L 139.717567 115.42724 
L 140.226111 114.922706 
L 140.734655 115.854751 
L 141.243199 115.432002 
L 141.751743 115.344611 
L 142.260287 116.072526 
L 142.768831 115.65348 
L 143.277375 115.672126 
L 144.294463 116.201356 
L 144.803008 115.566334 
L 145.311552 114.655964 
L 145.820096 111.201941 
L 146.32864 116.488208 
L 146.837184 116.768993 
L 147.345728 115.45116 
L 147.854272 116.452569 
L 148.362816 117.11619 
L 148.87136 117.112144 
L 149.379904 116.694023 
L 149.888448 116.584563 
L 150.905537 116.560846 
L 151.414081 116.932879 
L 151.922625 117.008998 
L 152.431169 116.90771 
L 152.939713 117.366609 
L 153.448257 116.806286 
L 153.956801 117.357376 
L 154.465345 117.398036 
L 154.973889 117.671048 
L 155.482433 117.61042 
L 155.990977 117.381582 
L 156.499522 117.535339 
L 157.008066 117.923921 
L 157.51661 115.816888 
L 158.025154 117.288561 
L 158.533698 118.130895 
L 159.042242 117.860977 
L 160.05933 117.605641 
L 160.567874 118.075888 
L 161.076418 117.651041 
L 161.584962 118.013883 
L 162.093506 118.215674 
L 162.602051 118.557805 
L 163.110595 118.560277 
L 163.619139 118.369965 
L 164.127683 118.685202 
L 164.636227 118.375444 
L 165.144771 118.250061 
L 165.653315 118.455096 
L 166.161859 118.238022 
L 167.178947 118.614905 
L 167.687491 118.350752 
L 168.196036 118.546951 
L 168.70458 119.181168 
L 169.213124 118.968382 
L 170.230212 118.974286 
L 170.738756 116.495943 
L 171.2473 114.727602 
L 171.755844 119.483593 
L 172.264388 119.386218 
L 173.281476 119.839036 
L 173.790021 119.552404 
L 174.298565 119.120583 
L 174.807109 119.348173 
L 175.315653 119.44629 
L 175.824197 119.741272 
L 176.841285 119.587007 
L 177.349829 119.871364 
L 177.858373 119.533175 
L 178.366917 119.802201 
L 178.875461 119.579282 
L 179.384005 119.908298 
L 179.89255 119.47885 
L 180.401094 119.839874 
L 180.909638 120.017456 
L 181.418182 119.758639 
L 181.926726 119.707148 
L 182.43527 118.80238 
L 182.943814 120.104682 
L 183.960902 120.474863 
L 184.97799 119.905925 
L 185.486535 120.14813 
L 186.503623 120.148373 
L 187.012167 120.556888 
L 188.537799 120.054039 
L 189.046343 120.130678 
L 189.554887 120.604708 
L 190.063431 120.746502 
L 191.080519 119.987755 
L 192.097608 120.616403 
L 192.606152 120.759625 
L 194.131784 120.580781 
L 194.640328 120.848858 
L 195.148872 120.789064 
L 195.657416 120.853508 
L 196.16596 120.78858 
L 196.674504 121.121948 
L 197.183049 121.191717 
L 197.691593 120.90914 
L 198.708681 119.952049 
L 199.217225 120.919958 
L 199.725769 121.314383 
L 200.234313 121.050935 
L 200.742857 121.335871 
L 201.759945 121.382399 
L 202.268489 120.844119 
L 202.777033 120.697069 
L 204.302666 121.190105 
L 204.81121 121.636463 
L 205.319754 121.679588 
L 205.828298 121.459678 
L 206.336842 121.64898 
L 206.845386 121.462701 
L 207.35393 121.613359 
L 207.862474 121.443463 
L 208.879563 121.743237 
L 209.388107 121.593228 
L 209.896651 121.831286 
L 210.913739 121.816127 
L 211.422283 121.664903 
L 211.930827 121.840443 
L 212.439371 121.766679 
L 213.456459 121.909866 
L 213.965003 121.659413 
L 214.473548 121.659184 
L 214.982092 122.144926 
L 215.490636 121.726374 
L 215.99918 121.730396 
L 216.507724 121.856614 
L 217.016268 122.164112 
L 218.033356 121.29884 
L 218.5419 121.99197 
L 219.050444 122.227229 
L 220.067532 122.182563 
L 220.576077 121.921667 
L 221.593165 122.120739 
L 222.101709 122.05476 
L 222.610253 122.221077 
L 223.118797 122.228173 
L 223.627341 122.356558 
L 224.135885 122.175173 
L 224.644429 122.296603 
L 225.152973 121.130183 
L 225.661517 120.700128 
L 226.170062 122.232097 
L 226.678606 122.369795 
L 227.18715 122.686092 
L 228.204238 122.494069 
L 228.712782 122.647105 
L 229.221326 122.534032 
L 229.72987 122.55612 
L 230.238414 122.307476 
L 230.746958 122.298476 
L 231.255502 122.593542 
L 231.764046 122.661823 
L 232.272591 122.561406 
L 232.781135 122.580641 
L 233.289679 122.737316 
L 234.306767 122.689097 
L 234.815311 122.629076 
L 235.323855 122.368041 
L 235.832399 122.562809 
L 236.340943 122.894434 
L 237.358031 122.64564 
L 237.866576 122.849748 
L 238.37512 122.773387 
L 238.883664 122.859667 
L 239.392208 122.723783 
L 241.934928 122.875345 
L 244.986193 122.876965 
L 245.494737 123.035408 
L 246.511825 122.912082 
L 247.528913 123.12 
L 248.037457 123.067954 
L 248.546001 122.87235 
L 249.054545 123.086155 
L 249.054545 123.086155 
" clip-path="url(#pa393b92cc2)" style="fill: none; stroke: #1f77b4; stroke-width: 1.5; stroke-linecap: square"/>
   </g>
   <g id="line2d_34">
    <path d="M 46.145455 48.672403 
L 46.653999 59.848318 
L 47.671087 65.092613 
L 49.196719 69.501205 
L 50.213807 72.35502 
L 50.722351 53.755439 
L 51.230895 73.893936 
L 51.73944 77.753207 
L 52.247984 76.092151 
L 52.756528 78.814135 
L 53.265072 77.215562 
L 53.773616 63.577054 
L 54.28216 78.41068 
L 54.790704 81.682569 
L 55.299248 83.034571 
L 55.807792 81.984208 
L 56.316336 82.758306 
L 56.82488 81.106668 
L 57.333424 80.6378 
L 57.841969 84.027414 
L 58.350513 84.369894 
L 58.859057 81.713832 
L 59.367601 84.368316 
L 59.876145 85.87602 
L 60.384689 81.656724 
L 60.893233 86.317082 
L 61.401777 87.535892 
L 61.910321 87.548238 
L 62.418865 88.717727 
L 62.927409 88.663402 
L 63.435954 86.415455 
L 63.944498 89.179485 
L 64.453042 86.837489 
L 64.961586 87.584261 
L 65.47013 91.622021 
L 65.978674 90.222995 
L 66.487218 87.349332 
L 67.504306 91.522117 
L 68.521394 88.251708 
L 69.029938 89.847941 
L 69.538483 91.825737 
L 70.047027 85.357388 
L 70.555571 93.49021 
L 71.572659 91.345055 
L 72.081203 90.951633 
L 72.589747 90.253132 
L 73.098291 92.900158 
L 73.606835 86.447636 
L 74.115379 92.10934 
L 74.623923 93.962685 
L 75.132468 89.278123 
L 75.641012 93.874148 
L 76.149556 88.241448 
L 76.6581 93.739211 
L 77.166644 91.63242 
L 77.675188 94.868592 
L 78.183732 93.28697 
L 78.692276 95.192227 
L 79.20082 93.625328 
L 79.709364 94.130038 
L 80.217908 93.089139 
L 80.726452 95.231297 
L 81.234997 91.547347 
L 81.743541 88.97708 
L 82.252085 92.874663 
L 82.760629 94.857594 
L 83.269173 94.246738 
L 83.777717 94.612814 
L 84.286261 94.385547 
L 84.794805 95.270528 
L 85.303349 91.279489 
L 85.811893 96.119272 
L 86.320437 95.644434 
L 86.828982 97.546575 
L 87.337526 96.201908 
L 87.84607 96.410651 
L 88.354614 95.636495 
L 88.863158 96.269364 
L 89.371702 97.426341 
L 89.880246 95.849855 
L 90.38879 96.281088 
L 90.897334 98.267542 
L 91.405878 94.214113 
L 91.914422 97.95158 
L 92.422967 98.402014 
L 92.931511 94.643348 
L 93.440055 97.938809 
L 93.948599 97.363984 
L 94.457143 95.470324 
L 94.965687 97.633811 
L 95.474231 97.918505 
L 95.982775 98.570633 
L 96.491319 94.545618 
L 96.999863 96.757664 
L 97.508407 97.508963 
L 98.016951 99.749666 
L 98.525496 95.440784 
L 99.03404 99.910349 
L 99.542584 99.097971 
L 100.051128 96.841944 
L 100.559672 98.378619 
L 101.068216 95.879994 
L 101.57676 89.25791 
L 102.085304 99.76966 
L 102.593848 98.623277 
L 103.102392 99.388105 
L 103.610936 98.467992 
L 104.628025 98.629012 
L 105.136569 93.369522 
L 105.645113 98.083188 
L 106.153657 96.874232 
L 106.662201 99.308251 
L 107.170745 99.213202 
L 107.679289 100.930191 
L 108.187833 100.628016 
L 109.204921 99.607144 
L 109.713465 99.909157 
L 110.22201 99.976545 
L 110.730554 100.238675 
L 111.239098 99.011831 
L 111.747642 100.575519 
L 112.256186 99.978052 
L 113.273274 100.774935 
L 113.781818 100.203301 
L 114.290362 99.82216 
L 114.798906 99.943851 
L 115.30745 99.384846 
L 115.815995 97.095336 
L 116.324539 99.835001 
L 116.833083 100.120501 
L 117.341627 100.798637 
L 117.850171 100.257112 
L 118.358715 100.611363 
L 118.867259 100.437762 
L 119.375803 99.863376 
L 119.884347 99.623172 
L 120.392891 101.153704 
L 121.409979 101.327399 
L 121.918524 100.925214 
L 122.427068 101.146812 
L 122.935612 99.548167 
L 123.444156 99.502815 
L 123.9527 99.978014 
L 124.461244 101.02061 
L 124.969788 100.793531 
L 125.478332 100.415346 
L 125.986876 100.571759 
L 126.49542 100.323256 
L 127.512509 101.512324 
L 128.021053 101.366215 
L 128.529597 101.69747 
L 129.038141 100.730608 
L 129.546685 101.752676 
L 130.055229 101.526905 
L 130.563773 101.523045 
L 131.072317 102.00412 
L 131.580861 102.099118 
L 132.089405 101.283788 
L 132.597949 101.46075 
L 133.106494 101.912677 
L 133.615038 101.866046 
L 134.123582 101.307881 
L 134.632126 101.621913 
L 135.14067 101.502618 
L 135.649214 98.644591 
L 136.157758 101.992086 
L 136.666302 102.04552 
L 137.174846 101.888777 
L 137.68339 102.827165 
L 138.191934 102.871856 
L 138.700478 102.331956 
L 139.209023 101.532522 
L 140.226111 101.454902 
L 140.734655 102.829299 
L 141.243199 101.709599 
L 141.751743 102.485128 
L 142.768831 100.718182 
L 143.277375 102.5911 
L 143.785919 101.224988 
L 144.803008 102.647512 
L 145.311552 100.063388 
L 145.820096 102.518934 
L 146.837184 101.967105 
L 147.345728 102.887347 
L 147.854272 102.086866 
L 148.87136 102.800229 
L 149.888448 102.726851 
L 150.396992 102.383932 
L 150.905537 102.884662 
L 151.414081 102.599466 
L 151.922625 100.90398 
L 152.431169 102.662232 
L 152.939713 102.406723 
L 153.448257 102.815625 
L 153.956801 102.374145 
L 154.465345 102.559051 
L 154.973889 103.468069 
L 155.990977 102.328386 
L 156.499522 103.289111 
L 157.008066 102.733366 
L 157.51661 103.086815 
L 158.025154 102.925487 
L 158.533698 103.391115 
L 159.042242 102.126964 
L 159.550786 103.051197 
L 160.05933 103.586567 
L 160.567874 101.691086 
L 161.076418 103.15083 
L 161.584962 103.679732 
L 162.093506 103.543443 
L 162.602051 103.28078 
L 163.110595 103.575903 
L 163.619139 102.95088 
L 164.127683 103.023956 
L 164.636227 103.245757 
L 165.144771 103.335699 
L 165.653315 102.735365 
L 166.161859 103.296356 
L 166.670403 103.397875 
L 167.178947 103.660683 
L 167.687491 103.182438 
L 168.196036 103.791349 
L 168.70458 103.60403 
L 169.213124 103.538375 
L 169.721668 102.964124 
L 170.230212 103.323087 
L 170.738756 102.987561 
L 171.2473 102.922606 
L 171.755844 103.468377 
L 172.772932 102.944057 
L 173.281476 103.840271 
L 173.790021 103.531871 
L 174.298565 103.425814 
L 174.807109 103.729487 
L 175.315653 103.617029 
L 175.824197 102.701483 
L 176.332741 103.608328 
L 176.841285 104.020434 
L 177.349829 102.467393 
L 177.858373 103.209487 
L 178.366917 103.579561 
L 178.875461 103.714295 
L 179.384005 103.63222 
L 179.89255 102.434375 
L 180.401094 103.877858 
L 180.909638 103.725353 
L 181.418182 103.926689 
L 181.926726 103.776328 
L 182.43527 103.781372 
L 182.943814 104.165057 
L 183.452358 104.103067 
L 183.960902 103.67317 
L 184.469446 103.424649 
L 185.995079 103.880548 
L 186.503623 103.430432 
L 187.012167 103.775215 
L 188.029255 102.7969 
L 188.537799 103.499725 
L 189.046343 104.002078 
L 189.554887 104.177496 
L 190.063431 104.1364 
L 190.571975 103.911585 
L 191.080519 103.853352 
L 191.589064 104.223003 
L 192.097608 103.938665 
L 192.606152 104.026739 
L 193.114696 103.960569 
L 193.62324 103.523201 
L 194.131784 104.006424 
L 196.16596 104.342598 
L 197.183049 104.271331 
L 197.691593 103.93706 
L 198.200137 103.883743 
L 198.708681 104.093046 
L 199.725769 104.204913 
L 200.234313 104.449782 
L 201.251401 104.193997 
L 201.759945 104.264452 
L 202.268489 104.173411 
L 202.777033 104.542022 
L 203.285578 104.31581 
L 203.794122 104.41769 
L 204.302666 104.288657 
L 204.81121 104.485872 
L 205.319754 104.555986 
L 205.828298 104.088671 
L 206.845386 104.558994 
L 207.35393 104.635357 
L 207.862474 104.13274 
L 208.371018 104.61775 
L 208.879563 104.75442 
L 210.405195 104.362589 
L 210.913739 104.505287 
L 211.930827 104.240649 
L 213.456459 104.575499 
L 213.965003 104.456704 
L 214.473548 104.782998 
L 214.982092 104.360146 
L 215.490636 104.472444 
L 215.99918 104.327232 
L 216.507724 104.815135 
L 217.524812 104.100905 
L 218.033356 104.268626 
L 218.5419 104.762668 
L 219.050444 104.673311 
L 219.558988 104.423901 
L 220.067532 104.844702 
L 220.576077 104.332075 
L 221.084621 104.427155 
L 221.593165 104.303423 
L 222.610253 104.592794 
L 223.118797 104.545823 
L 223.627341 104.125342 
L 224.135885 104.819348 
L 224.644429 104.446254 
L 225.152973 104.585977 
L 225.661517 104.889338 
L 226.170062 104.55364 
L 226.678606 104.580061 
L 227.18715 104.864556 
L 228.204238 104.581506 
L 229.221326 104.901327 
L 229.72987 104.935217 
L 230.238414 104.772307 
L 230.746958 104.362008 
L 231.255502 104.343905 
L 231.764046 104.718539 
L 232.272591 104.865225 
L 233.289679 104.165185 
L 233.798223 104.693291 
L 234.306767 104.512339 
L 234.815311 104.610299 
L 235.323855 104.416088 
L 235.832399 104.547274 
L 236.340943 104.846431 
L 236.849487 104.616285 
L 237.866576 105.076806 
L 238.883664 104.690512 
L 239.392208 104.639773 
L 239.900752 104.342175 
L 240.409296 104.8298 
L 240.91784 104.721865 
L 241.426384 105.026898 
L 241.934928 104.746242 
L 243.46056 104.932698 
L 243.969105 104.801514 
L 246.003281 104.902857 
L 248.037457 104.67083 
L 248.546001 104.815089 
L 249.054545 104.819096 
L 249.054545 104.819096 
" clip-path="url(#pa393b92cc2)" style="fill: none; stroke: #ff7f0e; stroke-width: 1.5; stroke-linecap: square"/>
   </g>
   <g id="patch_3">
    <path d="M 36 128.16 
L 36 17.28 
" style="fill: none; stroke: #000000; stroke-width: 0.8; stroke-linejoin: miter; stroke-linecap: square"/>
   </g>
   <g id="patch_4">
    <path d="M 259.2 128.16 
L 259.2 17.28 
" style="fill: none; stroke: #000000; stroke-width: 0.8; stroke-linejoin: miter; stroke-linecap: square"/>
   </g>
   <g id="patch_5">
    <path d="M 36 128.16 
L 259.2 128.16 
" style="fill: none; stroke: #000000; stroke-width: 0.8; stroke-linejoin: miter; stroke-linecap: square"/>
   </g>
   <g id="patch_6">
    <path d="M 36 17.28 
L 259.2 17.28 
" style="fill: none; stroke: #000000; stroke-width: 0.8; stroke-linejoin: miter; stroke-linecap: square"/>
   </g>
   <g id="legend_1">
    <g id="patch_7">
     <path d="M 180.748437 54.63625 
L 252.2 54.63625 
Q 254.2 54.63625 254.2 52.63625 
L 254.2 24.28 
Q 254.2 22.28 252.2 22.28 
L 180.748437 22.28 
Q 178.748437 22.28 178.748437 24.28 
L 178.748437 52.63625 
Q 178.748437 54.63625 180.748437 54.63625 
z
" style="fill: #ffffff; opacity: 0.8; stroke: #cccccc; stroke-linejoin: miter"/>
    </g>
    <g id="line2d_35">
     <path d="M 182.748437 30.378438 
L 192.748437 30.378438 
L 202.748437 30.378438 
" style="fill: none; stroke: #1f77b4; stroke-width: 1.5; stroke-linecap: square"/>
    </g>
    <g id="text_11">
     <text style="font: 10px 'DejaVu Sans', 'Bitstream Vera Sans', 'Computer Modern Sans Serif', 'Lucida Grande', 'Verdana', 'Geneva', 'Lucid', 'Arial', 'Helvetica', 'Avant Garde', sans-serif; text-anchor: start" x="210.748437" y="33.878438" transform="rotate(-0 210.748437 33.878438)">Training</text>
    </g>
    <g id="line2d_36">
     <path d="M 182.748437 45.056563 
L 192.748437 45.056563 
L 202.748437 45.056563 
" style="fill: none; stroke: #ff7f0e; stroke-width: 1.5; stroke-linecap: square"/>
    </g>
    <g id="text_12">
     <text style="font: 10px 'DejaVu Sans', 'Bitstream Vera Sans', 'Computer Modern Sans Serif', 'Lucida Grande', 'Verdana', 'Geneva', 'Lucid', 'Arial', 'Helvetica', 'Avant Garde', sans-serif; text-anchor: start" x="210.748437" y="48.556563" transform="rotate(-0 210.748437 48.556563)">Testing</text>
    </g>
   </g>
  </g>
 </g>
 <defs>
  <clipPath id="pa393b92cc2">
   <rect x="36" y="17.28" width="223.2" height="110.88"/>
  </clipPath>
 </defs>
</svg>
